<svg width="400" height="400" viewBox="0 0 400 400" fill="none" xmlns="http://www.w3.org/2000/svg">
<path d="M109.654 315.684C98.196 316.304 86.894 316.922 75.436 316.922C71.978 317.179 68.5123 316.539 65.374 315.064L113.374 313.664C114.002 309.603 115.634 305.762 118.121 302.49C120.608 299.219 123.872 296.62 127.618 294.928C124.218 290.44 116.782 289.202 115.698 283.626C114.924 279.756 118.02 276.35 120.652 273.562C105 273 99.8 246.216 110.736 240.748C112.286 239.974 114.136 239.666 115.536 238.892C116.336 238.558 117.001 237.963 117.422 237.205C117.843 236.447 117.997 235.568 117.858 234.712C117.611 234.08 117.236 233.506 116.757 233.027C116.277 232.547 115.704 232.171 115.072 231.924C112.648 230.536 110.042 229.494 107.33 228.828C105.93 228.362 104.234 227.898 103.77 226.658C102.37 223.408 108.414 219.692 110.428 218.144C114.222 214.904 116.7 210.389 117.394 205.448C118.478 196.78 112.594 187.798 104.544 184.546C90.3 178.662 71.566 188.572 72.496 205.146C72.8178 208.601 73.9715 211.927 75.8585 214.839C77.7456 217.751 80.3098 220.163 83.332 221.868C83.9659 222.248 84.5401 222.72 85.036 223.268C87.358 226.056 83.488 228.378 81.32 229.152C74.452 231.604 71.95 232.152 71.102 234.262C70.328 236.276 71.876 238.442 73.888 239.526C76.944 241.308 81.06 240.848 83.178 247.726C84.0084 250.522 84.2586 253.459 83.9134 256.355C83.5682 259.251 82.6347 262.047 81.1704 264.569C79.706 267.092 77.7416 269.289 75.3977 271.025C73.0538 272.761 70.3799 274 67.54 274.666C69.55 275.672 71.1801 277.302 72.186 279.312C73.586 282.712 71.876 286.742 69.244 289.374C64.132 294.49 55.154 296.058 52.522 303.62C51.8662 305.865 52.0366 308.271 53.0023 310.401C53.9681 312.532 55.6652 314.246 57.786 315.232C53.026 319.122 53.15 323.954 55.928 326.232C58.658 328.142 58.026 327.29 112.904 327.78C111.951 323.922 111.848 319.902 112.6 316C111.68 315.573 110.644 315.462 109.654 315.684ZM87.054 189.812C82.698 192.564 80.706 197.396 79.158 202.042C79.004 202.66 78.074 202.506 77.92 201.886C77.9537 199.048 78.71 196.266 80.1174 193.801C81.5248 191.337 83.537 189.271 85.964 187.8C90.764 184.858 97.732 184.238 102.066 188.266C102.222 188.418 102.066 188.884 101.758 188.728C99.3767 187.818 96.8244 187.444 94.2822 187.631C91.74 187.818 89.2701 188.563 87.048 189.812H87.054ZM96.964 226.97C94.964 227.932 92.01 227.124 89.996 226.506C89.8416 226.45 89.7112 226.342 89.6267 226.201C89.5422 226.06 89.5088 225.895 89.532 225.732C89.686 224.332 95.88 225.422 96.808 225.884C96.9317 225.9 97.0467 225.956 97.1353 226.044C97.2239 226.132 97.2811 226.246 97.2982 226.37C97.3153 226.493 97.2912 226.619 97.2297 226.727C97.1682 226.836 97.0727 226.921 96.958 226.97H96.964ZM79 277.442C77.452 277.288 75.904 276.824 74.354 276.514C74.046 276.514 74.046 275.894 74.51 275.894C80.998 275.894 86.742 276.894 98.044 276.514C101.914 276.514 108.106 274.81 111.822 276.202C111.967 276.244 112.096 276.328 112.193 276.443C112.291 276.558 112.352 276.7 112.368 276.85C112.385 277 112.357 277.151 112.287 277.285C112.218 277.419 112.11 277.529 111.978 277.602C101.018 278.851 89.9478 278.798 79 277.442Z" fill="#FFD300"/>
<path d="M168.178 347.422C159.562 346.38 154.516 346.92 138.916 345.41C125.26 343.84 121.222 343.914 118.788 341.076C116.466 338.442 119.252 335.346 121.73 333.798C121.906 333.99 122.116 334.147 122.35 334.262C123.124 334.728 124.052 333.644 123.278 333.024C120.047 329.847 117.984 325.672 117.422 321.176C116.86 316.68 117.833 312.126 120.182 308.252C125.704 298.95 140.222 296.146 143.87 284.874C144.587 282.882 144.779 280.738 144.426 278.65C144.074 276.562 143.189 274.6 141.858 272.954C145.382 273.652 181.768 275.906 186.138 273.728C186.446 273.572 186.446 273.106 186.138 273.106C184.288 272.552 154.846 273.156 142.476 271.094C156.16 262.786 160.838 244.418 163.222 228.516C165.336 214.632 166.724 195.264 165.306 183.928C167.167 183.912 169.017 183.652 170.81 183.154C171.12 182.998 170.964 182.688 170.81 182.534C167.53 181.222 155.372 182.396 150.062 179.134C149.287 178.646 148.66 177.955 148.25 177.136C147.841 176.317 147.664 175.401 147.74 174.488C147.746 173.496 148.042 172.527 148.592 171.702C149.142 170.877 149.922 170.231 150.836 169.844C162.636 172.204 183.436 171.16 196.2 170.774C196.386 170.774 196.564 170.7 196.695 170.569C196.826 170.438 196.9 170.26 196.9 170.074C196.9 169.888 196.826 169.71 196.695 169.579C196.564 169.448 196.386 169.374 196.2 169.374C182.688 168.892 172.058 170.174 158.268 169.064C155.924 168.864 149.714 168.416 147.896 167.052C147.614 166.836 147.383 166.562 147.219 166.247C147.055 165.932 146.962 165.585 146.947 165.23C146.932 164.876 146.996 164.522 147.133 164.195C147.27 163.868 147.477 163.574 147.74 163.336C152.74 158.336 176.566 159.62 188.304 159.62C189.388 159.62 189.234 158.846 187.994 158.846C179.446 158.846 165.744 157.664 160.126 158.226C161.394 150.774 161.184 143.146 159.508 135.776C156.508 121.836 145.908 108.072 151.308 93.3539C153.922 86.2599 159.434 83.3539 166.944 82.0519C176.607 80.6242 186.439 80.7809 196.052 82.5159C202.964 84.0879 207.724 87.3439 209.986 94.1279C214.63 108.218 205.186 121.378 201.786 134.538C199.878 142.403 199.668 150.585 201.168 158.538C198.222 158.414 195.272 158.518 192.342 158.848C191.104 159.002 190.942 159.622 192.342 159.622C193.426 159.622 201.322 159.932 202.56 159.932C209.372 160.396 212.16 161.944 213.398 163.956C213.6 164.186 213.752 164.455 213.846 164.746C213.941 165.037 213.974 165.344 213.945 165.649C213.916 165.953 213.825 166.249 213.678 166.517C213.53 166.785 213.33 167.02 213.088 167.208C212.153 167.864 211.102 168.339 209.992 168.608C209.038 168.99 209.432 170.592 210.922 169.846C211.771 170.448 212.437 171.272 212.847 172.229C213.256 173.185 213.394 174.236 213.244 175.266C213.165 176.22 212.856 177.141 212.344 177.95C211.832 178.758 211.131 179.431 210.302 179.91C208.09 181.018 205.653 181.6 203.18 181.612C188.18 183.19 184.534 182.424 181.968 182.852C181.66 182.852 181.66 183.316 181.968 183.47C185.416 185.038 195.548 184.244 195.748 184.244C195.157 187.564 194.948 190.941 195.128 194.308C195.128 199.908 194.904 202.864 195.904 205.61C195.932 205.711 195.993 205.8 196.077 205.864C196.161 205.927 196.263 205.961 196.368 205.961C196.473 205.961 196.575 205.927 196.659 205.864C196.743 205.8 196.804 205.711 196.832 205.61C197.181 201.853 197.232 198.073 196.986 194.308C197.115 190.899 197.012 187.485 196.678 184.09C199.154 183.936 201.478 183.626 203.954 183.316C208.908 182.696 214.792 181.148 214.954 175.266C215.042 174.159 214.864 173.046 214.433 172.022C214.002 170.998 213.331 170.093 212.478 169.382C213.412 169.185 214.254 168.682 214.87 167.953C215.486 167.224 215.841 166.31 215.878 165.356C215.878 160.156 208.49 158.756 203.336 158.39C203.336 158.234 202.098 142.906 203.802 135.63C207.002 122.294 216.602 109.308 212.162 94.1359C211.33 91.336 209.905 88.7485 207.982 86.5499C203.42 81.3379 194.828 80.1719 187.854 79.8919H183.97C185.656 78.2079 188.692 71.8359 192.484 69.2099C192.593 69.1563 192.689 69.0796 192.765 68.9851C192.842 68.8906 192.897 68.7806 192.926 68.6628C192.956 68.545 192.959 68.4221 192.936 68.3028C192.913 68.1835 192.865 68.0706 192.794 67.9719C190.936 63.6359 189.078 59.2999 187.376 55.1199C189.388 56.5199 191.402 57.7519 193.414 59.1459C193.555 59.217 193.711 59.2526 193.868 59.2496C194.026 59.2466 194.181 59.2052 194.319 59.1289C194.457 59.0526 194.574 58.9438 194.66 58.8119C194.746 58.6799 194.799 58.5289 194.814 58.3719C194.504 51.8699 194.04 45.3719 194.194 38.8639C194.203 38.7307 194.178 38.5973 194.121 38.4766C194.064 38.3558 193.977 38.2517 193.868 38.1741C193.76 38.0965 193.633 38.048 193.5 38.0333C193.367 38.0185 193.233 38.038 193.11 38.0899C190.634 38.5539 188 39.1739 185.524 39.7919C187.846 35.7679 190.168 31.5919 192.49 27.5619C192.597 27.3533 192.625 27.1127 192.569 26.885C192.512 26.6573 192.375 26.4579 192.182 26.3239C188.076 24.1286 183.708 22.4633 179.182 21.3679C178.006 21.3679 168.714 25.2759 166.796 26.0139C166.486 26.1679 166.022 26.6319 166.176 27.0979C168.034 32.2059 169.892 37.1599 171.596 42.2699C169.582 41.6499 167.416 40.8699 165.248 40.2579C165.002 40.1934 164.74 40.2205 164.513 40.3342C164.285 40.4478 164.106 40.6404 164.01 40.8759C162.874 46.3205 162.509 51.8977 162.926 57.4439C162.924 57.5802 162.951 57.7153 163.007 57.8396C163.063 57.9639 163.146 58.0743 163.25 58.163C163.353 58.2516 163.475 58.3163 163.606 58.3524C163.738 58.3885 163.876 58.3952 164.01 58.3719C166.292 57.6033 168.517 56.6722 170.666 55.5859C169.061 59.92 166.814 63.9881 164 67.6539C163.911 67.8285 163.878 68.0263 163.906 68.2203C163.933 68.4143 164.02 68.5951 164.154 68.7379C167.461 72.3272 170.563 76.1005 173.444 80.0399C172.2 80.0656 170.959 80.1691 169.728 80.3499C166 80.5462 162.333 81.3838 158.89 82.8259C149.638 87.2079 147.066 98.0099 148.826 108.062C150.226 116.114 154.09 123.546 156.722 131.286C159.5 139.879 160.138 149.02 158.58 157.916C158.58 158.072 154.71 158.69 152.696 159.156C149.446 159.93 144.8 161.942 145.884 166.122C146.137 166.972 146.617 167.738 147.271 168.336C147.926 168.935 148.731 169.345 149.6 169.522C148.325 170.283 147.385 171.497 146.968 172.922C145.508 177.304 147.86 181.832 155.168 182.986C158.317 183.496 161.502 183.756 164.692 183.764C165.362 197.483 164.61 211.235 162.448 224.8C160.746 236.256 158.578 248.332 152.386 258.4C149.383 263.655 144.848 267.868 139.386 270.476C138.612 270.786 138.766 272.024 139.386 272.334C143.566 274.812 144.186 280.534 142.482 284.568C138.208 294.542 123.918 297.698 118.64 307.634C114.274 315.646 115.078 327.118 121.426 332.564C115 336.174 115.584 343.018 123.594 344.792C127.418 345.792 156.552 349.274 168.27 347.992C169.34 347.87 168.968 347.518 168.178 347.422ZM164.926 68.4219C168.301 64.1988 170.824 59.3616 172.358 54.1779C172.39 53.9984 172.372 53.8136 172.306 53.6435C172.241 53.4734 172.13 53.3245 171.986 53.2129C171.841 53.1013 171.669 53.0312 171.488 53.0102C171.307 52.9893 171.124 53.0182 170.958 53.0939C168.661 54.5267 166.223 55.7196 163.682 56.6539C163.522 52.0417 163.833 47.4251 164.61 42.8759L172.332 45.3999C172.501 45.4285 172.674 45.4162 172.838 45.3641C173.001 45.312 173.149 45.2216 173.27 45.1004C173.392 44.9792 173.482 44.8308 173.534 44.6675C173.586 44.5043 173.599 44.3309 173.57 44.1619C171.402 38.8979 167.39 27.4619 167.39 27.4619C167.39 27.4619 176.074 23.8379 178.086 22.7539C180.098 23.6839 187.994 26.9339 189.698 27.8639C187.22 32.1979 184.744 36.6879 182.112 41.1779C181.648 41.7979 182.422 42.7259 183.04 42.4179C185.828 41.7979 188.77 41.1779 191.556 40.4039C191.71 45.9779 191.71 51.5519 191.866 56.9699C189.388 55.4219 187.066 53.7199 184.588 52.1699C184.417 52.0487 184.208 51.9918 184 52.0095C183.791 52.0271 183.595 52.1182 183.446 52.2664C183.298 52.4147 183.207 52.6106 183.19 52.8195C183.172 53.0284 183.229 53.2369 183.35 53.4079C185.518 58.5159 187.686 63.4719 189.852 68.5799C184.898 71.9799 181.802 79.2639 181.492 80.3479C179.069 80.1919 176.639 80.1919 174.216 80.3479C171.53 76.0712 168.417 72.0775 164.926 68.4279V68.4219Z" fill="#302E3F"/>
<path d="M180.4 20.432C180.09 20.586 180.246 21.206 180.556 21.206C181.123 21.2257 181.689 21.1258 182.215 20.9128C182.741 20.6999 183.217 20.3787 183.611 19.97C184.005 19.5613 184.309 19.0743 184.503 18.5406C184.697 18.0069 184.776 17.4384 184.736 16.872C184.972 10.692 179.29 8.37203 174.672 11.142C173.889 11.5413 173.204 12.1083 172.665 12.8026C172.127 13.497 171.748 14.3016 171.555 15.1592C171.363 16.0167 171.363 16.9061 171.554 17.7639C171.745 18.6217 172.122 19.4269 172.66 20.122C173.64 20.9825 174.917 21.4273 176.22 21.362C176.84 21.362 176.84 20.432 176.22 20.278C175.353 20.1749 174.542 19.7972 173.906 19.2C172.22 17.058 173.65 12.222 178.4 11.84C178.957 11.769 179.522 11.8122 180.062 11.9672C180.601 12.1221 181.104 12.3855 181.538 12.7412C181.972 13.0968 182.33 13.5374 182.588 14.0358C182.846 14.5342 183 15.0801 183.04 15.64C183.216 16.6204 183.05 17.6315 182.569 18.5039C182.089 19.3763 181.323 20.057 180.4 20.432Z" fill="#302E3F"/>
<path d="M336.472 298.652C331.208 294.008 332.136 287.35 337.872 283.48C338.334 283.17 338.646 282.55 338.182 282.08C337.56 281.152 336.168 281.306 335.086 280.996C331.296 279.952 327.969 277.662 325.64 274.496C322.249 269.642 320.462 263.849 320.53 257.928C320.03 242.792 327.82 243.99 332.142 241.516C334.31 240.434 336.478 238.264 335.394 235.632C334.072 232.422 329.918 231.802 318.982 227.118C319.007 226.392 318.956 225.666 318.828 224.952C318.78 224.464 318.888 223.974 319.138 223.552C321.304 220.456 325.796 218.598 328.272 215.658C337.54 204.532 338.158 189.43 325.022 180.046C320.868 177.186 316.037 175.467 311.01 175.059C305.984 174.652 300.938 175.571 296.378 177.724C292.073 179.866 288.465 183.185 285.971 187.296C283.478 191.407 282.201 196.141 282.29 200.948C282.388 204.077 283.157 207.148 284.546 209.953C285.935 212.758 287.911 215.232 290.34 217.206C292.662 219.062 297.152 220.92 297.462 224.174C297.566 225.104 297.513 226.045 297.306 226.958C297.152 227.888 290.03 229.9 288.948 230.358C286.468 231.44 283.218 232.214 281.36 234.382C280.982 234.822 280.704 235.34 280.545 235.898C280.385 236.456 280.348 237.042 280.437 237.616C280.525 238.189 280.736 238.737 281.056 239.222C281.376 239.706 281.797 240.115 282.29 240.422C284.619 241.817 287.116 242.91 289.722 243.672C294.522 245.994 295.604 251.722 295.604 256.522C295.604 269.586 290.53 279.792 277.49 281.604C277.344 281.644 277.213 281.728 277.115 281.843C277.016 281.959 276.955 282.101 276.938 282.252C276.922 282.402 276.951 282.555 277.022 282.689C277.093 282.823 277.202 282.933 277.336 283.004C278.586 283.556 279.705 284.369 280.616 285.388C281.527 286.407 282.211 287.608 282.621 288.912C283.031 290.216 283.159 291.593 282.995 292.95C282.831 294.307 282.379 295.613 281.67 296.782C277.242 304.006 263.722 307.136 259.84 314.898C259.183 316.239 258.815 317.702 258.759 319.194C258.703 320.686 258.96 322.173 259.515 323.559C260.069 324.945 260.909 326.199 261.978 327.241C263.048 328.283 264.324 329.088 265.724 329.606C261.696 332.084 259.066 337.656 262.324 341.682C265.11 345.244 270.218 344.16 274.088 344.004C282.888 343.554 326.508 344.778 343.916 344.778C346.248 345.015 348.604 344.858 350.884 344.314C352.285 343.761 353.49 342.803 354.345 341.562C355.2 340.321 355.666 338.854 355.684 337.348C355.594 335.819 355.122 334.338 354.311 333.039C353.499 331.74 352.375 330.666 351.04 329.916C352.693 329.255 354.162 328.203 355.319 326.85C356.476 325.497 357.288 323.883 357.684 322.147C358.08 320.411 358.048 318.605 357.592 316.884C357.136 315.163 356.269 313.578 355.066 312.266C350.8 307.18 342.178 303.7 336.472 298.652ZM277.172 331.166C276.864 331.166 277.02 330.702 277.172 330.702C281.509 330.546 285.843 330.546 290.172 330.702C335.464 331.608 332.186 331.15 335.998 331.786C336.464 331.786 336.464 332.714 335.998 332.714C331.745 333.336 327.437 333.492 323.15 333.178C315.407 333.178 307.666 333.023 299.926 332.714C292.314 332.733 284.711 332.216 277.172 331.166ZM292.656 206.532C290.439 202.088 289.956 196.978 291.301 192.198C292.647 187.418 295.724 183.31 299.934 180.676C301.232 179.789 302.712 179.203 304.265 178.961C305.818 178.719 307.406 178.827 308.912 179.276C309.224 179.276 309.068 179.742 308.912 179.742C306.208 179.494 301.632 181.62 299.47 183.302C297.257 185.173 295.505 187.53 294.35 190.188C293.196 192.846 292.669 195.735 292.812 198.63C293.14 204.542 296.396 208.694 300.396 213.03C300.708 213.342 300.396 214.116 299.934 213.96C296.711 212.415 294.135 209.785 292.656 206.532ZM310.456 227.588C310.922 227.588 311.23 228.362 310.768 228.516C309.267 229.123 307.644 229.369 306.031 229.235C304.417 229.101 302.858 228.589 301.478 227.742C300.858 227.434 301.324 226.506 301.94 226.66C304.719 227.385 307.59 227.698 310.46 227.588H310.456ZM305.2 284.4C311.082 284.328 318.2 282.852 323.778 284.246C323.895 284.28 323.998 284.352 324.071 284.45C324.145 284.548 324.184 284.667 324.184 284.789C324.184 284.911 324.145 285.03 324.071 285.128C323.998 285.226 323.895 285.297 323.778 285.332C318.204 287.188 310.778 286.258 305.044 286.258C298.787 286.336 292.531 286.026 286.312 285.332C286.002 285.332 286.002 284.71 286.464 284.71C292.502 284.4 298.848 284.488 305.2 284.4Z" fill="#FFD300"/>
<path d="M248.686 336.74C244.042 331.63 246.984 324.664 252.086 321.102C252.55 320.792 252.86 320.174 252.396 319.702C251.158 318 246.668 318 244.81 316.916C236.592 312.35 232.972 302.298 232.734 292.764C232.228 276.072 240.282 277.072 245.734 274.186C248.058 272.948 250.534 270.624 249.296 267.682C248.058 264.74 244.496 263.658 241.71 262.574C237.994 261.174 234.432 259.63 230.71 258.238C231.02 255.606 230.246 255.142 232.11 253.128C234.122 250.962 236.754 249.566 238.922 247.554C246.044 240.742 250.534 230.988 248.522 221.08C244.65 202.81 221.122 194.758 205.48 202.966C196.2 207.77 189.388 218 190 228.672C190.176 234.748 192.604 240.541 196.812 244.928C200.682 248.798 208.734 251.43 207.03 258.088C193.03 263.818 191.198 263.838 189.07 266.288C187.058 268.61 188.142 271.242 190.31 272.948C192.786 274.804 195.882 275.27 198.51 276.662C203.776 279.294 205.014 285.642 205.014 291.216C205.014 305.99 199.306 317.182 184.576 319.394C184.43 319.434 184.299 319.518 184.201 319.633C184.102 319.749 184.041 319.891 184.024 320.042C184.008 320.192 184.037 320.345 184.108 320.479C184.179 320.613 184.288 320.723 184.422 320.794C185.987 321.491 187.366 322.547 188.446 323.876C189.526 325.206 190.278 326.771 190.64 328.445C191.002 330.12 190.964 331.856 190.529 333.513C190.095 335.17 189.275 336.701 188.138 337.982C182.19 344.642 168.648 348.934 164.914 356.404C164.141 357.912 163.696 359.568 163.609 361.26C163.522 362.953 163.795 364.645 164.409 366.225C165.024 367.805 165.966 369.237 167.173 370.426C168.381 371.616 169.827 372.536 171.416 373.126C166.772 375.914 163.83 382.106 167.546 386.752C170.642 390.622 176.37 389.382 180.706 389.228C187.518 388.918 194.33 389.074 201.142 389.228C211.516 389.382 262.918 390.002 262.918 390.002C264.124 390.087 265.336 389.929 266.48 389.538C273.342 386.924 273.84 378.106 267.098 373.738C266.944 373.586 266.788 373.586 266.634 373.43C268.542 372.698 270.238 371.501 271.568 369.949C272.897 368.397 273.819 366.537 274.249 364.539C274.68 362.541 274.605 360.467 274.033 358.505C273.46 356.543 272.408 354.755 270.97 353.302C266.042 347.918 252.736 341.03 248.686 336.74ZM181.8 372.816C181.49 372.816 181.646 372.35 181.8 372.35C187.269 372.091 192.749 372.143 198.212 372.506C237.946 373.13 247.012 371.12 256.736 371.42C257.2 371.42 257.354 372.194 256.89 372.194C242.184 375.14 193.754 375.6 181.8 372.816ZM198.52 236.416C200.046 239.387 202.154 242.02 204.72 244.158C204.818 244.259 204.881 244.389 204.898 244.529C204.916 244.669 204.887 244.811 204.817 244.933C204.748 245.055 204.64 245.151 204.51 245.207C204.381 245.263 204.237 245.275 204.1 245.242C202.178 244.434 200.459 243.209 199.067 241.657C197.675 240.104 196.645 238.263 196.05 236.264C190.166 221.556 203.482 202.51 219.584 204.524C219.738 204.524 219.738 204.832 219.584 204.832C204.38 206.044 192.3 222.584 198.522 236.412L198.52 236.416ZM228.4 256.85C228.71 257.004 228.71 257.16 228.556 257.47C225.304 261.184 214.156 260.1 210.13 259.018C210.005 258.978 209.898 258.895 209.828 258.784C209.758 258.673 209.73 258.541 209.749 258.411C209.768 258.281 209.832 258.162 209.93 258.075C210.029 257.988 210.155 257.939 210.286 257.936C216.958 257.936 228.4 256.85 228.4 256.85ZM243.108 321.102C243.882 321.256 243.728 322.188 243.108 322.502C234.318 325.848 204.392 323.526 194.494 321.728C194.184 321.728 194.338 321.26 194.494 321.26C233.64 323.438 237.49 320.166 243.112 321.102H243.108Z" fill="#FFD300"/>
<path d="M385.862 20.2779C372.702 36.8439 358.924 52.7999 345.6 69.1999C345.466 69.3428 345.379 69.5235 345.352 69.7175C345.324 69.9115 345.357 70.1093 345.446 70.2839C346.066 71.3679 351.794 71.8319 354.58 72.7619C341.694 95.3139 329.142 117.494 313.088 149.864C310.686 154.095 308.715 158.556 307.204 163.18C306.74 164.728 308.908 165.502 309.836 164.264C312.176 160.707 314.248 156.98 316.036 153.116C342.118 101.56 357.186 77.4419 358.924 73.9999C362.551 75.2858 365.988 77.0566 369.14 79.2639C369.207 79.4348 369.325 79.5815 369.477 79.6849C369.629 79.7882 369.808 79.8435 369.992 79.8435C370.176 79.8435 370.355 79.7882 370.507 79.6849C370.659 79.5815 370.776 79.4348 370.844 79.2639C376.416 59.9099 382.146 40.5579 387.72 21.2039C387.874 20.2779 386.48 19.3479 385.862 20.2779Z" fill="#302E3F"/>
<path d="M78.844 120.6C69.548 120.098 61.558 129.748 64.444 138.4C65.1598 140.558 66.4434 142.483 68.16 143.974C50.15 167.4 28.136 198.6 13.042 224.646C10.874 228.208 13.662 229.446 16.442 231.304C17.788 232.178 67.348 259.958 68.774 259.482C70.632 258.864 71.406 256.54 69.548 255.456C55.304 247.56 20.932 228.362 16.906 226.35C33.106 202.582 39.32 190.48 71.87 146.306C80.694 149.092 91.224 142.124 90.914 132.526C90.8185 129.369 89.5118 126.369 87.2647 124.149C85.0176 121.928 82.0024 120.658 78.844 120.6Z" fill="#302E3F"/>
<path d="M150.526 135.622C150.044 134.86 148.668 134.222 147.894 134.848C135.2 144.448 122.504 153.892 109.8 163.336C109.535 163.502 109.309 163.724 109.138 163.986C108.967 164.248 108.856 164.544 108.812 164.854C108.768 165.164 108.792 165.48 108.882 165.779C108.973 166.079 109.128 166.355 109.336 166.588C122.007 179.459 133.8 193.166 144.636 207.616C141.74 209.546 122.696 222.6 118.16 226.038C117.77 226.264 117.485 226.636 117.369 227.072C117.252 227.508 117.314 227.972 117.54 228.362C117.766 228.752 118.138 229.037 118.574 229.153C119.009 229.27 119.474 229.208 119.864 228.982C126.942 224.558 141.574 214.322 148.506 209.628C149.28 209.008 149.906 207.926 149.126 206.996C140.43 195.079 131.077 183.656 121.11 172.78C118.788 170.304 116.31 167.826 113.988 165.348C125.91 156.37 137.988 147.234 149.908 138.254C150.322 137.972 150.615 137.546 150.729 137.058C150.844 136.571 150.771 136.059 150.526 135.622Z" fill="#302E3F"/>
<path d="M251.164 192.752C251.164 193.836 251.164 194.92 252.092 195.54C252.866 196.158 253.95 195.85 254.88 195.694C260.916 194.146 266.956 192.598 272.84 191.05C274.85 190.586 277.33 188.882 276.24 187.024C275.466 185.786 273.762 185.94 272.368 186.404C266.796 187.804 261.368 189.192 255.802 190.586C256.266 151.724 258.124 112.708 261.376 74.002C261.532 72.918 261.532 71.524 260.448 70.906C259.518 70.286 258.28 70.906 257.196 71.524C242.728 80.15 216.092 97.066 215.858 97.536C215.084 99.548 216.476 100.012 218.334 98.936C231.186 91.504 243.88 84.074 256.734 76.642C253.884 113.544 251.86 153.822 251.164 192.752Z" fill="#302E3F"/>
<path d="M178.55 335.966C157.88 337.868 143.598 335.838 129.162 334.726C129.104 334.731 129.05 334.758 129.011 334.801C128.971 334.845 128.95 334.901 128.95 334.959C128.95 335.017 128.971 335.074 129.011 335.117C129.05 335.16 129.104 335.187 129.162 335.192C143.078 339.306 163.494 339.244 177.932 338.132C179.634 337.98 182.112 338.132 183.35 336.896C183.66 336.584 183.504 336.276 183.196 335.966C181.671 335.584 180.075 335.584 178.55 335.966Z" fill="#302E3F"/>
</svg>
