<svg width="250" height="250" viewBox="0 0 250 250" fill="none" xmlns="http://www.w3.org/2000/svg">
<path d="M194.22 58.3163H143.523V71.2151C143.524 71.5146 143.467 71.8115 143.353 72.0888C143.24 72.366 143.073 72.6181 142.862 72.8304C142.651 73.0428 142.399 73.2113 142.123 73.3263C141.846 73.4412 141.55 73.5003 141.25 73.5001H125.271V88.8176C125.616 88.9087 125.916 89.1221 126.114 89.418C126.313 89.7138 126.397 90.072 126.352 90.4254C126.306 90.7789 126.133 91.1036 125.865 91.3389C125.597 91.5741 125.253 91.7039 124.896 91.7039C124.54 91.7039 124.196 91.5741 123.928 91.3389C123.66 91.1036 123.487 90.7789 123.441 90.4254C123.395 90.072 123.479 89.7138 123.678 89.418C123.877 89.1221 124.177 88.9087 124.521 88.8176V73.5001H120.15V111.271C120.15 111.853 120.381 112.412 120.793 112.823C121.205 113.235 121.763 113.466 122.345 113.466L190.834 111.125C191.418 111.126 191.979 110.896 192.395 110.485C192.81 110.073 193.045 109.514 193.05 108.93L196.415 60.5113C196.419 60.2221 196.364 59.935 196.255 59.667C196.146 59.399 195.985 59.1556 195.78 58.951C195.576 58.7464 195.332 58.5849 195.064 58.4759C194.796 58.3669 194.509 58.3126 194.22 58.3163ZM143.523 80.5001C143.523 80.3751 143.606 80.2701 143.669 80.2701H150.569C150.773 80.2701 150.715 80.4988 150.715 83.0713C150.715 83.1963 150.631 83.3013 150.569 83.3013H143.669C143.464 83.2988 143.523 83.0701 143.523 80.5001ZM135.913 87.4826C135.91 87.4563 135.914 87.4299 135.922 87.405C135.931 87.3801 135.944 87.3571 135.962 87.3376C135.98 87.3181 136.001 87.3023 136.025 87.2914C136.049 87.2804 136.075 87.2744 136.101 87.2738H144.903C144.929 87.2744 144.955 87.2804 144.979 87.2914C145.003 87.3023 145.024 87.3181 145.042 87.3376C145.059 87.3571 145.073 87.3801 145.081 87.405C145.09 87.4299 145.093 87.4563 145.091 87.4826V90.0538C145.096 90.1093 145.079 90.1644 145.044 90.2074C145.009 90.2504 144.958 90.2778 144.903 90.2838H136.101C135.996 90.2838 135.913 90.2001 135.913 90.0538V87.4826ZM159.704 96.2638C159.704 96.5913 160.414 96.4926 136.394 96.4926C136.123 96.4926 135.913 96.4101 135.913 96.2638V93.6888C135.913 93.3913 135.181 93.4801 159.203 93.4801C159.474 93.4801 159.684 93.5638 159.684 93.6888V96.2613L159.704 96.2638ZM170.785 96.2638C170.79 96.319 170.772 96.3739 170.737 96.4166C170.702 96.4593 170.651 96.4866 170.596 96.4926H161.795C161.69 96.4926 161.606 96.4101 161.606 96.2638V93.6888C161.604 93.6626 161.608 93.6362 161.616 93.6112C161.625 93.5863 161.638 93.5634 161.656 93.5438C161.673 93.5243 161.695 93.5086 161.719 93.4976C161.743 93.4867 161.769 93.4807 161.795 93.4801H170.596C170.623 93.4807 170.649 93.4867 170.672 93.4976C170.696 93.5086 170.718 93.5243 170.736 93.5438C170.753 93.5634 170.767 93.5863 170.775 93.6112C170.784 93.6362 170.787 93.6626 170.785 93.6888V96.2638ZM170.785 90.0538C170.785 90.3813 171.495 90.2838 147.474 90.2838C147.203 90.2838 146.994 90.2001 146.994 90.0538V87.4801C146.994 87.1826 146.263 87.2713 170.283 87.2713C170.555 87.2713 170.764 87.3551 170.764 87.4801V90.0513L170.785 90.0538ZM170.785 83.0538C170.785 83.3926 171.424 83.2838 152.575 83.2838C152.366 83.2838 152.2 83.1801 152.2 83.0538V80.4763C152.2 80.1376 151.561 80.2463 170.41 80.2463C170.619 80.2463 170.785 80.3513 170.785 80.4763V83.0538ZM175.07 101.179C175.07 101.326 175.012 101.467 174.908 101.57C174.804 101.674 174.663 101.733 174.516 101.733C174.369 101.733 174.229 101.674 174.125 101.57C174.021 101.467 173.963 101.326 173.963 101.179V72.5738C173.963 72.427 174.021 72.2861 174.125 72.1823C174.229 72.0784 174.369 72.0201 174.516 72.0201C174.663 72.0201 174.804 72.0784 174.908 72.1823C175.012 72.2861 175.07 72.427 175.07 72.5738V101.179ZM179.481 96.3038C179.093 96.3038 178.721 96.1496 178.446 95.8751C178.172 95.6006 178.018 95.2283 178.018 94.8401C178.018 94.4519 178.172 94.0796 178.446 93.8051C178.721 93.5306 179.093 93.3763 179.481 93.3763C179.862 93.3875 180.223 93.5465 180.489 93.8197C180.754 94.0928 180.902 94.4587 180.902 94.8395C180.902 95.2203 180.754 95.5861 180.489 95.8593C180.223 96.1324 179.862 96.2915 179.481 96.3026V96.3038ZM179.481 89.7188C179.093 89.7188 178.721 89.5646 178.446 89.2901C178.172 89.0156 178.018 88.6433 178.018 88.2551C178.018 87.8669 178.172 87.4946 178.446 87.2201C178.721 86.9456 179.093 86.7913 179.481 86.7913C179.862 86.8025 180.223 86.9615 180.489 87.2347C180.754 87.5078 180.902 87.8737 180.902 88.2545C180.902 88.6353 180.754 89.0011 180.489 89.2743C180.223 89.5474 179.862 89.7065 179.481 89.7176V89.7188ZM179.69 82.8613C179.302 82.8613 178.93 82.7071 178.655 82.4326C178.38 82.1581 178.226 81.7858 178.226 81.3976C178.226 81.0094 178.38 80.6371 178.655 80.3626C178.93 80.0881 179.302 79.9338 179.69 79.9338C180.071 79.945 180.432 80.104 180.697 80.3772C180.963 80.6503 181.111 81.0162 181.111 81.397C181.111 81.7778 180.963 82.1436 180.697 82.4168C180.432 82.6899 180.071 82.849 179.69 82.8601V82.8613ZM192.315 66.4501C192.085 67.4501 192.19 67.8501 192.023 67.8501C191.876 67.8501 191.541 67.3063 191.523 66.1776C191.558 65.5214 191.53 64.8634 191.439 64.2126C191.29 63.4813 190.875 62.7601 190.08 62.7126C178.109 61.9163 166.134 64.1863 154.163 62.8801C153.611 62.881 153.067 62.7525 152.574 62.5051C153.724 61.7938 155.71 61.9201 157.006 61.8151C166.246 61.0651 175.529 61.0826 184.79 61.1038C188.485 61.1126 192.54 60.3013 192.63 64.2401C192.615 64.9862 192.51 65.7278 192.318 66.4488L192.315 66.4501Z" fill="#5A47FB"/>
<path d="M175.384 163.6L175.091 162.575C175.02 162.331 174.866 162.119 174.657 161.974C174.448 161.83 174.195 161.761 173.941 161.781L158.534 163.156C158.36 163.169 158.192 163.223 158.044 163.315C157.896 163.407 157.773 163.533 157.685 163.683C157.596 163.833 157.546 164.002 157.537 164.176C157.528 164.35 157.562 164.523 157.635 164.681L158.052 165.644C158.145 165.85 158.299 166.024 158.494 166.14C158.688 166.255 158.914 166.308 159.14 166.291L174.401 165C174.564 164.986 174.721 164.936 174.862 164.855C175.003 164.773 175.125 164.662 175.218 164.529C175.312 164.395 175.375 164.243 175.404 164.083C175.432 163.922 175.426 163.757 175.384 163.6Z" fill="#5A47FB"/>
<path d="M177.307 170.228L177.015 169.203C176.944 168.958 176.79 168.746 176.581 168.601C176.372 168.457 176.119 168.388 175.865 168.408L160.456 169.783C160.283 169.795 160.115 169.85 159.967 169.942C159.819 170.034 159.696 170.16 159.607 170.31C159.519 170.46 159.468 170.63 159.46 170.803C159.451 170.977 159.485 171.151 159.558 171.309L159.976 172.271C160.068 172.478 160.222 172.651 160.417 172.767C160.611 172.883 160.837 172.936 161.063 172.919L176.325 171.623C176.486 171.607 176.642 171.557 176.782 171.475C176.922 171.394 177.043 171.283 177.136 171.151C177.23 171.018 177.293 170.867 177.323 170.708C177.352 170.548 177.347 170.385 177.307 170.228Z" fill="#5A47FB"/>
<path d="M179.69 177.711L179.398 176.687C179.326 176.443 179.173 176.231 178.964 176.086C178.754 175.941 178.501 175.873 178.248 175.892L171.516 176.477C171.343 176.49 171.175 176.545 171.027 176.637C170.879 176.729 170.756 176.855 170.667 177.005C170.579 177.155 170.528 177.324 170.52 177.498C170.511 177.672 170.545 177.846 170.618 178.004L171.035 178.966C171.128 179.173 171.282 179.346 171.476 179.462C171.671 179.578 171.897 179.631 172.123 179.614L178.708 179.091C178.87 179.083 179.03 179.039 179.173 178.961C179.316 178.882 179.439 178.773 179.534 178.64C179.629 178.507 179.692 178.354 179.719 178.193C179.746 178.033 179.736 177.868 179.69 177.711Z" fill="#5A47FB"/>
<path d="M152.868 165.92L152.575 164.896C152.504 164.652 152.351 164.439 152.141 164.295C151.932 164.15 151.679 164.082 151.425 164.101L144.694 164.686C144.52 164.699 144.352 164.754 144.204 164.846C144.057 164.938 143.933 165.064 143.845 165.214C143.756 165.364 143.706 165.533 143.697 165.707C143.688 165.881 143.722 166.054 143.795 166.212L144.213 167.175C144.305 167.382 144.459 167.555 144.654 167.671C144.848 167.787 145.074 167.84 145.3 167.822L151.885 167.3C152.045 167.285 152.2 167.236 152.34 167.156C152.479 167.076 152.6 166.967 152.693 166.836C152.787 166.705 152.851 166.555 152.881 166.397C152.911 166.239 152.906 166.076 152.868 165.92Z" fill="#5A47FB"/>
<path d="M155.481 172.945L155.189 171.92C155.117 171.676 154.964 171.464 154.754 171.319C154.545 171.175 154.292 171.106 154.039 171.126L147.306 171.711C147.133 171.724 146.965 171.779 146.817 171.871C146.669 171.963 146.546 172.089 146.457 172.239C146.369 172.389 146.318 172.558 146.31 172.732C146.301 172.906 146.334 173.079 146.407 173.237L146.826 174.199C146.918 174.406 147.072 174.579 147.267 174.695C147.461 174.811 147.687 174.864 147.912 174.847L154.499 174.325C154.66 174.314 154.818 174.267 154.959 174.188C155.101 174.109 155.223 173.999 155.317 173.867C155.411 173.735 155.474 173.584 155.503 173.425C155.531 173.265 155.524 173.101 155.481 172.945Z" fill="#5A47FB"/>
<path d="M191.875 188.561L188.885 187.413C187.899 187.038 190.101 186.944 157.885 191.405C157.788 191.419 157.698 191.465 157.629 191.535C157.561 191.606 157.517 191.697 157.505 191.794C157.493 191.892 157.514 191.99 157.564 192.075C157.614 192.16 157.69 192.226 157.781 192.263L161.021 193.579C161.021 193.454 160.316 193.673 191.875 188.561Z" fill="#5A47FB"/>
<path d="M199.447 191.467L193.927 189.356L162.927 194.374C166.859 195.976 167.117 196.212 168.07 196.087L199.346 192.346C199.446 192.331 199.537 192.283 199.607 192.211C199.676 192.138 199.72 192.045 199.732 191.945C199.743 191.846 199.722 191.745 199.67 191.658C199.619 191.572 199.541 191.505 199.447 191.467Z" fill="#5A47FB"/>
<path d="M139.09 48.8037L113.794 49.8487C113.225 49.8867 112.694 50.1465 112.315 50.5722C111.935 50.9979 111.738 51.5555 111.766 52.125L110.679 68.125C110.65 68.695 110.847 69.2534 111.227 69.6797C111.606 70.106 112.138 70.366 112.707 70.4037H124.54V62.7062H115.78C115.684 62.7067 115.588 62.6881 115.499 62.6514C115.41 62.6148 115.329 62.5608 115.261 62.4927C115.193 62.4246 115.14 62.3436 115.103 62.2545C115.067 62.1654 115.048 62.07 115.049 61.9737V58.3575C115.049 58.2623 115.067 58.1681 115.104 58.0804C115.141 57.9927 115.195 57.9133 115.264 57.8469C115.332 57.7806 115.413 57.7286 115.501 57.6941C115.59 57.6597 115.685 57.6434 115.78 57.6462H135.181C135.276 57.6434 135.371 57.6597 135.46 57.6941C135.548 57.7286 135.629 57.7806 135.698 57.8469C135.766 57.9133 135.82 57.9927 135.857 58.0804C135.894 58.1681 135.913 58.2623 135.912 58.3575V61.9737C135.913 62.07 135.895 62.1654 135.858 62.2545C135.822 62.3436 135.768 62.4246 135.7 62.4927C135.632 62.5608 135.551 62.6148 135.462 62.6514C135.373 62.6881 135.278 62.7067 135.181 62.7062H125.271V70.4H139.09C139.661 70.3671 140.196 70.1092 140.577 69.6828C140.959 69.2564 141.156 68.6962 141.125 68.125V51.0825C141.141 50.7992 141.101 50.5156 141.008 50.2477C140.914 49.9799 140.769 49.7331 140.58 49.5215C140.391 49.3099 140.162 49.1376 139.906 49.0145C139.651 48.8913 139.373 48.8197 139.09 48.8037Z" fill="#5A47FB"/>
<path d="M217.698 143.446C215.524 142.924 215.963 142.359 216.109 140.247C219.768 139.222 229.638 135.417 229.448 123.961C229.158 106.525 208.1 103.659 201.625 110.519C196.02 116.454 195.834 121.536 195.834 121.536C195.834 121.536 196.879 121.557 198.426 121.452C198.07 124.939 197.568 129.215 198.155 132.679C198.838 136.702 203.423 138.88 207.165 138.951C208.196 138.998 209.226 138.842 210.196 138.491C210.865 138.261 211.179 138.01 211.196 137.926C210.017 138.075 208.831 138.152 207.643 138.156C204.653 137.906 201.224 136.38 199.886 133.531C198.983 130.949 199.878 123.982 200.284 121.281C204.381 120.781 210.276 119.379 213.308 115.344C213.308 115.344 210.285 125.712 215.838 127.7C216.174 127.825 215.351 134.242 215.273 134.95C214.575 141.325 213.538 143.837 215.773 144.567C216.076 144.649 217.296 144.892 217.696 144.965C213.63 148.965 208.599 149.169 203.689 144.465C203.814 144.465 203.939 144.486 204.064 144.486C205.966 144.486 206.764 143.921 206.113 141.894C205.764 140.81 205.256 141.576 205.004 142.644C202.951 142.416 198.379 141.567 196.203 142.581C195.578 142.874 195.535 143.164 196.161 143.396C198.092 143.867 200.056 144.189 202.036 144.359C207.911 150.651 214.305 150.309 218.928 145.257C221.296 146.029 223.447 147.355 225.2 149.125C237.898 161.712 231.145 184.917 214.245 184.707C203.14 184.569 192.755 174.976 187.109 165.457C184.86 161.204 183.026 156.745 181.631 152.14C180.605 148.907 180.189 147.06 180.021 146.935C179.875 146.789 179.961 148.377 180.711 151.785C185.425 173.199 200.058 185.047 211.924 186.615C221.534 187.885 230.329 181.435 233.06 172.545C236.743 160.579 229.096 145.096 217.698 143.446ZM211.551 112.17C210.849 113.461 209.871 114.581 208.688 115.452C207.082 116.711 205.291 117.712 203.378 118.421C202.056 118.959 200.644 119.242 199.218 119.257C198.381 119.195 198.424 118.905 199.093 118.462C200.359 117.625 203.843 116.287 207.748 113.739C209.715 112.454 212.425 110.206 211.551 112.17Z" fill="#1B1B1B"/>
<path d="M183.015 143.111C183.6 143.969 183.962 144.861 184.311 145.306C185.457 146.767 185.936 142.549 183.537 140.624C181.75 139.194 179.391 139.524 178.604 140.519C178.242 140.975 178.416 141.221 178.854 141.292C179.727 141.435 181.78 141.304 183.015 143.111Z" fill="#1B1B1B"/>
<path d="M182.033 137.864C182.667 137.74 183.322 137.783 183.935 137.989C186.005 138.765 186.165 140.753 186.59 142.17C186.745 142.69 186.994 142.885 187.364 142.4C187.763 141.687 187.944 140.872 187.884 140.057C187.824 139.241 187.527 138.461 187.028 137.814C186.529 137.166 185.852 136.679 185.079 136.413C184.306 136.146 183.472 136.113 182.68 136.316C182.402 136.438 182.153 136.619 181.951 136.846C181.749 137.074 181.599 137.342 181.51 137.633C181.51 137.78 181.698 137.884 182.033 137.864Z" fill="#1B1B1B"/>
<path d="M184.771 134.289C184.896 134.394 185.126 133.559 185.021 132.052C184.97 131.302 184.875 130.337 184.875 129.397C184.882 129.019 184.975 128.647 185.147 128.31C185.211 128.27 185.189 128.289 185.272 128.289C185.791 128.289 186.195 129.206 186.397 129.69C188.721 135.139 188.324 140.826 190.557 147.19C194.071 157.19 200.665 163.276 207.032 165.399C207.885 165.705 208.758 165.949 209.645 166.13C210.418 166.357 211.233 166.408 212.029 166.278C212.26 165.929 208.49 165.217 204.607 162.722C197.619 158.232 193.077 150.264 191.311 142.172C190.455 138.252 190.095 134.687 188.906 131.422C188.453 129.886 187.66 128.471 186.586 127.282C186.248 127.007 185.82 126.866 185.385 126.886C184.949 126.905 184.536 127.084 184.224 127.388C183.339 128.556 183.816 130.345 184.202 131.945C184.349 132.736 184.539 133.518 184.771 134.289Z" fill="#1B1B1B"/>
<path d="M243.5 142.986C243.251 142.412 242.848 141.919 242.334 141.56C241.821 141.202 241.219 140.994 240.594 140.959C235.024 139.94 222.719 138.188 230.245 140.226C232.003 140.703 234.589 141.248 237.745 142.004C239.195 142.35 241.55 142.61 241.78 143.379C242.383 144.474 241.295 147.155 238.498 175.553C234.219 218.998 239.224 192.553 243.326 149.609C243.689 145.855 243.968 144.264 243.5 142.986Z" fill="#1B1B1B"/>
<path d="M210.444 125.55C209.255 125.102 207.705 126.721 207.705 126.721L211.927 126.346C211.496 125.976 210.99 125.705 210.444 125.55Z" fill="#1B1B1B"/>
<path d="M201.307 125.279L204.59 126.512C204.59 126.512 203.189 123.899 201.307 125.279Z" fill="#1B1B1B"/>
<path d="M204.674 123.92C204.589 121.348 201.537 122.226 201.161 122.795C201.097 122.877 201.059 122.977 201.053 123.08C201.047 123.184 201.073 123.288 201.128 123.376C201.182 123.465 201.263 123.535 201.358 123.577C201.453 123.619 201.559 123.63 201.661 123.61C204.032 122.125 204.7 124.735 204.674 123.92Z" fill="#1B1B1B"/>
<path d="M211.615 124.756C211.706 124.824 211.815 124.863 211.929 124.867C212.042 124.871 212.154 124.84 212.249 124.779C212.345 124.717 212.419 124.628 212.462 124.523C212.505 124.418 212.515 124.302 212.49 124.191C212.386 123.48 209.81 121.221 208.517 123.669C208.101 124.462 210.014 122.212 211.615 124.756Z" fill="#1B1B1B"/>
<path d="M206.033 131.571C206.763 131.728 206.806 130.526 206.555 130.338C206.284 130.17 204.904 129.669 204.82 129.523C204.736 129.376 206.639 126.324 206.284 125.718C206.284 125.718 203.701 128.664 203.608 129.376C203.514 130.089 205.299 131.414 206.033 131.571Z" fill="#1B1B1B"/>
<path d="M209.294 134.142C209.386 134.025 209.437 133.881 209.438 133.731C209.438 133.582 209.389 133.437 209.297 133.319C209.206 133.201 209.077 133.117 208.933 133.081C208.788 133.045 208.635 133.058 208.499 133.119C205.181 135.755 203.999 132.22 204.109 133.349C204.453 136.925 208.805 135.016 209.294 134.142Z" fill="#1B1B1B"/>
<path d="M50.135 105C55.2273 97.7737 62.9516 92.8339 71.6475 91.2425C72.6087 93.0412 75.5537 97.6287 80.9087 99.1037C86.0275 100.514 91.215 98.3725 95.4175 95.5287C102.675 97.927 109.142 102.256 114.125 108.051C115.375 109.575 115.797 109.62 114.899 107.759C110.5 98.6425 100.101 94.0375 90.6512 92.25C89.5425 92.04 88.5137 91.98 88.4137 91.54C88.1087 90.2037 88.0537 88.8225 87.8075 87.4837C87.4462 85.52 87.1537 85.3312 86.9925 87.3587C86.9082 88.3247 86.8731 89.2942 86.8875 90.2637C86.7823 91.0824 86.9283 91.9137 87.3062 92.6475C88.2562 93.9662 90.975 93.8237 93.6612 94.9687C85.3125 100.451 77.6437 98.5175 73.2362 91.0587C74.299 90.9488 75.3666 90.8929 76.435 90.8912C76.7075 75.8 76.79 76.6312 76.4762 76.0062C76.3693 75.8217 76.2252 75.6614 76.0531 75.5355C75.8809 75.4096 75.6845 75.3209 75.4762 75.275C75.2789 75.2453 75.0835 75.2036 74.8912 75.15C74.6096 75.0317 74.3548 74.8577 74.1422 74.6383C73.9296 74.419 73.7635 74.1589 73.6541 73.8737C73.5447 73.5885 73.4941 73.2841 73.5054 72.9789C73.5167 72.6736 73.5897 72.3738 73.72 72.0975C73.9879 71.6681 74.3559 71.31 74.7924 71.0538C75.2289 70.7977 75.7209 70.651 76.2264 70.6264C76.732 70.6019 77.2359 70.7001 77.6952 70.9127C78.1545 71.1254 78.5554 71.4461 78.8637 71.8475C79.3769 72.5391 79.8049 73.2899 80.1387 74.0837C81.0587 75.5262 83.025 73.2087 82.1662 70.3C81.1662 66.9125 77.19 63.425 79.8875 61.1012C82.2712 59.0525 89.4 61.2475 92.4937 61.645C94.1837 66.545 98.7437 74.2212 95.735 78.9337C94.0475 81.5762 91.47 82.385 88.3337 82.4462C85.6825 82.4987 83.2437 81.96 83.045 82.2587C82.9612 82.3837 83.3162 82.6137 84.195 82.9687C90.3937 85.4787 97.5262 83.4325 98.7237 77.1362C99.6637 72.2 96.3 65.9475 93.5987 61.7075C95.7725 61.1225 99.7025 48.035 85.09 44.4387C70.225 40.7762 61.375 54.2175 60.1487 59.3825C58.8075 65 62.0137 72.9875 64.75 75.6887C67.2425 78.1512 70.2275 81.375 74.7225 80.1625C74.7012 80.6225 74.4925 86.3725 74.4087 88.8812C69.7796 89.1083 65.2659 90.4042 61.2213 92.6674C57.1768 94.9307 53.7112 98.0997 51.0962 101.926C50.5339 102.702 50.0439 103.528 49.6325 104.394C48.19 107.174 48.3 107.554 50.135 105ZM65.8562 61.0962C65.8404 61.4746 65.7096 61.8391 65.4812 62.1412C65.125 61.9737 65.09 61.5162 65.0212 61.1412C64.2712 57.0325 66.8437 53.5362 69.9337 51.19C73.512 48.5108 77.9688 47.2794 82.415 47.7412C82.863 47.7813 83.3051 47.8723 83.7325 48.0125C85.1225 48.465 84.8825 48.705 83.5225 48.8075C75.5 49.405 67.18 52.9462 65.8562 61.0962Z" fill="#1B1B1B"/>
<path d="M120.045 141.941C120.395 140.998 120.92 137.634 120.191 138.784C118.772 142.44 116.261 145.571 113 147.75C101.406 155.82 73.5762 158.986 59.4587 142.375C61.6537 147.1 65.98 150.573 70.7087 152.786C80.0937 157.181 91.0725 157.116 101.149 154.71C105.478 153.829 109.591 152.102 113.252 149.629C116.009 147.625 118.875 145.091 120.045 141.941Z" fill="#1B1B1B"/>
<path d="M106.25 131.111C104.085 132.057 102.257 134.597 102.257 138.596C98.085 139.43 77.1825 134.112 70.3337 123.209C68.765 120.709 68.51 119.126 68.18 119.049C67.7325 118.942 67.84 129.517 85.43 136.799C90.2168 138.817 95.3013 140.039 100.482 140.416C101.382 140.431 102.799 140.541 103.494 139.83C104.22 139.094 103.791 137.58 103.891 136.631C103.975 135.546 104.321 134.498 104.9 133.577C105.479 132.655 106.274 131.889 107.215 131.342C107.401 131.235 108.281 130.945 108.34 130.717C108.421 130.672 107.689 130.481 106.25 131.111Z" fill="#1B1B1B"/>
<path d="M110.24 139.328C107.72 144.015 111.865 141.669 113.271 138.094C114.405 135.211 113.455 133.345 110.24 139.328Z" fill="#1B1B1B"/>
<path d="M113.94 143.844C114.698 143.647 115.381 143.233 115.905 142.651C118.155 140.401 118.856 136.603 117.515 137.341C116.68 137.803 115.536 139.646 114.546 141.271C113.761 142.561 112.875 143.98 113.94 143.844Z" fill="#1B1B1B"/>
<path d="M109.006 122.268V136.484C109.006 136.555 109.019 136.626 109.047 136.693C109.074 136.759 109.114 136.819 109.164 136.869C109.215 136.92 109.275 136.96 109.341 136.987C109.408 137.014 109.478 137.028 109.55 137.028C109.693 137.025 109.83 136.967 109.932 136.866C110.033 136.764 110.091 136.627 110.094 136.484C110.094 120.995 110.017 122.135 110.261 121.891C110.511 121.683 109.422 121.855 129.787 119.864C129.865 119.863 129.942 119.879 130.014 119.91C130.085 119.941 130.149 119.986 130.202 120.043C130.255 120.1 130.296 120.168 130.322 120.241C130.347 120.315 130.357 120.393 130.351 120.47L126.776 149.47C126.735 149.763 126.484 149.95 126.087 149.95L113.187 152.041C113.116 152.052 113.048 152.077 112.986 152.115C112.924 152.152 112.87 152.202 112.828 152.26C112.785 152.318 112.754 152.384 112.737 152.454C112.72 152.525 112.716 152.597 112.727 152.669C112.738 152.74 112.763 152.809 112.801 152.871C112.838 152.932 112.888 152.986 112.946 153.029C113.004 153.072 113.07 153.102 113.141 153.12C113.211 153.137 113.284 153.14 113.355 153.129L126.15 151.038C126.564 151.055 126.97 150.916 127.287 150.649C127.604 150.382 127.81 150.006 127.864 149.595L131.439 120.595C131.467 120.361 131.444 120.124 131.372 119.899C131.301 119.674 131.181 119.468 131.023 119.294C130.864 119.119 130.67 118.981 130.453 118.888C130.236 118.796 130.002 118.751 129.766 118.756L110.741 120.616C110.518 120.609 110.296 120.646 110.088 120.725C109.879 120.804 109.689 120.924 109.527 121.078C109.366 121.232 109.237 121.416 109.147 121.62C109.058 121.825 109.01 122.045 109.006 122.268Z" fill="#1B1B1B"/>
<path d="M234.046 202C233.733 201.631 233.359 201.32 232.939 201.08C227.09 197.399 220.546 192.742 218.681 191.944C219.263 192.498 219.885 193.008 220.541 193.47C232.233 202.114 233.409 202.205 233.315 203.17C233.256 203.776 232.541 203.94 232.04 203.902C230.973 203.822 19.8038 204.254 17.6875 204.215C16.8913 204.344 16.0746 204.228 15.3463 203.881C15.0549 203.675 14.8213 203.398 14.6681 203.076C14.5148 202.753 14.4471 202.397 14.4713 202.041C14.5098 201.721 14.6176 201.413 14.7873 201.138C14.957 200.864 15.1844 200.63 15.4538 200.452C16.3738 199.657 17.18 199.019 17.8575 198.509C18.91 197.716 19.5725 197.212 19.8438 196.94C25.6218 199.486 32.0915 200.002 38.2 198.404C43.335 197.154 53.5675 193.087 45.9975 194.996C44.1388 195.465 41.4388 196.264 38.1363 196.871C28.6838 198.627 16.7775 196.009 11.1675 187.484C5.97004 179.6 8.18254 167.575 14.385 160.75C15.13 160.045 15.8349 159.298 16.4963 158.514C16.5475 158.152 11.845 160.475 8.94879 166.666C3.25754 178.841 6.37504 190.689 19 196.527C18.1638 197.134 16.61 198.484 15.8013 199.077C15.2716 199.42 14.7808 199.82 14.3375 200.269C14.0838 200.601 13.9013 200.982 13.8013 201.388C13.7013 201.793 13.6861 202.216 13.7564 202.628C13.8268 203.04 13.9813 203.433 14.2103 203.782C14.4394 204.132 14.738 204.431 15.0875 204.66C19.1725 207.467 210.08 205.221 231.886 205.077C232.369 205.101 232.852 205.03 233.308 204.869C233.575 204.761 233.814 204.592 234.004 204.375C234.194 204.159 234.331 203.9 234.402 203.621C234.474 203.342 234.48 203.05 234.418 202.768C234.356 202.486 234.229 202.223 234.046 202Z" fill="#1B1B1B"/>
<path d="M134.115 160.653C137.422 169.028 141.504 177.205 145.446 185.278C147.792 190.083 148.279 190.508 146.366 185.381C143.915 178.814 141.464 173.054 138.547 166.044C138.297 165.438 136.101 159.458 135.829 159.5C136.31 159.436 137.879 159.151 138.924 159.04C150.765 157.778 162.531 156.226 174.424 155.736C175.667 155.685 175.562 155.676 175.782 156.111C179.726 163.979 183.209 172.07 186.215 180.341C188.215 185.311 188.642 185.673 187.135 180.509C184.589 171.79 181.71 162.984 177.35 154.961C177.094 154.547 176.728 154.211 176.292 153.994C175.857 153.776 175.369 153.684 174.884 153.729C162.619 154.22 150.386 155.337 138.235 157.074C136.876 157.288 134.279 157.255 133.86 158.934C133.766 159.519 133.855 160.119 134.115 160.653Z" fill="#1B1B1B"/>
<path d="M207.286 192.409C189.919 195.749 167.871 198.423 166.729 198.304C165.774 198.114 164.847 197.805 163.969 197.384C161.63 196.5 150.504 192.35 148.352 191.614C138.485 188.239 151.149 193.911 161.439 198.263C162.975 199.038 164.588 199.655 166.25 200.103C168.825 200.594 193.329 197.363 205.136 194.853C207.464 194.353 211.177 194.149 211.177 192.615C211.142 192.352 211.03 192.105 210.855 191.905C210.681 191.705 210.451 191.561 210.195 191.49C207.522 190.498 204.695 189.778 201.979 188.939C185 183.704 182.659 183.801 207.286 192.409Z" fill="#1B1B1B"/>
<path d="M155.625 189.984C166.02 189.494 185.565 184.427 185.667 183.711C185.709 183.565 185.27 183.482 184.309 183.502C177.626 183.64 167.035 186.524 151.757 189.085C148.116 189.695 152.112 190.149 155.625 189.984Z" fill="#1B1B1B"/>
<path d="M92.1137 73.3474C91.5175 74.1824 92.4625 74.2387 93.4312 73.9324C93.6873 73.8596 93.9379 73.769 94.1812 73.6612C94.4236 73.5306 94.6198 73.3286 94.7432 73.0826C94.8667 72.8366 94.9114 72.5585 94.8712 72.2862C94.4237 70.9378 93.7928 69.6575 92.9962 68.4812C91.6725 66.4649 90.55 65.7012 90.5087 66.7674C90.4462 68.3462 92.3062 71.5674 92.9537 72.4737C92.6332 72.723 92.3503 73.0173 92.1137 73.3474Z" fill="#1B1B1B"/>
<path d="M88.3301 69.5212C88.6251 69.3587 88.6226 68.7274 88.2888 68.0999C87.9551 67.4724 87.4526 67.1387 87.1638 67.3049C86.8751 67.4712 86.8751 68.0974 87.2051 68.7274C87.5188 69.3312 88.0188 69.6937 88.3301 69.5212Z" fill="#1B1B1B"/>
<path d="M83.5425 67.2013C83.71 68.3925 84.9038 68.2888 85.0063 67.87C86.1313 63.275 89.7738 66.4688 88.8525 65.2988C85.99 61.6588 83.375 66.0088 83.5425 67.2013Z" fill="#1B1B1B"/>
<path d="M87.9538 76.2737C87.5351 76.1312 87.1801 76.065 87.2638 76.6925C87.3753 77.1002 87.6178 77.4599 87.9538 77.7162C88.4005 78.0343 88.9057 78.2609 89.4403 78.383C89.9749 78.505 90.5283 78.5202 91.0688 78.4275C93.6938 78.0987 95.3188 75.5425 93.9963 75.5425C93.3811 75.6264 92.7775 75.7808 92.1976 76.0025C90.8321 76.4676 89.3674 76.5612 87.9538 76.2737Z" fill="#1B1B1B"/>
<path d="M162.735 112.086C166.579 125.604 173.575 142.92 172.477 136.735C171.542 131.461 166.991 118.451 164.429 112.045L162.735 112.086Z" fill="#1B1B1B"/>
<path d="M142.101 136.5C144.779 131.69 149.259 118.602 150.924 112.5L148.979 112.584C146.55 119.375 138.565 142.856 142.101 136.5Z" fill="#1B1B1B"/>
<path d="M159.432 52.295C160.332 54.3452 161.337 56.3479 162.442 58.295H164.45C164.157 58.295 163.189 55.6012 163.049 55.305C162.392 53.9187 161.754 52.5237 161.21 51.1025C160.896 50.2875 160.585 48.8425 159.516 48.72C158.22 48.57 157.816 50.4325 157.53 51.3325C156.802 53.6275 156.155 55.9575 155.565 58.295H157.405C157.575 57.8125 159.166 53.0412 159.432 52.295Z" fill="#1B1B1B"/>
<path d="M94.4138 194.479C84.455 194.65 54.6026 201.011 54.1488 200.875C50.3513 199.744 41.3825 195.541 46.5388 198.847C48.9265 200.339 51.4626 201.579 54.1063 202.547C56.2313 202.725 78.0638 198.561 80.1563 198.157C93.375 195.606 99.85 194.385 94.4138 194.479Z" fill="#1B1B1B"/>
<path d="M40.5 140.289C43.7563 144.259 49.825 142.631 52.9188 139.39C54.3086 137.863 55.3633 136.062 56.015 134.103C56.6667 132.144 56.9009 130.07 56.7025 128.015C56.4363 125.951 55.885 124.425 55.6363 126.515C55.105 130.966 54.0038 135.92 50.3475 138.89C49.1598 139.909 47.7023 140.561 46.1514 140.769C44.6005 140.977 43.0227 140.73 41.6088 140.06C41.35 139.935 39.7525 138.613 40.0613 139.538C40.1782 139.804 40.3254 140.056 40.5 140.289Z" fill="#1B1B1B"/>
<path d="M55.1101 136.317C55.0101 136.507 54.8826 136.674 54.7763 136.86C54.2828 137.796 53.6559 138.656 52.9151 139.411C51.8601 140.47 50.6105 141.314 49.2351 141.899C49.1938 143.592 49.4238 146.524 49.6101 148.442C49.3299 148.593 49.0371 148.718 48.7351 148.817C44.4288 149.967 41.6451 145.202 39.9338 142.192C37.5463 137.992 34.0326 126.317 45.8501 120.68C49.7163 118.837 52.6838 120.43 54.8813 122.729C54.9552 122.807 55.0515 122.86 55.157 122.882C55.2625 122.903 55.372 122.891 55.4705 122.848C55.569 122.804 55.6516 122.731 55.707 122.639C55.7625 122.547 55.788 122.44 55.7801 122.332C53.8226 106.082 37.9238 107.457 32.0513 110.541C15.8201 119.054 22.4563 142.779 23.9613 146.75C25.4663 150.721 23.8988 150.389 23.8988 150.389C16.9576 153.9 15.1176 156.243 15.1176 156.243L25.4663 159.42C60.1501 168.305 56.4076 143.551 55.4251 135.67C55.3028 135.877 55.1975 136.094 55.1101 136.317ZM35.1451 113.592C34.7553 113.755 34.3837 113.959 34.0363 114.199C33.5493 114.451 33.0933 114.76 32.6776 115.117C32.1402 115.507 31.6554 115.964 31.2351 116.477C30.968 116.743 30.73 117.036 30.5251 117.352C30.3151 117.687 30.0651 118.001 29.8551 118.352C26.7563 123.594 26.9801 132.264 26.7826 135.307C26.5601 138.611 25.0138 133.239 25.2563 127.572C25.4788 122.35 27.3326 116.226 31.9251 113.774C32.8771 113.211 33.9399 112.862 35.0401 112.75C36.5663 112.625 36.4038 113 35.1451 113.592Z" fill="#5A47FB"/>
<path d="M52.7688 139.516L53.0188 139.266C52.9675 139.368 52.8413 139.444 52.7688 139.516Z" fill="#1B1B1B"/>
<path d="M45.5775 127.75C45.6175 127.29 45.43 126.894 45.1587 126.875C44.8875 126.856 44.6362 127.21 44.5937 127.669C44.5 128.742 45.475 128.894 45.5775 127.75Z" fill="#1B1B1B"/>
<path d="M51.4513 127.39C51.41 127.871 51.6188 128.265 51.89 128.289C52.1613 128.313 52.425 127.933 52.455 127.474C52.4875 126.993 52.2875 126.599 52.0163 126.575C51.765 126.533 51.5 126.909 51.4513 127.39Z" fill="#1B1B1B"/>
<path d="M53.9399 124.567C53.6674 123.774 50.3049 121.767 49.3812 124.881C49.0899 125.864 50.7412 122.831 53.0824 125.404C53.2912 125.634 54.2112 125.362 53.9399 124.567Z" fill="#1B1B1B"/>
<path d="M43.235 125.864C45.6813 123.376 47.21 126.406 46.9563 125.425C46.1513 122.308 42.7063 124.209 42.3988 125.006C42.0913 125.804 43.0288 126.075 43.235 125.864Z" fill="#1B1B1B"/>
<path d="M25.0262 177.836C27.7294 179.181 30.6697 179.984 33.6812 180.199C43.2475 180.395 48.9062 178.199 55.0262 177.733C55.3875 177.705 56.3287 177.692 56.385 177.524C56.4487 177.399 56.1162 177.181 55.235 176.937C54.0227 176.658 52.7769 176.553 51.535 176.624C47.6375 176.756 36.115 178.74 31.2775 178.15C31.2735 178.086 31.2591 178.022 31.235 177.962C30.7536 176.836 30.5055 175.625 30.5055 174.4C30.5055 173.175 30.7536 171.964 31.235 170.837C31.287 170.707 31.2875 170.561 31.2363 170.43C31.1852 170.299 31.0862 170.192 30.9593 170.131C30.8324 170.07 30.6871 170.059 30.5527 170.101C30.4183 170.143 30.3047 170.234 30.235 170.356C29.185 172.772 29.1177 175.502 30.0475 177.966C28.7975 177.779 26.2787 177.216 25.385 177.109C23.7312 176.907 23.5212 177.167 25.0262 177.836Z" fill="#1B1B1B"/>
<path d="M49.4024 133.39C49.9849 132 49.3212 126.749 48.7337 128.14C48.1249 129.585 48.8487 134.712 49.4024 133.39Z" fill="#1B1B1B"/>
<path d="M44.3438 135.417C43.74 135.116 43.8588 136.107 44.6775 136.61C45.0646 136.876 45.5182 137.028 45.9873 137.05C46.4563 137.072 46.9222 136.963 47.3325 136.735C47.8813 136.187 46.5013 136.225 45.2425 135.794C44.928 135.708 44.6259 135.581 44.3438 135.417Z" fill="#1B1B1B"/>
<path d="M98.2188 190.59C100.574 182.929 104.323 168.403 106.54 160.066C106.623 159.742 106.626 159.402 106.549 159.076C106.472 158.75 106.316 158.447 106.096 158.195C105.876 157.942 105.597 157.747 105.285 157.626C104.973 157.505 104.635 157.462 104.303 157.5C90.1975 159.07 80.0388 160.341 67.6125 161.786C66.2525 161.944 65.7813 161.873 65.0413 163.689C61.3763 172.68 55.6838 190.013 53.5838 196.344C53.5065 196.57 53.4934 196.813 53.5459 197.046C53.5985 197.279 53.7146 197.493 53.8814 197.664C54.0482 197.835 54.2591 197.957 54.4908 198.015C54.7225 198.074 54.9658 198.067 55.1938 197.995C55.1938 197.995 93.7475 192.245 96.3375 191.975C97.6925 191.826 97.92 191.561 98.2188 190.59ZM86.4487 164.29C80.7673 165.938 74.954 167.092 69.0738 167.739C68.8701 167.739 68.6669 167.76 68.4675 167.801C68.155 168.114 65.0675 179.064 64.2038 178.631C63.91 178.485 64.24 177 64.2662 176.791C64.6284 173.524 65.3722 170.31 66.4825 167.216C67.2588 165.19 69.765 165.591 71.52 165.356C76.9513 164.625 82.575 163.208 86.5312 163.474C88.225 163.589 88.04 163.875 86.4487 164.29Z" fill="#1B1B1B"/>
<path d="M108.25 171.5C115.625 172.701 141 171.231 134.404 170.141C127.063 168.927 101.679 170.43 108.25 171.5Z" fill="#1B1B1B"/>
</svg>
