<svg width="16" height="16" viewBox="0 0 16 16" fill="none" xmlns="http://www.w3.org/2000/svg">
<path d="M10.666 5.33398C11.7269 5.33398 12.7443 5.75541 13.4944 6.50556C14.2446 7.2557 14.666 8.27312 14.666 9.33398V14.0007H11.9993V9.33398C11.9993 8.98036 11.8589 8.64122 11.6088 8.39118C11.3588 8.14113 11.0196 8.00065 10.666 8.00065C10.3124 8.00065 9.97326 8.14113 9.72321 8.39118C9.47316 8.64122 9.33268 8.98036 9.33268 9.33398V14.0007H6.66602V9.33398C6.66602 8.27312 7.08744 7.2557 7.83759 6.50556C8.58773 5.75541 9.60515 5.33398 10.666 5.33398Z" stroke="white" stroke-width="1.2" stroke-linecap="round" stroke-linejoin="round"/>
<path d="M4.00065 6H1.33398V14H4.00065V6Z" stroke="white" stroke-width="1.2" stroke-linecap="round" stroke-linejoin="round"/>
<path d="M2.66732 4.00065C3.4037 4.00065 4.00065 3.4037 4.00065 2.66732C4.00065 1.93094 3.4037 1.33398 2.66732 1.33398C1.93094 1.33398 1.33398 1.93094 1.33398 2.66732C1.33398 3.4037 1.93094 4.00065 2.66732 4.00065Z" stroke="white" stroke-width="1.2" stroke-linecap="round" stroke-linejoin="round"/>
</svg>
