<svg width="30" height="26" viewBox="0 0 30 26" fill="none" xmlns="http://www.w3.org/2000/svg">
<path d="M8.92535 0.832764C11.2519 0.76383 12.872 1.54608 13.898 2.73022C14.9294 3.92073 15.3842 5.54589 15.3209 7.19702C15.1933 10.5213 12.9926 13.7917 9.43707 13.7917C7.668 13.7921 5.9659 13.1153 4.68024 11.9001C3.47503 10.761 2.72174 9.22983 2.55035 7.58765L2.52399 7.25757C2.49947 6.41192 2.64688 5.56989 2.95758 4.78296C3.26903 3.9942 3.73788 3.27719 4.33551 2.67554C4.93323 2.07381 5.64736 1.59969 6.43414 1.28296C7.22084 0.966298 8.06387 0.813009 8.91168 0.832764V0.83374L8.92535 0.832764Z" fill="#5A47FB" stroke="#212121" stroke-width="0.5"/>
<path d="M17.63 0.410156C18.5732 0.18616 19.557 0.197255 20.4952 0.441406C21.4285 0.684327 22.2889 1.15078 23.0011 1.80078C23.7608 2.62724 24.323 3.61585 24.6447 4.69141C24.9667 5.76856 25.0389 6.90527 24.8566 8.01465V8.01562C24.214 12.0715 20.3271 13.4075 18.2267 12.3701L18.0294 12.2617L18.0167 12.2549C17.6832 12.079 17.4231 11.7903 17.2823 11.4404C17.1429 11.0934 17.1294 10.708 17.2452 10.3525C17.3875 10.0051 17.6403 9.71025 17.9396 9.30859C18.2313 8.91702 18.5387 8.45449 18.7091 7.82129C19.0505 6.55218 18.8216 4.68273 17.0919 1.40332L17.088 1.39453L17.0822 1.38574L17.0421 1.31348C17.0074 1.2389 16.9882 1.15788 16.9845 1.0752C16.9796 0.964845 17.003 0.854907 17.0538 0.756836C17.1046 0.658886 17.1807 0.576235 17.2736 0.516602C17.3665 0.456983 17.4738 0.42231 17.5841 0.416992L17.6075 0.416016L17.63 0.410156Z" fill="#5A47FB" stroke="#212121" stroke-width="0.5"/>
<path d="M1.21875 19.3699C2.7368 16.7582 5.82793 14.4956 9.25977 14.95L9.27051 14.9519H9.28223C13.5694 15.1202 16.1397 17.2844 17.0732 19.5281C17.5417 20.6539 17.5975 21.7946 17.2676 22.7253C16.9403 23.6484 16.2283 24.382 15.1162 24.7078C15.1132 24.7082 15.0805 24.7151 15.0029 24.7292C14.9251 24.7434 14.8142 24.7631 14.6748 24.7869C14.3962 24.8344 14.0033 24.8992 13.5264 24.9724C12.5717 25.1189 11.2812 25.3002 9.90039 25.4509C8.51909 25.6017 7.05011 25.7214 5.73535 25.7458C4.41291 25.7704 3.27267 25.6974 2.53516 25.4763L2.53027 25.4753L2.28027 25.3982C1.07041 24.9837 0.461894 24.1516 0.296875 23.1355C0.117227 22.0291 0.461064 20.6735 1.21875 19.3699Z" fill="#5A47FB" stroke="#212121" stroke-width="0.5"/>
<path d="M19.4938 14.792C20.1 14.5888 21.2017 14.5958 23.0846 14.9766L23.0895 14.9775C24.6894 15.2651 26.1507 16.072 27.2467 17.2725C28.3425 18.4728 29.0128 20.0009 29.1539 21.6201L29.1549 21.627C29.2117 22.1206 29.0393 22.4959 28.7252 22.79C28.4026 23.0921 27.9245 23.3112 27.3785 23.4492C25.5027 23.8128 23.5836 23.8962 21.6832 23.6982C21.0632 23.5259 20.7259 23.0621 20.5299 22.4326C20.3287 21.7866 20.2923 21.0173 20.2487 20.3154V20.3086L20.2477 20.3008L20.2018 20.0107C20.0711 19.3263 19.7813 18.5979 19.5114 17.9219C19.1942 17.1277 18.9091 16.4146 18.8561 15.8457C18.8302 15.5674 18.8636 15.352 18.9547 15.1885C19.0428 15.0304 19.202 14.8898 19.4938 14.792Z" fill="#5A47FB" stroke="#212121" stroke-width="0.5"/>
</svg>
