<svg width="289" height="289" viewBox="0 0 289 289" fill="none" xmlns="http://www.w3.org/2000/svg">
<path d="M250.049 183.983C250.495 164.247 249.857 162.999 249.63 152.979C247.345 51.69 247.801 53.2236 247.541 52.6532C247.163 51.82 246.019 52.1565 245.303 52.2056C238.773 52.6388 229.892 52.1984 224.181 52.8467C224.109 52.8534 224.041 52.8804 223.985 52.9247C223.928 52.9689 223.886 53.0284 223.862 53.0961C223.838 53.1638 223.835 53.2369 223.852 53.3066C223.868 53.3763 223.905 53.4398 223.957 53.4893C222.68 100.132 224.055 149.571 224.866 184.579C224.908 186.388 225.147 186.198 230.001 186.251C235.576 186.313 240.009 185.996 245.824 186.013C247.006 186.125 248.195 186.134 249.378 186.042C250.254 185.775 250.033 184.669 250.049 183.983Z" fill="#5A47FB"/>
<path d="M123.9 143.783C131.006 140.155 139.036 136.155 147.634 132.095C147.516 129.557 146.912 107.42 146.912 106.569C146.912 106.032 147.057 105.303 146.568 104.913C146.194 104.616 145.673 104.747 145.24 104.769C137.716 105.049 129.754 104.754 124.492 105.143C124.423 105.15 124.357 105.177 124.303 105.22C124.248 105.263 124.207 105.321 124.183 105.386C124.16 105.451 124.156 105.522 124.171 105.59C124.185 105.658 124.219 105.72 124.268 105.769C123.755 118.422 123.705 131.11 123.9 143.783Z" fill="#5A47FB"/>
<path d="M95.075 157.322C102.18 153.695 110.21 149.695 118.809 145.634C118.69 143.097 118.087 120.96 118.087 120.109C118.087 119.572 118.232 118.841 117.745 118.451C117.37 118.163 116.848 118.287 116.417 118.307C108.892 118.587 100.931 118.293 95.667 118.68C95.5977 118.687 95.5318 118.714 95.477 118.757C95.4222 118.8 95.3807 118.857 95.3573 118.923C95.3339 118.989 95.3295 119.06 95.3447 119.128C95.3599 119.196 95.3941 119.258 95.4432 119.308C94.9248 131.961 94.8742 144.664 95.075 157.322Z" fill="#5A47FB"/>
<path d="M182.683 149.799C175.07 153.322 166.053 157.516 156.501 162.01C156.603 186.258 156.322 184.024 156.456 185.132C156.577 186.143 157.756 185.955 158.56 185.982C166.517 186.486 174.498 186.515 182.459 186.072C182.459 186.218 183.034 165.981 182.683 149.799Z" fill="#5A47FB"/>
<path d="M155.441 128.99C163.829 125.273 172.625 121.557 181.503 118.079C181.13 108.48 180.01 78.9535 179.847 73.7896C179.819 72.9232 179.652 72.451 178.637 72.4755C174.407 72.5809 157.533 73.6842 156.291 73.9095C155.649 74.025 155.498 74.4308 155.485 74.9535C155.449 76.3716 154.976 116.854 155.156 122.303C155.236 124.542 155.335 126.766 155.441 128.99Z" fill="#5A47FB"/>
<path d="M215.896 161.383C215.542 137.469 214.019 103.274 214 92.7326C213.991 88.3918 214.839 89.3896 207.775 89.508C202.576 89.5947 196.328 89.4358 191.58 89.8358C191.511 89.8433 191.445 89.8701 191.39 89.9131C191.336 89.9561 191.295 90.0136 191.271 90.079C191.248 90.1444 191.243 90.2151 191.258 90.2829C191.273 90.3508 191.307 90.413 191.356 90.4626C191.067 98.3153 190.937 106.181 190.892 114.048C193.25 113.346 198.426 113.022 203.775 120.721C204.249 121.404 204.607 122.16 204.835 122.96C206.148 127.449 206.383 132.185 205.52 136.782C205.35 137.534 205.008 138.236 204.521 138.834C204.034 139.432 203.416 139.91 202.715 140.23C200.442 141.269 196.416 143.127 191.116 145.573C191.236 152.334 192.156 182.712 192.221 184.802C192.238 185.354 192.111 186.102 192.654 186.459C193.552 187.036 206.553 186.459 214.671 186.579C215.023 186.628 215.381 186.623 215.731 186.563C216.329 186.371 216.361 185.832 216.373 185.295C216.728 168.798 216.006 168.888 215.896 161.383Z" fill="#5A47FB"/>
<path d="M256.244 7.76618C256.468 8.20784 256.591 8.69344 256.605 9.18824C256.619 9.68304 256.523 10.1748 256.325 10.6283C256.127 11.0819 255.831 11.486 255.458 11.8118C255.085 12.1376 254.645 12.3769 254.169 12.5128C253.783 12.5533 253.419 12.7099 253.124 12.9619C253.059 13.0305 253.023 13.1211 253.023 13.2153C253.023 13.3095 253.059 13.4002 253.124 13.4687C254.256 14.3684 256.107 12.9604 256.81 12.0247C257.306 11.371 257.595 10.5843 257.64 9.76532C257.685 8.94639 257.485 8.13259 257.064 7.42827C256.803 7.00083 256.069 7.28676 256.244 7.76618Z" fill="#1B1B1B"/>
<path d="M258.318 8.39262C258.066 8.91999 257.989 9.51356 258.096 10.0879C258.204 10.6621 258.491 11.1875 258.916 11.5883C259.629 12.2468 261.463 12.8778 262.124 11.8771C262.153 11.8263 262.171 11.7696 262.175 11.7112C262.179 11.6528 262.17 11.5942 262.148 11.5397C262.127 11.4853 262.094 11.4363 262.051 11.3965C262.008 11.3567 261.956 11.327 261.901 11.3096C261.563 11.2751 261.223 11.2902 260.89 11.3544C260.573 11.3507 260.261 11.2716 259.98 11.1237C259.7 10.9759 259.458 10.7634 259.276 10.5038C259.094 10.2443 258.976 9.94509 258.932 9.63098C258.888 9.31688 258.92 8.99685 259.024 8.69732C259.132 8.27132 258.514 7.97529 258.318 8.39262Z" fill="#1B1B1B"/>
<path d="M254.916 15.1249C255.255 15.0039 255.619 14.9694 255.975 15.0246C256.331 15.0797 256.667 15.2227 256.954 15.4406C257.241 15.6585 257.469 15.9444 257.617 16.2726C257.765 16.6007 257.83 16.9606 257.804 17.3198C257.717 17.6721 257.743 18.0429 257.877 18.3798C257.908 18.4292 257.953 18.4676 258.007 18.4891C258.061 18.5107 258.12 18.5144 258.176 18.4996C259.488 18.1328 258.77 15.9509 258.191 15.2592C257.774 14.7547 257.195 14.4106 256.553 14.2855C255.91 14.1604 255.245 14.2621 254.669 14.5733C254.364 14.7408 254.572 15.2 254.916 15.1249Z" fill="#1B1B1B"/>
<path d="M261.603 13.7516C259.324 13.5133 258.302 16.6614 259.797 17.4686C259.838 17.4902 259.885 17.4995 259.931 17.4957C259.978 17.4919 260.023 17.4749 260.06 17.4469C260.097 17.4188 260.126 17.3807 260.143 17.3371C260.16 17.2934 260.164 17.2459 260.155 17.2C259.992 16.1401 260.243 14.5328 261.618 14.4245C261.707 14.4226 261.792 14.3853 261.853 14.3209C261.915 14.2564 261.949 14.1701 261.947 14.0808C261.945 13.9916 261.908 13.9068 261.843 13.845C261.779 13.7833 261.692 13.7497 261.603 13.7516Z" fill="#1B1B1B"/>
<path d="M210.029 18.3049C209.98 18.7982 209.824 19.2747 209.57 19.7006C209.317 20.1266 208.973 20.4915 208.562 20.7694C208.152 21.0473 207.686 21.2314 207.196 21.3086C206.706 21.3858 206.206 21.3542 205.73 21.2161C205.38 21.038 204.983 20.9753 204.595 21.0371C204.505 21.0588 204.427 21.1143 204.377 21.192C204.327 21.2697 204.309 21.3637 204.326 21.4544C204.801 22.819 207.119 22.6198 208.208 22.201C208.97 21.9004 209.628 21.3848 210.102 20.7169C210.577 20.0491 210.847 19.2577 210.879 18.4392C210.884 18.3328 210.85 18.2282 210.782 18.1457C210.715 18.0631 210.619 18.0083 210.514 17.9916C210.409 17.975 210.301 17.9978 210.212 18.0556C210.122 18.1134 210.057 18.2022 210.029 18.3049Z" fill="#1B1B1B"/>
<path d="M211.461 19.9466C210.967 20.2604 210.585 20.7232 210.37 21.2683C210.156 21.8134 210.12 22.4125 210.268 22.9792C210.52 23.9192 211.736 25.434 212.836 24.9344C212.887 24.9065 212.932 24.8675 212.966 24.82C213 24.7726 213.023 24.7181 213.033 24.6606C213.043 24.6031 213.039 24.5441 213.023 24.488C213.007 24.4319 212.979 24.3801 212.94 24.3366C212.67 24.1299 212.374 23.9595 212.059 23.8297C211.792 23.6576 211.571 23.4242 211.413 23.1489C211.255 22.8737 211.165 22.5646 211.151 22.2475C211.137 21.9304 211.199 21.6145 211.332 21.3263C211.464 21.0381 211.664 20.7858 211.915 20.5907C212.217 20.2831 211.851 19.6954 211.461 19.9466Z" fill="#1B1B1B"/>
<path d="M204.983 23.8268C205.336 23.9053 205.663 24.0706 205.935 24.3077C206.207 24.5447 206.416 24.846 206.542 25.1842C206.668 25.5223 206.707 25.8866 206.657 26.244C206.606 26.6014 206.467 26.9405 206.253 27.2305C205.994 27.4846 205.822 27.8134 205.76 28.1705C205.756 28.2309 205.773 28.291 205.808 28.3401C205.843 28.3893 205.895 28.4243 205.954 28.4391C207.253 28.7973 207.808 26.6023 207.701 25.707C207.623 25.0557 207.318 24.4525 206.841 24.0026C206.364 23.5526 205.743 23.2845 205.089 23.2449C205.016 23.2397 204.943 23.2618 204.885 23.3067C204.827 23.3517 204.788 23.4165 204.775 23.4886C204.762 23.5607 204.776 23.6351 204.814 23.6975C204.853 23.76 204.913 23.806 204.983 23.8268Z" fill="#1B1B1B"/>
<path d="M211.372 26.2167C209.613 24.8175 207.04 26.8507 207.85 28.3958C207.872 28.4386 207.907 28.4737 207.949 28.4966C207.992 28.5196 208.04 28.5292 208.089 28.5244C208.137 28.5196 208.182 28.5005 208.219 28.4697C208.257 28.4388 208.284 28.3975 208.297 28.3511C208.731 27.3807 209.79 26.1575 210.999 26.7843C211.074 26.8337 211.166 26.8511 211.254 26.8329C211.343 26.8146 211.42 26.762 211.469 26.6868C211.519 26.6115 211.536 26.5197 211.518 26.4316C211.5 26.3434 211.447 26.2662 211.372 26.2167Z" fill="#1B1B1B"/>
<path d="M254.348 36.695C254.3 37.1883 254.144 37.665 253.89 38.0911C253.637 38.5171 253.293 38.8821 252.882 39.1601C252.472 39.438 252.005 39.6221 251.516 39.6992C251.026 39.7763 250.525 39.7446 250.049 39.6062C249.699 39.428 249.302 39.3653 248.914 39.4271C248.824 39.4492 248.746 39.5049 248.696 39.5829C248.646 39.6608 248.628 39.755 248.646 39.8459C249.121 41.2105 251.437 41.0098 252.527 40.591C253.288 40.291 253.946 39.7765 254.42 39.11C254.894 38.4435 255.165 37.6537 255.199 36.8365C255.206 36.7292 255.173 36.6231 255.106 36.5388C255.039 36.4545 254.944 36.398 254.838 36.3804C254.732 36.3627 254.623 36.3852 254.532 36.4433C254.442 36.5015 254.376 36.5912 254.348 36.695Z" fill="#1B1B1B"/>
<path d="M255.781 38.3384C255.286 38.6517 254.903 39.1145 254.688 39.6596C254.474 40.2048 254.438 40.8041 254.586 41.3709C254.839 42.3124 256.054 43.8258 257.154 43.3261C257.205 43.2986 257.25 43.2597 257.284 43.2125C257.318 43.1653 257.341 43.1109 257.351 43.0535C257.361 42.9961 257.358 42.9371 257.343 42.8811C257.327 42.825 257.298 42.7732 257.259 42.7297C256.99 42.5221 256.693 42.3512 256.379 42.2214C256.112 42.0495 255.89 41.8162 255.731 41.5409C255.573 41.2656 255.483 40.9564 255.469 40.6392C255.455 40.3221 255.517 40.0061 255.65 39.7178C255.783 39.4295 255.983 39.1774 256.234 38.9824C256.534 38.6734 256.175 38.0857 255.781 38.3384Z" fill="#1B1B1B"/>
<path d="M249.303 42.2039C249.655 42.2824 249.982 42.4477 250.254 42.6847C250.526 42.9218 250.735 43.223 250.861 43.5612C250.987 43.8994 251.027 44.2637 250.976 44.6211C250.926 44.9784 250.787 45.3175 250.572 45.6075C250.313 45.8615 250.14 46.1903 250.078 46.5476C250.074 46.608 250.092 46.6678 250.127 46.7168C250.163 46.7658 250.214 46.8009 250.273 46.8162C251.58 47.1743 252.127 44.9793 252.019 44.084C251.94 43.4338 251.635 42.832 251.157 42.3834C250.68 41.9349 250.061 41.6679 249.407 41.6291C249.048 41.5772 248.991 42.0956 249.303 42.2039Z" fill="#1B1B1B"/>
<path d="M255.706 44.6068C253.98 43.2046 251.373 45.2277 252.184 46.7859C252.206 46.8287 252.241 46.8638 252.283 46.8867C252.326 46.9096 252.374 46.9193 252.422 46.9145C252.471 46.9097 252.516 46.8906 252.553 46.8597C252.591 46.8288 252.618 46.7875 252.631 46.7411C253.064 45.7707 254.13 44.5346 255.347 45.1743C255.422 45.2142 255.51 45.2242 255.592 45.2024C255.674 45.1806 255.745 45.1286 255.79 45.0568C255.835 44.985 255.852 44.8987 255.836 44.8152C255.82 44.7318 255.774 44.6573 255.706 44.6068Z" fill="#1B1B1B"/>
<path d="M150.574 168.756C151.617 181.787 153.511 194.761 155.127 207.731C156.735 220.644 161.815 264.799 162.501 268.426C162.645 269.216 164.011 269.216 163.978 268.351C163.845 264.846 154.909 188.366 151.425 168.567C151.337 168.025 150.529 168.205 150.574 168.756Z" fill="#1B1B1B"/>
<path d="M78.1622 192.715C78.1795 192.23 78.0805 191.749 77.8734 191.311C77.8331 191.244 77.7782 191.187 77.7128 191.144C77.6474 191.102 77.5732 191.074 77.4957 191.064C77.4182 191.054 77.3394 191.062 77.2653 191.087C77.1912 191.111 77.1236 191.153 77.0677 191.207C76.3788 192.04 76.7167 193.757 77.0388 194.715C77.0921 194.9 77.2164 195.058 77.3849 195.153C77.5533 195.247 77.7523 195.272 77.9388 195.221C78.1253 195.17 78.2842 195.048 78.3811 194.881C78.4781 194.713 78.5053 194.515 78.4568 194.328C78.35 193.776 78.2258 193.252 78.1622 192.715Z" fill="#1B1B1B"/>
<path d="M134.915 200.163C127.559 199.802 126.528 198.625 126.063 199.626C121.747 208.416 116.814 216.89 111.3 224.984C108.031 217.37 104.564 209.613 98.3429 203.936C95.1286 200.907 91.2166 198.718 86.9537 197.562C79.7507 195.675 67.9297 194.511 60.8322 196.218C60.1448 196.384 60.4437 197.402 61.121 197.278C65.0647 196.556 75.8807 196.622 84.75 198.637C89.0809 199.433 93.1091 201.406 96.3934 204.339C98.8498 206.443 101.001 208.88 102.783 211.578C106.794 217.934 109.927 224.803 112.097 231.999C113.452 236.946 113.191 238.607 113.814 239.402C114.037 239.691 114.548 239.807 114.74 239.402C115.038 238.167 114.976 236.872 114.56 235.671C113.998 232.63 113.113 229.657 111.918 226.804C117.562 218.534 122.675 209.914 127.225 200.995C129.478 201.425 131.757 201.699 134.047 201.817C133.904 209.564 133.069 217.283 131.553 224.882C130.193 232.182 128.232 239.378 123.791 245.467C113.862 259.102 100.782 257.597 90.0714 244.81C84.5334 238.204 81.6164 230.543 78.9059 225.226C78.8221 225.09 78.6927 224.989 78.5408 224.94C78.3889 224.891 78.2246 224.898 78.0772 224.959C77.9298 225.02 77.809 225.132 77.7365 225.274C77.664 225.416 77.6444 225.579 77.6814 225.734C78.8698 229.066 80.3068 232.304 81.9803 235.421C86.8208 244.705 94.2144 254.132 104.417 256.319C111.736 257.889 117.803 254.806 122.756 249.319C128.028 243.485 130.815 236.257 132.444 228.66C134.501 219.591 135.592 210.329 135.698 201.03C135.708 200.92 135.695 200.81 135.661 200.706C135.626 200.602 135.57 200.506 135.497 200.424C135.423 200.343 135.333 200.278 135.233 200.233C135.133 200.188 135.025 200.164 134.915 200.163Z" fill="#5A47FB"/>
<path d="M99.4476 255.693C94.971 273.954 90.2057 277.814 89.4764 280.949C89.4494 281.06 89.4592 281.177 89.5043 281.283C89.5494 281.388 89.6274 281.476 89.7266 281.533C89.8258 281.59 89.9408 281.614 90.0545 281.6C90.1682 281.587 90.2744 281.537 90.3573 281.457C92.532 279.774 99.3378 266.844 100.508 255.827C100.571 255.231 99.5877 255.127 99.4476 255.693Z" fill="#5A47FB"/>
<path d="M46.1736 226.54C45.9195 225.987 45.1902 226.331 45.1425 226.829C44.8436 229.947 47.7491 240.485 45.0833 258.909C44.3122 264.231 43.6061 265.941 43.6061 267.7C43.6084 267.802 43.6439 267.901 43.7071 267.982C43.7703 268.063 43.8579 268.121 43.9568 268.148C44.0557 268.174 44.1606 268.168 44.2559 268.131C44.3512 268.093 44.4317 268.025 44.4855 267.938C45.0228 266.728 45.4042 265.454 45.6205 264.148C49.3361 248.377 47.7751 230.038 46.1736 226.54Z" fill="#5A47FB"/>
<path d="M42.1273 262.215C38.6789 262.325 35.245 263.145 31.8283 262.156C30.3067 261.668 28.9322 260.805 27.8312 259.647C26.7303 258.489 25.9382 257.072 25.5279 255.528C23.6406 249.401 26.5388 239.454 29.0659 233.578C32.0363 226.647 33.8876 225.492 34.8276 222.696C34.972 222.263 34.3944 221.773 34.0219 222.069C32.6187 223.363 31.4697 224.907 30.6341 226.622C26.2687 234.108 21.5366 247.446 23.7027 255.521C25.9799 263.979 33.902 265.989 42.2125 263.104C42.6948 262.932 42.6501 262.2 42.1273 262.215Z" fill="#5A47FB"/>
<path d="M103.394 175.862C102.878 174.015 101.972 172.299 100.737 170.831C100.339 170.336 99.9197 169.689 99.3046 169.488C99.2028 169.451 99.0927 169.444 98.9868 169.466C98.8809 169.489 98.7834 169.541 98.7056 169.616C98.6277 169.691 98.5726 169.787 98.5465 169.892C98.5204 169.997 98.5244 170.107 98.558 170.21C98.7501 170.876 99.1183 170.862 100.379 172.674C101.022 173.595 102.484 175.977 101.947 176.973C101.637 177.551 101.081 177.66 99.4244 178.644C99.7869 176.287 97.4259 172.093 94.9479 171.016C94.932 171.016 94.9176 171.002 94.9031 171.002C95.1717 170.867 95.4403 170.733 95.693 170.628C96.4555 170.314 97.6425 170.184 97.9919 169.374C98.0434 169.247 98.0442 169.105 97.9942 168.978C97.9443 168.85 97.8473 168.747 97.7233 168.688C96.932 168.241 95.6222 169.052 94.8872 169.419C94.1039 169.737 93.3894 170.203 92.7832 170.792C92.4164 170.925 92.1092 171.185 91.9168 171.524C91.6583 171.909 91.9024 172.644 92.4699 172.509C93.2297 172.372 94.0135 172.484 94.7047 172.828C95.3958 173.172 95.9572 173.731 96.3053 174.42C97.0273 175.448 98.262 177.51 97.6497 178.823C97.4709 179.114 97.1922 179.331 96.8655 179.433C96.5388 179.535 96.1863 179.514 95.8735 179.376C94.2085 178.831 92.9666 175.815 92.4078 174.121C92.2042 173.692 92.1024 173.222 92.1103 172.748C92.2027 172.301 91.5154 171.958 91.2583 172.375C90.9941 172.92 90.8656 173.521 90.884 174.127C90.9023 174.732 91.0669 175.324 91.3637 175.852C91.786 177.154 92.4326 178.372 93.2742 179.451C94.5277 180.943 96.9912 181.868 98.5436 180.42C99.7749 179.974 100.956 179.399 102.066 178.704C102.556 178.428 102.947 178.006 103.185 177.496C103.424 176.987 103.497 176.415 103.394 175.862Z" fill="#1B1B1B"/>
<path d="M270.649 20.4548C263.531 21.6476 256.497 23.5841 249.467 25.2318C242.438 26.8794 225.074 30.9156 223.474 31.3358C219.928 32.2715 219.34 34.2441 217.638 37.4268C210.26 51.2665 203.923 65.6365 198.68 80.4177C181.913 69.505 165.192 57.2406 152.839 47.294C152.669 47.1574 152.453 47.0932 152.237 47.1153C152.02 47.1375 151.821 47.2443 151.683 47.4124C142.811 61.2436 133.923 75.0463 125.019 88.8206C110.194 77.8343 109.892 75.5238 108.897 76.4465C93.9963 90.3975 89.0403 93.4604 81.6699 100.091C81.5786 100.166 81.5191 100.272 81.5036 100.388C81.488 100.505 81.5176 100.623 81.5862 100.718C81.6549 100.814 81.7574 100.879 81.8728 100.901C81.9883 100.924 82.1078 100.901 82.2071 100.838C89.875 95.7333 102.682 84.3181 109.355 78.1332C114.281 82.5217 119.438 86.6372 124.716 90.5824C124.797 90.6486 124.89 90.698 124.991 90.7278C125.091 90.7576 125.196 90.7673 125.3 90.7561C125.404 90.745 125.505 90.7133 125.597 90.6629C125.689 90.6125 125.77 90.5444 125.835 90.4625C134.573 76.5996 143.614 62.9071 152.495 49.1453C168.327 61.7735 184.039 73.0068 198.56 82.3729C198.662 82.4529 198.78 82.5091 198.906 82.5376C199.032 82.566 199.163 82.5659 199.289 82.5372C199.415 82.5086 199.533 82.4521 199.634 82.3719C199.735 82.2918 199.817 82.19 199.874 82.074C205.371 66.5772 212.028 51.5164 219.788 37.0196C220.317 35.5851 221.289 34.3565 222.563 33.512C224.105 32.9169 225.707 32.4913 227.34 32.2426C227.493 32.208 267.114 23.031 270.972 21.8455C271.133 21.7816 271.265 21.6622 271.345 21.5091C271.425 21.356 271.447 21.1793 271.408 21.0111C271.369 20.8428 271.271 20.6942 271.132 20.5921C270.992 20.4901 270.821 20.4414 270.649 20.4548Z" fill="#1B1B1B"/>
<path d="M107.061 75.0142C106.64 75.5558 106.386 76.2081 106.33 76.8914C106.116 77.4669 106.08 78.0935 106.227 78.6896C106.375 79.2857 106.698 79.8235 107.156 80.233C107.613 80.6424 108.184 80.9044 108.792 80.9848C109.401 81.0651 110.02 80.9601 110.568 80.6835C110.965 80.4627 111.313 80.1649 111.593 79.8075C111.874 79.4502 112.079 79.0405 112.199 78.6026C112.319 78.1646 112.349 77.7072 112.29 77.2571C112.23 76.8071 112.081 76.3734 111.852 75.9817C110.921 74.3817 108.448 73.3694 107.061 75.0142Z" fill="#5A47FB"/>
<path d="M150.275 45.04C149.855 45.5819 149.601 46.2339 149.543 46.9173C149.33 47.4929 149.294 48.1194 149.442 48.7154C149.589 49.3113 149.913 49.8489 150.371 50.2582C150.828 50.6675 151.399 50.9295 152.007 51.0099C152.616 51.0904 153.235 50.9857 153.783 50.7094C154.18 50.4886 154.528 50.1908 154.808 49.8334C155.088 49.4761 155.294 49.0664 155.414 48.6285C155.533 48.1905 155.564 47.7331 155.505 47.283C155.445 46.8329 155.296 46.3993 155.067 46.0076C154.135 44.4075 151.66 43.3953 150.275 45.04Z" fill="#5A47FB"/>
<path d="M224.747 31.3662C223.819 29.7706 221.341 28.7669 219.971 30.3958C219.55 30.9374 219.296 31.5896 219.239 32.2731C219.025 32.8486 218.989 33.4753 219.137 34.0714C219.284 34.6675 219.608 35.2052 220.066 35.6145C220.524 36.0238 221.094 36.2856 221.703 36.3657C222.312 36.4458 222.931 36.3406 223.479 36.0637C223.873 35.8416 224.22 35.543 224.498 35.1853C224.776 34.8277 224.98 34.4183 225.098 33.981C225.216 33.5436 225.246 33.0872 225.186 32.6382C225.125 32.1893 224.976 31.7569 224.747 31.3662Z" fill="#5A47FB"/>
<path d="M196.983 78.9392C196.563 79.4812 196.309 80.1332 196.251 80.8165C196.037 81.392 196.001 82.0187 196.149 82.6148C196.296 83.2108 196.62 83.7486 197.078 84.1579C197.536 84.5671 198.106 84.8289 198.715 84.9091C199.324 84.9892 199.943 84.884 200.491 84.6071C200.887 84.3863 201.236 84.0885 201.516 83.7311C201.796 83.3738 202.002 82.9641 202.121 82.5262C202.241 82.0882 202.272 81.6308 202.212 81.1807C202.153 80.7307 202.004 80.297 201.775 79.9053C200.843 78.3081 198.356 77.2988 196.983 78.9392Z" fill="#5A47FB"/>
<path d="M122.869 86.9997C122.448 87.5411 122.194 88.1935 122.138 88.877C121.924 89.4524 121.889 90.0788 122.036 90.6746C122.184 91.2704 122.507 91.808 122.965 92.2172C123.422 92.6263 123.993 92.8882 124.601 92.9685C125.21 93.0489 125.828 92.944 126.376 92.6676C126.773 92.4467 127.121 92.1488 127.401 91.7914C127.681 91.4341 127.887 91.0244 128.006 90.5865C128.126 90.1486 128.157 89.6913 128.097 89.2413C128.038 88.7912 127.889 88.3576 127.66 87.9658C126.739 86.3716 124.251 85.3665 122.869 86.9997Z" fill="#5A47FB"/>
<path d="M131.377 164.01C135.094 171.048 137.467 177.09 137.199 185.191C137.055 189.704 136.203 190.93 136.477 192.491C136.581 193.068 137.328 193.014 137.611 192.635C138.225 191.492 138.553 190.217 138.567 188.92C139.722 180.313 137.631 169.914 132.103 163.468C131.751 163.054 131.15 163.579 131.377 164.01Z" fill="#1B1B1B"/>
<path d="M126.197 164.174C129.124 168.459 131.107 171.702 132.109 176.996C132.625 179.704 132.386 180.485 132.96 181.549C133.003 181.624 133.065 181.685 133.14 181.728C133.214 181.771 133.299 181.793 133.385 181.793C133.471 181.793 133.556 181.771 133.63 181.728C133.705 181.685 133.767 181.624 133.81 181.549C134.228 180 134.192 178.363 133.706 176.833C132.809 171.852 130.48 167.241 127.004 163.562C126.591 163.153 125.852 163.668 126.197 164.174Z" fill="#1B1B1B"/>
<path d="M123.227 168.547C125.325 171.374 126.796 174.616 127.542 178.056C127.65 179.238 127.968 180.39 128.482 181.46C128.538 181.551 128.62 181.625 128.718 181.671C128.815 181.717 128.924 181.734 129.031 181.72C129.137 181.706 129.238 181.661 129.32 181.591C129.402 181.521 129.462 181.429 129.493 181.325C129.636 180.076 129.472 178.81 129.015 177.639C128.259 174.004 126.509 170.65 123.96 167.951C123.585 167.637 122.889 168.098 123.227 168.547Z" fill="#1B1B1B"/>
<path d="M119.884 173.385C122.628 178.163 126.181 182.354 127.302 188.133C127.56 190.038 127.709 191.956 127.75 193.879C127.856 194.521 128.794 194.416 128.96 193.879C129.369 191.924 129.319 189.901 128.815 187.968C127.724 182.277 124.073 177.427 120.561 172.862C120.249 172.465 119.644 172.967 119.884 173.385Z" fill="#1B1B1B"/>
<path d="M147.842 169.458C145.592 177.489 129.256 263.663 128.616 268.008C128.472 269.008 129.986 269.485 130.204 268.441C131.504 262.034 132.532 255.559 133.712 249.125C134.892 242.692 148.586 173.486 149.146 169.831C149.27 168.98 148.08 168.608 147.842 169.458Z" fill="#1B1B1B"/>
<path d="M125.153 186.699C124.734 185.311 124.195 183.962 123.54 182.668C123.54 182.848 123.553 183.027 123.556 183.206C123.601 185.759 123.322 186.699 125.153 186.699Z" fill="#5A47FB"/>
<path d="M138.423 170.742C140.26 175.815 141.062 181.206 140.782 186.595C141.051 186.595 141.319 186.595 141.573 186.58C143.731 177.639 145.162 172.329 146.782 166.742C144.005 168.054 141.214 169.399 138.423 170.742Z" fill="#5A47FB"/>
<path d="M200.222 137.498C198.797 137.963 197.397 138.501 196.027 139.111C194.627 139.774 146.08 162.532 136.691 167.159C136.795 167.358 137.338 168.421 137.454 168.727C139.975 167.488 194.774 141.663 196.341 140.918C197.879 140.186 199.282 139.337 200.745 138.454C201.313 138.112 200.774 137.305 200.222 137.498Z" fill="#1B1B1B"/>
<path d="M204.013 126.841C203.266 123.53 201.387 120.584 198.699 118.512C197.36 117.413 195.826 116.577 194.176 116.048C192.042 115.495 189.997 116.796 188.111 117.617C160.53 129.631 142.135 137.367 125.074 146.064C120.565 148.363 102.788 157.948 101.728 158.558C100.534 159.246 99.4461 160.041 98.2938 160.768C98.2387 160.802 98.1942 160.85 98.1654 160.908C98.1365 160.966 98.1245 161.031 98.1306 161.096C95.6757 161.291 93.9674 164.245 94.3833 166.634C94.4439 166.977 94.9609 167.112 95.1053 166.739C95.5862 165.396 95.6295 163.949 96.8526 162.992C98.1667 161.963 99.514 162.703 100.659 163.589C102.854 165.42 104.609 167.721 105.794 170.322C107.328 172.967 108.18 175.953 108.272 179.009C108.227 180.277 108.077 182.254 106.395 182.186C105.688 182.123 105.017 181.847 104.47 181.395C103.947 180.99 103.604 180.424 103.111 180.005C103.014 179.934 102.899 179.891 102.779 179.883C102.658 179.875 102.538 179.902 102.433 179.96C102.327 180.018 102.241 180.106 102.184 180.212C102.126 180.318 102.101 180.438 102.11 180.559C102.659 183.282 107.768 185.244 109.276 181.798C112.938 180.863 116.463 179.459 119.764 177.618C119.446 177.149 119.157 176.66 118.898 176.156C115.887 177.734 112.798 179.159 109.643 180.426C110.72 173.234 103.849 162.486 99.3725 161.2H99.3566C100.119 160.886 100.895 160.602 101.627 160.229C131.529 145.017 123.051 147.461 191.129 118.207C191.593 117.941 192.108 117.775 192.641 117.721C193.173 117.667 193.711 117.726 194.219 117.894C196.802 118.928 199.007 120.727 200.539 123.05C202.07 125.373 202.855 128.109 202.788 130.89C202.702 132.815 202.35 134.719 201.743 136.548C201.429 137.623 203.042 138.34 203.354 137.27C204.456 133.49 205.041 130.955 204.013 126.841Z" fill="#1B1B1B"/>
<path d="M84.5955 180.265C84.5955 180.326 84.6075 180.386 84.6308 180.443C84.6541 180.499 84.6883 180.55 84.7314 180.593C84.7744 180.636 84.8255 180.67 84.8818 180.693C84.938 180.716 84.9982 180.728 85.059 180.727C86.5363 180.72 86.5031 178.518 86.1175 177.551C85.4663 175.936 83.8345 175.132 82.9233 173.728C82.7789 173.584 82.6475 172.493 81.3421 169.49C83.0143 165.809 81.2179 161.227 76.1622 160.04C73.5034 159.032 70.6336 158.708 67.8171 159.1C57.4199 160.431 52.1852 168.672 53.8906 175.803C52.4753 177.168 51.479 178.909 51.0186 180.821C50.5582 182.733 50.6528 184.736 51.2913 186.596C50.2249 186.888 49.2291 187.394 48.3649 188.084C47.5007 188.773 46.7862 189.632 46.265 190.607C45.7439 191.582 45.427 192.653 45.3338 193.755C45.2406 194.857 45.3731 195.966 45.7231 197.015C43.4406 197.775 41.4303 199.186 39.9398 201.075C38.4493 202.963 37.5437 205.246 37.3346 207.643C35.6345 207.869 34.0153 208.506 32.6175 209.499C31.2198 210.493 30.0858 211.813 29.3143 213.344C29.0341 213.913 28.8998 214.54 28.6284 215.106C28.0753 216.253 27.063 215.326 19.8052 217.389C19.1178 217.5 18.4645 217.766 17.8947 218.166C16.7467 219.242 17.8196 220.765 18.4319 221.793C19.268 223.197 20.1734 224.544 21.1337 225.853C21.2535 226.041 21.4396 226.178 21.6554 226.236C21.8712 226.294 22.1009 226.269 22.2991 226.166C24.3828 225.259 26.216 223.86 27.6421 222.091C28.315 221.256 28.8811 220.224 30.0161 220.032C31.076 219.851 32.1504 220.061 33.2248 219.887C34.9911 219.55 36.615 218.689 37.885 217.416C39.1551 216.144 40.0124 214.518 40.3454 212.751C41.675 212.761 42.9923 212.495 44.2142 211.971C45.4361 211.447 46.5363 210.675 47.4452 209.705C48.3542 208.735 49.0523 207.586 49.4955 206.333C49.9388 205.079 50.1175 203.748 50.0206 202.421C51.1456 202.356 52.2456 202.063 53.2541 201.56C54.2625 201.057 55.1585 200.355 55.8877 199.496C57.444 197.576 58.5371 195.323 59.082 192.912C61.8976 193.539 64.8378 193.283 67.503 192.18C70.1683 191.077 72.4293 189.181 73.9788 186.748C74.7018 185.788 75.109 184.627 75.1442 183.426C75.6411 183.581 76.1642 183.635 76.6822 183.584C77.2002 183.532 77.7026 183.377 78.1594 183.127C80.363 181.964 79.7926 180.375 78.9507 180.59C78.3225 180.751 78.0395 181.425 77.4879 181.754C76.9517 182.047 76.3343 182.156 75.7303 182.064C75.1262 181.973 74.5689 181.686 74.1435 181.247C73.6989 180.682 73.4454 179.99 73.4194 179.271C73.3935 178.552 73.5964 177.843 73.999 177.247C74.3101 176.878 74.7494 176.641 75.2284 176.583C75.7074 176.525 76.1907 176.65 76.581 176.934C77.4157 177.696 78.6503 176.476 77.82 175.695C77.4818 175.374 77.1116 175.089 76.7153 174.843C78.2119 173.711 79.5267 172.357 80.6143 170.828C82.1923 175.813 83.1597 180.97 83.4951 186.187C83.5312 188.693 82.7731 189.704 79.7493 189.621C78.5616 189.473 77.3847 189.249 76.2258 188.95C76.0688 188.912 75.9036 188.932 75.7596 189.005C75.6155 189.078 75.5021 189.199 75.4393 189.348C75.3766 189.497 75.3686 189.663 75.4169 189.817C75.4652 189.971 75.5666 190.103 75.703 190.189C76.8263 190.819 78.0786 191.184 79.3645 191.256C80.6504 191.329 81.9357 191.106 83.1226 190.606C85.3146 189.379 85.1804 186.707 84.9883 184.541C84.7454 181.655 84.2624 178.794 83.5442 175.988C83.833 176.332 84.1132 176.658 84.3948 177.034C85.7767 178.881 84.7096 179.373 84.5955 180.265ZM53.8747 185.475C53.0603 186.29 51.544 183.555 52.5014 181.639C52.6805 181.281 53.1455 181.494 53.1744 181.818C53.1817 182.384 53.2416 182.949 53.3534 183.504C53.5368 184.176 54.2964 185.142 53.8747 185.475ZM59.1296 165.279C58.8235 166.271 57.4704 167.409 57.1888 170.115C57.2229 170.677 57.124 171.24 56.9 171.757C56.8632 171.817 56.8116 171.867 56.7502 171.901C56.6888 171.935 56.6195 171.954 56.5491 171.954C56.4787 171.954 56.4095 171.935 56.348 171.901C56.2866 171.867 56.235 171.817 56.1982 171.757C55.5195 170.837 56.1722 168.953 56.5419 167.995C56.9491 166.937 57.6062 165.405 58.721 164.95C58.9174 164.872 59.2062 165.026 59.1296 165.279Z" fill="#1B1B1B"/>
</svg>
