<svg width="250" height="250" viewBox="0 0 250 250" fill="none" xmlns="http://www.w3.org/2000/svg">
<path d="M194.085 119.342C195.171 119.592 195.939 118.592 196.329 117.717C197.476 115.152 196.365 114.302 195.98 114.659C195.464 115.13 195.605 116.074 195.426 116.711C195.346 117.127 195.177 117.52 194.931 117.865C194.686 118.21 194.369 118.499 194.002 118.711C193.945 118.746 193.899 118.797 193.87 118.858C193.841 118.919 193.831 118.987 193.839 119.053C193.848 119.12 193.876 119.183 193.919 119.234C193.963 119.286 194.021 119.323 194.085 119.342Z" fill="#1B1B1B"/>
<path d="M196 113.264C196.625 113.299 196.821 113.824 197.232 113.819C197.711 113.819 197.785 113.027 196.926 112.702C196.603 112.581 196.251 112.556 195.914 112.63C195.536 112.706 195.646 113.25 196 113.264Z" fill="#1B1B1B"/>
<path d="M190.024 110.9C189.858 111.023 189.742 111.2 189.695 111.401C189.647 111.601 189.672 111.812 189.765 111.996C189.855 112.349 190.079 112.652 190.39 112.84C190.489 112.894 190.601 112.918 190.714 112.91C190.826 112.901 190.933 112.86 191.023 112.791C191.112 112.723 191.18 112.629 191.217 112.523C191.255 112.417 191.26 112.302 191.234 112.192C191.092 111.728 190.873 111.29 190.586 110.897C190.5 110.849 190.403 110.824 190.305 110.825C190.206 110.825 190.109 110.851 190.024 110.9Z" fill="#1B1B1B"/>
<path d="M190.165 109.215C190.309 109.146 190.465 109.107 190.624 109.099C190.783 109.092 190.942 109.118 191.091 109.174C191.407 109.271 191.607 109.549 191.942 109.567C192.043 109.565 192.139 109.523 192.21 109.452C192.281 109.381 192.322 109.285 192.325 109.185C192.4 108.47 190.89 107.696 189.792 108.734C189.534 108.974 189.862 109.382 190.165 109.215Z" fill="#1B1B1B"/>
<path d="M219.75 139.136C219.715 139.021 219.643 138.92 219.546 138.849C219.449 138.777 219.332 138.739 219.211 138.739C219.091 138.739 218.973 138.777 218.876 138.849C218.779 138.92 218.708 139.021 218.672 139.136C218.215 140.99 218.085 142.909 218.286 144.808C217.495 145.567 216.559 146.159 215.533 146.547C214.508 146.936 213.414 147.113 212.319 147.069C210.449 147.102 208.599 146.687 206.922 145.859C207.936 144.109 207.74 141.449 207.754 139.529C207.774 136.941 207.597 134.355 207.222 131.794C207.16 131.364 206.461 131.47 206.472 131.894C206.794 145.095 204.805 145.316 205.915 146.383C208.759 149.604 218.04 149.59 219.459 145.383C219.475 145.31 220.281 140.863 219.75 139.136Z" fill="#1B1B1B"/>
<path d="M216.313 149.566C216.296 149.507 216.266 149.452 216.225 149.405C216.184 149.359 216.133 149.323 216.076 149.3C216.018 149.277 215.957 149.267 215.895 149.271C215.833 149.275 215.773 149.294 215.72 149.325C214.245 150.417 214.045 153.552 210.896 157.325C210.254 158.169 209.371 158.799 208.364 159.13C206.989 158.72 205.47 158.661 204.064 158.306C196.314 156.341 186.408 151.329 182.13 151.96C180.365 152.224 178.625 152.636 176.93 153.194C177.038 153.021 177.423 152.26 177.096 151.932C176.179 151.015 172.065 152.579 169.048 153.259C170.552 152.384 171.958 151.352 173.244 150.179C173.879 149.619 173.119 149.87 178.994 150.179C183.46 150.452 187.937 150.5 192.408 150.322C194.434 150.23 196.46 150.047 198.489 150.12C201.006 150.359 203.499 150.802 205.945 151.442C206.651 151.581 207.106 150.002 207.285 149.317C207.534 148.533 207.619 147.706 207.535 146.887C207.509 146.799 207.457 146.72 207.387 146.66C207.317 146.6 207.231 146.562 207.139 146.55C207.048 146.538 206.955 146.552 206.872 146.592C206.788 146.632 206.718 146.695 206.67 146.774C206.434 147.499 206.237 148.236 206.078 148.982C205.882 149.454 205.712 149.936 205.568 150.426C202.023 148.47 197.344 148.845 193.47 149.045C188.8 149.253 184.123 149.212 179.458 148.92C173.733 148.605 173.859 148.366 173.208 148.61C172.223 149.174 171.31 149.853 170.485 150.632C168.628 151.842 166.64 152.837 164.559 153.6C164.441 153.634 164.34 153.709 164.273 153.811C164.206 153.914 164.178 154.037 164.195 154.158C164.211 154.28 164.27 154.391 164.362 154.472C164.454 154.553 164.571 154.598 164.694 154.6C167.059 154.514 169.407 154.162 171.694 153.549C172.896 153.291 175.539 152.811 175.684 152.805C175.176 153.269 174.695 153.761 174.244 154.28C174.148 154.382 174.091 154.516 174.085 154.656C174.078 154.796 174.121 154.935 174.207 155.046C174.293 155.157 174.416 155.234 174.553 155.263C174.691 155.292 174.834 155.271 174.958 155.204C177.372 154.113 179.942 153.407 182.575 153.111C185.969 152.815 189.121 154.914 199.851 158.572C202.36 159.427 205.851 161.04 208.53 160.43C210.336 159.809 211.895 158.627 212.979 157.055C213.849 155.816 216.535 150.837 216.313 149.566Z" fill="#1B1B1B"/>
<path d="M203.625 198.171C203.629 198.17 203.632 198.168 203.634 198.165C203.637 198.162 203.638 198.158 203.638 198.154C203.638 198.15 203.637 198.147 203.634 198.144C203.632 198.141 203.629 198.138 203.625 198.137C203.602 198.137 203.602 198.171 203.625 198.171Z" fill="#1B1B1B"/>
<path d="M74.2063 164.375C91.3838 165.265 108.726 164.561 125.92 164.226C141.795 163.916 182.236 162.682 186.591 162.539C190.679 162.404 195.04 162.68 199.054 161.874C199.895 161.704 199.574 160.601 198.867 160.509C195.164 160.022 191.205 160.532 187.474 160.657C183.621 160.782 84.0738 162.731 74.2063 163.169C74.051 163.176 73.9045 163.242 73.7972 163.355C73.6899 163.467 73.63 163.616 73.63 163.772C73.63 163.927 73.6899 164.077 73.7972 164.189C73.9045 164.301 74.051 164.368 74.2063 164.375Z" fill="#1B1B1B"/>
<path d="M120.09 143.774C119.932 144.104 119.706 144.397 119.426 144.632C119.145 144.868 118.818 145.041 118.465 145.139C116.636 145.49 116.364 143.591 117.184 142.264C117.364 142.012 117.608 141.812 117.89 141.683C118.173 141.555 118.484 141.503 118.792 141.533C119.045 141.556 119.289 141.639 119.502 141.775C119.716 141.912 119.894 142.098 120.021 142.317C120.148 142.537 120.221 142.784 120.233 143.037C120.245 143.291 120.196 143.543 120.09 143.774Z" fill="#1B1B1B"/>
<path d="M189.53 156.774C186.367 156.312 185.268 156.24 145.204 156.625C145.294 156.181 145.351 155.731 145.372 155.279C151.116 155.141 156.85 154.844 162.6 155.11C162.81 155.11 163.012 155.026 163.16 154.878C163.309 154.729 163.393 154.528 163.393 154.317C163.393 154.107 163.309 153.906 163.16 153.757C163.012 153.608 162.81 153.525 162.6 153.525C156.725 153.701 150.834 153.666 144.956 153.766C143.331 150.445 141.252 147.266 139.481 144.029C137.979 141.006 136.162 138.149 134.061 135.507C139.827 135.784 143.321 135.164 151.622 135.174C153.505 135.323 155.397 135.264 157.266 134.995C159.505 139.495 159.125 139.021 163.365 146.95C163.836 148.144 164.569 149.217 165.511 150.09C165.579 150.128 165.655 150.148 165.732 150.148C165.81 150.148 165.886 150.127 165.953 150.089C166.02 150.05 166.076 149.995 166.115 149.928C166.155 149.861 166.175 149.785 166.176 149.707C166.164 148.514 165.69 147.597 162.621 142.11C161.121 139.429 159.424 137 157.688 134.485C157.706 134.276 157.643 134.068 157.511 133.905C157.379 133.742 157.189 133.636 156.981 133.61C154.389 133.36 152.682 134.206 144.081 134.014C140.331 133.93 136.504 133.871 132.759 134.089C132.625 134.092 132.495 134.136 132.386 134.214C132.277 134.293 132.194 134.402 132.148 134.527C132.102 134.653 132.094 134.79 132.126 134.92C132.158 135.05 132.228 135.168 132.327 135.257C133.302 137.003 134.374 138.692 135.536 140.319C139.141 146.049 140.886 150.502 144.009 154.135C143.933 154.257 143.89 154.396 143.884 154.539C143.832 155.24 143.845 155.944 143.921 156.642C136.83 156.712 129.741 156.787 122.655 156.867C124.941 152.274 131.03 143.102 133.155 138.634C133.218 138.525 133.235 138.396 133.203 138.275C133.171 138.154 133.092 138.05 132.984 137.987C132.875 137.924 132.746 137.907 132.625 137.939C132.504 137.971 132.4 138.05 132.338 138.159C130.259 141.087 124.97 150.744 122.517 154.659C115.341 155 102.282 154.345 98.875 154.184C101.259 151.141 103.375 147.926 105.517 144.709C109.261 139.092 110.555 137.496 112.25 134.789C115.54 134.904 113.271 135.277 127.27 135.005C128.655 135.172 130.059 135.052 131.395 134.654C131.47 134.608 131.531 134.543 131.574 134.467C131.617 134.39 131.639 134.304 131.639 134.216C131.639 134.128 131.617 134.042 131.574 133.966C131.531 133.889 131.47 133.825 131.395 133.779C129.997 132.962 128.787 133.519 116.447 133.634C114.833 133.538 113.213 133.551 111.6 133.672C111.337 133.71 111.235 133.82 111.059 134.12C106.246 140.434 101.962 147.135 98.25 154.152C95.2769 154.208 92.3097 154.439 89.3637 154.844C89.2646 154.874 89.1777 154.935 89.1159 155.018C89.0542 155.101 89.0208 155.202 89.0208 155.306C89.0208 155.409 89.0542 155.51 89.1159 155.593C89.1777 155.676 89.2646 155.737 89.3637 155.767C91.9617 155.82 94.5607 155.737 97.15 155.517C97.102 156.086 97.0916 156.657 97.1187 157.226C91.5962 157.334 86.08 157.489 80.56 157.744C80.4911 157.748 80.4265 157.779 80.3793 157.829C80.3322 157.88 80.3059 157.946 80.3059 158.016C80.3059 158.085 80.3322 158.151 80.3793 158.202C80.4265 158.252 80.4911 158.283 80.56 158.287C98.165 158.749 159.841 158.392 177.39 158.277C181.445 158.398 185.504 158.213 189.531 157.722C189.631 157.689 189.717 157.625 189.779 157.54C189.84 157.455 189.873 157.353 189.873 157.248C189.872 157.143 189.839 157.04 189.778 156.955C189.716 156.87 189.63 156.807 189.53 156.774ZM98.155 157.201C98.2653 156.743 98.3517 156.28 98.4138 155.812C106.184 155.905 114.015 156.13 121.789 155.781C121.539 156.167 121.283 156.531 121.039 156.884C115.916 156.944 103.176 157.111 98.155 157.201Z" fill="#1B1B1B"/>
<path d="M156.026 135.915C149.339 135.963 142.41 135.898 135.601 136.239C135.959 136.614 141.405 146.753 145.321 153.156C145.653 153.694 158.071 152.898 159.896 152.839C161.596 152.884 163.293 152.687 164.936 152.254C164.713 151.5 157.015 135.908 156.026 135.915ZM156.868 141.82C156.919 141.836 156.964 141.867 156.996 141.91C157.028 141.953 157.045 142.006 157.045 142.059C157.045 142.113 157.028 142.165 156.996 142.209C156.964 142.252 156.919 142.283 156.868 142.299C155.05 142.727 153.173 142.842 151.316 142.64C150.873 142.63 150.741 141.903 151.209 141.838C153.07 141.41 155.004 141.404 156.868 141.82ZM152.177 145.41C151.108 145.76 149.968 145.835 148.862 145.628C148.554 145.6 148.446 145.128 148.788 145.055C149.854 144.702 150.992 144.619 152.099 144.811C152.346 144.888 152.45 145.286 152.177 145.41ZM148.505 140.66C148.154 140.615 147.987 140.043 148.411 139.974C149.428 139.818 150.453 139.724 151.481 139.691C152.494 139.561 153.52 139.58 154.528 139.746C154.622 139.774 154.705 139.832 154.764 139.911C154.822 139.99 154.854 140.085 154.854 140.184C154.854 140.282 154.822 140.378 154.764 140.457C154.705 140.536 154.622 140.593 154.528 140.621C153.602 140.818 152.652 140.879 151.709 140.804C150.637 140.822 149.565 140.773 148.5 140.656L148.505 140.66ZM144.701 137.704C148.392 137.386 152.102 137.347 155.799 137.586C155.893 137.586 155.983 137.624 156.05 137.69C156.116 137.757 156.154 137.847 156.154 137.941C156.154 138.035 156.116 138.126 156.05 138.192C155.983 138.259 155.893 138.296 155.799 138.296C152.093 138.712 148.346 138.594 144.674 137.945C144.525 137.916 144.57 137.703 144.701 137.7V137.704ZM143.567 140.019C144.539 139.813 145.869 139.454 146.72 140.125C146.749 140.155 146.771 140.191 146.785 140.231C146.798 140.27 146.802 140.312 146.797 140.354C146.791 140.395 146.777 140.435 146.754 140.47C146.731 140.505 146.701 140.535 146.665 140.556C145.841 141.069 144.56 140.718 143.654 140.643C143.319 140.611 143.199 140.094 143.567 140.015V140.019ZM139.213 137.861C140.041 137.622 140.907 137.545 141.765 137.634C141.881 137.64 141.99 137.69 142.069 137.774C142.149 137.858 142.194 137.97 142.194 138.086C142.194 138.202 142.149 138.313 142.069 138.397C141.99 138.481 141.881 138.531 141.765 138.538C140.919 138.685 140.052 138.668 139.213 138.485C139.144 138.466 139.084 138.424 139.042 138.368C138.999 138.311 138.976 138.242 138.976 138.171C138.976 138.1 138.999 138.031 139.042 137.975C139.084 137.918 139.144 137.877 139.213 137.858V137.861ZM141.963 140.829C141.554 140.894 141.137 140.894 140.729 140.829C140.366 140.835 140.012 140.715 139.729 140.488C139.696 140.453 139.671 140.412 139.656 140.367C139.641 140.322 139.636 140.274 139.642 140.227C139.648 140.18 139.664 140.134 139.69 140.094C139.716 140.054 139.75 140.02 139.79 139.995C140.08 139.844 140.406 139.777 140.731 139.801C141.093 139.76 141.457 139.748 141.82 139.764C142.375 139.819 142.6 140.698 141.959 140.825L141.963 140.829ZM143.244 142.454C144.514 142.219 147.684 141.715 148.915 142.106C149.243 142.209 149.394 142.75 149.023 142.913C147.398 143.629 145.073 143.346 143.348 143.205C142.94 143.163 142.795 142.526 143.24 142.444L143.244 142.454ZM143.179 145.335C144.305 144.969 145.506 144.895 146.669 145.118C146.722 145.133 146.769 145.164 146.805 145.207C146.841 145.249 146.864 145.3 146.871 145.355C146.879 145.41 146.87 145.466 146.846 145.516C146.822 145.566 146.785 145.608 146.738 145.638C145.589 146.051 144.334 146.06 143.179 145.665C143.137 145.66 143.099 145.641 143.071 145.61C143.042 145.579 143.027 145.539 143.026 145.497C143.026 145.455 143.041 145.414 143.068 145.383C143.095 145.351 143.134 145.331 143.175 145.325L143.179 145.335ZM149.929 150.551C149.529 151.068 148.936 150.958 148.329 150.926C147.614 150.847 146.905 150.726 146.204 150.565C146.182 150.555 146.163 150.539 146.15 150.519C146.137 150.499 146.131 150.475 146.131 150.451C146.131 150.427 146.137 150.404 146.15 150.384C146.163 150.363 146.182 150.347 146.204 150.338C146.885 150.206 147.503 149.973 148.204 149.9C148.758 149.841 149.479 149.659 149.879 150.138C149.928 150.191 149.959 150.259 149.967 150.332C149.975 150.404 149.961 150.478 149.925 150.541L149.929 150.551ZM152.54 147.894C149.894 148.334 147.198 148.376 144.54 148.019C144.371 147.981 144.399 147.754 144.54 147.705C147.153 147.049 149.849 146.779 152.54 146.906C153.188 146.885 153.156 147.823 152.536 147.884L152.54 147.894ZM153.523 144.673C154.321 144.548 155.083 144.466 155.898 144.423C156.682 144.267 157.488 144.267 158.272 144.423C158.372 144.454 158.46 144.514 158.527 144.594C158.594 144.674 158.636 144.772 158.649 144.875C158.662 144.979 158.646 145.084 158.601 145.178C158.556 145.272 158.486 145.352 158.398 145.408C157.672 145.749 156.865 145.879 156.069 145.783C155.206 145.784 154.349 145.653 153.526 145.394C153.198 145.283 153.133 144.721 153.519 144.663L153.523 144.673ZM157.5 147.571C156.371 147.608 155.242 147.541 154.125 147.371C153.943 147.344 153.956 147.058 154.125 147.02C155.163 146.774 156.217 146.607 157.28 146.52C158.155 146.451 159.296 146.106 160.03 146.658C160.065 146.679 160.095 146.709 160.118 146.744C160.14 146.779 160.155 146.819 160.16 146.86C160.165 146.901 160.161 146.943 160.148 146.983C160.135 147.022 160.114 147.059 160.085 147.089C159.437 147.733 158.375 147.544 157.5 147.571Z" fill="#5A47FB"/>
<path d="M226.397 150.241C224.842 139.843 220.061 130.374 216.092 126.009C219.079 122.391 218.468 117.438 216.795 113.075C212.984 103.125 203.511 94.0826 193.304 94.2501C188.679 94.3238 186.679 96.6888 186.546 98.8388C185.025 99.0391 183.596 99.6827 182.439 100.689C181.281 101.696 180.445 103.021 180.035 104.5C179.393 106.946 179.544 109.533 180.465 111.888C181.412 114.616 183.329 116.924 183.277 119.939C183.222 123.064 181.854 126.034 182.012 129.176C182.16 131.175 182.923 133.08 184.195 134.629C185.467 136.178 187.188 137.296 189.12 137.829C189.002 139 188.235 144.516 189.137 145.419C189.459 145.723 189.83 145.967 190.236 146.143C190.121 146.532 190.086 146.941 190.132 147.345C190.179 147.749 190.306 148.139 190.506 148.493C190.535 148.539 190.575 148.578 190.623 148.605C190.671 148.632 190.725 148.646 190.78 148.646C190.835 148.646 190.889 148.632 190.937 148.605C190.985 148.578 191.025 148.539 191.054 148.493C191.325 147.846 191.379 147.129 191.209 146.449C192.216 146.655 193.856 146.683 194.495 145.856C194.924 146.701 195.49 147.47 196.17 148.13C196.296 148.249 196.459 148.318 196.632 148.327C196.804 148.335 196.974 148.282 197.111 148.177C197.247 148.071 197.342 147.92 197.377 147.752C197.413 147.583 197.387 147.407 197.304 147.255C196.786 146.274 196.039 145.433 195.591 144.406C194.091 140.976 195.514 135.61 195.746 131.885C195.77 131.491 195.226 131.475 195.102 131.799C193.655 135.595 192.545 140.76 194.044 144.823C193.495 144.841 192.948 144.897 192.407 144.991C191.572 144.971 190.752 144.757 190.012 144.366C190.246 142.02 189.579 136.933 191.501 131.951C191.868 130.951 192.43 130.034 193.154 129.253C193.878 128.472 194.75 127.842 195.719 127.4C196.605 127.099 197.431 126.644 198.159 126.056C198.331 126.413 198.577 126.729 198.88 126.983C199.184 127.237 199.538 127.424 199.919 127.531C200.745 127.68 201.597 127.544 202.336 127.146C203.074 126.747 203.655 126.109 203.984 125.336C204.031 125.247 204.049 125.145 204.034 125.045C204.019 124.945 203.972 124.852 203.9 124.781C203.828 124.71 203.735 124.664 203.635 124.65C203.535 124.636 203.433 124.654 203.344 124.703C202.486 125.154 201.772 126.025 200.745 126.053C199.717 126.08 199.312 125.203 198.957 124.389C199.117 123.414 199.085 122.417 198.861 121.454C199.541 120.909 200.035 120.166 200.274 119.329C200.296 119.237 200.292 119.141 200.26 119.053C200.229 118.964 200.173 118.886 200.098 118.829C200.024 118.771 199.934 118.737 199.84 118.73C199.746 118.722 199.653 118.742 199.57 118.788C197.772 119.645 196.474 121.968 194.22 121.579C191.095 121.039 189.5 117.329 189.095 117.181C188.582 116.989 187.482 117.885 187.747 116.648C188.249 115.229 188.2 113.673 187.61 112.289C187.33 111.325 187.325 110.302 187.594 109.335C187.863 108.368 188.396 107.495 189.134 106.814C190.072 107.425 191.113 107.861 192.206 108.1C193.594 108.335 195.01 108.355 196.404 108.159C197.244 109.357 198.255 110.426 199.404 111.331C200.565 112.114 201.827 112.737 203.154 113.185C203.154 113.185 203.436 116.56 203.674 117.778C204.405 121.499 206.024 122.501 206.024 122.501C206.081 122.501 206.109 122.579 206.251 122.585C212.388 122.994 215.977 128.449 218.517 133.43C224.204 144.573 226.315 155.66 223.592 167.718C220.217 168.209 217.843 169.023 212.005 168.538C207.658 168.179 204.219 166.074 200.342 164.465C201.052 163.538 201.545 162.465 201.786 161.323C201.81 161.222 201.797 161.116 201.75 161.024C201.704 160.931 201.626 160.859 201.53 160.818C201.435 160.778 201.329 160.773 201.23 160.803C201.131 160.834 201.046 160.898 200.99 160.985C200.287 162.154 199.467 163.248 198.544 164.251C198.428 164.374 198.353 164.53 198.329 164.697C198.305 164.864 198.333 165.034 198.409 165.185C194.251 166.679 181.372 170.871 174.109 173.336C171.045 174.378 167.94 175.545 165.911 178.203C164.364 180.225 164.136 186.94 164.144 187.691C173.255 179.27 189.769 175.075 198.554 170.37C198.536 170.38 189.054 175.731 186.705 176.745C182.239 178.681 177.719 180.484 173.277 182.468C162.557 187.261 159.829 194.301 153.837 205.874C150.812 211.494 148.246 217.35 146.165 223.384C141.783 220.846 137.111 218.845 132.251 217.423C132.056 217.37 131.848 217.397 131.672 217.497C131.496 217.597 131.366 217.762 131.311 217.956C131.007 219.9 132.89 221.331 134.13 222.581C136.797 225.28 139.734 227.697 142.895 229.796C143.532 230.361 144.324 230.721 145.169 230.83C146.805 230.79 148.474 229.295 149.574 227.955C149.501 228.354 149.682 228.715 150.251 228.994C152.009 229.222 153.785 229.279 155.554 229.166C157.635 229.088 159.716 228.943 161.786 228.719C163.006 228.588 165.756 228.691 166.635 227.816C167.06 227.121 167.35 226.352 167.49 225.549C167.864 224.371 168.091 223.151 168.165 221.918C169.012 219.464 170.594 214.679 170.945 213.293C171.455 211.293 173.47 201.934 172.936 200.069C171.775 200.994 172.766 200.616 163.289 212.319C162.937 212.715 162.643 213.158 162.414 213.635C162.237 214.053 161.507 219.996 161.335 221.874C157.246 222.471 153.406 224.203 150.253 226.874C150.218 226.613 150.106 226.369 149.93 226.174C150.726 225.33 154.399 221.405 155.974 219.528C160.07 214.625 170.612 200.504 174.8 196.484C176.08 195.213 177.711 194.353 179.482 194.014C186.807 192.239 194.177 192.764 201.626 192.201C211.751 191.434 219.001 186.044 222.402 177.826C222.731 177.038 224.966 171.284 225.207 170.388C226.998 163.827 227.403 156.967 226.397 150.241ZM145.049 229.016C144.305 228.968 141.299 226.718 140.586 226.191C137.925 224.075 135.423 221.765 133.104 219.279C142.371 222.12 144.487 224.611 148.644 226.514C147.75 227.579 146.262 229.095 145.049 229.016ZM152.299 227.349C152.952 226.693 153.697 226.135 154.511 225.694C158.695 223.398 161.744 223.585 162.88 223.22C163.969 223.558 165.109 223.703 166.247 223.648C166.022 224.672 165.741 225.683 165.406 226.676C161.192 227.548 156.887 227.908 152.586 227.748C152.481 227.75 152.125 227.583 152.297 227.349H152.299Z" fill="#1B1B1B"/>
<path d="M66.6538 127.456C66.2489 127.516 65.874 127.704 65.585 127.994C65.1888 128.275 64.7389 128.471 64.2634 128.571C63.7879 128.671 63.297 128.671 62.8213 128.573C62.3638 128.476 61.93 128.286 61.4638 128.231C60.6863 128.228 59.9139 128.357 59.18 128.614C54.7213 129.655 48.7263 125.575 51.145 118.746C51.2963 118.315 51.1625 117.481 50.0663 117.644C38.3513 119.383 32.1838 124.431 28.66 135.119C26.6963 141.073 24.88 153.841 26.9438 165.936C27.184 167.476 27.6494 168.971 28.325 170.375C29.3588 172.443 46.4175 172.688 53.7913 169.521C54.7663 169.104 57.385 165.294 57.2437 165.294C55.4148 165.285 53.6156 164.83 52.0025 163.968C48.6914 162.072 45.9309 159.346 43.9925 156.06C38.435 146.405 38.7425 135.091 40.94 131.024C40.4286 136.042 40.5652 141.104 41.3463 146.088C41.8763 148.659 44.0438 148.131 46.125 147.853C48.5153 147.533 50.8279 146.783 52.95 145.638C53.3273 145.477 53.6438 145.2 53.8538 144.848C54.005 144.528 53.3125 136.913 52.9987 133.473C53.0575 133.616 55.6175 145.755 55.665 146.035C55.8689 147.486 56.2083 148.916 56.6787 150.304C57.1987 147.929 58.5537 141.469 58.76 140.594C59.025 140.525 65.2125 145.694 65.3375 145.663C65.4625 145.631 70.0338 138.805 73.0963 136.345C73.3928 136.146 73.7091 135.979 74.04 135.845C74.04 135.845 67.7038 127.485 66.6538 127.456Z" fill="#5A47FB"/>
<path d="M81.9237 103.769C80.0638 102.696 79.0262 104.356 73.9237 100.444C72.0912 99.0375 69.9825 97.5488 67.5775 97.5288C64.535 97.5013 62.0963 100.006 60.3275 102.214C57.96 105.158 55.5512 108.696 56.035 112.426C54.1412 114.621 53.3325 114.943 52.6162 116.196C52.5895 116.246 52.5776 116.302 52.5821 116.358C52.5866 116.414 52.6072 116.467 52.6415 116.512C52.6758 116.556 52.7222 116.59 52.7752 116.608C52.8282 116.627 52.8855 116.63 52.94 116.616C54.171 116.121 55.2367 115.287 56.0138 114.211C57.8613 112.116 55.8625 113.256 60.1862 112.475C58.0437 115.148 56.3775 118.358 56.8 121.761C56.9664 123.116 57.4205 124.418 58.132 125.583C58.8435 126.747 59.7958 127.745 60.925 128.511C61.7442 129.029 62.6749 129.345 63.6402 129.432C64.6055 129.519 65.5777 129.375 66.4762 129.011C68.1992 128.047 69.5866 126.579 70.4525 124.805C71.4772 123.141 72.2581 121.339 72.7712 119.454C74.0562 119.805 74.6625 119.746 75.1212 118.12C75.7375 115.933 75.7825 113.51 76.4125 111.33C77.7492 111.443 79.0878 111.135 80.2401 110.448C81.3924 109.761 82.3003 108.73 82.8362 107.5C83.1873 106.879 83.2884 106.147 83.1189 105.454C82.9494 104.76 82.522 104.158 81.9237 103.769ZM61.2988 107.734C61.4093 107.356 61.6238 107.016 61.9179 106.754C62.212 106.492 62.5738 106.318 62.9621 106.251C63.3504 106.185 63.7495 106.229 64.114 106.378C64.4785 106.528 64.7938 106.776 65.0238 107.096C64.3238 107.855 62.57 109.75 62.3987 109.939C61.7575 109.329 61.07 108.813 61.2988 107.734ZM66.6738 122.77C66.4038 123.463 65.5025 123.315 65.0087 122.964C64.7318 122.75 64.5067 122.477 64.3504 122.164C64.1941 121.851 64.1107 121.507 64.1062 121.158C64.1096 121.087 64.133 121.018 64.1737 120.96C64.2144 120.902 64.2708 120.857 64.3362 120.829C64.4016 120.802 64.4735 120.794 64.5434 120.806C64.6133 120.818 64.6785 120.849 64.7312 120.896C65.0437 121.209 65.285 121.603 65.6275 121.884C65.945 122.153 66.8325 122.341 66.6675 122.77H66.6738ZM73.9125 117.454C73.5938 118.655 73.725 118.386 72.5375 118.026C72.37 117.982 72.1917 118.005 72.041 118.091C71.8903 118.176 71.7791 118.317 71.7312 118.484C71.5587 118.984 71.365 119.484 71.17 119.996C69.5213 117.636 65.31 119.296 63.5313 117.091C63.133 116.443 62.919 115.698 62.9122 114.937C62.9054 114.176 63.106 113.427 63.4925 112.771C64.7907 110.41 66.5688 108.347 68.7125 106.714C69.4008 107.866 70.3244 108.859 71.4229 109.63C72.5214 110.401 73.7701 110.931 75.0875 111.186C74.805 113.295 74.4107 115.387 73.9062 117.454H73.9125Z" fill="#1B1B1B"/>
<path d="M70.8087 112.25C70.6971 112.518 70.6591 112.81 70.6987 113.098C70.7367 113.252 70.8207 113.39 70.9394 113.496C71.0582 113.601 71.2062 113.667 71.3637 113.686C71.5201 113.67 71.6684 113.608 71.7907 113.51C71.9129 113.411 72.0038 113.278 72.0525 113.129C72.1024 112.837 72.0857 112.538 72.0037 112.254C71.9681 112.123 71.8904 112.008 71.7826 111.925C71.6749 111.843 71.543 111.799 71.4075 111.799C71.2723 111.799 71.1409 111.843 71.0329 111.925C70.925 112.006 70.8463 112.12 70.8087 112.25Z" fill="#1B1B1B"/>
<path d="M70.85 111.449C71.7038 111.183 72.1738 111.643 72.635 111.351C72.7008 111.311 72.7519 111.25 72.7809 111.178C72.8099 111.107 72.8153 111.028 72.7963 110.953C72.5588 110.019 71.115 110.404 70.5325 110.703C70.4488 110.754 70.3863 110.834 70.3565 110.927C70.3266 111.021 70.3313 111.122 70.3698 111.212C70.4082 111.303 70.4779 111.376 70.566 111.42C70.6541 111.463 70.7549 111.473 70.85 111.449Z" fill="#1B1B1B"/>
<path d="M73.7825 136.539C77.4075 139.864 81.7825 142.11 85.92 144.707C88.1425 146.102 90.3338 147.544 92.545 148.957C93.3403 149.571 94.2039 150.089 95.1187 150.504C96.161 150.697 97.2337 150.65 98.255 150.366C98.8225 150.301 99.0537 149.439 98.3988 149.287C97.3175 149.037 96.305 149.497 95.2437 149.054C93.9837 148.522 94.645 148.58 85.95 143.461C81.95 141.101 77.825 138.916 74.0562 136.185C73.8475 136.031 73.5937 136.365 73.7825 136.539Z" fill="#1B1B1B"/>
<path d="M67.3188 144.139C69.185 146.014 71.1938 147.736 73.9438 148.014C73.9995 148.013 74.0537 147.995 74.0999 147.964C74.146 147.933 74.1821 147.889 74.2037 147.838C74.2253 147.786 74.2315 147.73 74.2215 147.675C74.2115 147.62 74.1858 147.569 74.1475 147.529C73.1591 146.792 72.0896 146.171 70.96 145.677C69.835 145.077 68.7413 144.369 67.67 143.686C67.61 143.64 67.5339 143.619 67.4586 143.628C67.3832 143.638 67.3147 143.677 67.2681 143.737C67.2215 143.797 67.2007 143.873 67.2102 143.948C67.2197 144.024 67.2587 144.092 67.3188 144.139Z" fill="#1B1B1B"/>
<path d="M89.5487 149.838C87.7734 149.046 85.8919 148.518 83.9637 148.27C79.6841 147.968 75.3877 148.534 71.3325 149.935C65.3 151.766 61.5288 154.131 58.3563 153.535C55.2963 152.963 54.6288 148.739 53.495 146.371C53.36 146.086 52.9838 146.306 53.0225 146.571C53.4063 149.189 53.9288 152.368 56.2025 154.063C59.2625 156.34 63.945 154.021 66.9975 152.905C73.855 150.405 81.6087 148.104 88.3187 150.905C89.235 151.288 90.145 151.684 91.0688 152.03C91.9925 152.376 93.22 152.593 94.225 152.968C92.535 152.962 90.8534 152.73 89.225 152.278C88.415 152.085 86.5262 151.314 85.6962 151.579C84.6962 151.903 85.3688 153.004 86.035 153.558C85.1812 153.198 84.3006 152.905 83.4012 152.683C78.8413 151.63 75.3 154.524 71.6213 156.618C69.0475 158.081 66.3713 159.336 63.6688 160.555C60.775 161.861 57.5125 163.43 54.3275 162.199C48.7913 160.066 45.7025 154.656 43.5887 149.449C43.3062 148.749 42.1688 149.021 42.4275 149.769C43.8538 153.941 46.0663 158.228 49.5113 161.081C54.1038 164.879 57.4312 164.788 62.2425 162.796C67.0819 160.624 71.7975 158.186 76.3675 155.492C80.5038 153.214 81.9663 153.603 85.635 154.72C86.325 154.93 88.3125 155.403 87.9887 153.97C87.9052 153.694 87.7191 153.461 87.4687 153.319C87.1587 153.069 85.5763 152.656 86.2938 152.395C86.845 152.191 87.5688 152.654 88.1225 152.836C88.9012 153.094 89.6775 153.36 90.4525 153.617C91.7687 154.056 95.2863 154.893 95.9138 152.981C96.3325 151.729 91.3638 150.601 89.5487 149.838Z" fill="#1B1B1B"/>
<path d="M59.4413 166.304C67.1288 169.642 78.2275 173.766 86.2863 177.089C89.9113 178.577 91.695 179.787 91.9188 183.766C91.9875 184.996 91.2575 186.329 91.605 187.474C91.6531 187.639 91.7641 187.78 91.9143 187.865C92.0644 187.95 92.2419 187.973 92.4088 187.929C94.7838 187.011 94.365 182.325 93.6525 180.441C92.4225 177.191 89.425 175.904 86.3438 174.849C77.4613 171.81 68.61 168.585 59.6313 165.849C59.375 165.77 59.18 166.19 59.4413 166.304Z" fill="#1B1B1B"/>
<path d="M60.4025 217.25C60.18 216.716 55.58 205.807 54.8288 204.325C58.635 203.305 62.0538 201.355 63.8113 197.834C63.95 197.584 63.9853 197.289 63.9096 197.014C63.8339 196.738 63.6532 196.503 63.4062 196.358C63.1593 196.214 62.8657 196.173 62.5884 196.242C62.311 196.312 62.072 196.487 61.9225 196.731C58.3975 201.772 51.955 202.779 46.1975 202.767C20.4788 202.712 6.535 182.201 8.5725 163.459C9.38875 155.975 14.4475 145.834 22.995 145.276C23.62 145.239 23.8288 144.284 23.15 144.136C18.9463 143.23 15.26 146.136 12.62 149.125C1.19875 162.066 5.4 187.5 23.0775 198.864C18.7263 211.355 10.445 225.842 9.18875 231.645C9.0025 232.506 10.2713 233.164 10.6888 232.279C10.7475 232.154 17.3763 221.76 20.16 216.722C21.6413 214.041 23.0675 211.334 24.4837 208.619C25.7889 206.325 26.9548 203.955 27.975 201.521C30.0248 202.442 32.1459 203.194 34.3175 203.771C34.6763 205.3 35.22 206.814 35.6138 208.315C36.0029 210.309 36.5253 212.274 37.1775 214.197C37.2136 214.283 37.2694 214.359 37.3403 214.42C37.4113 214.48 37.4954 214.523 37.5859 214.545C37.6764 214.566 37.7708 214.567 37.8614 214.545C37.952 214.524 38.0363 214.481 38.1075 214.421C39.2093 211.354 40.0024 208.185 40.475 204.96C42.8678 205.257 45.2798 205.372 47.69 205.304C52.7 213.197 53.0213 212.412 60.7863 225.746C62.2538 228.269 63.5288 231.011 65.1925 233.406C65.4613 233.791 66.1925 233.609 66.12 233.147C66.3563 233.036 62.5 222.25 60.4025 217.25ZM14.4088 223.172C18.2013 214.566 22.1188 206.826 23.7838 199.305C24.855 199.96 25.9538 200.562 27.0775 201.104C24.75 204.365 21.8913 211.1 14.4088 223.172ZM37.7137 210.975C37.5637 210.405 36.0888 205.389 35.5813 204.081C36.805 204.366 38.0388 204.605 39.2825 204.79C38.9125 205.972 38.96 205.967 37.7137 210.975ZM49.1738 205.225C50.5953 205.132 52.0089 204.944 53.405 204.66C54.115 206.5 55.03 208.285 55.81 210.084C61.1738 222.345 60.025 220.09 62.81 226.939C62.2338 225.991 53.2263 210.756 49.1738 205.227V205.225Z" fill="#1B1B1B"/>
<path d="M226.081 199.354C244.161 188.219 248.655 163.505 238.223 150.204C235.539 146.785 231.455 143.136 226.8 144.139C226.125 144.284 226.325 145.239 226.952 145.28C234.597 145.78 239.605 154.3 240.996 161.03C242.181 167.668 241.405 174.507 238.764 180.71C233.293 194.241 220.147 202.017 205.882 202.71C199.557 203.02 191.97 202.359 188.031 196.729C187.879 196.49 187.641 196.32 187.366 196.253C187.091 196.186 186.801 196.229 186.557 196.372C186.313 196.514 186.133 196.746 186.056 197.018C185.979 197.29 186.011 197.582 186.144 197.831C187.836 201.225 191.129 203.144 194.761 204.189C193.77 206.025 189.087 217.179 188.849 217.75C186.75 222.75 182.899 233.537 183.119 233.637C183.05 234.095 183.774 234.285 184.045 233.895C185.651 231.59 186.877 228.951 188.286 226.52C196.14 212.992 197.193 212.762 201.876 205.27C204.14 205.366 206.407 205.297 208.66 205.064C208.644 205.112 208.637 205.164 208.639 205.215C209.034 208.932 209.873 212.589 211.139 216.106C211.21 216.166 211.294 216.208 211.384 216.229C211.475 216.251 211.569 216.25 211.659 216.228C211.749 216.206 211.833 216.164 211.903 216.103C211.974 216.043 212.029 215.967 212.065 215.881C212.719 213.961 213.242 211.998 213.629 210.006C214.019 208.525 215.392 204.415 215.152 203.909C217.195 203.387 219.196 202.711 221.138 201.889C222.125 204.369 223.268 206.785 224.559 209.121C225.906 211.812 227.256 214.506 228.659 217.17C231.264 222.107 237.651 232.306 237.708 232.43C238.128 233.312 239.413 232.671 239.219 231.805C238 226.326 230.663 212.662 226.081 199.354ZM186.444 227.449C188.977 221.219 188.278 222.392 193.306 210.9C194.226 208.801 195.316 206.706 196.087 204.536C197.536 204.859 199.005 205.079 200.484 205.194C196.716 210.221 189.775 221.897 186.444 227.449ZM212.432 209.68C212.14 210.651 211.807 211.657 211.54 212.67C210.611 208.937 209.853 205.521 209.408 204.984C211.102 204.78 212.784 204.48 214.445 204.084C213.59 205.878 212.915 207.752 212.432 209.68ZM234.142 223.702C227.697 212.481 223.354 202.944 221.952 201.541C223.135 201.013 224.288 200.419 225.405 199.764C226.749 205.338 228.617 210.772 230.984 215.995C232.148 218.79 234.275 223.934 234.142 223.702Z" fill="#1B1B1B"/>
<path d="M99.375 180.283C105.314 180.626 132.75 179.301 158.042 178.643C158.316 178.629 158.575 178.511 158.764 178.313C158.953 178.114 159.058 177.85 159.058 177.576C159.058 177.302 158.953 177.038 158.764 176.84C158.575 176.641 158.316 176.523 158.042 176.51C153.464 176.635 103.881 178.274 99.375 178.76C99.1731 178.76 98.9795 178.84 98.8367 178.983C98.694 179.126 98.6137 179.319 98.6137 179.521C98.6137 179.723 98.694 179.917 98.8367 180.06C98.9795 180.202 99.1731 180.283 99.375 180.283Z" fill="#1B1B1B"/>
<path d="M80.225 209.875C77.9662 210.395 76.475 212.465 75.395 213.461C74.1287 212.724 72.6212 212.928 70.85 210.454C70.8125 209.304 70.92 208.318 73.3337 204.645C74.4587 202.933 75.7662 201.326 77.0237 199.714C77.1071 199.622 77.1518 199.501 77.1486 199.376C77.1454 199.252 77.0946 199.134 77.0067 199.046C76.9188 198.958 76.8004 198.907 76.6761 198.904C76.5518 198.901 76.431 198.945 76.3387 199.029C74.5156 200.509 72.9569 202.288 71.7287 204.29C70.7287 205.875 69.0237 208.635 69.8375 210.54C70.0255 210.822 70.2287 211.093 70.4462 211.353C69.0896 212.494 67.8792 213.798 66.8425 215.236C66.7435 215.175 66.6384 215.124 66.5287 215.084C66.4325 215.056 61.2537 218.616 62.4112 220.749C63.8962 223.485 66.86 225.776 69.1787 227.778C70.7173 229.311 72.7376 230.266 74.8987 230.483C76.1662 230.608 78.4575 231.006 79.6487 230.341C80.25 230.008 80.3725 227.758 78.915 226.61C78.005 225.893 76.7575 225.965 75.8312 225.325C74.905 224.685 72.1375 220.653 71.4175 219.784C71.1862 219.505 70.7125 218.925 70.7125 218.925C72.1216 217.627 73.3279 216.124 74.2912 214.468C74.7365 214.618 75.2213 214.601 75.655 214.42C76.4374 213.97 77.1891 213.469 77.905 212.92C78.8629 212.186 79.7707 211.39 80.6225 210.535C80.6814 210.471 80.718 210.39 80.7268 210.304C80.7356 210.217 80.7161 210.13 80.6713 210.056C80.6265 209.982 80.5588 209.924 80.4783 209.891C80.3978 209.858 80.3089 209.853 80.225 209.875ZM70.1125 218.22C69.4224 217.386 68.6566 216.618 67.825 215.925C69.0163 214.734 70.0892 213.43 71.0287 212.031C71.752 212.878 72.6102 213.6 73.5687 214.168C72.1743 215.292 71.0021 216.667 70.1125 218.221V218.22Z" fill="#1B1B1B"/>
<path d="M116.926 223.25C115.156 222.693 113.291 222.504 111.445 222.695C108.337 222.778 101.381 223.386 99.8888 223.608C99.9338 223.525 98.255 220.465 97.115 218.519C97.7012 218.269 98.5075 217.91 98.4663 217.295C98.4488 217.208 95.5 203.75 93.75 197.424C92.2725 192.084 90.5525 186.209 87 181.833C83.5275 177.55 78.225 176.314 73.0562 175.333C69.9 174.734 60.7013 172.48 59.2362 172.053C57.7532 171.476 56.209 171.071 54.6338 170.846C53.9238 170.809 53.7587 171.766 54.2925 172.111C55.44 172.861 61.09 174.368 62.5688 174.75C74.4813 177.833 81.1038 177.258 85.7738 183.288C91.12 190.193 92.3238 200.695 97.3225 216.538C97.1375 216.606 95.2287 217.475 94.4475 217.693C93.1608 217.957 91.8611 218.153 90.5537 218.281C90.16 217.231 83.3162 210.885 77.8037 195.844C77.5615 194.849 77.2159 193.883 76.7725 192.96C75.9375 191.67 71.2363 193.624 60.4313 193.304C51.7138 193.045 42.0787 190.335 35.5562 184.598C30.9937 180.589 30.5412 177.785 28.9712 175.046C28.9312 174.982 28.8715 174.933 28.8011 174.905C28.7307 174.877 28.6533 174.873 28.5803 174.893C28.5072 174.913 28.4425 174.955 28.3957 175.015C28.3488 175.074 28.3223 175.147 28.32 175.223C28.18 181.89 38.8662 194.251 59.0987 195.328C61.9991 195.451 64.9045 195.379 67.795 195.11C70.5332 195.018 73.2605 194.72 75.9538 194.218C76.2147 196.073 76.7536 197.88 77.5525 199.575C79.3109 204.358 81.6465 208.908 84.5075 213.125C85.89 215.173 87.2087 217.598 89.1525 219.134C90.0118 219.54 90.9698 219.691 91.9125 219.569C92.6059 221.483 93.4694 223.331 94.4925 225.091C94.4155 226.585 94.5255 228.083 94.82 229.55C94.9973 230.45 95.4115 231.286 96.02 231.973C96.84 232.598 98.1838 232.261 99.1063 232.148C103.41 231.494 107.623 230.339 111.659 228.706C112.957 228.131 114.208 227.452 115.397 226.676C116.214 226.143 117.364 225.615 117.612 224.603C117.628 224.337 117.572 224.071 117.452 223.834C117.331 223.596 117.15 223.395 116.926 223.25ZM95.6513 224.594C94.8372 222.844 93.9237 221.143 92.915 219.498C94.1041 219.384 95.2776 219.143 96.415 218.778C96.8925 220.578 97.7013 222.274 98.8 223.778C97.7283 223.955 96.6745 224.228 95.6513 224.593V224.594Z" fill="#1B1B1B"/>
<path d="M229.399 15.8938C169.721 21.4975 61.3988 25.66 35.2225 28.3013C35.0638 28.3158 34.9131 28.3775 34.7899 28.4786C34.6666 28.5797 34.5766 28.7154 34.5313 28.8682C34.4861 29.021 34.4878 29.1839 34.5361 29.3358C34.5844 29.4876 34.6772 29.6215 34.8025 29.72C34.4787 33.8275 35.2413 38.1963 35.5375 42.2725C35.95 47.9375 38.4725 82.8338 39.0375 94.63C39.2787 99.62 39.0712 104.755 39.74 109.705C39.865 110.614 41.1012 110.249 41.2012 109.509C42.2125 101.811 36.7013 33.8188 35.785 29.7925C60.795 28.515 215.028 19.3813 228.91 18.0713C227.37 28.8725 226.922 39.8988 226.16 50.7663C225.179 64.6138 224.251 78.4646 223.375 92.3188C222.883 97.0849 222.663 101.875 222.717 106.666C222.755 107.359 223.827 107.586 223.985 106.838C224.655 102.846 225.031 98.8113 225.11 94.765C225.514 88.4738 229.825 22.765 230.282 17.43C230.625 16.765 230.329 15.8063 229.399 15.8938Z" fill="#1B1B1B"/>
<path d="M68.08 44.5501C67.9425 44.7463 66.0025 48.1438 65.2513 49.5363C64.3569 50.8228 63.7323 52.277 63.415 53.8113C63.3762 54.2601 63.9312 54.3738 64.2137 54.1426C65.52 53.0851 66.1713 51.2001 66.9363 49.7388C67.7944 48.2187 68.5603 46.6483 69.23 45.0363C69.485 44.3538 68.435 43.9576 68.08 44.5501Z" fill="#5A47FB"/>
<path d="M74.5263 44.5539C73.5872 45.9952 72.7622 47.5078 72.0588 49.0776C71.4338 50.2939 70.4438 51.6139 70.5713 53.0164C70.5731 53.116 70.6006 53.2134 70.6513 53.2992C70.702 53.3849 70.774 53.4561 70.8604 53.5057C70.9468 53.5553 71.0446 53.5817 71.1442 53.5822C71.2438 53.5828 71.3418 53.5575 71.4288 53.5089C72.6788 52.6639 73.0925 50.9901 73.6788 49.6501C74.4273 48.1478 75.0595 46.5903 75.57 44.9914C75.7288 44.3951 74.795 43.9439 74.5263 44.5539Z" fill="#5A47FB"/>
<path d="M81.1038 51.75C82.9788 51.835 84.825 51.9087 86.6988 51.875C88.2364 52.0122 89.7858 51.8305 91.25 51.3412C91.7013 51.1375 91.5088 50.5137 91.125 50.3762C89.5647 50.023 87.9492 49.9877 86.375 50.2725C84.6037 50.3975 82.8675 50.6212 81.1063 50.845C80.9862 50.8446 80.871 50.892 80.7859 50.9766C80.7008 51.0613 80.6528 51.1762 80.6525 51.2962C80.6522 51.4162 80.6995 51.5315 80.7842 51.6166C80.8688 51.7017 80.9837 51.7496 81.1038 51.75Z" fill="#5A47FB"/>
<path d="M96.9837 51.4237C100.264 51.4887 103.812 51.9512 107.021 51.11C107.119 51.0757 107.204 51.0119 107.264 50.9274C107.324 50.8428 107.356 50.7417 107.356 50.6381C107.356 50.5345 107.324 50.4334 107.264 50.3489C107.204 50.2643 107.119 50.2005 107.021 50.1662C103.755 49.5525 100.257 50.2387 96.9837 50.5412C96.8667 50.5412 96.7545 50.5877 96.6717 50.6705C96.589 50.7532 96.5425 50.8655 96.5425 50.9825C96.5425 51.0995 96.589 51.2117 96.6717 51.2945C96.7545 51.3772 96.8667 51.4237 96.9837 51.4237Z" fill="#5A47FB"/>
<path d="M113.895 51.4725C115.886 51.4 118.067 52.0275 120.02 51.62C120.108 51.5933 120.187 51.5418 120.246 51.4716C120.306 51.4014 120.344 51.3155 120.356 51.2242C120.368 51.1329 120.353 51.0401 120.314 50.9569C120.275 50.8736 120.212 50.8036 120.134 50.755C118.215 49.7875 115.792 50.39 113.801 50.7937C113.723 50.8184 113.656 50.87 113.612 50.9394C113.568 51.0088 113.55 51.0914 113.562 51.1727C113.573 51.254 113.612 51.3287 113.673 51.3836C113.734 51.4385 113.813 51.47 113.895 51.4725Z" fill="#5A47FB"/>
<path d="M129.961 44.0849C129.062 44.8226 128.328 45.7413 127.807 46.7813C127.287 47.8213 126.991 48.9593 126.939 50.1212C126.839 51.9512 127.314 55.1037 129.32 55.7649C129.405 55.7876 129.495 55.7904 129.582 55.7732C129.668 55.756 129.75 55.7193 129.821 55.6658C129.891 55.6122 129.948 55.5434 129.988 55.4644C130.028 55.3854 130.049 55.2983 130.05 55.2099C129.948 54.3924 129.693 53.6013 129.3 52.8774C128.814 51.493 128.676 50.0104 128.898 48.56C129.119 47.1097 129.694 45.736 130.571 44.5599C130.867 44.1849 130.277 43.8187 129.961 44.0849Z" fill="#5A47FB"/>
<path d="M134.689 50.5213C139.871 50.8271 145.067 50.8133 150.248 50.4801C152.357 50.5246 154.462 50.2635 156.497 49.7051C157.049 49.4976 157.21 48.5438 156.497 48.4163C154.529 48.225 152.544 48.267 150.585 48.5413C142.46 49.0413 136.71 48.9588 134.691 49.0888C134.524 49.1199 134.373 49.2084 134.264 49.339C134.156 49.4696 134.096 49.6341 134.096 49.804C134.095 49.974 134.154 50.1387 134.263 50.2697C134.371 50.4007 134.522 50.4897 134.689 50.5213Z" fill="#5A47FB"/>
<path d="M125 45.3151C123.488 44.5489 122.875 46.5739 124.01 47.2376C125.433 48.0801 126.084 45.8639 125 45.3151Z" fill="#5A47FB"/>
<path d="M123.375 51.4313C123.739 52.1625 124.426 52.1813 124.891 51.4313C124.968 51.2982 125.008 51.1474 125.008 50.9939C125.008 50.8403 124.968 50.6895 124.891 50.5566C124.814 50.4236 124.703 50.3133 124.57 50.2365C124.437 50.1598 124.287 50.1194 124.133 50.1194C123.98 50.1194 123.829 50.1598 123.696 50.2365C123.563 50.3133 123.452 50.4236 123.376 50.5566C123.299 50.6895 123.258 50.8403 123.258 50.9939C123.258 51.1474 123.298 51.2982 123.375 51.4313Z" fill="#5A47FB"/>
<path d="M158.938 44.4851C162.11 50.4313 159.278 53.0213 158.218 55.6626C158 56.2063 158.69 56.5513 159.11 56.3476C162.383 54.7913 163.36 47.3051 159.61 43.9613C159.534 43.8945 159.437 43.8563 159.336 43.8532C159.235 43.8502 159.136 43.8825 159.057 43.9446C158.977 44.0067 158.921 44.0946 158.9 44.1933C158.878 44.292 158.891 44.3952 158.938 44.4851Z" fill="#5A47FB"/>
<path d="M169.395 44.0225C165.279 45.9375 164.936 53.7525 169.645 55.1688C169.759 55.1969 169.878 55.1913 169.989 55.1527C170.099 55.1141 170.196 55.0442 170.268 54.9514C170.339 54.8587 170.382 54.7471 170.392 54.6303C170.401 54.5136 170.376 54.3966 170.32 54.2938C169.359 52.865 168.195 51.7375 167.997 49.9325C167.955 48.9822 168.11 48.0335 168.451 47.1455C168.791 46.2575 169.312 45.4493 169.979 44.7713C170.06 44.6885 170.109 44.5789 170.116 44.4629C170.123 44.3469 170.087 44.2323 170.015 44.1407C169.944 44.049 169.842 43.9865 169.727 43.9648C169.613 43.943 169.495 43.9635 169.395 44.0225Z" fill="#5A47FB"/>
<path d="M177.406 52.3062C177.263 52.4164 177.099 52.497 176.925 52.5431C176.75 52.5893 176.568 52.6001 176.389 52.5749C174.841 52.0912 176.615 50.1774 175.439 48.3712C175.624 47.9122 175.739 47.428 175.78 46.9349C175.759 46.5599 175.545 46.2112 175.518 45.8562C175.455 45.0324 175.694 43.6262 176.934 44.2312C177.254 44.3899 177.754 44.0312 177.485 43.6799C177.246 43.3545 176.918 43.1045 176.541 42.9594C176.164 42.8142 175.754 42.7801 175.358 42.8609C174.962 42.9418 174.598 43.1343 174.308 43.4156C174.018 43.697 173.815 44.0555 173.722 44.4487C173.619 44.8512 173.909 47.2674 173.878 47.4224C172.538 47.2399 172.344 49.1374 173.389 49.1962C174.219 49.2449 173.778 52.0087 173.926 52.5249C174.069 52.9778 174.323 53.3874 174.666 53.7157C175.009 54.0441 175.429 54.2805 175.888 54.4032C176.346 54.5259 176.829 54.5308 177.29 54.4174C177.751 54.3041 178.176 54.0762 178.525 53.7549C178.673 53.5936 178.759 53.3852 178.769 53.1664C178.778 52.9477 178.709 52.7327 178.576 52.5594C178.442 52.3862 178.251 52.2657 178.037 52.2194C177.823 52.173 177.6 52.2038 177.406 52.3062Z" fill="#5A47FB"/>
<path d="M185.802 47.6849C185.502 47.7474 185.824 45.2637 185.765 44.9674C185.696 44.5506 185.503 44.1643 185.211 43.859C184.919 43.5536 184.541 43.3432 184.128 43.2554C183.715 43.1676 183.285 43.2063 182.894 43.3665C182.503 43.5268 182.169 43.8011 181.936 44.1537C181.706 44.5012 182.154 44.8974 182.488 44.7049C183.388 44.1912 183.987 45.0187 184.112 45.8837C184.197 46.5087 183.32 47.2999 184.254 48.7299C183.92 49.248 183.804 49.8767 183.93 50.4799C183.999 51.4587 184.264 53.7537 182.586 52.8062C181.711 52.3062 180.619 53.5774 181.461 54.2599C181.824 54.5649 182.257 54.7737 182.722 54.8672C183.187 54.9606 183.667 54.9356 184.119 54.7946C184.572 54.6535 184.981 54.4009 185.31 54.0599C185.64 53.719 185.878 53.3007 186.002 52.8437C186.127 52.3299 185.651 49.8012 185.993 49.5124C187.298 49.4999 187.105 47.7499 185.802 47.6849Z" fill="#5A47FB"/>
<path d="M201.441 51.5313C201.298 51.6413 201.135 51.7218 200.96 51.7679C200.786 51.8141 200.604 51.825 200.425 51.8C198.867 51.3125 200.655 49.4101 199.474 47.5963C199.737 47.1656 199.857 46.6621 199.815 46.1588C199.795 45.7838 199.581 45.4363 199.554 45.0813C199.491 44.2575 199.729 42.8513 200.97 43.4563C201.29 43.6151 201.79 43.2563 201.521 42.9051C201.282 42.5802 200.954 42.3306 200.577 42.1858C200.2 42.0409 199.79 42.0069 199.394 42.0878C198.999 42.1686 198.635 42.3608 198.345 42.6419C198.055 42.9229 197.852 43.2809 197.759 43.6738C197.655 44.0763 197.945 46.4926 197.914 46.6476C197.834 46.6401 197.751 46.6301 197.664 46.6301C197.447 46.6369 197.24 46.7204 197.079 46.8657C196.918 47.011 196.814 47.2087 196.785 47.4235C196.756 47.6384 196.804 47.8566 196.921 48.0393C197.038 48.222 197.215 48.3573 197.423 48.4213C198.529 48.6976 197.812 51.2326 197.96 51.7501C198.103 52.2029 198.357 52.6125 198.7 52.9408C199.043 53.2692 199.464 53.5056 199.922 53.6282C200.381 53.7509 200.863 53.7558 201.324 53.6425C201.785 53.5292 202.21 53.3013 202.56 52.98C202.706 52.8183 202.791 52.6103 202.799 52.3925C202.808 52.1746 202.739 51.9608 202.606 51.7882C202.473 51.6157 202.283 51.4954 202.07 51.4485C201.857 51.4015 201.635 51.4308 201.441 51.5313Z" fill="#5A47FB"/>
<path d="M192.143 51.9476C191.173 53.1751 189.585 55.0076 189.837 56.6751C189.858 56.7476 189.896 56.8143 189.946 56.8704C189.997 56.9265 190.059 56.9705 190.129 56.999C190.199 57.0275 190.274 57.0398 190.35 57.035C190.425 57.0302 190.498 57.0084 190.564 56.9713C191.469 56.3063 191.439 55.4988 193.131 52.7126C193.493 52.1163 192.594 51.3751 192.143 51.9476Z" fill="#5A47FB"/>
<path d="M99.2138 94.6787C99.1825 94.0999 99.1925 93.5074 99.1788 92.9212C99.3399 92.9654 99.4984 93.0184 99.6537 93.0799C100.344 93.3587 100.742 92.3874 100.326 91.9262C99.9756 91.55 99.5004 91.3137 98.9888 91.2612C98.9347 91.0279 98.8611 90.7996 98.7687 90.5787C98.6825 90.3787 98.4237 90.4437 98.3212 90.5787C98.1418 90.8211 97.9955 91.0863 97.8862 91.3674C97.4249 91.5321 97.0221 91.8287 96.7279 92.2203C96.4336 92.612 96.261 93.0815 96.2313 93.5704C96.2016 94.0594 96.3162 94.5463 96.5608 94.9706C96.8055 95.395 97.1695 95.7381 97.6075 95.9574C97.6287 96.2774 97.645 96.6112 97.6762 96.9499C97.5177 96.8248 97.3176 96.7644 97.1163 96.7809C96.915 96.7973 96.7274 96.8894 96.5913 97.0387C95.865 97.6974 96.6725 99.2499 98.2938 99.5024C98.4187 99.7416 98.5737 99.9638 98.755 100.164C98.8282 100.235 98.9186 100.286 99.0174 100.313C99.1163 100.339 99.2202 100.339 99.3191 100.313C99.418 100.287 99.5085 100.236 99.5818 100.165C99.6551 100.093 99.7088 100.004 99.7375 99.9062C99.7822 99.7159 99.8118 99.5224 99.8262 99.3274C100.293 99.1006 100.676 98.7327 100.922 98.2759C101.167 97.8191 101.263 97.2966 101.195 96.7823C101.128 96.2681 100.9 95.7882 100.544 95.4106C100.188 95.0331 99.723 94.777 99.2138 94.6787Z" fill="#5A47FB"/>
<path d="M107.875 95.8638C113.25 95.9663 118.625 96.2538 124 96.0188C124.251 96.0188 124.492 95.9189 124.67 95.7413C124.848 95.5636 124.947 95.3226 124.947 95.0713C124.947 94.82 124.848 94.579 124.67 94.4013C124.492 94.2236 124.251 94.1238 124 94.1238C118.615 94.1375 113.24 94.6725 107.875 95.0238C107.764 95.0238 107.657 95.068 107.578 95.1468C107.499 95.2256 107.455 95.3324 107.455 95.4438C107.455 95.5552 107.499 95.662 107.578 95.7408C107.657 95.8195 107.764 95.8638 107.875 95.8638Z" fill="#5A47FB"/>
<path d="M129.148 91.5C128.635 91.5788 128.553 92.1338 128.553 92.4513C128.575 92.7118 128.694 92.9546 128.886 93.1315C129.079 93.3084 129.331 93.4066 129.593 93.4066C129.854 93.4066 130.106 93.3084 130.299 93.1315C130.491 92.9546 130.61 92.7118 130.632 92.4513C130.61 92.2272 130.519 92.0154 130.372 91.8443C130.226 91.6732 130.03 91.5509 129.812 91.4938C129.593 91.4454 129.366 91.4475 129.148 91.5Z" fill="#5A47FB"/>
<path d="M129.506 97.5526C129.725 97.5341 129.928 97.4342 130.077 97.2727C130.225 97.1113 130.307 96.9 130.307 96.6807C130.307 96.4614 130.225 96.2501 130.077 96.0887C129.928 95.9272 129.725 95.8274 129.506 95.8088C129.288 95.8274 129.084 95.9272 128.936 96.0887C128.787 96.2501 128.705 96.4614 128.705 96.6807C128.705 96.9 128.787 97.1113 128.936 97.2727C129.084 97.4342 129.288 97.5341 129.506 97.5526Z" fill="#5A47FB"/>
<path d="M137.037 89.7211C132.546 93.5961 132.981 101.489 137.324 100.991C137.686 100.95 137.906 100.457 137.524 100.25C133.72 98.1761 136.097 92.9999 137.714 90.2499C137.765 90.1594 137.783 90.0534 137.763 89.9511C137.743 89.8489 137.686 89.7573 137.604 89.6931C137.522 89.6289 137.42 89.5965 137.316 89.6016C137.212 89.6067 137.113 89.6492 137.037 89.7211Z" fill="#5A47FB"/>
<path d="M139.733 91.97C139.775 92.6559 139.853 93.3393 139.964 94.0175C140.06 94.6162 140.089 95.3787 140.704 95.6575C140.814 95.7178 140.94 95.7415 141.065 95.7253C141.189 95.7092 141.305 95.6539 141.396 95.5675C141.865 95.0437 141.665 94.4825 141.506 93.8512C141.333 93.16 141.118 92.48 140.863 91.815C140.653 91.25 139.691 91.2712 139.733 91.97Z" fill="#5A47FB"/>
<path d="M141.435 91.5601C141.597 92.8073 142.041 94.0012 142.734 95.0513C142.804 95.1179 142.892 95.1626 142.987 95.1801C143.082 95.1976 143.18 95.1871 143.27 95.15C143.359 95.1128 143.436 95.0505 143.49 94.9706C143.545 94.8908 143.575 94.7968 143.577 94.7001C143.578 94.0938 143.44 93.4954 143.175 92.9501C142.973 92.3752 142.718 91.8203 142.414 91.2926C142.165 90.8926 141.36 91.0088 141.435 91.5601Z" fill="#5A47FB"/>
<path d="M146.955 97.2876C151.816 97.1739 156.65 96.9464 161.501 96.5701C162.514 96.4914 162.511 94.8889 161.501 94.9889C156.65 95.458 151.802 95.9301 146.955 96.4051C146.4 96.4564 146.375 97.3001 146.955 97.2876Z" fill="#5A47FB"/>
<path d="M162.197 90.5237C161.974 90.9337 161.858 91.3933 161.86 91.86C161.862 92.3268 161.981 92.7855 162.208 93.1937C162.529 93.7862 163.627 93.5562 163.545 92.8325C163.469 92.1675 163.428 91.5025 163.363 90.8325C163.361 90.6956 163.315 90.563 163.231 90.4549C163.147 90.3468 163.03 90.2693 162.898 90.2342C162.765 90.1992 162.625 90.2085 162.499 90.2608C162.372 90.3131 162.266 90.4055 162.197 90.5237Z" fill="#5A47FB"/>
<path d="M163.979 90.6337C163.979 91.2262 163.993 91.8187 163.999 92.4112C163.962 92.6728 163.978 92.9391 164.045 93.1946C164.112 93.4501 164.229 93.6899 164.389 93.9C164.959 94.5 166.371 93.3675 164.999 90.355C164.764 89.8412 163.984 90.125 163.979 90.6337Z" fill="#5A47FB"/>
<path d="M170.25 91.64C169.785 90.985 169.027 90.045 168.141 90.2587C168.059 90.2835 167.989 90.3391 167.946 90.414C167.903 90.4889 167.891 90.5775 167.911 90.6612C167.967 91.0187 168.69 91.5187 169.086 92.4912C169.577 93.5399 169.72 94.7183 169.492 95.8537C169.232 96.8376 168.68 97.7194 167.908 98.3825C167.233 98.9687 166.415 99.2025 165.975 100.007C165.908 100.124 165.889 100.262 165.923 100.391C165.957 100.521 166.042 100.632 166.157 100.7C168.765 101.837 171.067 97.8162 171.276 95.7112C171.434 94.275 171.07 92.8299 170.25 91.64Z" fill="#5A47FB"/>
<path d="M174.153 98.1938C173.391 98.3825 173.195 98.9613 172.889 99.6163C171.501 102.585 173.308 102.366 173.599 102.018C173.974 101.485 174.301 100.92 174.576 100.33C174.826 99.6438 175.098 99.0925 174.694 98.4138C174.639 98.3239 174.557 98.2539 174.46 98.2143C174.362 98.1747 174.254 98.1675 174.153 98.1938Z" fill="#5A47FB"/>
<path d="M67.3287 74.65C72.0862 75.1662 77.11 74.6987 81.8887 74.5575C86.7404 74.4125 91.5908 74.2079 96.44 73.9437C97.515 73.885 97.5212 72.2037 96.44 72.2625C74.4687 73.48 73.7287 72.5512 67.3287 73.3237C67.1579 73.3312 66.9964 73.4043 66.8781 73.5278C66.7598 73.6514 66.6938 73.8158 66.6938 73.9869C66.6938 74.1579 66.7598 74.3224 66.8781 74.4459C66.9964 74.5695 67.1579 74.6426 67.3287 74.65Z" fill="#5A47FB"/>
<path d="M99.8062 69.1125C99.6674 69.1158 99.531 69.1503 99.4073 69.2135C99.2836 69.2767 99.1757 69.367 99.0917 69.4776C99.0076 69.5882 98.9495 69.7163 98.9218 69.8524C98.894 69.9885 98.8972 70.1291 98.9312 70.2638C98.9328 70.4518 98.9864 70.6357 99.0862 70.795C99.1969 70.9075 99.3346 70.9898 99.4861 71.034C99.6376 71.0782 99.7978 71.0828 99.9516 71.0475C100.105 71.0121 100.248 70.938 100.365 70.8321C100.482 70.7262 100.57 70.5921 100.62 70.4425C100.704 70.1301 100.704 69.8012 100.62 69.4888C100.481 69.1825 100.071 69.1125 99.8062 69.1125Z" fill="#5A47FB"/>
<path d="M98.8237 73.9999C98.8099 74.1434 98.8253 74.2883 98.8692 74.4257C98.913 74.5631 98.9843 74.6901 99.0788 74.7991C99.1733 74.908 99.2889 74.9967 99.4187 75.0595C99.5485 75.1224 99.6897 75.1583 99.8337 75.1649C99.9789 75.1584 100.121 75.1229 100.252 75.0604C100.383 74.9979 100.501 74.9097 100.597 74.8011C100.694 74.6924 100.767 74.5656 100.814 74.4279C100.86 74.2903 100.878 74.1447 100.867 73.9999C100.872 73.8627 100.849 73.7259 100.8 73.5978C100.751 73.4696 100.677 73.3526 100.581 73.2539C100.486 73.1551 100.372 73.0766 100.245 73.0229C100.119 72.9693 99.9829 72.9417 99.8456 72.9417C99.7083 72.9417 99.5725 72.9693 99.4461 73.0229C99.3197 73.0766 99.2054 73.1551 99.1101 73.2539C99.0147 73.3526 98.9402 73.4696 98.891 73.5978C98.8418 73.7259 98.8189 73.8627 98.8237 73.9999Z" fill="#5A47FB"/>
<path d="M105.481 73.2987C110.728 73.5724 115.986 73.554 121.231 73.2438C122.733 73.3368 124.24 73.1477 125.672 72.6862C126.241 72.4362 125.994 71.6425 125.515 71.4762C123.882 71.1241 122.197 71.0753 120.546 71.3325C115.509 71.4336 110.481 71.8142 105.486 72.4725C105.381 72.4776 105.281 72.5231 105.208 72.5995C105.134 72.6759 105.093 72.7774 105.093 72.8833C105.092 72.9891 105.132 73.0911 105.204 73.1684C105.276 73.2457 105.376 73.2923 105.481 73.2987Z" fill="#5A47FB"/>
<path d="M128.704 74.1749C128.229 76.6661 127.058 77.1661 126.805 78.2749C126.781 78.372 126.782 78.4737 126.808 78.5702C126.835 78.6667 126.886 78.7546 126.957 78.8254C127.028 78.8962 127.116 78.9474 127.212 78.974C127.309 79.0007 127.41 79.0018 127.508 78.9774C129.344 78.6361 129.899 75.8286 129.738 74.3161C129.683 73.7749 128.825 73.5411 128.704 74.1749Z" fill="#5A47FB"/>
<path d="M135.932 67.8274C131.476 72.5687 134.014 77.7112 137.024 77.5274C137.139 77.5238 137.25 77.4833 137.34 77.4119C137.43 77.3404 137.495 77.2419 137.526 77.1307C137.556 77.0195 137.549 76.9016 137.507 76.7944C137.465 76.6871 137.39 76.5962 137.292 76.5349C134.057 74.1987 135.126 71.4799 136.572 68.3212C136.756 67.9274 136.272 67.4662 135.932 67.8274Z" fill="#5A47FB"/>
<path d="M143.144 71.1075C143.154 70.5225 143.165 69.9362 143.144 69.3575C143.491 69.2306 143.85 69.1373 144.215 69.0787C144.545 69.0237 144.563 68.6137 144.394 68.4037C144.22 68.1747 143.995 67.9901 143.736 67.865C143.477 67.7399 143.192 67.6777 142.905 67.6837L142.885 67.5875C142.868 67.5313 142.835 67.4812 142.79 67.4432C142.746 67.4052 142.691 67.3809 142.633 67.3732C142.575 67.3656 142.515 67.3749 142.462 67.4C142.409 67.4251 142.365 67.4651 142.334 67.515C142.275 67.6112 142.23 67.7112 142.179 67.8112C139.804 68.595 139.014 71.6937 141.234 72.8237C141.218 73.0737 141.193 73.3475 141.176 73.6237C140.198 73.4887 139.239 74.7675 140.149 75.6112C140.52 75.955 140.966 76.2076 141.451 76.3487C141.981 77.51 142.744 77.54 143.164 76.3762C143.739 76.2143 144.246 75.8683 144.606 75.3912C144.966 74.914 145.159 74.332 145.157 73.7342C145.155 73.1365 144.957 72.556 144.593 72.0815C144.229 71.6071 143.72 71.265 143.144 71.1075Z" fill="#5A47FB"/>
<path d="M150.7 68.5475C148.722 69.5988 147.919 72.1863 148.04 74.3263C148.132 75.9763 149.69 78.6913 151.647 77.5688C151.744 77.5096 151.826 77.4297 151.887 77.3348C151.948 77.24 151.988 77.1326 152.002 77.0205C152.017 76.9085 152.006 76.7946 151.971 76.6872C151.936 76.5798 151.877 76.4817 151.799 76.4C151.032 75.4775 149.95 75.9113 149.976 72.9925C149.961 71.5798 150.383 70.1968 151.185 69.0338C151.402 68.7238 150.99 68.3938 150.7 68.5475Z" fill="#5A47FB"/>
<path d="M154.259 68.9162C153.799 69.89 153.609 70.969 153.708 72.0412C153.735 72.8337 155.038 73.1025 155.165 72.2375C155.407 71.1322 155.339 69.9816 154.969 68.9125C154.931 68.8522 154.878 68.8026 154.816 68.7683C154.754 68.734 154.684 68.7162 154.613 68.7166C154.542 68.7169 154.472 68.7355 154.41 68.7704C154.348 68.8054 154.296 68.8555 154.259 68.9162Z" fill="#5A47FB"/>
<path d="M156 68.2964C155.708 69.3064 155.301 70.9151 156.125 71.7726C156.196 71.8412 156.284 71.8904 156.38 71.9153C156.476 71.9403 156.577 71.9402 156.673 71.9151C156.768 71.8901 156.856 71.8408 156.928 71.7721C156.999 71.7033 157.051 71.6174 157.08 71.5226C157.205 71.0281 157.211 70.5111 157.098 70.0139C157.039 69.4933 157.033 68.9681 157.08 68.4463C157.136 67.8113 156.164 67.7176 156 68.2964Z" fill="#5A47FB"/>
<path d="M159.94 73.6476C169.496 73.4638 165.704 73.6076 173.202 73.1751C174.513 73.2603 175.829 73.2129 177.13 73.0338C177.243 73.0013 177.345 72.9402 177.427 72.8563C177.509 72.7724 177.568 72.6688 177.597 72.5554C177.627 72.442 177.627 72.3229 177.597 72.2095C177.567 72.0962 177.508 71.9926 177.426 71.9088C176.329 70.7463 175.045 71.0926 169.551 71.5338C166.323 71.7951 163.146 72.2226 159.934 72.6051C159.292 72.6826 159.25 73.6613 159.94 73.6476Z" fill="#5A47FB"/>
<path d="M179.046 65.5949C178.721 67.3774 178.289 68.5762 179.015 69.1712C179.124 69.2755 179.264 69.3422 179.414 69.3616C179.564 69.3809 179.716 69.3519 179.849 69.2787C180.89 68.6099 180.376 66.7974 180.306 65.7637C180.259 65.0924 179.182 64.8412 179.046 65.5949Z" fill="#5A47FB"/>
<path d="M181 66.0001C180.804 67.2163 180.215 68.9426 180.829 70.0963C180.877 70.1752 180.944 70.2404 181.025 70.2856C181.106 70.3308 181.196 70.3546 181.289 70.3546C181.381 70.3546 181.472 70.3308 181.553 70.2856C181.633 70.2404 181.701 70.1752 181.749 70.0963C182.444 69.0738 182.061 67.2951 182.006 66.1338C181.981 65.5888 181.099 65.3988 181 66.0001Z" fill="#5A47FB"/>
<path d="M183.776 66.4225C184.105 69.325 187.104 73.135 182.571 75.6188C182.4 75.7251 182.267 75.8839 182.193 76.0716C182.119 76.2593 182.107 76.4659 182.159 76.6608C182.212 76.8556 182.326 77.0284 182.484 77.1535C182.643 77.2785 182.837 77.3492 183.039 77.355C185.214 77.1963 186.597 75.1051 186.936 73.0963C187.094 71.8234 186.951 70.5314 186.52 69.3235C186.088 68.1157 185.38 67.0254 184.452 66.14C184.227 65.9363 183.735 66.0538 183.776 66.4225Z" fill="#5A47FB"/>
<path d="M189.585 73.7375C189.129 74.3802 188.74 75.067 188.421 75.7875C188.233 76.0497 188.108 76.3519 188.056 76.6705C188.004 76.989 188.026 77.3153 188.121 77.6238C188.177 77.7159 188.262 77.7875 188.362 77.8278C188.462 77.8682 188.572 77.8751 188.676 77.8475C189.355 77.6925 189.647 76.935 189.926 76.3588C190.273 75.6791 190.553 74.9674 190.762 74.2338C190.8 74.0839 190.783 73.9255 190.714 73.7871C190.646 73.6488 190.529 73.5397 190.387 73.4797C190.245 73.4197 190.085 73.4127 189.938 73.46C189.791 73.5073 189.666 73.6057 189.585 73.7375Z" fill="#5A47FB"/>
<path d="M200.264 68.9276C199.047 68.5776 197.82 68.2313 196.584 67.9588C195.409 67.7001 193.172 67.0838 192.924 68.0688C192.562 69.5026 195.481 69.7888 197.117 70.1938C195.893 70.6929 194.713 71.2968 193.592 71.9988C192.994 72.4013 193.127 73.6313 194.006 73.5251C196.334 73.0286 198.542 72.0817 200.506 70.7376C200.671 70.6361 200.802 70.4892 200.885 70.3147C200.967 70.1401 200.998 69.9454 200.972 69.7539C200.946 69.5625 200.866 69.3826 200.74 69.236C200.614 69.0893 200.449 68.9822 200.264 68.9276Z" fill="#5A47FB"/>
<path d="M64.2962 75.6875C62.9263 75.1498 61.51 74.7389 60.065 74.46C60.908 73.999 61.7186 73.4812 62.4912 72.91C62.7837 72.6513 63.3737 71.745 62.25 71.5763C61.4262 71.4513 58.2775 73.2475 56.965 73.9263C56.805 74.0285 56.6775 74.1742 56.5972 74.3463C56.517 74.5184 56.4874 74.7097 56.5119 74.898C56.5364 75.0863 56.6141 75.2637 56.7357 75.4095C56.8573 75.5553 57.0179 75.6634 57.1987 75.7213C59.2075 76.4275 61.7262 77.4063 63.8862 77.21C64.5962 77.1475 65.125 76.05 64.2962 75.6875Z" fill="#5A47FB"/>
<path d="M94.42 118.856C94.2862 118.856 94.1527 118.869 94.0213 118.894C93.1763 118.804 93.8525 116.658 93.9312 116.089C94.235 113.878 92.9138 112.69 91.595 112.813C91.4172 112.815 91.245 112.875 91.1037 112.983C90.9624 113.091 90.8595 113.242 90.81 113.413C90.7 114.163 91.06 115.038 91.9913 114.656C92.5388 115.435 91.7125 118.178 92.0363 119.039C92.1673 119.408 92.381 119.743 92.6613 120.018C92.5215 120.341 92.439 120.686 92.4175 121.038C92.398 121.893 92.4557 122.749 92.59 123.594C92.0175 122.484 90.2913 123.476 90.9075 124.575C91.1376 124.928 91.4765 125.197 91.8729 125.341C92.2693 125.485 92.7018 125.496 93.1049 125.372C93.5081 125.249 93.8601 124.997 94.1077 124.656C94.3553 124.314 94.4851 123.902 94.4775 123.48C94.515 123.074 94.0225 120.605 94.4188 120.605C95.23 120.596 95.375 118.854 94.42 118.856Z" fill="#5A47FB"/>
<path d="M127.281 118.421C125.069 117.961 123.605 118.145 112.802 118.621C110.505 118.721 102.221 118.601 101.446 119.524C101.305 119.67 101.226 119.865 101.226 120.069C101.226 120.272 101.305 120.467 101.446 120.614C102.37 121.467 104.716 120.847 105.909 120.785C122.776 119.875 124.809 119.95 127.284 119.066C127.566 118.962 127.625 118.5 127.281 118.421Z" fill="#5A47FB"/>
<path d="M134.461 114.046C133.686 115.686 132.886 117.296 132.07 118.921C131.468 120.118 130.426 121.33 131.033 122.654C131.092 122.754 131.182 122.831 131.29 122.875C131.398 122.918 131.517 122.925 131.629 122.894C133.028 122.491 133.345 120.573 133.844 119.345C134.495 117.74 135.401 116.018 135.174 114.243C135.125 113.909 134.644 113.66 134.461 114.046Z" fill="#5A47FB"/>
<path d="M139.467 112.903C138.423 114.253 137.633 115.783 137.135 117.416C136.501 118.931 135.419 120.734 135.697 122.395C135.791 122.95 136.497 123.001 136.849 122.698C138.024 121.698 138.349 119.649 138.802 118.209C139.492 116.591 139.885 114.862 139.964 113.105C139.961 113.049 139.943 112.994 139.91 112.948C139.878 112.902 139.833 112.866 139.78 112.845C139.728 112.824 139.671 112.818 139.616 112.828C139.56 112.838 139.509 112.864 139.467 112.903Z" fill="#5A47FB"/>
<path d="M143.161 118.875C145.576 119.205 148.011 119.359 150.448 119.334C152.791 119.379 155.585 119.781 157.846 119.116C158.045 119.056 158.22 118.933 158.344 118.766C158.467 118.599 158.534 118.396 158.534 118.188C158.534 117.98 158.467 117.777 158.344 117.61C158.22 117.443 158.045 117.32 157.846 117.26C155.548 116.722 152.801 117.229 150.448 117.329C148.011 117.355 145.578 117.522 143.161 117.829C143.047 117.861 142.947 117.929 142.876 118.024C142.804 118.118 142.766 118.233 142.766 118.352C142.766 118.47 142.804 118.585 142.876 118.68C142.947 118.774 143.047 118.843 143.161 118.875Z" fill="#5A47FB"/>
</svg>
