<svg width="250" height="250" viewBox="0 0 250 250" fill="none" xmlns="http://www.w3.org/2000/svg">
<path d="M222.042 212.034C151.352 212.064 79.98 212.177 8.87 212.35C8.04375 212.35 7.96875 213.647 8.81625 213.647C79.2525 213.865 151.337 213.745 221.967 213.73C223.033 213.73 223.137 212.034 222.042 212.034Z" fill="#1B1B1B"/>
<path d="M149.845 199.342C147.519 198.307 140.845 197.52 138.095 197.58C133.91 197.662 131.021 199.132 127.114 203.705C126.679 204.205 127.316 204.936 127.827 204.455C132.327 200.352 134.165 198.882 138.432 198.897C142.225 198.984 145.99 199.552 149.64 200.585C150.39 200.78 150.457 199.595 149.85 199.335L149.845 199.342ZM155.522 209.454C155.261 208.771 151.075 209.191 146.469 206.116C146.358 206.053 146.228 206.031 146.102 206.054C145.977 206.077 145.864 206.145 145.783 206.243C145.702 206.342 145.659 206.467 145.661 206.595C145.663 206.722 145.711 206.845 145.795 206.941C148.313 209.164 151.542 210.414 154.9 210.466C155.02 210.468 155.138 210.439 155.244 210.382C155.349 210.324 155.437 210.24 155.5 210.138C155.563 210.035 155.598 209.919 155.602 209.799C155.606 209.679 155.579 209.56 155.522 209.454ZM148.625 203.25C148.695 203.304 148.751 203.373 148.79 203.453C148.829 203.532 148.849 203.619 148.849 203.707C148.849 203.796 148.829 203.883 148.79 203.962C148.751 204.041 148.695 204.111 148.625 204.165C148.031 204.57 143.134 204.525 142.834 205.665C142.796 206.911 143.038 208.149 143.54 209.29C143.591 209.424 143.586 209.573 143.527 209.704C143.468 209.835 143.359 209.937 143.224 209.988C143.09 210.039 142.941 210.034 142.81 209.975C142.679 209.916 142.577 209.807 142.526 209.672C141.881 208.247 140.516 205.247 142.451 204.136C143.479 203.544 147.665 202.585 148.647 203.23L148.625 203.25ZM140.5 201C142 200.49 143.576 201.555 140.972 202.336C137.605 203.336 136.749 207.729 135.939 208.434C135.654 208.684 135.001 208.509 135.077 208.119C135.315 206.573 135.936 205.111 136.883 203.866C137.83 202.622 139.073 201.634 140.5 200.992V201ZM138.25 200.032C138.393 200.027 138.533 200.073 138.645 200.16C138.758 200.248 138.836 200.373 138.866 200.513C138.895 200.652 138.875 200.798 138.808 200.924C138.741 201.05 138.632 201.149 138.5 201.202C135.057 202.202 132.897 203.191 130.58 206.191C130.249 206.626 129.476 206.124 129.776 205.659C130.7 204.166 131.932 202.889 133.391 201.912C134.849 200.935 136.499 200.281 138.231 199.995L138.25 200.032Z" fill="#1B1B1B"/>
<path d="M208.579 167.419C208.811 166.645 208.871 165.83 208.755 165.031C208.638 164.232 208.348 163.468 207.904 162.794C207.82 162.689 207.701 162.618 207.569 162.594C207.437 162.57 207.301 162.594 207.186 162.663C207.071 162.731 206.984 162.839 206.942 162.967C206.901 163.094 206.906 163.233 206.959 163.356C208.284 167.589 205.601 170.251 204.348 173.655C203.348 176.364 203.44 179.926 206.32 181.419C206.875 181.704 207.364 180.811 206.853 180.466C206.302 180.036 205.863 179.481 205.57 178.847C205.278 178.212 205.142 177.518 205.173 176.82C205.135 173.689 207.795 170.884 208.579 167.419ZM216.079 163.33C216.197 161.58 215.647 159.851 214.54 158.491C214.225 158.184 213.665 158.552 213.745 158.957C214.105 160.756 214.954 161.747 214.579 164.447C214.177 166.285 213.397 168.02 212.29 169.541C210.678 172.195 209.29 175.811 211.893 178.347C212.335 178.782 213.085 178.032 212.643 177.597C212.162 176.976 211.853 176.24 211.745 175.462C211.637 174.685 211.734 173.892 212.028 173.164C213.138 169.539 216.049 167.824 216.056 163.33H216.079Z" fill="#1B1B1B"/>
<path d="M156.581 126.065C154.787 127.655 151.487 131.248 148.84 130.295C146.192 129.343 144.896 124.92 144.084 122.501C144.045 122.393 143.968 122.303 143.867 122.248C143.767 122.193 143.649 122.176 143.537 122.201C143.425 122.225 143.326 122.29 143.258 122.383C143.19 122.475 143.159 122.59 143.169 122.704C143.794 125.561 145.561 130.43 148.561 131.481C150.355 132.106 152.102 131.203 153.604 130.258C153.675 132.979 153.582 135.702 153.325 138.413C153.257 138.959 154.247 138.966 154.337 138.413C154.75 135.485 154.844 132.521 154.619 129.573C158.761 126.569 157.211 125.5 156.581 126.065Z" fill="#1B1B1B"/>
<path d="M151.375 124.647C153.522 124.009 154.971 121.471 154.219 120.724C153.711 120.224 153.319 120.956 153.206 121.369C152.883 122.326 152.215 123.129 151.331 123.619C150.258 124.137 150.875 124.789 151.375 124.647Z" fill="#1B1B1B"/>
<path d="M143.851 117.85C144.698 117.766 144.073 115.475 143.476 115.6C142.648 115.782 143.153 117.92 143.851 117.85Z" fill="#1B1B1B"/>
<path d="M174.875 121.714C172.558 121.159 168.375 118.12 168.049 114.67C172.691 115.142 174.898 114.199 176.72 113.11C179.72 111.325 175.391 111.735 173.12 111.22C166.031 109.555 168.544 96.8562 154.096 95.4825C139.649 94.1087 141.125 105.875 132.125 104.214C130.721 103.951 128.816 102.999 130.25 104.851C131.553 106.447 133.194 107.735 135.054 108.621C136.914 109.507 138.947 109.97 141.008 109.976C141.014 110.541 141.074 111.104 141.188 111.657C141.202 111.773 141.259 111.88 141.346 111.958C141.434 112.035 141.547 112.078 141.664 112.078C141.781 112.078 141.894 112.035 141.981 111.958C142.069 111.88 142.125 111.773 142.14 111.657C142.192 111.117 142.192 110.573 142.14 110.032C146.111 109.911 149.982 108.756 153.369 106.68C154.147 107.846 155.044 108.927 156.048 109.906C151.599 110.709 141.798 112.636 138.135 114.256C137.948 114.379 137.803 114.556 137.721 114.764C137.639 114.973 137.623 115.201 137.676 115.419C138.454 117.341 139.461 119.162 140.676 120.842C141.33 121.705 144.72 120.842 145.658 120.415C145.658 121.79 145.815 121.96 147.954 121.502C150.093 121.045 149.579 120.145 148.954 120.212C148.204 120.294 147.55 120.475 146.764 120.535C146.747 118.761 146.87 116.988 147.131 115.232C147.605 116.429 148.177 117.585 148.84 118.689C148.992 118.88 149.193 119.025 149.423 119.109C149.652 119.192 149.9 119.211 150.139 119.162C150.821 119.162 154.684 118.412 154.901 117.796C155.403 115.718 155.606 113.578 155.503 111.442C156.112 111.385 156.714 111.273 157.303 111.106C157.7 111.466 160.828 114.414 161.375 113.514C165.125 107.416 166.125 119.889 161.541 119.514C161.188 119.514 160.64 119.552 160.723 120.047C161.608 125.777 162.905 130.459 163.813 137.532C163.895 138.194 165.02 138.005 164.968 137.345C164.441 132.656 163.675 127.996 162.673 123.385C165.935 124.832 172.739 124.795 176.048 123.769C179.556 122.682 177.186 122.27 174.875 121.714ZM145.785 118.964C144.452 119.516 143.028 119.816 141.585 119.849C140.528 118.453 139.629 116.944 138.906 115.349C141.27 114.523 143.686 113.854 146.139 113.349C145.921 115.212 145.801 117.085 145.779 118.961L145.785 118.964ZM153.969 116.894C152.644 117.429 151.259 117.801 149.844 118.004C148.888 116.431 148.067 114.78 147.393 113.067C149.678 112.435 152.004 111.959 154.354 111.642C154.359 113.4 154.228 115.154 153.963 116.891L153.969 116.894Z" fill="#1B1B1B"/>
<path d="M151 116.216C151.563 115.892 151.25 113.87 150.423 114.16C149.718 114.409 150.265 116.636 151 116.216Z" fill="#1B1B1B"/>
<path d="M133.312 85.6863C126.978 91.4363 120.305 97.29 112.312 100.599C108.528 102.317 104.397 103.136 100.244 102.991C87.5662 101.926 99.2162 87.8313 100.717 82.6713C103.776 72.1713 87.9675 75.7475 82.8263 76.91C70.2688 79.73 54.9513 86.9388 45.9513 96.375C45.6138 96.7275 46.1613 97.2975 46.5438 97C54.3225 90.835 59.1525 87.0688 68.5138 82.9813C72.7975 81.0975 105.051 69.1788 99.0888 83.4913C97.3388 87.6763 90.3388 96.9475 94.2875 101.719C97.7688 105.919 105.912 104.219 110.281 102.784C119.424 99.7838 127.113 93.175 134.134 86.7838C134.723 86.2038 133.949 85.1075 133.312 85.6863Z" fill="#1B1B1B"/>
<path d="M47.8125 98.2287C46.926 96.8945 45.8095 95.7285 44.515 94.785C43.2325 94.1775 39.1063 97.98 39.6088 98.955C39.9838 99.705 42.6088 103.141 43.2475 103.194C43.8863 103.246 44.695 102.444 46.9525 100.741C47.845 100.037 48.75 99.6325 47.8125 98.2287ZM100.125 101.911C99.0663 99.9987 97.125 99.9912 95.46 101.079C93.6887 102.271 94.335 104.769 95.96 105.759C96.5082 106.081 97.1456 106.219 97.7781 106.151C98.4105 106.083 99.0043 105.814 99.4716 105.382C99.9388 104.95 100.255 104.38 100.372 103.755C100.49 103.13 100.403 102.483 100.125 101.911ZM114.5 87.9812C114.21 87.3781 113.706 86.9048 113.086 86.6539C112.465 86.4031 111.774 86.3928 111.146 86.625C107.966 83.985 104.606 81.0512 101.327 78.2612C102.542 75.3862 99.8875 72.4625 97.0075 74.5862C93.7288 71.795 90.8825 69.695 87.0313 66.3875C87.2889 65.9421 87.4206 65.4351 87.4122 64.9206C87.4037 64.4061 87.2555 63.9036 86.9833 63.467C86.7112 63.0303 86.3254 62.6759 85.8672 62.4417C85.4091 62.2075 84.8958 62.1023 84.3825 62.1375C80.94 62.4825 79.9275 65.0025 80.9925 66.7437C82.1925 68.6937 84.9225 68.5287 86.5438 67.2437C89.6863 70.3687 92.8813 72.8837 96.115 75.6187C94.7725 78.1612 97.865 81.4537 100.51 79.3687C103.744 82.0987 106.931 84.8687 110.201 87.56C109.676 87.98 109.046 91.9262 112.451 92.0162C114.656 92.0837 115.451 90.2 114.506 88.0162L114.5 87.9812ZM85.545 66.0862C83.4513 68.2287 80.7525 65.6962 83.0325 64.0075C85.155 62.44 86.84 64.7612 85.545 66.0862ZM113.488 90.0862C112.293 91.9812 109.271 88.9087 111.863 87.7387C113.098 87.1862 113.916 89.4075 113.488 90.0887V90.0862ZM136.47 79.9825C135.865 79.6075 131.61 83.3662 131.497 83.8162C131.295 84.6487 132.817 85.9687 133.238 86.3887C134.287 87.4237 135.363 89.1112 136.68 87.8887C137.805 86.8312 138.93 85.7512 139.996 84.6712C140.664 84.0137 136.884 80.2387 136.47 79.985V79.9825ZM136.208 81.4075L138.609 84.1837L135.803 87.0187L132.6 84.0187L136.208 81.4075ZM43.8475 95.875L46.8475 99.175L43.45 101.866C42.6216 100.739 41.6676 99.7092 40.6063 98.7975L43.8475 95.875Z" fill="#5A47FB"/>
<path d="M151.457 41.4749C150.932 36.8237 149.597 36.2249 145.021 36.2249C138.553 36.2119 132.09 36.598 125.669 37.3812C119.585 38.1312 120.26 39.7562 120.809 45.1662C121.319 50.2299 122.309 60.6337 123.809 64.6099C125.204 68.3599 125.559 69.5449 129.457 69.2674C135.802 68.8107 142.111 67.949 148.345 66.6874C152.912 65.6749 152.282 62.2537 152.23 58.0087C152.052 57.7699 152.519 52.3849 151.457 41.4749ZM149.958 64.4749C148.165 66.1099 131.287 67.7599 128.676 67.8949C128.23 67.9842 127.767 67.9457 127.341 67.7839C126.915 67.622 126.543 67.3434 126.269 66.9799C124.214 64.1299 122.429 48.0774 121.986 43.2687C121.611 39.1737 122.174 39.2187 125.684 38.7687C132.491 37.9198 139.347 37.5314 146.206 37.6062C150.081 37.7637 149.831 39.2312 150.099 41.6787C150.717 47.6861 150.967 53.7257 150.849 59.7637C150.849 61.1887 151.165 63.4174 149.974 64.5049L149.958 64.4749Z" fill="#5A47FB"/>
<path d="M143.356 44.3851C140.67 44.0001 131.82 44.8851 128.678 45.0601C127.019 45.1576 128.513 48.8101 128.624 49.0514C128.689 49.1623 128.787 49.2495 128.906 49.3002C129.024 49.3509 129.155 49.3624 129.28 49.333C129.405 49.3037 129.518 49.235 129.601 49.1371C129.684 49.0391 129.734 48.9171 129.743 48.7889C129.795 48.034 129.734 47.2755 129.561 46.5389C131.588 46.4639 133.598 46.2689 135.63 46.1714C136.23 51.0551 136.38 55.7426 137.244 60.6339C136.582 60.7524 135.938 60.9501 135.324 61.2226C133.979 61.8901 135.283 62.4726 135.48 62.4489C136.568 62.2914 142.044 61.8564 141.931 60.7989C141.819 59.7414 139.681 60.2364 138.729 60.3714C137.979 56.1789 137.854 50.7176 137.011 45.9964C139.095 45.8714 140.964 45.9964 143.011 45.8539C143.011 49.4176 144.376 47.7901 144.399 47.6476C144.721 45.3226 144.946 44.6139 143.356 44.3851Z" fill="#1B1B1B"/>
<path d="M222.365 188.946C220.887 188.982 219.442 189.384 218.157 190.116C218.126 189.09 218.038 188.066 217.895 187.049C217.782 186.299 200.328 185.712 200.27 187.049C199.7 201.592 203.27 209.881 204.252 210.474C205.235 211.066 213.531 210.737 214.574 210.474C214.964 210.376 215.707 208.36 216.42 205.396C226.176 203.859 228.867 188.845 222.365 188.946ZM216.865 203.407C217.673 199.565 218.115 195.655 218.185 191.729C219.378 190.931 220.77 190.482 222.205 190.431C226.784 190.521 224.061 201.187 216.868 203.407H216.865Z" fill="#5A47FB"/>
<path d="M10 189.891C11.845 189.749 26.765 190.034 28 189.891C28.57 191.669 25.8025 208.531 25.2987 210.141C22.3888 210.524 14.5725 210.246 13.365 210.246C12.1925 207.875 10 192.25 10 189.891Z" fill="#1B1B1B"/>
<path d="M165.455 210.25C169.483 209.635 180.78 204.595 185.565 198.151C185.712 201.965 185.642 205.784 185.354 209.59C179.331 210.354 167.625 210.125 165.455 210.25Z" fill="#5A47FB"/>
<path d="M187.777 155.214C185.127 147.339 180.194 141.096 167.217 137.114C162.664 144.225 149.402 143.739 151.285 137.114C138.052 139.754 129.825 149.364 121.506 158.989C122.211 163.34 123.006 170.924 123.419 176.039C124.056 183.924 120.981 185.715 116.169 187.051C112.831 187.974 101.219 188.214 92.66 188.251C89.1165 191.069 85.2995 193.524 81.2662 195.58C85.2412 194.913 92.1575 197.83 95.2787 202.593C103.59 200.968 119.941 191.011 126.235 182.85C128.409 171.487 131.83 160.398 136.436 149.785C136.699 149.208 137.516 149.636 137.311 150.205C131.311 166.705 125.76 184.845 125.52 202.593C128.125 199.731 131.39 197.55 135.031 196.24C137.341 195.67 146.5 196.668 151.156 198.408C156.406 195.533 167.656 189.519 170.164 184.47C172.196 180.36 168.131 164.555 166.841 160.115C166.676 159.529 167.509 159.184 167.734 159.769C169.984 165.613 172.166 175.386 172.166 181.674C172.166 188.746 158.38 196.608 152.844 199.24C156.332 201.445 157.54 205.931 157.54 210.02C166.826 209.366 182.886 203.013 189.141 188.971C192.586 181.235 190.424 163.073 187.777 155.214Z" fill="#5A47FB"/>
<path d="M203.283 64.4813C201.793 63.4088 188.07 59.7476 185.283 59.2313C185.246 59.2313 184.586 58.7588 184.345 59.4413C179.516 73.3038 174.595 92.3488 170.776 106.526C170.643 107.036 171.538 107.354 171.691 106.81C176.046 91.4088 180.468 75.7788 185.381 60.3038C191.185 61.6662 196.907 63.3594 202.518 65.3751C193.614 87.5926 189.968 112.875 181.626 135.825C178.251 134.95 170.06 133.379 167.263 132.014C166.73 131.751 166.219 132.606 166.738 132.923C168.508 134.025 181.259 137.033 181.536 137.235C182.354 137.843 182.618 137.138 182.88 136.32C190.524 112.81 196.25 88.7313 203.8 65.1113C203.913 64.7663 203.539 64.6663 203.283 64.4813Z" fill="#1B1B1B"/>
<path d="M235.236 92.2125C232.336 88.1912 229.289 84.3587 226.04 80.6312C224.48 78.8675 223.483 77.1137 221.781 78.5525C214.826 84.4275 200.38 99.0762 194.454 105.552C194.003 106.04 194.799 106.655 195.249 106.19C204.265 96.8587 213.326 87.8575 223.078 79.2925C227.48 84.505 231.516 89.5225 235.658 94.9537C222.388 107.98 198.166 127.5 185.325 138.351C184.825 138.764 185.61 139.491 186.075 139.101C203.335 124.781 220.603 111.88 236.609 95.8062C237.441 94.9725 235.68 92.8275 235.236 92.2125Z" fill="#1B1B1B"/>
<path d="M243.697 132.989C243.697 134.214 242.163 117.952 241.665 114.251C241.664 114.079 241.623 113.909 241.546 113.755C241.47 113.601 241.359 113.467 241.222 113.362C241.086 113.257 240.927 113.184 240.758 113.15C240.59 113.115 240.415 113.12 240.249 113.162C232.718 114.482 224.991 115.21 217.565 116.584C216.995 116.696 217.152 117.647 217.745 117.634C223.022 117.502 234.921 115.405 240.51 114.43C240.36 117.199 242.596 133.535 242.535 133.649C224.255 137.571 207.716 138.914 189.277 139.934C189.144 139.943 189.018 140.003 188.926 140.101C188.835 140.199 188.784 140.328 188.784 140.462C188.784 140.597 188.835 140.726 188.926 140.824C189.018 140.922 189.144 140.982 189.277 140.991C207.21 140.553 225.07 138.546 242.652 134.991C243.774 134.75 243.834 133.97 243.697 132.989Z" fill="#1B1B1B"/>
<path d="M18.6437 169.744C18.6437 169.174 16.5662 158.941 16.3025 157.846C16.13 157.149 15.32 157.636 15.275 158.116C14.96 161.748 14.9825 165.408 14.525 169.024C14.135 172.024 15.935 184.925 16.4537 188.114C16.5287 188.579 19.9712 188.969 19.9537 188.226C19.8487 181.865 18.8962 175.879 18.6562 169.744H18.6437ZM11.075 188.391C9.9275 186.141 7.97 177.628 7.45 174.844C6.8586 171.452 6.46046 168.03 6.2575 164.594C6.24902 164.495 6.27423 164.395 6.32905 164.312C6.38387 164.229 6.4651 164.167 6.55962 164.136C6.65413 164.105 6.75641 164.106 6.84993 164.14C6.94345 164.174 7.02274 164.239 7.075 164.324C8.72603 167.252 10.17 170.292 11.3962 173.423C12.6637 176.528 14.0212 184.096 14.8962 187.938C15.0562 188.689 11.2662 188.775 11.075 188.391ZM8.2625 174.184C8.975 174.004 9.6275 173.801 10.3325 173.576C9.3325 171.493 8.35208 169.418 7.39125 167.35C7.685 169.601 7.97 171.904 8.2625 174.184ZM15.5 168.934C15.665 166.495 15.8375 164.059 16 161.62L17.5762 168.995L15.5 168.934Z" fill="#5A47FB"/>
<path d="M237.757 118.736C237.712 118.369 236.97 118.188 236.745 118.255C232.101 119.554 229.495 119.164 228.269 119.464C227.36 119.689 228.269 123.089 228.344 123.649C228.906 126.649 229.281 130.476 229.844 133.024C229.919 133.399 230.279 133.189 230.594 133.168C233.154 132.617 235.751 132.261 238.365 132.103C239.498 132.103 239.505 131.008 239.365 130.103C238.765 126.299 238.293 122.556 237.775 118.739L237.757 118.736ZM212.531 122.929C212.509 122.793 212.435 122.672 212.325 122.59C212.215 122.508 212.077 122.473 211.94 122.491C211.804 122.51 211.681 122.581 211.597 122.689C211.512 122.798 211.473 122.935 211.489 123.071C211.718 126.968 212.206 130.844 212.951 134.675C210.739 134.9 208.159 135.074 205.713 135.245C205.495 133.289 205.285 131.33 205.06 129.37C204.895 127.968 204.16 128.335 204.025 128.538C203.71 129.01 204.497 135.139 204.7 136.038C204.775 136.42 207.325 136.038 209.786 135.888C212.247 135.738 214.436 135.79 214.354 135.309C213.641 131.099 212.531 122.346 212.531 122.929ZM226.67 131.488C226.274 128.988 225.884 126.488 225.569 123.988C225.059 119.93 226.194 120.103 222.372 120.823C219.582 121.348 218.372 121.228 215.794 121.513C215.359 121.558 215.544 121.948 215.591 122.263C215.716 123.236 217.153 133.243 217.46 134.113C217.768 134.983 217.362 134.938 218.727 134.863C221.278 134.843 223.819 134.542 226.304 133.963C227.054 133.694 226.769 132.036 226.67 131.451V131.488ZM218.285 133.895C217.73 130.1 217.175 126.305 216.62 122.509C219.201 122.53 221.775 122.236 224.285 121.634C224.202 123.705 225.389 128.978 225.785 132.984C223.243 133.349 220.813 133.648 218.285 133.895ZM230.624 132.118C230.571 130.754 229.349 123.754 228.914 120.566C231.089 120.289 234.96 120.026 236.865 119.516C237.328 123.328 237.796 127.139 238.268 130.949C235.692 131.123 233.135 131.514 230.625 132.118H230.624Z" fill="#5A47FB"/>
<path d="M222.395 85.1087C222.855 85.3437 230.781 93.72 230.645 94.5C230.509 95.28 224.69 101.094 223.564 101.094C222.437 101.094 215.23 93.1275 215.23 92.1825C215.23 91.2375 222.111 84.9625 222.395 85.1087ZM201.481 104.679C202.18 104.731 209.366 113.679 209.106 114.197C208.846 114.716 202.511 120.056 201.867 120.056C201.224 120.056 195.117 110.867 195.019 110.665C194.92 110.462 201.481 104.175 201.481 104.679ZM211.901 95.205C211.489 94.9862 204.685 101.049 204.685 101.664C204.685 102.279 211.909 110.882 213.034 110.972C214.159 111.062 219.402 105.211 219.62 104.386C219.837 103.561 212.576 95.5637 211.901 95.205Z" fill="#5A47FB"/>
<path d="M186.938 64.8188C187.625 64.1113 197.739 67.5688 197.957 67.9313C198.176 68.2938 195.826 77.1876 195.181 77.2551C194.536 77.3226 185 75.0001 184.545 74.3451C184.09 73.6901 186.435 65.3363 186.938 64.8188ZM189.875 96.6601C190.125 97.4101 188.141 105.969 187.391 106.344C186.641 106.719 176.141 103.501 175.585 102.909C175.029 102.316 177.437 94.0726 178.262 93.6226C179.087 93.1726 189.875 96.0776 189.875 96.6601ZM182.681 79.2725C183.113 79.005 193.767 81.9738 193.835 82.3263C193.902 82.6788 192.335 91.3263 191.54 91.5675C190.745 91.8088 179.695 89.2726 179.695 88.7313C179.695 88.1901 181.959 79.72 182.677 79.2725H182.681Z" fill="#1B1B1B"/>
<path d="M71.7812 143.875C70.8562 140.306 68.7812 136.6 64.835 135.97C60.5225 135.28 58.4287 138.355 58.2188 142.286C57.9037 147.949 60.14 154.036 64.58 155.653C71.9912 158.349 73.25 149.544 71.7812 143.875ZM92.2363 208.875L79.4025 208.625C71.7137 208.49 71.8487 204.815 72.3887 198.125C73.2137 187.864 76.0137 177.708 78.195 167.655C78.495 166.268 78.345 166.03 76.5812 165.96C74.3312 165.87 69.0137 165.96 65.225 165.96C64.655 165.96 64.295 166.808 65.42 166.92C66.92 167.07 74.1213 167.228 77.1 167.31C74.3912 177.4 71.725 187.774 70.8962 198.185C70.4462 203.849 70.1912 209.541 77.805 210.029C80.3175 210.194 89.2812 210.194 92.3487 210.111C95.695 210.029 94.3487 208.889 92.2363 208.851V208.875ZM61.835 167.493C62.2025 166.795 63.335 167.17 63.02 167.944C58.9912 177.65 50.2225 194.319 49.87 203.619C49.675 208.786 51.9412 208.494 56.2012 208.576C60.2975 208.651 64.5275 208.576 68.5938 208.701C71.1362 208.799 70.9862 210.239 68.5938 210.201C64.43 210.104 60.275 210.051 56.1112 209.969C51.1237 209.871 48.1 209.736 48.385 203.609C48.775 195.14 58.01 174.714 61.885 167.505L61.835 167.493ZM131.077 208.801C133.215 209.754 133.86 211.668 130.77 210.301C127.129 208.664 123.391 207.251 119.577 206.071C117.433 205.411 118.505 206.071 115.077 211.165C115.007 211.29 114.889 211.382 114.75 211.421C114.612 211.46 114.463 211.441 114.338 211.371C114.213 211.3 114.121 211.182 114.082 211.044C114.044 210.905 114.062 210.757 114.132 210.631C114.882 208.989 115.757 207.369 116.562 205.741C110.344 205.914 81.6 206.214 76.3562 205.426C75.7412 205.336 75.7562 204.354 76.3562 204.346C88.8687 204.249 104.816 204.481 117.545 204.279C120.644 204.234 127.994 207.466 131.045 208.831L131.077 208.801ZM120.891 168.301C123.419 182.845 121.641 185.301 107.126 185.906C97.8832 186.413 88.6193 186.413 79.3762 185.906C78.6262 185.846 78.7762 184.81 79.4737 184.795C88.7237 184.585 97.9337 184.92 107.224 184.518C117.77 184.053 122.301 183.7 119.974 170.874C117.371 156.576 115.684 141.935 113.269 127.374C110.65 111.624 108.835 113.124 94.305 113.124C75.18 113.124 54.145 114.556 36.45 116.124C26.0912 117.046 27.6587 124.124 28.2362 131.703C29.2712 145.498 30.9737 159.135 32.6237 172.869C34.1237 185.141 37.3875 183.994 43.1237 184.255C45.4112 184.36 49.9112 184.005 51.96 184.255C52.4775 184.315 53.0325 184.88 51.96 185.13C51.075 185.331 41.915 185.453 40.415 185.468C32.8087 185.573 32.5537 179.661 31.6837 173.803C29.5687 159.626 27.9337 145.741 26.8987 131.428C26.3137 123.178 25.4887 115.984 35.63 115.083C56.3025 113.26 75.0175 112.293 95.7438 111.708C111.994 111.25 112.134 113.755 114.609 127.048C117.031 140.048 118.876 156.298 120.955 168.251L120.891 168.301ZM64.82 154.589C61.32 153.515 59.4712 147.65 59.3512 144.259C59.2387 141.214 59.6362 137.081 63.62 137.036C67.295 137.036 69.62 140.441 70.6562 144.161C71.8338 148.375 71.5112 156.638 64.82 154.584V154.589Z" fill="#1B1B1B"/>
</svg>
