<svg width="250" height="250" viewBox="0 0 250 250" fill="none" xmlns="http://www.w3.org/2000/svg">
<path d="M186.967 106.421C186.316 104.887 184.944 103.149 186.195 97.3749C186.562 95.6824 187.004 91.8574 184.135 92.1524C182.076 92.3361 180.789 95.0574 180.274 96.7486C179.611 98.7724 179.355 101.53 180.752 103.259C181.046 103.626 181.635 103.295 181.635 102.891C181.597 100.979 180.826 96.1974 183.252 94.5424C183.546 93.9536 184.907 94.1011 184.614 95.3511C184.062 97.6324 183.4 104.766 186.379 106.899C186.636 107.125 187.109 106.75 186.967 106.421Z" fill="#1B1B1B"/>
<path d="M207.599 50.485C199.599 53.415 196.124 47.2125 195.168 44.785C192.925 39.2325 194.543 33.2375 195.866 27.685C195.893 27.5835 195.88 27.4753 195.828 27.3839C195.776 27.2924 195.69 27.225 195.589 27.196C195.488 27.167 195.38 27.1788 195.287 27.2289C195.195 27.279 195.126 27.3633 195.095 27.4638C192.851 33.7525 191.454 40.9238 194.58 47.36C195.303 48.706 196.302 49.8837 197.513 50.8156C198.723 51.7474 200.118 52.4122 201.604 52.7663C201.429 54.9853 201.491 57.2166 201.788 59.4225C201.816 59.5223 201.877 59.61 201.96 59.6724C202.043 59.7349 202.144 59.7686 202.248 59.7686C202.351 59.7686 202.452 59.7349 202.535 59.6724C202.618 59.61 202.679 59.5223 202.708 59.4225C202.917 57.2816 202.904 55.1247 202.67 52.9863C203.649 53.1922 204.663 53.17 205.632 52.9214C206.602 52.6728 207.501 52.2044 208.26 51.5525C208.625 51.0375 208.189 50.2688 207.599 50.485Z" fill="#1B1B1B"/>
<path d="M200.28 46.955C201.53 48.205 203.848 47.9475 205.208 47.065C206.458 46.2563 207.819 44.4538 207.156 42.94C207.01 42.6088 206.348 42.4988 206.274 42.83C205.391 46.4713 202.009 46.2863 200.574 46.25C200.491 46.2482 200.41 46.2713 200.341 46.3163C200.272 46.3613 200.218 46.4261 200.186 46.5023C200.154 46.5784 200.146 46.6624 200.163 46.7431C200.18 46.8239 200.221 46.8978 200.28 46.955Z" fill="#1B1B1B"/>
<path d="M197.559 31.6925C196.646 33.2787 194.874 40.0775 195.463 41.5487C196.05 42.9837 198.551 44.3075 199.508 42.505C199.557 42.4076 199.578 42.2985 199.569 42.1898C199.56 42.081 199.521 41.977 199.456 41.8892C199.391 41.8014 199.303 41.7334 199.202 41.6927C199.101 41.652 198.99 41.6402 198.883 41.6587C195.83 42.5425 196.75 37.4675 198.036 31.84C198.11 31.5825 197.706 31.4362 197.559 31.6925Z" fill="#1B1B1B"/>
<path d="M202.67 32.7601C201.863 32.9476 201.898 33.9738 202.045 34.5988C202.503 36.5413 204.061 36.0338 203.958 35.0026C203.884 34.7088 203.444 32.5801 202.67 32.7601Z" fill="#1B1B1B"/>
<path d="M201.568 30.1486C204.768 30.1111 204.766 31.6924 205.355 32.0974C205.452 32.1541 205.562 32.1842 205.674 32.1847C205.786 32.1851 205.896 32.1558 205.993 32.0998C206.091 32.0438 206.171 31.9631 206.227 31.8658C206.283 31.7686 206.312 31.6583 206.311 31.5461C206.238 30.5161 203.553 27.9424 201.346 29.3761C201.27 29.4246 201.211 29.4964 201.179 29.581C201.147 29.6655 201.143 29.7582 201.168 29.8452C201.193 29.9322 201.245 30.0087 201.317 30.0634C201.389 30.1181 201.477 30.148 201.568 30.1486Z" fill="#1B1B1B"/>
<path d="M215.541 50.3387C215.885 48.1971 216.081 46.0345 216.13 43.8662C216.126 43.7469 216.08 43.6327 216.001 43.5436C215.922 43.4545 215.813 43.3961 215.695 43.3786C215.577 43.361 215.457 43.3855 215.355 43.4476C215.253 43.5097 215.176 43.6057 215.138 43.7187C214.51 46.5425 214.226 49.4317 214.291 52.3237C213.041 56.7374 207.268 58.6124 204.95 59.1274C204.766 59.1649 204.435 59.9737 204.656 60.2674C206.655 62.9593 207.808 66.1856 207.966 69.5349C207.976 69.6334 208.01 69.7279 208.065 69.8103C208.12 69.8926 208.194 69.9604 208.281 70.0075C208.368 70.0547 208.465 70.08 208.564 70.081C208.663 70.0821 208.761 70.059 208.849 70.0137C212.379 69.2037 215.724 65.6387 217.418 62.6212C217.749 62.0324 216.755 61.2237 216.461 61.8862C214.954 65.0849 210.356 67.7337 209.253 68.6887C209.343 67.0591 209.085 65.4289 208.496 63.9071C207.906 62.3852 206.999 61.0067 205.834 59.8637C210.356 59.6787 215.431 56.0387 216.056 51.3637C218.999 53.7174 218.154 56.2187 218.116 57.4687C218.121 57.5915 218.165 57.7095 218.242 57.8058C218.318 57.902 218.424 57.9715 218.542 58.0043C218.661 58.0371 218.786 58.0314 218.901 57.9882C219.017 57.945 219.115 57.8664 219.183 57.7637C220.029 56.4062 219.219 49.8237 215.541 50.3387Z" fill="#1B1B1B"/>
<path d="M213.115 33.3851C213.168 33.2557 213.249 33.1395 213.352 33.0448C213.455 32.9502 213.577 32.8793 213.71 32.8372C213.844 32.795 213.985 32.7828 214.123 32.8012C214.262 32.8197 214.395 32.8683 214.512 32.9438C216.012 33.6938 216.374 38.5876 213.666 39.4901C213.992 40.5976 214.586 41.6078 215.395 42.4313C215.809 42.8228 216.344 43.0616 216.912 43.1085C217.48 43.1553 218.047 43.0073 218.52 42.6888C220.114 39.0326 221.239 35.1891 221.868 31.2501C222.449 24.0301 219.61 18.9576 212.453 17.8276C209.841 17.3863 201.202 3.89009 190.865 6.61134C185.644 7.97134 181.634 16.5401 188.437 22.6813C196.75 30.1813 204.84 25.8063 204.84 25.8063C205.761 27.0703 206.974 28.0931 208.375 28.7876C209.301 29.2334 210.296 29.5195 211.317 29.6338C210.286 32.0448 209.845 34.6669 210.03 37.2826C210.067 37.9451 210.251 38.7538 210.876 38.9376C211.427 39.1213 212.016 38.6438 212.237 38.0926C212.526 37.4301 212.642 34.1976 213.115 33.3851Z" fill="#1B1B1B"/>
<path d="M201.163 60.4888C200.514 60.5419 199.899 60.7978 199.404 61.2203C198.909 61.6428 198.559 62.2104 198.405 62.8425C197.044 67.4388 199.875 70.4913 201.163 70.5288C204.288 70.675 205.649 66.74 205.649 63.21C205.613 61.2613 203 60.3288 201.163 60.4888Z" fill="#5A47FB"/>
<path d="M199.066 108.076C197.846 109.209 193.035 107.156 191.785 106.605C191.16 106.311 190.975 89.0262 198.367 71.7412C198.404 71.6312 198.992 72.1162 199.691 72.2562C200.39 72.3962 201.456 72.2562 201.384 72.3674C197.962 79.4649 199.5 107.669 199.066 108.076Z" fill="#5A47FB"/>
<path d="M189.431 77.6999C188.526 81.3161 187.298 84.9074 186.673 88.6224C186.648 88.7151 186.662 88.8136 186.71 88.8964C186.758 88.9791 186.837 89.0393 186.93 89.0636C187.023 89.088 187.121 89.0746 187.204 89.0263C187.287 88.978 187.347 88.8988 187.371 88.8061C188.659 85.2749 189.394 81.5974 190.35 77.9574C190.37 77.8962 190.377 77.8315 190.372 77.7674C190.366 77.7032 190.348 77.6409 190.317 77.5841C190.287 77.5273 190.245 77.4773 190.195 77.4369C190.145 77.3966 190.087 77.3669 190.025 77.3495C189.963 77.3321 189.898 77.3275 189.834 77.3358C189.77 77.3442 189.709 77.3653 189.653 77.3981C189.598 77.4308 189.55 77.4744 189.511 77.5263C189.473 77.5782 189.446 77.6372 189.431 77.6999Z" fill="#1B1B1B"/>
<path d="M200.5 56.0388C200.795 55.7826 200.279 55.3763 199.985 55.5238C196.418 57.3626 193.439 63.4676 194.247 67.5863C187.849 70.0863 181.854 81.0088 179.316 84.3188C176.485 88.0338 168.909 95.3888 154.86 97.4851C154.456 97.5588 154.53 98.2201 154.971 98.2201C163.65 97.8888 172.991 94.0276 178.801 87.4451C181.596 84.2451 187.849 72.6251 196.822 67.7701C196.923 67.7103 196.999 67.616 197.035 67.5047C197.072 67.3934 197.067 67.2726 197.021 67.1648C196.975 67.057 196.892 66.9695 196.786 66.9185C196.681 66.8675 196.56 66.8565 196.448 66.8876C196.198 66.9311 195.953 66.9925 195.713 67.0713C195.904 65.2688 196.25 59.7326 200.5 56.0388Z" fill="#1B1B1B"/>
<path d="M157.694 105.944C160.607 107.439 163.955 107.855 167.145 107.12C167.239 107.091 167.319 107.03 167.371 106.947C167.424 106.865 167.446 106.766 167.432 106.669C167.419 106.572 167.372 106.483 167.299 106.417C167.227 106.352 167.133 106.314 167.035 106.311C163.983 106.35 160.94 105.979 157.988 105.207C157.584 105.061 157.288 105.764 157.694 105.944Z" fill="#1B1B1B"/>
<path d="M237.75 82.1125C235.511 73.8737 230.5 65.3425 223.407 60.4512C222.817 60.0475 222.12 60.9662 222.634 61.4512C237.5 75.015 237.975 93.5862 236.284 100.685C232.752 115.247 220.544 126.427 205.319 127.09C198.11 127.384 188.732 125.324 184.282 119.072C185.996 118.149 187.386 116.725 188.266 114.99C189.147 113.254 189.476 111.291 189.21 109.364C197.669 115.247 206.936 112.121 210.504 110.282C213.962 108.467 216.85 105.73 218.849 102.374C220.848 99.0186 221.88 95.1755 221.83 91.27C221.83 91.1334 221.776 91.0024 221.679 90.9058C221.583 90.8092 221.452 90.755 221.315 90.755C221.178 90.755 221.047 90.8092 220.951 90.9058C220.854 91.0024 220.8 91.1334 220.8 91.27C220.566 94.8485 219.445 98.3125 217.538 101.349C215.63 104.386 212.997 106.9 209.875 108.665C206.675 110.394 199.026 113.225 188.545 107.561C187.992 106.752 187.331 107.23 187.441 107.599C189.244 113.519 185.345 117.086 183.874 118.484C183.654 118.116 183.432 117.749 183.212 117.344C183.749 117.108 184.226 116.756 184.61 116.314C184.684 116.233 184.733 116.133 184.751 116.025C184.77 115.917 184.757 115.806 184.714 115.706C184.672 115.605 184.601 115.519 184.511 115.457C184.42 115.395 184.314 115.361 184.205 115.357C183.065 115.321 180.455 116.982 177.181 116.387C175.838 116.185 174.511 115.89 173.209 115.505C171.885 115.064 168.98 113.005 171.297 111.422C171.419 111.351 171.52 111.249 171.59 111.126C171.66 111.004 171.697 110.865 171.697 110.724C171.697 110.583 171.66 110.444 171.59 110.321C171.52 110.199 171.419 110.097 171.297 110.025C170.745 108.811 170.965 108.224 171.959 108.224C172.073 108.191 172.178 108.133 172.267 108.055C172.356 107.976 172.426 107.878 172.471 107.769C172.517 107.659 172.538 107.541 172.532 107.422C172.526 107.304 172.493 107.188 172.436 107.084C170.194 104.067 175.159 102.854 177.186 103.111C177.517 103.149 177.701 102.67 177.334 102.56C175.384 102.119 173.435 101.787 171.78 103.222C171.251 103.672 170.868 104.268 170.678 104.936C170.488 105.603 170.501 106.312 170.714 106.972C170.383 107.125 170.091 107.348 169.858 107.627C169.624 107.906 169.456 108.233 169.364 108.585C169.273 108.937 169.261 109.305 169.329 109.662C169.397 110.02 169.543 110.357 169.757 110.651C167.771 112.784 169.684 115.946 172.221 116.976C175.464 118.246 179.012 118.515 182.409 117.749C186.34 129.729 211.337 133.624 226.465 120.58C226.392 120.801 224.664 124.662 224.149 126.464C224.112 126.587 224.122 126.719 224.177 126.835C224.232 126.952 224.327 127.044 224.446 127.094C224.564 127.144 224.697 127.149 224.818 127.107C224.94 127.066 225.042 126.981 225.105 126.869C225.914 125.361 228.23 119.734 228.672 118.521C233.159 113.726 236.347 107.866 237.936 101.495C239.524 95.1234 239.46 88.4522 237.75 82.1125Z" fill="#1B1B1B"/>
<path d="M227.42 236.939C227.233 235.763 227.053 233.004 224.074 232.084C225.251 231.864 226.133 231.423 226.244 230.908C227.458 224.509 224.074 130.988 223.081 130.473C222.089 129.958 216.13 135.328 188.581 130.951C188.398 130.068 187.148 125.803 186.669 124.551C186.634 124.45 186.563 124.366 186.468 124.315C186.374 124.265 186.263 124.253 186.16 124.281C186.057 124.309 185.968 124.376 185.913 124.467C185.857 124.559 185.838 124.668 185.86 124.773C186.28 127.198 186.858 129.593 187.589 131.944C186.589 139.819 186.669 230.393 186.926 230.944C187.106 231.325 187.362 231.666 187.678 231.946C187.995 232.225 188.364 232.437 188.765 232.569C188.25 232.643 187.736 232.715 187.22 232.826C187.671 233.113 188.034 233.519 188.268 233.999C188.502 234.48 188.598 235.016 188.545 235.548C188.513 235.643 188.454 235.728 188.376 235.792C188.297 235.855 188.202 235.895 188.102 235.907C188.002 235.918 187.9 235.901 187.809 235.857C187.718 235.813 187.642 235.744 187.589 235.658C187.443 235.127 187.183 234.636 186.827 234.216C186.471 233.797 186.028 233.46 185.529 233.23C185.309 233.304 184.316 233.598 184.021 233.709C184.684 233.965 185.676 235.51 185.419 236.209C185.393 236.3 185.34 236.381 185.269 236.443C185.197 236.505 185.108 236.544 185.014 236.556C184.92 236.567 184.825 236.551 184.74 236.51C184.655 236.468 184.584 236.402 184.536 236.32C184.389 236.099 183.764 234.481 182.734 234.15C182.145 234.37 181.558 234.628 180.969 234.849C181.116 234.959 182.55 236.504 182.514 237.203C182.478 237.606 181.815 237.975 181.668 237.57C181.204 236.722 180.594 235.962 179.865 235.326C177.708 236.38 175.642 237.61 173.688 239.004C173.341 239.267 173.067 239.615 172.892 240.014C172.717 240.413 172.647 240.85 172.688 241.284C172.983 242.461 197.585 242.498 197.769 241.469C197.978 240.191 198.002 238.891 197.843 237.606C197.77 236.657 197.464 235.74 196.951 234.938C196.437 234.136 195.733 233.473 194.901 233.01C195.39 232.977 195.867 232.839 196.298 232.605C196.556 232.348 205.896 161.334 205.896 157.73C205.896 165.121 217.37 230.363 217.923 231.134C218.585 231.775 219.465 232.142 220.386 232.164C219.316 232.28 218.258 232.489 217.224 232.789C217.614 232.951 217.946 233.228 218.175 233.582C218.405 233.937 218.522 234.353 218.511 234.775C218.489 234.835 218.455 234.889 218.411 234.935C218.367 234.981 218.314 235.017 218.255 235.041C218.197 235.065 218.133 235.077 218.07 235.076C218.006 235.074 217.944 235.059 217.886 235.033C217.628 234.811 217.04 233.451 216.451 233.01C215.431 233.3 214.435 233.669 213.473 234.113C213.937 234.259 214.341 234.554 214.62 234.954C214.9 235.353 215.039 235.833 215.018 236.32C214.996 236.389 214.957 236.451 214.905 236.501C214.852 236.551 214.788 236.587 214.718 236.605C214.648 236.624 214.575 236.624 214.505 236.606C214.435 236.588 214.37 236.553 214.318 236.504C213.836 235.774 213.295 235.085 212.7 234.444C212.479 234.554 211.119 235.216 210.604 235.474C211.027 235.611 211.402 235.868 211.683 236.214C211.963 236.56 212.138 236.98 212.185 237.423C212.15 237.536 212.075 237.633 211.973 237.694C211.871 237.755 211.75 237.776 211.634 237.754C211.266 237.606 210.971 236.614 209.831 235.879C208.35 236.682 206.914 237.566 205.529 238.526C204.866 238.968 202.808 240.88 204.095 241.651C204.353 241.798 226.454 242.35 226.859 241.246C227.276 239.85 227.466 238.395 227.42 236.939Z" fill="#1B1B1B"/>
<path d="M129.125 148.971C125 146.949 120.52 144.889 115.886 146.544C112.084 148.175 108.928 151.02 106.912 154.634C106.839 154.762 106.814 154.912 106.842 155.056C106.871 155.201 106.951 155.331 107.068 155.421C107.185 155.511 107.331 155.555 107.478 155.546C107.625 155.536 107.764 155.474 107.869 155.37C109.098 154.141 110.252 152.839 111.325 151.471C116.716 145.798 121.609 147.031 128.825 149.67C129.229 149.816 129.486 149.191 129.125 148.971Z" fill="#1B1B1B"/>
<path d="M114.187 150.884C112.877 151.956 111.66 153.137 110.547 154.414C110.488 154.516 110.464 154.636 110.479 154.753C110.494 154.871 110.548 154.98 110.632 155.064C110.716 155.148 110.825 155.202 110.943 155.217C111.061 155.233 111.18 155.209 111.282 155.149C112.55 154.023 113.721 152.793 114.782 151.471C115.181 151.104 114.625 150.515 114.187 150.884Z" fill="#1B1B1B"/>
<path d="M115.806 152.134C114.727 152.929 113.752 153.855 112.901 154.891C112.848 154.989 112.828 155.101 112.844 155.211C112.859 155.321 112.911 155.423 112.989 155.502C113.068 155.581 113.17 155.632 113.28 155.648C113.39 155.664 113.502 155.643 113.6 155.59C114.637 154.741 115.564 153.765 116.357 152.685C116.541 152.355 116.101 151.914 115.806 152.134Z" fill="#1B1B1B"/>
<path d="M117.056 153.125C116.473 153.696 115.92 154.298 115.401 154.928C115.144 155.295 115.659 155.81 116.026 155.553C116.652 155.029 117.242 154.464 117.792 153.861C117.882 153.762 117.93 153.632 117.927 153.499C117.924 153.365 117.869 153.237 117.775 153.143C117.68 153.048 117.553 152.994 117.419 152.99C117.285 152.987 117.155 153.035 117.056 153.125Z" fill="#1B1B1B"/>
<path d="M117.608 143.712C116.25 139.349 114 126.06 115.806 117.196C115.916 116.645 115.07 116.609 114.886 117.086C110.548 127.787 114.924 139.74 116.689 144.006C116.909 144.521 117.803 144.334 117.608 143.712Z" fill="#1B1B1B"/>
<path d="M138.276 75.6038C138.317 76.2288 138.35 77.2588 139.011 77.5888C139.064 77.6207 139.122 77.6413 139.183 77.6493C139.244 77.6573 139.306 77.6525 139.364 77.6352C139.423 77.6179 139.478 77.5885 139.525 77.5489C139.571 77.5092 139.609 77.4602 139.636 77.405C140.011 76.7438 139.49 75.9338 139.159 75.3463C139.105 75.256 139.022 75.1862 138.925 75.1478C138.827 75.1094 138.719 75.1046 138.618 75.134C138.517 75.1634 138.429 75.2255 138.367 75.3105C138.305 75.3956 138.273 75.4987 138.276 75.6038Z" fill="#1B1B1B"/>
<path d="M137.982 74.0588C139.047 73.875 139.122 74.6475 139.416 74.72C139.514 74.7435 139.617 74.7347 139.71 74.6951C139.803 74.6555 139.88 74.5871 139.931 74.5C140.225 73.9113 139.232 72.5875 137.651 73.25C137.561 73.3048 137.494 73.3898 137.461 73.4898C137.428 73.5898 137.432 73.6983 137.472 73.7957C137.512 73.8932 137.585 73.9732 137.679 74.0214C137.772 74.0696 137.88 74.0829 137.982 74.0588Z" fill="#1B1B1B"/>
<path d="M130.075 77.1112C130.085 77.9272 130.235 78.7354 130.516 79.5012C130.611 79.5899 130.736 79.6392 130.866 79.6392C130.995 79.6392 131.12 79.5899 131.215 79.5012C131.876 78.8025 131.362 77.5887 131.031 76.8537C130.847 76.375 130.034 76.5962 130.075 77.1112Z" fill="#1B1B1B"/>
<path d="M129.781 74.7575C128.832 75.3225 127.979 76.78 128.781 77.81C129.039 78.1038 129.444 77.8838 129.554 77.5888C129.701 77.2588 129.186 76.2288 130.326 75.4925C130.811 75.1988 130.264 74.47 129.781 74.7575Z" fill="#1B1B1B"/>
<path d="M132.209 73.3226C131.911 73.049 131.561 72.8375 131.181 72.7003C130.8 72.5632 130.396 72.5031 129.992 72.5237C129.588 72.5443 129.193 72.6451 128.828 72.8203C128.463 72.9954 128.137 73.2414 127.869 73.5438C126.14 75.6763 126.949 79.4276 128.42 81.4501C129.818 83.4001 132.355 83.5838 133.495 81.2663C134.051 79.9556 134.225 78.5144 133.998 77.1089C133.77 75.7034 133.15 74.3909 132.209 73.3226ZM132.355 80.6788C131.143 84.0538 126.704 78.1038 128.346 75.0151C130.333 71.9626 132.503 74.0588 132.76 77.9201C132.781 78.8559 132.644 79.7885 132.355 80.6788Z" fill="#1B1B1B"/>
<path d="M142.469 74.6101C141.78 72.4001 139.085 70.3438 136.989 71.5576C135.26 72.7351 135.813 75.8976 136.364 77.5576C136.287 77.429 136.201 77.3062 136.106 77.1901C135.923 76.9688 135.481 77.0788 135.591 77.4101C136.27 79.1267 136.799 80.8987 137.173 82.7063C137.026 83.8463 135.886 83.5888 135.15 83.8088C135.038 83.8461 134.94 83.9177 134.871 84.0135C134.802 84.1093 134.765 84.2245 134.765 84.3426C134.765 84.4607 134.802 84.5758 134.871 84.6716C134.94 84.7674 135.038 84.839 135.15 84.8763C135.481 85.0163 135.84 85.0806 136.199 85.0644C136.558 85.0482 136.909 84.9519 137.226 84.7826C137.544 84.6133 137.819 84.3753 138.032 84.0859C138.246 83.7966 138.392 83.4632 138.46 83.1101C138.512 82.0799 138.297 81.0537 137.835 80.1313C138.142 80.5053 138.54 80.7937 138.991 80.9689C139.442 81.1441 139.93 81.2 140.409 81.1313C140.445 82.7863 141.88 86.4638 139.159 91.3176C138.229 92.9737 136.709 94.2187 134.902 94.8048C133.095 95.3908 131.134 95.2749 129.409 94.4801C129.316 94.4309 129.209 94.4195 129.108 94.4483C129.007 94.4771 128.922 94.5439 128.869 94.6345C128.817 94.7251 128.802 94.8325 128.827 94.934C128.853 95.0356 128.916 95.1233 129.005 95.1788C129.827 95.7751 130.772 96.1804 131.771 96.3651C132.77 96.5498 133.798 96.5092 134.779 96.2463C134.827 97.5152 135.075 98.7685 135.514 99.9601C135.565 100.042 135.639 100.108 135.727 100.15C135.815 100.192 135.912 100.208 136.009 100.196C136.105 100.185 136.196 100.146 136.271 100.085C136.347 100.024 136.403 99.9421 136.434 99.8501C136.438 98.5134 136.227 97.1847 135.809 95.9151C141.774 93.7313 143.866 85.2676 141.619 80.5401C143.278 79.2501 143.029 76.4101 142.469 74.6101ZM137.909 78.1776C137.148 76.9276 136.361 73.0063 137.356 72.2201C137.909 71.7788 139.748 71.2276 141.034 74.7201C141.62 76.0483 141.66 77.5538 141.145 78.9113C140.335 80.3101 138.625 79.3463 137.909 78.1776Z" fill="#1B1B1B"/>
<path d="M129.596 88.4751C131.16 90.6214 135.002 91.7114 136.621 88.9901C136.681 88.8822 136.703 88.7579 136.686 88.6359C136.669 88.5139 136.612 88.4009 136.525 88.3137C136.438 88.2266 136.325 88.1701 136.203 88.1528C136.081 88.1355 135.957 88.1582 135.849 88.2176C134.893 88.6589 132.906 90.9026 130.406 87.8501C130.037 87.3751 129.225 87.9639 129.596 88.4751Z" fill="#1B1B1B"/>
<path d="M136.915 56.9575C132.809 54.51 128.79 55.56 124.853 57.8037C121.836 59.3338 119.265 61.6155 117.388 64.4287C116.025 64.3429 114.667 64.6642 113.488 65.3517C112.308 66.0392 111.359 67.062 110.763 68.29C110.116 69.5065 109.73 70.8442 109.629 72.2181C109.527 73.5919 109.713 74.9718 110.174 76.27C113.558 85.17 119.258 88.8112 121.024 89.0312C123.75 91.75 124.375 98.4037 124.485 100.611C124.428 100.626 124.376 100.654 124.331 100.692C124.287 100.73 124.251 100.778 124.228 100.831C123.345 103.884 126.398 107.12 129.156 107.892C132.171 108.739 136.07 107.267 137.136 104.177C137.32 103.662 136.584 103.259 136.216 103.626C134.451 105.465 132.319 107.046 129.591 106.347C127.016 105.722 126.091 103.847 125.251 101.714C125.852 97.0358 124.857 92.2919 122.426 88.25C122.61 87.8087 123.051 85.8225 123.309 85.8225C122.735 85.8301 122.168 85.7046 121.651 85.4559C121.134 85.2071 120.682 84.8418 120.33 84.3887C119.988 83.9257 119.788 83.373 119.755 82.7982C119.723 82.2234 119.858 81.6515 120.145 81.1525C120.461 80.6708 120.943 80.3222 121.499 80.173C122.055 80.0239 122.647 80.0846 123.161 80.3437C122.641 77.2167 122.616 74.0272 123.088 70.8925C128.53 71.48 131.325 70.9287 133.826 69.8262C135.097 69.3139 136.246 68.5423 137.202 67.5607C138.157 66.579 138.897 65.4089 139.375 64.125C139.773 62.8235 139.749 61.4296 139.307 60.1425C138.865 58.8553 138.028 57.7406 136.915 56.9575Z" fill="#1B1B1B"/>
<path d="M92.6 150.258C90.64 149.258 85.6862 146.985 81.0525 151.545C80.7225 151.839 81.31 152.537 81.605 152.281C84.915 149.406 90.4675 150.406 92.27 151.031C92.7112 151.214 93.01 150.469 92.6 150.258Z" fill="#1B1B1B"/>
<path d="M174.242 154.781C167.696 154.819 161.187 155.039 154.641 155.26C156.406 154.451 163.909 152.06 168.249 138.564C170.05 132.9 170.05 122.314 157.105 106.2C155.182 103.721 152.726 101.707 149.918 100.306C147.111 98.906 144.024 98.1553 140.887 98.1101C140.409 98.1101 140.409 98.8089 140.887 98.8826C156.59 101.015 165.122 122.088 166.446 128.524C167.807 135.18 164.314 152.096 146.807 155.59C143.425 155.701 134.157 155.995 132.906 156.031C133.201 154.819 131.877 149.339 131.067 148.125C136.657 147.464 152.509 145.073 153.354 130.363C153.391 129.848 152.471 129.884 152.397 130.363C150.117 143.124 135.701 145.955 130.737 147.316C130.59 147.353 129.927 147.61 130.112 148.051C131.112 150.331 131.252 154.965 131.51 156.069C130.811 156.106 130.076 156.106 129.377 156.143C129.729 155.87 130.039 155.548 130.297 155.186C130.627 154.745 130.076 154.186 129.635 154.304C127.98 154.708 124.45 157.099 119.635 154.819C119.543 154.771 119.436 154.761 119.336 154.79C119.237 154.819 119.152 154.885 119.1 154.975C119.048 155.064 119.033 155.171 119.057 155.271C119.081 155.372 119.143 155.46 119.23 155.516C119.719 155.844 120.236 156.127 120.775 156.363C80.9312 157.298 24.775 157.606 20.1925 157.245C20.0902 157.242 19.9884 157.26 19.8932 157.298C19.7981 157.335 19.7117 157.392 19.6393 157.464C19.567 157.537 19.5102 157.623 19.4724 157.718C19.4347 157.813 19.4169 157.915 19.42 158.018C19.3219 160.617 19.3712 163.22 19.5675 165.814C19.5675 165.931 19.614 166.043 19.6967 166.126C19.7795 166.209 19.8917 166.255 20.0087 166.255C20.1258 166.255 20.238 166.209 20.3208 166.126C20.4035 166.043 20.45 165.931 20.45 165.814C20.6712 163.498 20.7075 161.18 20.8912 158.864C21.7375 158.9 156.777 158.385 174.246 156.031C174.979 155.885 175.015 154.778 174.242 154.781Z" fill="#1B1B1B"/>
<path d="M180.715 165.3C180.129 161.995 179.685 158.642 178.914 155.37C178.693 154.487 177.185 154.635 177.295 155.591C177.626 158.642 178.214 161.659 178.766 164.674C137.688 166.77 31.9938 167.211 20.2988 167.469C20.1622 167.469 20.0312 167.523 19.9346 167.62C19.838 167.716 19.7838 167.847 19.7838 167.984C19.7838 168.12 19.838 168.251 19.9346 168.348C20.0312 168.444 20.1622 168.499 20.2988 168.499C22.7263 168.609 25.1538 168.682 27.6175 168.756C27.2863 169.934 28.28 225.206 29.0525 236.607C29.0605 236.807 29.1454 236.995 29.2892 237.134C29.4331 237.272 29.6249 237.349 29.8244 237.349C30.0239 237.349 30.2156 237.272 30.3595 237.134C30.5034 236.995 30.5882 236.807 30.5963 236.607C30.8175 225.06 29.42 170.857 28.7213 168.794C36.4075 168.94 160.673 169.234 172.33 166.734C172.22 177.509 173.544 225.685 173.655 231.385C173.655 231.551 173.721 231.71 173.838 231.827C173.955 231.944 174.114 232.01 174.28 232.01C174.446 232.01 174.605 231.944 174.722 231.827C174.839 231.71 174.905 231.551 174.905 231.385C176.215 217.809 173.214 163.049 173.214 166.697C175.42 166.624 177.626 166.55 179.869 166.44C180.004 166.432 180.136 166.395 180.255 166.331C180.374 166.266 180.478 166.177 180.558 166.068C180.639 165.959 180.695 165.834 180.722 165.701C180.749 165.569 180.747 165.432 180.715 165.3Z" fill="#1B1B1B"/>
<path d="M7.68498 243.743C38.21 243.834 225.14 243.118 242.31 242.455C242.432 242.455 242.549 242.407 242.635 242.32C242.722 242.234 242.77 242.117 242.77 241.995C242.77 241.873 242.722 241.756 242.635 241.67C242.549 241.584 242.432 241.535 242.31 241.535C211.896 241.315 24.935 242.639 7.68498 242.823C7.56298 242.823 7.44597 242.871 7.35971 242.957C7.27344 243.044 7.22498 243.161 7.22498 243.283C7.22498 243.405 7.27344 243.522 7.35971 243.608C7.44597 243.694 7.56298 243.743 7.68498 243.743Z" fill="#5A47FB"/>
<path d="M91.0925 55.8912C87.3938 50.6112 78.8838 49.9337 74.0288 53.9049C70.0938 58.1349 69.6888 64.3499 72.6313 67.7337C74.0325 69.3436 75.8226 70.5679 77.8311 71.29C79.8395 72.0121 81.9994 72.2078 84.105 71.8587C91.4375 70.4374 95.3938 62.0287 91.0925 55.8912ZM87.8938 57.5837C85.2125 59.9112 82.7075 65.3062 81.7888 66.9587C81.6771 67.1415 81.5204 67.2926 81.3336 67.3974C81.1467 67.5022 80.9361 67.5573 80.7219 67.5573C80.5077 67.5573 80.297 67.5022 80.1102 67.3974C79.9234 67.2926 79.7666 67.1415 79.655 66.9587C78.42 65.0852 76.8036 63.4934 74.9113 62.2874C74.2863 61.9199 74.6913 60.7799 75.4263 61.0737C77.262 61.7392 78.9398 62.7782 80.3538 64.1249C81.7513 60.9624 83.8538 56.8812 87.2288 56.4399C87.8563 56.3749 88.2675 57.2587 87.8938 57.5837Z" fill="#5A47FB"/>
<path d="M103.927 17.2039C78.295 18.0489 28.6475 19.3364 27.655 19.8889C26.7725 20.4026 27.36 24.4851 27.5437 26.8751C23.94 27.0601 20.2937 27.2801 16.7325 27.5739C16.695 27.5739 16.1437 27.5739 16.1075 28.2726C15.7025 34.3039 16.07 63.6151 18.4975 78.2514V78.3251C18.4873 78.4034 18.494 78.4829 18.5171 78.5583C18.5402 78.6338 18.5791 78.7035 18.6313 78.7627C18.6835 78.8218 18.7478 78.8692 18.8198 78.9015C18.8918 78.9338 18.9698 78.9504 19.0487 78.9501C25.7425 79.3551 55.715 79.3914 58.6937 78.8026C62.1835 82.7039 65.4261 86.8194 68.4025 91.1251C68.4839 91.2529 68.6001 91.355 68.7373 91.4193C68.8746 91.4835 69.0273 91.5075 69.1777 91.4882C69.328 91.4689 69.4698 91.4073 69.5864 91.3104C69.703 91.2136 69.7897 91.0856 69.8362 90.9414C71.6012 86.7126 73.735 82.5939 75.1687 78.2539C75.3525 77.6651 74.5062 77.3339 74.1762 77.8489C72.0928 81.4545 70.3194 85.2306 68.875 89.1364C66.0883 85.1511 62.9232 81.4443 59.4237 78.0676C59.2475 77.9157 59.0489 77.7918 58.835 77.7001C55.82 77.0751 26.2525 77.4051 19.8525 77.8101C17.3937 61.4451 18.2037 44.9689 17.25 28.5001C29.4225 28.7201 92.64 26.3301 93.2287 26.3676C93.2287 27.7614 96.1887 69.6176 96.8687 73.6601C89.7712 74.7276 82.6737 75.4264 75.5387 75.9401C75.4167 75.9401 75.2997 75.9886 75.2135 76.0748C75.1272 76.1611 75.0787 76.2781 75.0787 76.4001C75.0787 76.5221 75.1272 76.6391 75.2135 76.7254C75.2997 76.8116 75.4167 76.8601 75.5387 76.8601C82.8582 77.1486 90.1867 76.6055 97.3837 75.2414C97.4937 75.2051 98.1187 75.0951 98.1925 74.5426C98.2024 71.6896 98.0183 68.8393 97.6412 66.0114C100.105 66.0114 105.07 65.9376 106.504 65.9751C106.429 58.3926 105 20.3301 103.927 17.2039Z" fill="#5A47FB"/>
<path d="M24.4187 37.2499C33.2125 37.8924 68.255 37.1399 76.7137 35.8162C77.3387 35.7049 77.1912 34.7124 76.5662 34.7124C72.2262 34.7124 33.0975 36.0737 24.4187 36.4037C24.3105 36.4095 24.2086 36.4567 24.1341 36.5354C24.0595 36.6141 24.018 36.7184 24.018 36.8268C24.018 36.9352 24.0595 37.0395 24.1341 37.1182C24.2086 37.1969 24.3105 37.244 24.4187 37.2499Z" fill="#1B1B1B"/>
<path d="M24.8225 45.8888C41.8888 45.7226 58.9475 44.8226 76.015 43.9401C77.0813 43.9026 77.0813 42.2476 76.015 42.2851C58.9513 43.0201 41.85 43.8288 24.8225 45.0801C24.345 45.1526 24.3075 45.8938 24.8225 45.8888Z" fill="#1B1B1B"/>
<path d="M24.97 54.3838C31.27 54.9763 57.0013 54.2363 63.29 53.4638C64.21 53.3538 64.29 51.9563 63.29 51.9563C56.9288 52.03 31.29 52.9488 24.97 53.6475C24.8846 53.6641 24.8075 53.7099 24.7522 53.7771C24.6968 53.8443 24.6665 53.9286 24.6665 54.0157C24.6665 54.1027 24.6968 54.1871 24.7522 54.2542C24.8075 54.3214 24.8846 54.3672 24.97 54.3838Z" fill="#1B1B1B"/>
<path d="M24.8225 63.9826C31.4062 64.2763 57.7737 62.9151 64.3562 62.6213C65.3862 62.5851 65.3862 60.9663 64.3562 61.0038C57.6275 61.3338 31.1487 62.4376 24.7125 63.3576C24.3812 63.3938 24.4925 63.9451 24.8225 63.9826Z" fill="#1B1B1B"/>
<path d="M91.75 105.208C91.7059 105.047 91.6096 104.906 91.4763 104.806C91.343 104.706 91.1803 104.653 91.0138 104.656C86.7113 104.363 47.3988 105.429 38.4613 105.208C38.2493 105.216 38.0483 105.303 37.8983 105.453C37.7484 105.603 37.6606 105.804 37.6525 106.016C38.3888 118.999 39.05 132.016 39.9325 144.999C39.9325 145.184 40.0061 145.362 40.1372 145.493C40.2682 145.624 40.446 145.698 40.6313 145.698C45.3813 145.588 50.12 145.551 54.9 145.294C55.0074 145.294 55.1105 145.251 55.1864 145.175C55.2624 145.099 55.305 144.996 55.305 144.889C55.305 144.781 55.2624 144.678 55.1864 144.602C55.1105 144.527 55.0074 144.484 54.9 144.484C50.3775 144.3 45.8538 144.3 41.33 144.3C40.7788 131.8 40.0063 119.33 39.3075 106.826C47.9863 107.01 86.1963 105.944 90.3888 106.128C90.61 107.635 92.3013 137.386 92.78 143.234C89.985 143.124 81.4888 144.3 75.28 144.558C74.7663 144.595 74.6925 145.588 75.28 145.698C78.2588 146.103 90.395 144.999 93.155 144.448C93.2648 144.546 93.4011 144.61 93.547 144.631C93.6929 144.653 93.8418 144.63 93.9752 144.568C94.1086 144.505 94.2205 144.404 94.2969 144.278C94.3734 144.152 94.411 144.006 94.405 143.859C93.8875 137.608 92.0563 106.604 91.75 105.208Z" fill="#1B1B1B"/>
<path d="M93.2625 105.207C93.3175 111.457 95.1012 140.696 95.6162 142.094C95.8362 142.682 96.7925 142.829 96.94 142.094C97.2712 140.622 94.77 111.422 93.9975 105.207C93.9612 104.766 93.2587 104.73 93.2625 105.207Z" fill="#1B1B1B"/>
<path d="M77.9275 152.354C76.2725 151.693 63.8425 152.244 62.5912 152.281C62.0037 148.824 58.2887 131.65 58.2525 131.613C59.0088 130.271 60.1574 129.192 61.5443 128.522C62.9312 127.852 64.4899 127.622 66.0112 127.863C69.3587 128.488 72.925 133.526 72.9987 133.563C72.705 136.438 72.2637 145.589 71.6012 151.399C71.5275 151.988 72.4112 152.061 72.6312 151.546C73.6975 148.861 74.36 136.171 73.955 133.046C73.6975 130.214 68.77 126.646 65.4237 126.389C61.8925 126.139 57.37 129.589 57.185 132.089C57.1125 133.781 60.8637 149.044 61.7087 152.353C59.4096 152.339 57.1123 152.486 54.8337 152.794C54.135 152.979 54.4587 153.493 54.5387 153.75C54.8414 154.795 55.2225 155.815 55.6787 156.803C55.8625 157.134 56.4875 156.986 56.415 156.619C56.3412 155.958 55.9362 154.155 55.8625 153.861C72.7375 153.125 75.5012 153.788 76.9725 153.566C76.5841 154.39 76.3353 155.272 76.2362 156.178C76.2737 156.583 76.7887 156.913 77.1187 156.545C77.5962 156.033 78.8837 152.649 77.9275 152.354Z" fill="#1B1B1B"/>
<path d="M121.25 101.861C111.596 104.361 109.151 115.579 108.489 124.074C108.048 129.699 107.938 135.585 105.614 140.844C103.555 145.594 99.4363 149.559 94.1038 150.038C94.0663 150.038 93.405 150.111 93.2938 150.405C93.0665 151.041 93.0033 151.724 93.11 152.391C92.6688 152.428 83.8063 153.09 79.8338 153.421C79.32 153.458 79.2825 154.304 79.8338 154.268C83.6963 154.009 99.2888 154.34 103.114 153.935C103.849 153.863 104.216 152.613 103.298 152.501C100.317 152.169 97.3113 152.133 94.3238 152.391C94.2809 152.06 94.2563 151.726 94.25 151.391C104.548 151.245 108.666 139.955 109.549 131.349C110.615 121.199 109.733 107.04 121.465 102.738C121.984 102.486 121.801 101.718 121.25 101.861Z" fill="#1B1B1B"/>
</svg>
