<svg width="243" height="39" viewBox="0 0 243 39" fill="none" xmlns="http://www.w3.org/2000/svg">
<g clip-path="url(#clip0_107_2271)">
<path d="M5.68127 9.90088H18.6675V15.7961C20.3261 15.7961 21.6965 16.2645 22.7789 17.2011C23.8613 18.1398 24.4026 19.529 24.4026 21.3684V38.3543H18.6675V15.7961H5.78892V38.3543H0V15.7961H5.68127V9.90088Z" fill="white"/>
<path d="M36.6323 10.0088H51.0238C52.756 10.1523 54.037 10.7203 54.8661 11.7127C55.6953 12.7052 56.11 13.9578 56.11 15.4704V21.6376C56.11 23.477 55.5688 24.8393 54.4864 25.7242C53.404 26.6069 52.0336 27.0485 50.375 27.0485H36.6861V32.5102H53.7299C53.7299 32.5123 53.7299 32.5132 53.7299 32.5132V38.3545H42.0414C40.2016 38.3545 38.8219 37.7955 37.9031 36.6774C36.9842 35.5594 36.5237 34.1714 36.5216 32.5132C36.5216 32.5132 36.5216 32.5123 36.5216 32.5102H30.8972V15.4166C30.8972 13.579 31.4375 12.218 32.5178 11.3331C33.6002 10.4503 34.9718 10.0088 36.6323 10.0088ZM36.6861 21.2072H50.375C50.375 21.2051 50.375 21.2042 50.375 21.2042V15.8501H36.6861V21.2042C36.6861 21.2042 36.6861 21.2051 36.6861 21.2072Z" fill="white"/>
<path d="M62.6046 15.7959C62.6046 14.1018 63.0553 12.7048 63.9562 11.6047C64.8571 10.5046 66.2278 9.95459 68.0676 9.95459H86.1939V15.7959H68.3936V21.3144H81.5412C83.3811 21.3144 84.7517 21.8644 85.6527 22.9645C86.5557 24.0646 87.0072 25.4616 87.0072 27.1557V32.5098C87.0072 34.1698 86.5557 35.559 85.6527 36.677C84.7517 37.7951 83.3811 38.3541 81.5412 38.3541H63.3612V32.5127C63.3612 32.5127 63.3612 32.5118 63.3612 32.5098H81.2721V27.1557H68.3936V21.3144H62.6046V15.7959Z" fill="white"/>
<path d="M98.9648 38.3543C97.125 38.3543 95.7543 37.7953 94.8534 36.6772C93.9503 35.5592 93.4988 34.1521 93.4988 32.4562V0H99.2877V10.0086C99.2898 10.0086 99.2907 10.0086 99.2907 10.0086H107.242C107.242 10.0086 107.242 10.0086 107.245 10.0086V15.8499C107.242 15.8499 107.242 15.8499 107.242 15.8499H99.2907C99.2907 15.8499 99.2898 15.8499 99.2877 15.8499V32.4562C99.2898 32.4562 99.2907 32.4562 99.2907 32.4562H109.732C109.732 32.4562 109.732 32.4571 109.732 32.4592V38.3543H98.9648Z" fill="white"/>
<path d="M180.126 38.3545H165.681V32.5132C165.681 32.5132 165.681 32.5123 165.681 32.5102H160V26.8871C160 25.0477 160.55 23.6585 161.65 22.7198C162.748 21.7832 164.128 21.3148 165.789 21.3148H180.072V15.8501H162.975V10.0088H180.398C182.238 10.0088 183.609 10.5588 184.51 11.6589C185.411 12.759 185.862 14.1381 185.864 15.7963V32.7822C185.864 34.6216 185.323 36.0099 184.241 36.9465C183.158 37.8852 181.787 38.3545 180.126 38.3545ZM165.789 32.5102H180.072V27.1561H165.789V32.5102Z" fill="white"/>
<path d="M192.356 38.3545V15.8501H198.145C198.145 14.156 198.596 12.759 199.499 11.6589C200.4 10.5588 201.771 10.0088 203.611 10.0088H211.293V15.8501H198.145V38.3545H192.356Z" fill="white"/>
<path d="M223.522 10.0088H237.914C237.916 10.0088 237.917 10.0088 237.917 10.0088C239.647 10.1523 240.927 10.7203 241.756 11.7127C242.585 12.7052 243 13.9578 243 15.4704V21.6376C243 23.477 242.46 24.8393 241.379 25.7242C240.297 26.6069 238.925 27.0485 237.265 27.0485H223.576V32.5102H240.62C240.62 32.5123 240.62 32.5132 240.62 32.5132V38.3545H228.934C227.095 38.3545 225.714 37.7955 224.793 36.6774C223.874 35.5594 223.415 34.1714 223.415 32.5132C223.415 32.5132 223.415 32.5123 223.415 32.5102H217.787V15.4166C217.787 13.579 218.328 12.218 219.411 11.3331C220.493 10.4503 221.864 10.0088 223.522 10.0088ZM223.576 21.2072H237.265C237.265 21.2051 237.265 21.2042 237.265 21.2042V15.8501H223.576V21.2042C223.576 21.2042 223.576 21.2051 223.576 21.2072Z" fill="white"/>
<path d="M147.716 9.90088V9.95469V32.5099C147.716 32.5099 147.716 32.5108 147.716 32.5129H137.762C137.762 32.5108 137.762 32.5099 137.762 32.5099V9.95469C137.76 9.95469 137.759 9.95469 137.759 9.95469H132.027C132.025 9.95469 132.024 9.95469 132.024 9.95469V32.5099C132.024 32.5099 132.024 32.5108 132.024 32.5129H122.016C122.016 32.5108 122.016 32.5099 122.016 32.5099V9.95469V9.90088H116.224V9.95469V26.9406V32.5129H121.959C121.959 32.5129 121.96 32.5129 121.962 32.5129V38.3543H132.024V32.5129C132.024 32.5129 132.025 32.5129 132.027 32.5129H137.759C137.761 32.5129 137.762 32.5129 137.762 32.5129C137.762 35.7385 140.375 38.3543 143.605 38.3543H147.77V38.3513C150.942 38.3214 153.505 35.7445 153.505 32.5667V26.9406V9.95469V9.90088H147.716Z" fill="white"/>
</g>
<defs>
<clipPath id="clip0_107_2271">
<rect width="243" height="39" fill="white"/>
</clipPath>
</defs>
</svg>
