<svg width="312" height="312" viewBox="0 0 312 312" fill="none" xmlns="http://www.w3.org/2000/svg">
<path d="M242.986 109.442C237.603 108.294 232.109 107.756 226.606 107.837C226.306 108.099 226.051 108.407 225.851 108.751C226.195 109.013 226.54 109.498 226.905 109.517C230.309 109.459 233.708 109.79 237.036 110.504C242.059 111.927 242.652 111.284 242.157 112.343C239.788 117.502 234.201 120.63 228.994 122.951C225.792 124.273 222.419 125.137 218.976 125.516C218.257 125.619 217.93 125.451 218.154 124.621C221.244 113.138 221.055 109.281 221.055 98.8651C221.242 99.135 223.434 102.801 224.47 104.472C224.665 104.784 225.085 105.252 225.347 105.208C234.189 104.097 234.165 103.492 241.522 101.803C242.837 101.491 243.034 101.43 242.53 100.133C241.256 97.6908 239.679 95.4182 237.838 93.3692C236.131 91.9059 233.928 90.9356 232.782 88.9388C231.378 86.4943 229.237 84.2931 231.439 80.8877C232.22 79.6341 232.627 78.1839 232.614 76.7069C232.601 75.2299 232.167 73.7873 231.364 72.5479C231.195 72.2499 231.849 66.0271 231.57 63.2659C231.335 60.0577 230.375 56.9447 228.762 54.1617C225.68 48.9886 220.697 45.2265 214.878 43.6801C211.972 42.8147 208.866 42.8928 206.007 43.9032C205.296 44.0331 204.567 44.0457 203.851 43.9406C201.592 43.9052 199.353 44.377 197.299 45.3212C196.638 45.6566 195.863 44.3852 195.304 43.8751C188.233 37.1336 179.651 32.1821 170.276 29.4342C133.558 19.1085 104.692 50.1354 106.347 90.0527C106.458 92.7577 106.467 92.7203 109.088 92.5892C109.769 92.5518 109.835 92.3287 109.826 91.7312C109.741 87.0387 109.67 82.3369 109.67 77.6444C109.666 76.7101 109.824 75.7822 110.138 74.9019C110.334 74.3793 111.584 74.1095 111.621 75.1079C111.733 75.4901 111.799 85.8079 111.985 90.5378C112.069 92.5986 112.191 92.5424 114.307 92.5658C115.212 92.5845 115.315 92.2866 115.259 91.4738C114.295 78.1686 117.201 63.1879 125.483 52.3958C134.318 40.8939 145.904 35.6601 160.419 37.983C170.04 39.5321 177.996 44.4601 185.016 51.0636C185.631 51.6408 185.147 51.8093 184.791 52.1353C181.871 54.6532 179.621 57.855 178.239 61.4547C176.048 67.6824 174.714 74.1789 174.274 80.766C173.91 85.8594 172.714 90.7281 168.956 94.5533C172.314 94.5626 175.664 94.5533 179.018 94.5767C184.069 94.6079 182.606 97.3597 182.846 105.406C182.859 105.809 182.902 106.21 182.912 106.62C182.949 108.812 182.983 111.003 183.015 113.192C189.879 112.457 186.603 113.158 204.825 109.843C206.455 109.55 205.68 110.877 205.628 112.632C205.599 113.412 205.329 113.64 204.499 113.687C202.288 113.797 200.076 114.088 197.866 114.311C197.657 114.985 197.585 115.694 197.652 116.397C197.719 117.1 197.925 117.783 198.257 118.406C198.955 120.505 200.236 122.363 201.951 123.761C202.38 124.125 202.671 124.432 202.419 125.067C199.391 133.545 193.8 140.871 186.42 146.029C186.205 146.169 185.963 146.27 185.738 146.392C185.673 147.111 185.599 147.829 185.543 148.556C185.487 149.283 185.59 149.554 186.42 149.097C190.298 146.848 193.749 143.934 196.616 140.487C201.853 134.482 205.584 127.317 207.502 119.583C208.331 116.449 208.956 113.264 209.374 110.049C210.48 100.651 209.658 91.1256 206.957 82.0561C202.555 66.9241 194.579 54.1165 181.93 44.4897C174.779 38.84 166.203 35.2817 157.153 34.2093C147.142 33.1173 128.906 41.4477 128.561 41.6069C131.473 37.7594 135.55 34.9552 140.185 33.6119C167.421 24.5217 203.862 47.928 210.988 89.8826C213.385 102.691 211.988 115.921 206.968 127.947C203.157 137.56 196.285 145.651 187.415 150.969C186.816 151.212 186.316 151.648 185.994 152.209C185.672 152.769 185.547 153.421 185.64 154.061C185.826 156.318 185.715 158.594 185.732 160.861C187.384 160.189 189.063 159.574 190.677 158.833C191.404 158.498 191.73 158.677 192.081 159.29C194.02 162.63 195.998 165.951 197.948 169.282C198.387 170.037 198.816 170.765 199.82 170C199.708 169.467 199.539 168.949 199.317 168.452C197.675 165.532 196.014 162.63 194.298 159.747C193.822 158.945 194.055 158.694 194.811 158.32C197.842 156.81 200.838 155.233 203.822 153.64C204.429 153.328 204.745 153.34 205.184 153.91C206.948 156.223 208.786 158.471 210.558 160.774C211.099 161.474 211.641 161.866 212.489 161.343C213.188 160.652 212.759 160.084 212.283 159.515C209.691 156.395 207.115 153.245 204.504 150.139C204.093 149.645 204.018 149.359 204.513 148.862C210 143.097 214.208 136.24 216.863 128.738C216.923 128.476 217.079 128.247 217.301 128.096C217.523 127.946 217.793 127.885 218.058 127.926C225.407 127.676 232.495 125.143 238.338 120.679C241.118 118.894 243.273 116.289 244.505 113.225C244.734 112.34 244.887 111.438 244.962 110.528C244.344 110.096 243.681 109.732 242.986 109.442ZM111.228 72.108C110.891 71.9438 110.623 71.6659 110.471 71.3234C110.32 70.9809 110.294 70.5958 110.398 70.236C110.574 69.4201 111.384 68.6401 111.872 68.6401C112.832 68.8632 112.794 69.7586 112.832 70.5433C112.832 70.7523 112.791 70.9593 112.71 71.152C112.629 71.3447 112.511 71.5192 112.361 71.6652C112.212 71.8111 112.034 71.9255 111.84 72.0016C111.645 72.0776 111.437 72.1138 111.228 72.108ZM203.544 121.689L203.171 121.83C202.433 120.571 201.632 119.357 200.978 118.07C200.084 116.261 200.129 116.233 202.173 116.019C205.592 115.651 205.24 115.476 203.544 121.689ZM187.824 68.8429C190.209 67.7388 192.454 66.3547 194.512 64.7198C195.203 64.2627 195.51 64.2066 195.967 65.0006C203.176 77.2531 206.742 91.3067 206.248 105.514C206.238 105.905 206.201 106.294 206.173 106.681C206.09 106.699 205.996 106.709 205.912 106.728C205.221 105.206 204.508 103.704 203.831 102.155C203.775 102.016 204.028 101.606 204.224 101.531C204.755 101.325 205.185 101.186 204.97 100.439C204.745 99.6591 204.279 99.5999 203.608 99.7683C201.903 100.327 200.087 100.461 198.318 100.16C194.695 99.1522 191.548 96.8911 189.437 93.7795C185.082 88.1073 184.008 81.5772 184.456 74.6555C184.657 71.7211 185.075 69.8444 187.824 68.8429ZM219.336 49.8031C222.139 51.4089 224.498 53.6857 226.204 56.429C227.909 59.1723 228.906 62.2962 229.105 65.5201C229.125 65.8558 229.122 66.1926 229.095 66.5279C229.058 67.2096 228.861 67.871 228.05 67.8336C226.93 67.7837 227.169 66.6807 227.22 65.5575C226.86 61.2005 224.923 57.1243 221.773 54.0931C220.746 53.0105 219.495 52.154 218.461 51.0901C217.89 50.4957 218.4 49.2259 219.336 49.8031ZM215.94 47.5177C216.225 47.5262 216.498 47.6346 216.711 47.824C216.924 48.0133 217.065 48.2715 217.107 48.5535C216.985 49.7282 216.537 49.9435 215.764 49.9154C215.613 49.9223 215.462 49.8955 215.323 49.8371C215.184 49.7788 215.059 49.6902 214.958 49.5778C214.857 49.4654 214.783 49.332 214.74 49.1873C214.696 49.0425 214.686 48.89 214.709 48.7407C214.696 48.5761 214.719 48.4105 214.777 48.2557C214.834 48.1009 214.925 47.9604 215.042 47.844C215.159 47.7277 215.301 47.6382 215.456 47.5819C215.611 47.5255 215.777 47.5036 215.941 47.5177H215.94ZM214.692 71.5027C216.241 72.239 217.92 73.0627 219.607 73.8068C220.075 74.019 222.103 72.7398 224.365 71.913C224.978 71.6925 225.632 71.6093 226.28 71.6693C226.929 71.7293 227.556 71.931 228.118 72.2602C228.68 72.5893 229.163 73.0379 229.532 73.5742C229.902 74.1105 230.149 74.7214 230.256 75.3637C231.563 80.3822 226.461 84.3571 222.103 83.8719C220.629 83.7159 220.601 83.5599 220.153 84.8423C219.876 85.1526 219.573 85.4396 219.249 85.7003C217.723 80.9329 216.194 76.1577 214.701 71.5027H214.692Z" fill="#1B1B1B"/>
<path d="M212.481 161.304C213.19 160.605 212.75 160.045 212.275 159.476C209.676 156.356 207.112 153.203 204.496 150.1C204.085 149.615 204.011 149.334 204.505 148.823C210 143.064 214.21 136.205 216.856 128.699C216.915 128.437 217.071 128.208 217.293 128.057C217.515 127.907 217.786 127.846 218.051 127.887C225.398 127.627 232.483 125.095 238.331 120.64C241.111 118.856 243.266 116.251 244.497 113.186C244.73 112.303 244.883 111.401 244.954 110.49C266.977 118.122 279.458 129 291.43 143.915C291.848 144.437 292.073 144.921 291.037 144.958C287.858 145.26 284.746 146.053 281.811 147.309C277.949 148.866 274.551 151.387 271.941 154.632C268.93 158.03 266.153 161.652 263.462 165.304C262.442 166.9 261.586 168.594 260.905 170.361C260.564 171.109 260.253 171.141 259.618 170.706C254.57 167.288 254.01 166.993 252.155 166.246C251.923 166.153 251.595 166.293 251.316 166.321C251.439 167.139 251.055 167.031 252.564 168.168C254.748 169.826 256.994 171.407 259.116 173.16C259.918 173.823 260.473 173.316 261.144 173.212C260.921 173.644 260.856 174.141 260.96 174.616C261.064 175.091 261.331 175.515 261.713 175.815C265.925 180.183 267.783 184.674 266.526 193.278C265.746 198.651 263.197 203.427 260.556 208.12C258.803 211.612 255.833 214.343 252.207 215.798C252.012 215.831 251.813 215.816 251.626 215.754C251.438 215.692 251.269 215.585 251.133 215.442C245.588 207.321 222.002 172.808 215.765 163.66C215.102 162.689 214.361 162.009 213.096 162.429C212.873 162.059 212.676 161.682 212.481 161.304ZM243.63 184.589C244.577 184.673 245.531 184.655 246.474 184.533C247.168 184.409 247.324 183.87 246.483 183.753C245.943 183.631 245.383 183.597 244.833 183.481C242.756 183.307 240.702 182.923 238.703 182.334C236.847 181.74 233.711 180.021 231.922 179.214C231.165 178.823 230.886 179.793 231.24 180.512C232.126 181.129 233.055 181.68 234.02 182.163C236.991 183.709 240.281 184.541 243.63 184.593V184.589Z" fill="#5A47FB"/>
<path d="M100.108 215.414C101.144 215.414 101.397 215.704 101.395 216.722C101.377 226.871 101.334 237.011 101.395 247.16C101.395 248.271 101.06 248.496 100.015 248.494C83.8022 248.481 67.5859 248.487 51.3661 248.513C50.8461 248.476 50.3328 248.647 49.9387 248.989C49.2742 249.911 49.9013 250.853 51.1134 250.861C56.3659 250.87 89.0214 250.879 100.097 250.861C101.152 250.861 101.442 251.159 101.366 252.166C101.274 253.389 101.324 254.63 101.3 255.86C101.279 256.147 101.319 256.435 101.418 256.705C101.517 256.974 101.672 257.22 101.873 257.425C102.075 257.63 102.318 257.789 102.586 257.892C102.854 257.996 103.141 258.041 103.428 258.024C111.59 258.128 119.754 258.215 127.92 258.285C128.965 258.285 129.357 258.526 129.324 259.647C129.054 267.581 130.287 269.451 126.739 269.451C96.394 269.451 51.7998 269.431 22.9772 269.414C22.1081 269.383 21.2477 269.229 20.4219 268.957C19.8192 268.746 19.3091 268.332 18.9802 267.785C18.6513 267.237 18.5245 266.592 18.6217 265.961C18.603 255.821 18.6545 222.919 18.603 216.623C18.5936 215.578 18.8167 215.246 19.9368 215.252C33.3153 215.318 86.7688 215.436 100.108 215.414ZM97.8791 227.476C98.578 227.56 98.8946 225.994 97.2161 225.779C80.705 225.779 64.1831 225.824 47.672 225.788C45.7407 225.788 44.5099 227.49 48.6704 227.514C48.828 227.515 96.7028 227.638 97.8791 227.476ZM60.3408 242.327V242.365H77.0016C77.8502 242.123 78.0733 241.945 78.0359 241.003C77.9762 240.671 77.7906 240.375 77.5179 240.177C77.2452 239.98 76.9065 239.895 76.5726 239.941C73.4744 239.976 51.4878 240.079 43.5864 240.097C42.7549 240.097 41.9999 240.284 42.0186 241.254C42.0404 242.31 43.0747 242.337 44.1277 242.335C49.5284 242.332 54.9328 242.329 60.3408 242.327ZM83.2728 235.136C83.5021 235.082 83.7139 234.97 83.8885 234.812C84.0631 234.654 84.1948 234.454 84.2712 234.231C84.2977 234.104 84.2989 233.973 84.2748 233.846C84.2507 233.719 84.2018 233.598 84.1308 233.489C84.0598 233.381 83.9682 233.287 83.8611 233.215C83.754 233.142 83.6336 233.09 83.5068 233.064C82.8719 232.882 83.7611 232.966 59.8775 232.981C59.548 232.985 59.2197 233.022 58.8978 233.092C58.6565 233.135 58.4387 233.263 58.2844 233.454C58.1301 233.644 58.0495 233.883 58.0574 234.128C58.0654 234.373 58.1614 234.607 58.3277 234.787C58.4941 234.967 58.7198 235.081 58.9633 235.108C59.6716 235.217 82.3228 235.231 83.279 235.136H83.2728ZM93.8231 242.346C94.6826 242.346 95.4751 242.19 95.4938 241.153C95.5126 240.115 94.6358 239.995 93.898 239.986C89.8778 239.942 85.8484 239.953 81.8267 239.958C81.0716 239.958 80.4913 240.27 80.5678 241.143C80.5641 241.321 80.5995 241.497 80.6715 241.659C80.7434 241.822 80.8501 241.966 80.984 242.083C81.1179 242.199 81.2758 242.285 81.4465 242.333C81.6172 242.382 81.7965 242.393 81.9718 242.365C82.4476 242.357 93.6733 242.346 93.8293 242.346H93.8231ZM34.5431 248.876C33.0314 248.932 33.7631 250.677 34.5243 250.566C35.4291 250.722 43.8531 250.781 47.1276 250.826C47.828 250.836 48.3506 250.5 48.1915 249.921C47.9591 249.082 47.594 248.766 46.605 248.811C45.1245 248.756 36.8877 248.569 34.5462 248.876H34.5431Z" fill="#5A47FB"/>
<path d="M304.2 177.876C304.097 186.18 302.236 194.368 298.74 201.9C296.824 206.313 294.387 210.481 291.481 214.316C289.134 217.5 286.437 220.409 283.441 222.991C282.872 223.459 282.713 223.831 283.179 224.54C285.659 228.421 287.231 232.812 287.778 237.385C288.374 241.597 286.299 256.461 285.67 259.746C285.591 260.12 285.37 260.447 285.054 260.661C284.898 260.745 284.404 260.417 284.215 260.157C282.218 257.4 272.034 243.235 268.953 238.897C268.535 238.307 268.053 238.342 267.666 238.741C267.573 238.9 267.52 239.079 267.514 239.264C267.507 239.448 267.547 239.631 267.629 239.796C269.354 242.307 285.625 266.334 288.898 271.167C289.775 272.464 289.739 272.905 288.6 274.031C285.246 277.348 274.44 283.735 273.011 284.452C272.153 284.881 271.655 284.341 271.229 283.705C269.357 280.897 253.25 256.825 247.283 247.463C246.824 246.54 246.145 245.744 245.306 245.145C244.466 244.546 243.492 244.164 242.469 244.031C241.083 243.645 239.771 243.03 238.588 242.212C238.346 242.081 238.253 241.68 238.084 241.399C238.435 241.24 238.811 241.143 239.195 241.111C240.471 241.239 241.738 241.438 242.992 241.708C246.458 242.411 250.034 242.376 253.486 241.605C255.668 241.241 257.824 240.736 259.941 240.094C263.526 239.06 266.671 236.873 268.888 233.872C270.526 231.499 272.367 229.274 274.392 227.22C278.96 224.026 283.104 220.264 286.725 216.026C291.967 209.58 294.213 207.023 297.77 197.584C301.548 187.55 301.963 180.8 301.277 175.223C300.146 166.011 299.887 164.948 294.784 153.785C294.004 152.088 292.912 150.539 292.257 148.793C291.968 148.027 292.817 147.132 293.74 147.309C294.225 147.403 295.11 148.713 295.222 148.924C298.81 155.457 302.22 162.083 303.479 169.53C303.936 172.279 303.968 175.096 304.2 177.876Z" fill="#1B1B1B"/>
<path d="M213.077 162.424C214.347 162.012 215.085 162.692 215.746 163.655C222.007 172.782 245.5 207.363 251.115 215.437C251.251 215.58 251.42 215.686 251.607 215.748C251.794 215.81 251.994 215.826 252.188 215.793C255.82 214.346 258.792 211.613 260.537 208.115C263.189 203.422 265.723 198.646 266.507 193.273C267.786 184.512 265.844 180.169 261.695 175.81C261.314 175.508 261.05 175.084 260.946 174.61C260.842 174.135 260.905 173.64 261.125 173.207C261.802 173.096 262.497 173.174 263.132 173.432C263.768 173.689 264.321 174.116 264.73 174.667C267.313 177.674 268.861 181.432 269.144 185.385C269.821 191.493 268.681 197.665 265.868 203.129C263.905 207.25 262.032 211.411 258.497 214.509C256.675 216.25 254.461 217.527 252.041 218.231C251.53 218.419 251.088 218.758 250.773 219.202C249.132 221.319 246.808 222.803 244.196 223.4C242.009 224.035 239.748 224.387 237.471 224.445C235.554 224.429 231.804 225.471 230.652 222.573C230.481 222.259 230.272 221.967 230.028 221.705C229.842 221.27 229.63 220.847 229.393 220.437C223.882 212.149 204.081 182.606 199.785 176.06C198.211 173.662 198.342 173.171 200.111 171.405C201.129 170.383 197.841 172.815 213.077 162.424Z" fill="#1B1B1B"/>
<path d="M214.656 218.194C214.988 218.669 215.373 219.105 215.804 219.492C219.522 222.432 224.08 224.112 228.816 224.286C229.215 224.252 229.611 224.37 229.925 224.618C230.239 224.866 230.447 225.224 230.506 225.62C230.772 226.529 231.318 227.332 232.066 227.915C232.53 228.153 232.895 228.548 233.095 229.03C233.295 229.512 233.317 230.049 233.158 230.546C232.621 232.841 233.961 234.621 235.276 236.357C235.586 236.771 235.748 237.277 235.733 237.794C234.922 245.736 243.234 244.391 244.678 246.816C247.282 251.184 249.815 255.581 252.375 259.968C252.673 260.481 252.664 260.659 252.01 260.659C230.415 260.643 231.752 260.74 231.301 260.397C227.534 257.533 225.364 255.587 223.829 254.605C223.834 254.874 223.878 255.141 223.96 255.397C225.022 257.532 226.652 259.333 228.671 260.603C227.228 260.687 230.122 260.622 206.376 260.668C205.574 260.668 205.22 260.575 205.424 259.651C207.541 250.048 211.976 227.3 214.352 218.155C214.45 218.189 214.553 218.202 214.656 218.194Z" fill="#1B1B1B"/>
<path d="M194.644 184.509C197.947 184.537 200.025 185.432 200.018 189.956C199.987 210.061 199.99 230.167 200.028 250.275C200.138 251.347 199.937 252.427 199.448 253.387C198.96 254.346 198.205 255.145 197.274 255.687C196.819 255.922 196.314 256.044 195.802 256.041C168.589 256.041 109.409 255.983 107.038 256.013C104.155 256.049 102.45 254.316 102.42 251.143C102.367 245.407 102.472 204.613 102.504 189.956C102.449 189.177 102.487 188.394 102.615 187.624C102.815 186.759 103.302 185.988 103.997 185.436C104.691 184.883 105.553 184.583 106.44 184.584C108.047 184.495 194.532 184.507 194.644 184.509ZM105.342 195.087C104.511 195.087 104.269 195.274 104.288 196.123C104.353 199.109 104.314 202.093 104.325 205.079C104.376 220.704 104.481 236.338 104.539 251.965C104.576 252.282 104.685 252.587 104.856 252.857C105.027 253.127 105.257 253.355 105.528 253.525C107.291 254.461 109.492 253.983 114.017 253.982C141.057 253.982 168.088 253.985 195.111 253.991C195.651 254.046 196.193 253.908 196.641 253.601C197.089 253.293 197.413 252.837 197.555 252.313C198.189 250.394 197.956 254.947 198.003 196.527C198.003 195.491 197.732 195.253 196.725 195.259C181.547 195.34 120.622 195.101 105.342 195.087ZM196.758 192.82C196.981 192.82 198.418 192.555 197.85 188.856C197.571 187.002 196.732 186.925 194.856 186.757C194.409 186.804 135.806 186.691 106.943 186.673C106.644 186.633 106.34 186.657 106.051 186.744C105.762 186.83 105.495 186.977 105.267 187.174C105.039 187.371 104.856 187.615 104.728 187.888C104.601 188.161 104.533 188.458 104.529 188.76C104.381 189.824 104.473 192.958 105.267 192.958C120.557 192.937 181.547 192.816 196.763 192.816L196.758 192.82Z" fill="#1B1B1B"/>
<path d="M214.344 218.175C213.408 216.703 205.595 204.555 202.644 199.967C201.44 198.095 202.032 197.772 201.132 185.116C200.993 183.166 200.256 182.606 198.334 182.559C194.463 182.466 190.601 182.314 186.729 182.224C185.918 182.205 185.691 181.888 185.693 181.076C185.712 174.332 185.724 167.585 185.73 160.833C187.382 160.161 189.061 159.544 190.676 158.805C191.403 158.47 191.727 158.649 192.08 159.262C194.019 162.608 196.003 165.92 197.947 169.254C198.387 170.009 198.814 170.728 199.819 169.971C200.061 170.283 200.287 170.595 200.532 170.907C200.399 171.084 200.255 171.252 200.103 171.411C198.307 173.151 198.207 173.67 199.777 176.066C204.062 182.618 223.871 212.148 229.386 220.444C229.624 220.852 229.836 221.276 230.02 221.712C224.884 222.019 219.768 220.843 215.28 218.325C214.977 218.231 214.661 218.181 214.344 218.175Z" fill="#5A47FB"/>
<path d="M11.8966 203.082C10.8523 203.033 9.86231 202.602 9.11462 201.872C8.36694 201.141 7.91357 200.161 7.84056 199.118C7.77816 197.895 7.81248 196.655 7.81248 195.432C7.81248 126.324 7.7142 129.756 8.06364 128.472C8.34431 127.42 8.98948 126.502 9.88408 125.882C10.7787 125.262 11.8645 124.979 12.948 125.085C13.8575 125.062 70.2156 124.942 70.8692 125.151C71.3372 125.299 71.3528 127.023 70.916 127.179C70.4246 127.358 74.3168 127.268 12.8918 127.252C12.1752 127.264 11.4858 127.529 10.9461 128C10.4063 128.472 10.0511 129.119 9.94344 129.828C9.64392 133.653 11.5861 133.074 12.4394 133.074C72.6008 133.102 71.4324 133.002 71.4808 133.297C71.5608 133.919 71.5577 134.548 71.4714 135.169C71.4464 135.381 73.4136 135.386 11.0588 135.325C10.0511 135.325 9.84984 135.586 9.85452 136.547C9.96216 155.867 9.86856 175.196 9.86388 194.515C9.86388 195.775 9.70788 197.043 9.71568 198.302C9.71659 198.684 9.79381 199.062 9.94279 199.413C10.0918 199.764 10.3095 200.082 10.5832 200.348C10.8569 200.614 11.181 200.823 11.5365 200.962C11.892 201.101 12.2716 201.167 12.6532 201.157C30.8818 201.101 87.619 201.148 97.759 201.148C98.7761 201.148 99.3611 200.513 99.372 199.301C99.4984 186.552 99.23 185.844 99.5405 185.336C99.7277 185.024 101.136 184.832 101.313 185.382C101.413 185.624 101.445 185.888 101.406 186.147C101.406 190.626 101.445 195.103 101.425 199.572C101.414 200.526 101.029 201.437 100.351 202.109C99.674 202.78 98.7595 203.158 97.8058 203.16C83.68 203.18 14.2756 203.195 11.8966 203.082Z" fill="#1B1B1B"/>
<path d="M24.024 213.063C22.5217 213.063 18.8557 213.475 18.8557 212.127C18.7451 210.634 18.7326 209.135 18.8183 207.641C18.9197 206.904 19.4719 205.145 23.4983 205.16C45.4491 205.207 95.9166 205.141 99.1911 205.16C101.667 205.174 101.063 205.414 101.364 212.101C101.395 212.762 101.208 213.058 100.497 213.005C100.11 212.968 51.6547 213.043 24.024 213.063ZM28.6135 210.023C29.5495 209.957 29.4559 209.332 29.4247 209.024C29.4175 208.816 29.33 208.619 29.1806 208.473C29.0312 208.328 28.8314 208.246 28.6229 208.244C28.3109 208.319 27.8725 208.4 27.8117 209.056C27.768 209.594 27.9505 209.91 28.6135 210.023ZM25.5263 209.127C25.5147 208.926 25.4313 208.735 25.2912 208.59C25.1511 208.445 24.9636 208.354 24.7626 208.335C24.5617 208.317 24.3606 208.37 24.1959 208.487C24.0312 208.604 23.9138 208.775 23.8649 208.971C23.8649 209.765 24.3033 209.8 24.5466 209.82C24.8446 209.853 25.3204 209.892 25.5263 209.127ZM33.7631 209.034C33.4402 207.825 32.1579 208.051 32.1672 209.165C32.1995 209.346 32.2883 209.512 32.4209 209.639C32.5535 209.766 32.723 209.848 32.9051 209.873C33.3247 209.873 33.7069 209.753 33.7631 209.04V209.034Z" fill="#5A47FB"/>
<path d="M197.844 114.292C197.636 114.967 197.564 115.676 197.631 116.379C197.698 117.082 197.904 117.765 198.235 118.389C198.939 120.485 200.22 122.34 201.93 123.742C202.36 124.106 202.641 124.415 202.398 125.048C199.1 133.578 194.129 140.879 186.409 146.01C186.195 146.152 185.952 146.252 185.727 146.373C185.668 122.156 185.738 123.365 185.467 120.039C185.398 119.69 185.454 119.328 185.625 119.016C185.796 118.704 186.072 118.462 186.403 118.332C188.709 117.318 190.983 116.225 193.343 115.347C194.819 114.899 196.323 114.547 197.844 114.292Z" fill="#5A47FB"/>
<path d="M19.4813 154.099C19.4813 152.008 20.2363 151.239 22.2799 151.234C26.7477 151.223 31.2249 151.234 35.6959 151.234C37.7099 151.234 38.4945 152.014 38.4945 153.986V177.149C38.4945 179.08 37.6911 179.892 35.8067 179.892H22.1676C20.2831 179.892 19.4813 179.08 19.4813 177.149V154.099ZM36.9533 154.125C36.9626 153.202 36.7286 152.782 35.7053 152.791C31.2333 152.835 26.7613 152.835 22.2893 152.791C21.3751 152.791 21.0413 153.072 21.0413 154.014C21.0548 161.7 21.0548 169.383 21.0413 177.065C21.0413 178.054 21.3876 178.352 22.347 178.342C26.7795 178.303 31.214 178.303 35.6507 178.342C36.6116 178.352 36.9673 178.054 36.9564 177.065C36.9205 173.981 36.9236 157.189 36.9533 154.128V154.125Z" fill="#1B1B1B"/>
<path d="M49.8545 155.852C49.7168 155.88 49.5748 155.879 49.4379 155.847C49.3009 155.816 49.1721 155.757 49.0601 155.672C48.9481 155.587 48.8554 155.48 48.7882 155.356C48.721 155.233 48.6809 155.097 48.6704 154.957C48.6899 154.729 48.7972 154.518 48.9696 154.368C49.1419 154.218 49.3658 154.141 49.5939 154.153C56.4782 154.241 63.3625 154.066 70.2468 154.052C70.8349 154.052 71.5712 154.033 71.5712 154.9C71.5712 155.836 71.1235 155.919 70.3965 155.918C66.8974 155.908 53.196 155.861 49.8545 155.852Z" fill="#1B1B1B"/>
<path d="M43.978 171.076C43.315 171.029 43.0591 169.588 43.9967 169.379C44.6347 169.235 58.6888 169.277 58.9415 169.341C59.1412 169.388 59.319 169.501 59.4452 169.663C59.5714 169.824 59.6385 170.024 59.6352 170.229C59.6319 170.434 59.5585 170.632 59.4272 170.79C59.2958 170.947 59.1145 171.055 58.9134 171.095C58.7574 171.103 44.173 171.177 43.978 171.076Z" fill="#1B1B1B"/>
<path d="M251.567 227.56C251.343 227.889 251.097 228.201 250.831 228.496C248.61 230.558 245.67 231.667 242.641 231.585C237.014 231.771 237.072 231.655 234.608 230.337C234.376 230.214 234.287 229.571 234.348 229.2C234.479 228.378 235.112 228.844 235.44 228.966C238.718 230.074 242.248 230.203 245.599 229.339C247.177 228.871 248.72 228.291 250.216 227.604C250.6 227.48 250.989 227.376 251.383 227.292C251.439 227.385 251.501 227.474 251.567 227.56Z" fill="#1B1B1B"/>
<path d="M242.58 238.836C241.401 238.509 240.137 238.161 238.884 237.775C238.184 237.562 237.334 237.225 237.727 236.311C237.849 236.031 238.884 235.917 239.407 236.069C241.327 236.77 243.388 236.997 245.414 236.73C247.233 236.368 248.967 235.576 250.75 235.042C251.342 234.92 251.945 234.851 252.55 234.838C252.262 235.35 251.931 235.836 251.561 236.292C250.129 237.492 248.385 238.263 246.533 238.513C245.275 239.002 243.901 239.114 242.58 238.836Z" fill="#1B1B1B"/>
<path d="M62.7651 170.954C62.1223 170.954 61.5061 170.806 61.517 170.018C61.528 169.231 62.152 169.098 62.7853 169.095C65.4639 169.085 68.1408 169.095 70.8178 169.029C71.6758 169.011 71.5541 169.514 71.5541 170.037C71.5541 170.56 71.6477 171.065 70.7991 171.026C69.4637 170.957 64.0989 170.976 62.7651 170.954Z" fill="#1B1B1B"/>
<path d="M43.9125 155.758C43.5677 155.736 43.0919 155.914 43.017 154.978C43.1106 154.287 43.2682 154.221 43.797 154.198C44.5205 154.111 45.2526 154.127 45.9717 154.245C46.6893 154.282 46.8016 155.707 45.9249 155.756C45.6191 155.766 44.2853 155.781 43.9125 155.758Z" fill="#1B1B1B"/>
<path d="M182.843 105.406C182.359 105.406 82.2713 105.356 74.1468 105.282C73.0829 105.263 72.8505 105.594 72.8598 106.587C72.8957 108.938 72.8224 177.625 72.9706 181.422C73.0361 183.054 73.6055 183.45 75.2747 183.45C84.8562 183.478 180.941 183.525 181.389 183.497C181.586 183.512 181.784 183.484 181.969 183.413C182.153 183.342 182.32 183.232 182.457 183.089C182.593 182.946 182.696 182.774 182.759 182.587C182.821 182.399 182.841 182.2 182.816 182.004C182.832 181.041 183.008 107.748 182.843 105.406ZM135.165 117.73C138.812 117.674 142.461 117.693 146.108 117.702C146.76 117.702 147.433 117.908 147.32 118.638C147.273 118.964 146.54 119.384 146.099 119.403C144.562 119.474 137.519 119.429 135.258 119.44C134.541 119.449 133.887 119.264 133.934 118.504C133.953 118.22 134.726 117.744 135.165 117.735V117.73ZM123.112 117.871C125.632 117.786 128.355 117.972 130.875 117.991C132.832 118.41 131.881 119.428 130.538 119.395C129.354 119.367 123.196 119.303 122.908 119.265C122.17 119.172 121.405 118.061 123.112 117.875V117.871ZM116.228 117.715C117.031 117.696 119.214 117.846 119.782 117.715C120.808 117.733 120.65 119.459 119.959 119.403C118.666 119.474 117.371 119.471 116.078 119.393C115.37 119.385 115.016 117.754 116.228 117.726V117.715ZM82.2432 117.716C84.4366 117.632 86.7672 117.688 88.8295 117.688C88.9544 117.668 89.0822 117.675 89.2042 117.708C89.3262 117.742 89.4395 117.801 89.5366 117.882C89.6336 117.963 89.712 118.065 89.7664 118.179C89.8209 118.293 89.8502 118.418 89.8522 118.544C89.8542 118.67 89.829 118.796 89.7783 118.912C89.7275 119.028 89.6524 119.131 89.558 119.216C89.4637 119.3 89.3523 119.363 89.2314 119.4C89.1106 119.438 88.9831 119.449 88.8576 119.432C87.7485 119.376 83.3352 119.517 82.2807 119.385C82.1641 119.4 82.0457 119.39 81.9332 119.356C81.8207 119.322 81.7165 119.265 81.6275 119.189C81.5385 119.112 81.4666 119.017 81.4165 118.911C81.3663 118.805 81.339 118.689 81.3364 118.572C81.3338 118.454 81.3558 118.337 81.4012 118.229C81.4465 118.121 81.5141 118.023 81.5996 117.942C81.6851 117.862 81.7865 117.8 81.8974 117.761C82.0083 117.722 82.1261 117.707 82.2432 117.716ZM88.7453 124.863C87.9653 124.899 83.9701 124.881 82.6348 124.788C81.666 124.899 81.5724 123.267 82.5053 123.228C84.6409 123.134 86.9076 123.153 88.9793 123.209C90.0339 123.463 89.5846 124.889 88.7453 124.863ZM81.2089 147.093C81.106 146.271 81.8985 146.169 82.5427 146.157C83.4522 146.136 89.9605 146.146 90.1165 146.147C90.7608 146.157 91.3864 146.314 91.4051 147.071C91.4238 147.827 90.817 148.032 90.1571 148.032C87.5925 148.032 85.0278 148.069 82.471 147.976C82.0201 147.96 81.2557 147.447 81.2089 147.093ZM83.1948 151.523C85.3882 151.448 87.5805 151.442 89.7718 151.504C89.9603 151.512 90.1387 151.592 90.2699 151.727C90.4011 151.863 90.475 152.044 90.4762 152.232C90.4774 152.421 90.4058 152.603 90.2764 152.74C90.1469 152.877 89.9695 152.959 89.7811 152.969C88.6798 153.063 87.5613 153.007 86.4412 153.007V152.979C85.3601 152.979 84.2775 153.044 83.2135 152.95C82.4211 153.025 82.1886 151.56 83.1948 151.523ZM90.9106 166.234C90.0339 166.234 84.8656 166.356 83.6145 166.215C82.3368 166.371 82.5895 164.797 83.5973 164.825C85.8921 164.733 88.1962 164.705 90.4909 164.752C91.7031 164.844 91.5814 166.234 90.9106 166.234ZM93.9697 118.593C93.9229 117.641 95.1085 117.707 95.7793 117.688C98.7745 117.669 109.4 117.641 111.964 117.688C112.73 117.702 113.103 117.913 113.309 118.342C113.309 118.928 113.094 119.517 112.637 119.434C108.794 119.523 98.9087 119.446 96.004 119.406C95.2396 119.395 94.0259 119.601 93.9697 118.593ZM94.848 152.353C94.8693 152.196 94.9301 152.047 95.0248 151.92C95.1195 151.792 95.2449 151.691 95.3893 151.626C96.8312 151.511 98.2807 151.533 99.7183 151.692C99.8853 151.729 100.361 151.943 100.37 152.372C100.38 152.745 100.101 153.192 99.6996 153.166C98.2593 153.221 96.817 153.193 95.38 153.081C95.2336 153.02 95.1068 152.919 95.0131 152.791C94.9194 152.663 94.8624 152.511 94.848 152.353ZM129.148 147.997C124.524 148.113 137.227 148.108 112.067 148.108V148.082H96.4049C95.2755 148.394 93.6531 146.244 97.1506 146.272C103.896 146.328 110.517 146.08 117.048 146.171C126.073 146.294 128.28 146.171 129.103 146.347C130.137 146.57 130.015 147.96 129.148 147.997ZM142.478 151.476C143.188 151.476 144.214 151.244 144.242 152.306C144.28 153.482 143.206 153.242 142.47 153.242C138.77 153.242 102.809 153.256 102.572 153.178C101.965 152.972 101.824 151.554 102.581 151.526C103.74 151.476 94.6686 151.476 142.478 151.476ZM114.139 166.234C111.395 166.234 99.3517 166.224 96.1241 166.17C95.2396 166.048 94.8465 164.875 96.1335 164.881C102.124 164.913 108.188 165.003 114.176 164.928C114.903 164.919 115.687 164.816 115.677 165.544C115.677 166.346 114.66 166.224 114.139 166.234ZM135.987 166.224C133.076 166.215 121.6 166.243 118.757 166.234C118.178 166.234 117.459 166.356 117.487 165.423C117.515 164.593 118.094 164.443 118.813 164.443C124.558 164.462 130.297 164.465 136.032 164.452C136.789 164.452 137.171 164.705 137.171 165.451C137.171 166.296 136.555 166.224 135.987 166.224ZM156.827 166.17C156.671 166.259 157.708 166.215 140.398 166.215C140.177 166.221 139.956 166.211 139.735 166.187C138.43 165.973 139.065 164.441 139.423 164.443C141.728 164.455 153.389 164.471 156 164.471C157.917 164.443 157.172 165.964 156.827 166.17ZM166.202 124.8C165.89 124.939 95.8729 124.902 94.9962 124.791C94.6515 124.744 94.5282 124.548 94.4081 124.044C94.4152 123.865 94.4814 123.694 94.5963 123.557C94.7113 123.421 94.8684 123.326 95.043 123.289C95.4439 123.148 166.062 123.232 166.248 123.279C167.722 123.658 166.967 124.889 166.202 124.8Z" fill="#5A47FB"/>
<path d="M192.66 79.9063C193.326 77.6318 194.947 72.8176 195.048 72.7303C195.36 72.4697 196.498 72.8239 196.429 73.1593C195.853 75.9891 194.184 81.7502 193.799 84.9872C193.563 86.9653 196.544 87.6751 196.541 87.7952C196.48 90.2615 193.438 89.4035 192.418 87.8233C191.044 86.4239 192.147 81.6519 192.66 79.9063Z" fill="#1B1B1B"/>
<path d="M194.532 93.3677C194.253 93.2117 193.959 91.8451 194.989 91.9637C195.845 92.1702 196.715 92.311 197.593 92.3849C199.477 92.31 200.856 88.9778 200.978 88.8484C201.349 88.4552 201.758 87.8999 202.21 87.8406C202.976 87.7423 203.252 88.4194 203.284 89.1104C203.38 91.3678 201.903 92.8248 200.195 94.0541C198.708 95.1289 195.534 93.9418 194.532 93.3677Z" fill="#1B1B1B"/>
<path d="M191.939 68.7588C192.207 68.7657 192.465 68.8614 192.673 69.0308C192.88 69.2002 193.025 69.4338 193.086 69.6948C193.312 70.3765 192.774 70.8523 192.126 70.8991C191.265 71.0305 190.44 71.3386 189.703 71.8041C188.966 72.2696 188.333 72.8824 187.844 73.6041C187.294 74.3139 186.724 73.3155 186.79 72.9411C187.084 71.7828 187.744 70.7503 188.672 69.9969C189.599 69.2434 190.745 68.8093 191.939 68.7588Z" fill="#1B1B1B"/>
<path d="M191.958 78.3402C191.98 81.5414 188.309 81.2309 188.283 78.4806C188.267 76.866 188.953 75.7881 190.008 75.774C191.063 75.76 191.949 76.9409 191.958 78.3402Z" fill="#1B1B1B"/>
<path d="M154.158 223.913C154.06 228.208 152.697 232.379 150.239 235.903C147.78 239.426 144.336 242.145 140.338 243.719C136.341 245.293 131.967 245.651 127.767 244.749C123.566 243.846 119.726 241.724 116.727 238.647C113.728 235.571 111.704 231.677 110.909 227.455C110.115 223.232 110.585 218.87 112.26 214.913C113.935 210.957 116.742 207.584 120.327 205.216C123.912 202.849 128.116 201.592 132.413 201.605C138.253 201.686 143.822 204.08 147.898 208.262C151.975 212.445 154.226 218.073 154.158 223.913ZM152.598 222.977C152.451 218.463 150.804 214.126 147.918 210.653C147.461 210.082 147.216 210.029 146.685 210.597C137.82 220.165 128.977 229.755 120.156 239.366C119.744 239.813 119.658 240.05 120.212 240.458C133.608 250.57 152.744 241.103 152.591 222.971L152.598 222.977ZM112.111 224.849C112.292 229.956 114.383 234.81 117.969 238.451C118.457 238.97 118.749 239.142 119.321 238.488C123.048 234.276 126.828 230.106 130.544 225.885C130.728 225.672 130.868 225.424 130.956 225.156C131.045 224.888 131.079 224.606 131.057 224.325C129.809 217.865 128.55 211.407 127.279 204.95C127.113 204.101 126.859 203.923 125.973 204.223C117.736 207.001 112.008 214.987 112.105 224.846L112.111 224.849ZM132.428 223.412C132.69 223.366 132.74 223.366 132.756 223.347C136.99 218.511 141.238 213.665 145.442 208.786C145.488 208.66 145.502 208.524 145.48 208.391C145.459 208.259 145.404 208.134 145.32 208.029C143.108 206.11 140.498 204.706 137.678 203.917C134.858 203.127 131.899 202.973 129.012 203.465C128.88 203.531 128.768 203.631 128.686 203.753C128.604 203.876 128.555 204.018 128.544 204.165C129.9 210.545 131.116 216.963 132.422 223.409L132.428 223.412Z" fill="#1B1B1B"/>
<path d="M187.266 208.867C187.938 208.901 188.629 208.996 188.59 209.864C188.554 210.644 187.882 210.731 187.256 210.731C186.631 210.731 161.964 210.784 161.323 210.686C160.614 210.577 160.616 209.089 161.323 208.922C162.006 208.761 187.078 208.856 187.266 208.867Z" fill="#1B1B1B"/>
<path d="M168.608 236.385C168.431 236.327 168.276 236.216 168.165 236.066C168.055 235.917 167.993 235.736 167.989 235.55C167.985 235.364 168.038 235.181 168.143 235.027C168.247 234.872 168.396 234.754 168.57 234.688C169.212 234.434 190.008 234.532 190.223 234.679C190.39 234.745 190.533 234.858 190.636 235.005C190.738 235.152 190.795 235.326 190.799 235.506C190.803 235.685 190.754 235.861 190.658 236.013C190.563 236.164 190.424 236.284 190.261 236.357C189.879 236.426 168.842 236.47 168.608 236.385Z" fill="#1B1B1B"/>
<path d="M174.224 214.799C174.924 214.799 175.667 214.865 175.642 215.798C175.62 216.656 174.896 216.72 174.252 216.721H161.986C161.332 216.721 160.618 216.637 160.622 215.77C160.622 214.834 161.379 214.799 162.078 214.799H174.224Z" fill="#1B1B1B"/>
<path d="M161.616 236.291C160.655 236.218 160.385 235.043 161.243 234.753C162.129 234.697 164.363 234.575 165.767 234.641C166.617 234.838 166.597 236.217 166.224 236.301C164.692 236.456 163.148 236.453 161.616 236.291Z" fill="#1B1B1B"/>
<path d="M179.015 94.5765C175.665 94.5484 105.425 94.5999 76.2824 94.5765C75.8641 94.5466 75.4441 94.6021 75.0479 94.7396C74.6517 94.8771 74.2877 95.0938 73.9779 95.3765C73.6681 95.6591 73.419 96.0018 73.2458 96.3838C73.0727 96.7657 72.979 97.1789 72.9706 97.5982C72.8692 99.2315 72.8879 100.874 72.9253 102.515C72.9702 102.676 73.0553 102.823 73.1727 102.942C73.29 103.061 73.4358 103.148 73.5961 103.196C78.3728 103.196 151.187 103.079 182.83 103.069C182.866 96.7496 183.478 94.6046 179.015 94.5765ZM78.7644 99.6746C78.5929 99.6746 78.4252 99.6237 78.2825 99.5284C78.1399 99.4331 78.0287 99.2976 77.9631 99.1391C77.8974 98.9807 77.8802 98.8063 77.9137 98.638C77.9472 98.4698 78.0298 98.3152 78.1511 98.1939C78.2724 98.0726 78.4269 97.99 78.5952 97.9565C78.7634 97.9231 78.9378 97.9402 79.0963 98.0059C79.2548 98.0715 79.3903 98.1827 79.4856 98.3253C79.5809 98.468 79.6318 98.6357 79.6318 98.8072C79.6318 99.0373 79.5404 99.2579 79.3777 99.4205C79.2151 99.5832 78.9944 99.6746 78.7644 99.6746ZM83.0466 99.8696C82.875 99.8696 82.7073 99.8187 82.5647 99.7234C82.4221 99.6281 82.3109 99.4926 82.2453 99.3341C82.1796 99.1757 82.1624 99.0013 82.1959 98.833C82.2294 98.6648 82.312 98.5102 82.4333 98.3889C82.5546 98.2676 82.7091 98.185 82.8774 98.1515C83.0456 98.1181 83.22 98.1352 83.3785 98.2009C83.537 98.2665 83.6725 98.3777 83.7678 98.5203C83.8631 98.663 83.914 98.8307 83.914 99.0022C83.914 99.2323 83.8226 99.4529 83.6599 99.6155C83.4972 99.7782 83.2766 99.8696 83.0466 99.8696ZM86.6564 99.8696C86.4849 99.8696 86.3172 99.8187 86.1746 99.7234C86.0319 99.6281 85.9207 99.4926 85.8551 99.3341C85.7895 99.1757 85.7723 99.0013 85.8057 98.833C85.8392 98.6648 85.9218 98.5102 86.0431 98.3889C86.1644 98.2676 86.319 98.185 86.4872 98.1515C86.6555 98.1181 86.8299 98.1352 86.9884 98.2009C87.1468 98.2665 87.2823 98.3777 87.3776 98.5203C87.4729 98.663 87.5238 98.8307 87.5238 99.0022C87.5238 99.2323 87.4324 99.4529 87.2697 99.6155C87.1071 99.7782 86.8865 99.8696 86.6564 99.8696Z" fill="#5A47FB"/>
<path d="M108.858 189.827C108.858 190.196 109.005 190.549 109.265 190.81C109.526 191.07 109.88 191.217 110.248 191.217C110.617 191.217 110.97 191.07 111.231 190.81C111.492 190.549 111.638 190.196 111.638 189.827C111.638 189.458 111.492 189.105 111.231 188.844C110.97 188.583 110.617 188.437 110.248 188.437C109.88 188.437 109.526 188.583 109.265 188.844C109.005 189.105 108.858 189.458 108.858 189.827Z" fill="#1B1B1B"/>
<path d="M114.083 189.818C114.083 190.186 114.229 190.54 114.49 190.801C114.751 191.061 115.104 191.208 115.473 191.208C115.841 191.208 116.195 191.061 116.456 190.801C116.716 190.54 116.863 190.186 116.863 189.818C116.863 189.449 116.716 189.096 116.456 188.835C116.195 188.574 115.841 188.428 115.473 188.428C115.104 188.428 114.751 188.574 114.49 188.835C114.229 189.096 114.083 189.449 114.083 189.818Z" fill="#1B1B1B"/>
<path d="M119.26 189.827C119.26 190.196 119.407 190.549 119.668 190.81C119.928 191.07 120.282 191.217 120.65 191.217C121.019 191.217 121.373 191.07 121.633 190.81C121.894 190.549 122.04 190.196 122.04 189.827C122.04 189.458 121.894 189.105 121.633 188.844C121.373 188.583 121.019 188.437 120.65 188.437C120.282 188.437 119.928 188.583 119.668 188.844C119.407 189.105 119.26 189.458 119.26 189.827Z" fill="#1B1B1B"/>
<path d="M14.2194 130.244C14.2194 130.613 14.3659 130.967 14.6265 131.227C14.8872 131.488 15.2407 131.634 15.6094 131.634C15.978 131.634 16.3316 131.488 16.5922 131.227C16.8529 130.967 16.9993 130.613 16.9993 130.244C16.9993 129.876 16.8529 129.522 16.5922 129.262C16.3316 129.001 15.978 128.854 15.6094 128.854C15.2407 128.854 14.8872 129.001 14.6265 129.262C14.3659 129.522 14.2194 129.876 14.2194 130.244Z" fill="#1B1B1B"/>
<path d="M19.5 130.244C19.5 130.613 19.6464 130.967 19.9071 131.227C20.1678 131.488 20.5213 131.634 20.89 131.634C21.2586 131.634 21.6121 131.488 21.8728 131.227C22.1335 130.967 22.2799 130.613 22.2799 130.244C22.2799 129.876 22.1335 129.522 21.8728 129.262C21.6121 129.001 21.2586 128.854 20.89 128.854C20.5213 128.854 20.1678 129.001 19.9071 129.262C19.6464 129.522 19.5 129.876 19.5 130.244Z" fill="#1B1B1B"/>
<path d="M24.7791 130.244C24.7791 130.613 24.9255 130.967 25.1862 131.227C25.4468 131.488 25.8004 131.634 26.169 131.634C26.5377 131.634 26.8912 131.488 27.1519 131.227C27.4125 130.967 27.559 130.613 27.559 130.244C27.559 129.876 27.4125 129.522 27.1519 129.262C26.8912 129.001 26.5377 128.854 26.169 128.854C25.8004 128.854 25.4468 129.001 25.1862 129.262C24.9255 129.522 24.7791 129.876 24.7791 130.244Z" fill="#1B1B1B"/>
</svg>
