<svg width="41" height="40" viewBox="0 0 41 40" fill="none" xmlns="http://www.w3.org/2000/svg">
<path d="M15.7656 0.393555C16.3663 0.114574 17.1007 0.209349 18.4971 0.986328C21.1167 2.44376 25.5602 5.21268 29.7617 8.01953C33.9699 10.8308 37.9088 13.6628 39.5361 15.2471C39.9217 15.6225 40.1095 15.9924 40.1572 16.3916C40.2058 16.7988 40.1122 17.2669 39.877 17.8428C39.4013 19.0074 38.4016 20.4914 37.0918 22.6221C35.3369 25.4732 28.8681 34.9052 26.6982 37.6494C26.0771 38.4345 25.632 39.0005 25.1777 39.3516C24.7462 39.6851 24.3135 39.8179 23.6992 39.7168C23.0606 39.6116 22.2249 39.2537 21.0117 38.5684C19.8035 37.8858 18.246 36.8937 16.1689 35.5449C15.3166 34.9915 14.9732 34.7479 14.7949 34.6133C14.6276 34.4869 14.5815 34.4359 14.3721 34.3037C14.2781 34.2444 14.1996 34.1967 14.1299 34.1484C14.067 34.1049 14.0293 34.0719 14.0078 34.0479C14.0157 34.0378 14.0275 34.0228 14.0469 34.0049C14.7468 33.3581 15.3277 32.6375 15.5576 31.874C15.7945 31.0873 15.6497 30.2808 14.958 29.5186C14.0069 28.4704 12.7678 27.9241 11.624 27.9873C10.4662 28.0515 9.43922 28.7405 8.9502 30.082C8.88585 30.2585 8.8354 30.3876 8.79297 30.4814C8.77243 30.5268 8.75376 30.5591 8.74023 30.583C8.72859 30.5756 8.71029 30.5647 8.68457 30.5479C8.63227 30.5137 8.55891 30.465 8.4668 30.4033C8.28254 30.2799 8.02485 30.1049 7.71387 29.8916C7.09175 29.4649 6.25706 28.884 5.37109 28.249C3.59161 26.9736 1.62725 25.4959 0.743164 24.6055C0.468962 24.3292 0.330954 24.0524 0.277344 23.7803C0.223184 23.5053 0.252087 23.2167 0.339844 22.915C0.519612 22.2973 0.921618 21.6891 1.26953 21.0859H1.27051C3.63099 16.9833 4.92065 15.1377 5.50586 14.2646C5.65123 14.0478 5.76015 13.881 5.83008 13.7529C5.86518 13.6887 5.89505 13.6253 5.91504 13.5645C5.93477 13.5044 5.95006 13.4304 5.93848 13.3506C5.91112 13.1624 5.76234 13.0782 5.68262 13.04C5.63875 13.019 5.58867 12.9999 5.54395 12.9824L5.39355 12.9209C4.66772 12.6057 4.00399 12.3681 3.52148 11.9531C3.09605 11.5873 2.80724 11.0752 2.83594 10.1963L2.84668 10.0146C2.8955 9.36144 3.30094 8.51967 3.90137 7.8418C4.50486 7.16058 5.24799 6.70767 5.93164 6.72754C6.76057 6.75198 7.35372 7.1633 7.81348 7.62402C8.04525 7.85628 8.23644 8.09338 8.41113 8.30176C8.49655 8.40364 8.57982 8.50182 8.66016 8.58301C8.73837 8.66202 8.82795 8.74084 8.92676 8.79102L9.10547 8.88086L9.23242 8.72754C9.28199 8.66774 9.57288 8.26283 9.96973 7.70703C10.372 7.1436 10.8947 6.40916 11.417 5.6748C11.9394 4.94034 12.4618 4.20565 12.8643 3.6416C13.0654 3.35976 13.2363 3.12041 13.3623 2.94531C13.4254 2.8577 13.4773 2.78583 13.5156 2.7334C13.5347 2.70724 13.5506 2.68583 13.5625 2.66992C13.5683 2.66212 13.5735 2.65616 13.5771 2.65137C13.5789 2.64904 13.58 2.6469 13.5811 2.64551L13.583 2.64355C14.062 2.05513 14.4421 1.56891 14.7949 1.18359C15.1469 0.799239 15.4511 0.539672 15.7656 0.393555ZM17.6055 16.1592C14.5173 16.096 11.3025 17.6376 8.9541 21.2256C8.84026 21.3996 8.68022 21.65 8.59082 21.9033C8.50516 22.1461 8.45224 22.4887 8.70215 22.7471C9.15351 23.2137 10.1143 23.9851 11.3125 24.874C12.5163 25.7671 13.9753 26.7904 15.4336 27.7666C16.8917 28.7426 18.3522 29.6728 19.5596 30.3779C20.163 30.7303 20.7059 31.0285 21.1553 31.248C21.5958 31.4633 21.9715 31.6163 22.2305 31.6592C22.3451 31.6781 22.4665 31.6787 22.5928 31.6289C22.7129 31.5815 22.8118 31.4981 22.9043 31.3994C23.0812 31.2107 23.3147 30.8758 23.6914 30.3701C26.2094 26.9959 26.4303 22.232 23.9199 19.1631C24.0299 19.1644 24.1714 19.1675 24.3271 19.165C25.0022 19.1543 26.0279 19.0411 27.1211 18.2686L27.3408 18.1055C28.3639 17.3026 28.897 16.296 29.0254 15.2529C29.1532 14.2143 28.8779 13.1556 28.3174 12.2412C27.1974 10.4141 24.9126 9.12434 22.2939 9.68066C19.7394 10.2238 18.3497 12.3283 18.4795 14.2998L18.4971 14.4902C18.5639 15.1167 18.7481 15.7235 19.0371 16.2812C18.723 16.221 18.2364 16.1344 17.6055 16.1592Z" fill="#5A47FB" stroke="#212121" stroke-width="0.5"/>
<path d="M20.2747 17.6836L20.5725 17.8535C21.0676 18.1435 21.581 18.4215 21.9094 18.6553C21.9738 18.7011 22.0264 18.7434 22.0686 18.7803C21.6626 18.9098 21.4099 18.9637 21.1692 19.0352C20.9157 19.1104 20.7124 19.2011 20.5305 19.4219C20.3658 19.6218 20.2284 19.9181 20.0481 20.3594C19.8697 20.7957 19.6173 21.4572 19.2551 22.3506C18.8768 23.2839 18.6149 23.9748 18.4192 24.4844C18.2211 25.0003 18.0955 25.316 17.9875 25.5176C17.8841 25.7106 17.818 25.7573 17.7551 25.7822C17.7142 25.7985 17.6587 25.8108 17.5715 25.8213C17.4821 25.832 17.3806 25.8389 17.2405 25.8506C16.6044 25.9038 15.9667 25.9253 15.3274 25.916C15.3035 25.8812 15.2684 25.8034 15.22 25.6309C15.1725 25.4618 15.1197 25.2335 15.0461 24.9209C14.9732 24.6109 14.8819 24.2244 14.759 23.7471V23.7461C14.7329 23.6446 14.7363 23.6145 14.7405 23.5996C14.7452 23.5828 14.7634 23.5419 14.8586 23.4502C14.9533 23.3591 15.0967 23.2433 15.3167 23.0693C15.5331 22.8982 15.8158 22.6766 16.177 22.3818C18.2361 20.7022 19.2602 19.8916 19.7542 19.4668C19.9916 19.2625 20.141 19.1198 20.2141 18.9941C20.2585 18.9177 20.2808 18.8391 20.2786 18.7549C20.277 18.6988 20.2625 18.6415 20.2551 18.6123C20.1926 18.2327 20.1485 17.9565 20.1301 17.7588C20.1245 17.6986 20.1219 17.6493 20.1213 17.6094C20.1643 17.6284 20.2155 17.6516 20.2747 17.6836Z" fill="#5A47FB" stroke="#212121" stroke-width="0.5"/>
</svg>
