<svg width="44" height="20" viewBox="0 0 44 20" fill="none" xmlns="http://www.w3.org/2000/svg">
<path d="M43.9794 18.9844C43.435 13.096 43.564 7.11376 43.2116 1.25767C43.2014 0.916728 43.0537 0.593586 42.8009 0.358806C42.548 0.124025 42.2105 -0.00332124 41.862 0.00457702C28.5792 -0.0262368 14.5931 0.0984865 1.31023 0.380213C1.13902 0.378942 0.969313 0.411516 0.811283 0.475981C0.653254 0.540447 0.510156 0.635478 0.39057 0.755373C0.270985 0.875268 0.177375 1.01756 0.115352 1.17371C0.0533289 1.32987 0.0241719 1.49667 0.0296281 1.66412C0.0296281 5.0463 0.0611183 14.537 0.0296281 19.1091C-0.00492694 19.2223 -0.00933578 19.3422 0.0168205 19.4575C0.0429768 19.5728 0.0988289 19.6796 0.17907 19.7679C0.259311 19.8561 0.361274 19.9228 0.47527 19.9616C0.589266 20.0004 0.711508 20.01 0.830378 19.9895H43.0197C43.1713 20.0104 43.3257 19.9957 43.4704 19.9467C43.6151 19.8978 43.7459 19.8159 43.8519 19.7078C43.9853 19.4918 44.0308 19.2346 43.9794 18.9874V18.9844ZM9.09278 10.3081C10.5683 11.2765 11.9126 12.4238 13.0935 13.7226C14.3726 15.4834 11.7814 14.9757 7.20338 12.5942L5.47592 11.6551L4.61069 11.1548L4.19532 10.9039C3.97625 10.7806 3.78981 10.6087 3.65099 10.402C3.44455 10.1248 3.32271 9.79587 3.29962 9.45355C3.27652 9.11123 3.35313 8.76953 3.52053 8.4681C3.74234 8.11403 4.06493 7.831 4.44874 7.65374L4.70366 7.52902L5.15352 7.3412L6.01875 6.93328C6.59457 6.68237 7.1389 6.46374 7.71472 6.21283C9.35223 5.47271 11.0859 4.95627 12.8671 4.678C15.0444 4.52247 13.188 6.46374 8.7389 9.00074L7.90666 9.44094C8.28574 9.75422 8.68114 10.0481 9.09129 10.3213L9.09278 10.3081ZM23.7882 8.11595C22.3801 11.2795 20.1383 14.443 18.7633 15.1591C17.3867 15.9104 17.4137 13.906 18.8262 10.8056C20.2343 7.67282 22.4761 4.51073 23.8512 3.79027C25.1917 3.039 25.1917 4.98468 23.7837 8.11595H23.7882ZM39.6637 9.58327C39.5928 10.039 39.3672 10.4581 39.0234 10.7733C37.9984 11.5807 36.9297 12.3336 35.8219 13.0285C34.3646 14.0852 32.7584 14.9294 31.0534 15.5347C28.9721 16.0982 30.4776 13.7739 34.2864 10.4915L35.1501 9.74027C34.7332 9.58327 34.3494 9.39545 33.9985 9.23992C32.3239 8.56442 30.7514 7.66842 29.3244 6.57672C27.7559 5.13581 30.4446 5.13581 35.3735 6.609L37.23 7.17246L38.1582 7.485L38.4146 7.54809C38.588 7.60428 38.7503 7.68915 38.8944 7.79901C39.1431 8.02716 39.3401 8.30386 39.4726 8.61122C39.6052 8.91858 39.6702 9.24974 39.6637 9.58327Z" fill="#5A47FB" stroke="#212121"/>
</svg>
