<svg width="25" height="35" viewBox="0 0 25 35" fill="none" xmlns="http://www.w3.org/2000/svg">
<mask id="path-1-inside-1_122_3829" fill="white">
<path d="M2.62695 24.8984C4.01398 27.1938 4.83253 29.7881 5.01367 32.4639C5.02065 33.0359 4.83202 33.5932 4.47852 34.043C4.12494 34.4928 3.62786 34.8082 3.07031 34.9365C2.51271 35.0648 1.92769 34.9981 1.41309 34.748C0.898528 34.4979 0.484857 34.0792 0.241211 33.5615C-0.140607 32.7263 -0.475318 30.3393 2.62695 24.8984ZM19.6123 0.126953C20.3445 -0.0426125 21.106 -0.0427305 21.8379 0.12793C22.6397 0.483015 23.2989 1.0975 23.71 1.87207C24.121 2.64665 24.2598 3.53735 24.1045 4.40039C23.7422 6.12178 22.8189 7.67412 21.4795 8.81445C20.0858 10.1925 18.4732 11.33 16.707 12.1797C16.5359 12.2433 16.3748 12.332 16.2295 12.4424C15.6095 12.9436 15.8477 13.8265 16.2295 14.4707C16.6113 15.115 16.9931 15.9265 16.6113 16.5469C16.4286 16.7621 16.184 16.9158 15.9111 16.9883C15.6382 17.0607 15.3495 17.0484 15.084 16.9521C14.4455 16.5793 13.8664 16.1129 13.3662 15.5684C11.0344 18.0518 8.4692 20.3054 5.70605 22.2979C4.48907 22.799 2.34105 23.0612 2.34082 21.2002C2.34082 19.3388 8.09204 13.0623 9.5 11.6543C9.40326 11.5576 8.13965 10.3656 8.13965 10.3418C8.14297 10.3125 9.19074 8.55326 9.95312 8.62402C10.7168 8.69561 11.4568 9.60195 12.125 9.19629C12.4046 8.96133 12.5837 8.62841 12.626 8.26562C13.3867 5.36326 15.1552 2.82564 17.6143 1.10645C18.1966 0.631488 18.8802 0.296527 19.6123 0.126953ZM9.8584 11.9648C8.0209 14.1842 5.89616 16.1888 4.27344 18.5752C3.73558 19.1832 3.35116 19.9112 3.15234 20.6982C3.03303 23.1085 6.44585 21.1039 7.40039 20.3164C9.33317 18.6699 11.1225 16.9039 12.9121 15.1143C12.0771 14.3507 10.0513 12.1341 9.8584 11.9648Z"/>
</mask>
<path d="M2.62695 24.8984C4.01398 27.1938 4.83253 29.7881 5.01367 32.4639C5.02065 33.0359 4.83202 33.5932 4.47852 34.043C4.12494 34.4928 3.62786 34.8082 3.07031 34.9365C2.51271 35.0648 1.92769 34.9981 1.41309 34.748C0.898528 34.4979 0.484857 34.0792 0.241211 33.5615C-0.140607 32.7263 -0.475318 30.3393 2.62695 24.8984ZM19.6123 0.126953C20.3445 -0.0426125 21.106 -0.0427305 21.8379 0.12793C22.6397 0.483015 23.2989 1.0975 23.71 1.87207C24.121 2.64665 24.2598 3.53735 24.1045 4.40039C23.7422 6.12178 22.8189 7.67412 21.4795 8.81445C20.0858 10.1925 18.4732 11.33 16.707 12.1797C16.5359 12.2433 16.3748 12.332 16.2295 12.4424C15.6095 12.9436 15.8477 13.8265 16.2295 14.4707C16.6113 15.115 16.9931 15.9265 16.6113 16.5469C16.4286 16.7621 16.184 16.9158 15.9111 16.9883C15.6382 17.0607 15.3495 17.0484 15.084 16.9521C14.4455 16.5793 13.8664 16.1129 13.3662 15.5684C11.0344 18.0518 8.4692 20.3054 5.70605 22.2979C4.48907 22.799 2.34105 23.0612 2.34082 21.2002C2.34082 19.3388 8.09204 13.0623 9.5 11.6543C9.40326 11.5576 8.13965 10.3656 8.13965 10.3418C8.14297 10.3125 9.19074 8.55326 9.95312 8.62402C10.7168 8.69561 11.4568 9.60195 12.125 9.19629C12.4046 8.96133 12.5837 8.62841 12.626 8.26562C13.3867 5.36326 15.1552 2.82564 17.6143 1.10645C18.1966 0.631488 18.8802 0.296527 19.6123 0.126953ZM9.8584 11.9648C8.0209 14.1842 5.89616 16.1888 4.27344 18.5752C3.73558 19.1832 3.35116 19.9112 3.15234 20.6982C3.03303 23.1085 6.44585 21.1039 7.40039 20.3164C9.33317 18.6699 11.1225 16.9039 12.9121 15.1143C12.0771 14.3507 10.0513 12.1341 9.8584 11.9648Z" fill="#5A47FB"/>
<path d="M2.62695 24.8984L3.48283 24.3813L2.60191 22.9235L1.75824 24.4031L2.62695 24.8984ZM5.01367 32.4639L6.0136 32.4517L6.01326 32.424L6.01139 32.3963L5.01367 32.4639ZM4.47852 34.043L5.2647 34.661L5.26474 34.6609L4.47852 34.043ZM3.07031 34.9365L3.29446 35.9111L3.29458 35.911L3.07031 34.9365ZM1.41309 34.748L0.975904 35.6474L0.975973 35.6475L1.41309 34.748ZM0.241211 33.5615L-0.66832 33.9773L-0.663576 33.9874L0.241211 33.5615ZM19.6123 0.126953L19.3867 -0.847262L19.3866 -0.847252L19.6123 0.126953ZM21.8379 0.12793L22.2428 -0.786416L22.1567 -0.824558L22.065 -0.845948L21.8379 0.12793ZM23.71 1.87207L24.5933 1.40328L24.5933 1.40328L23.71 1.87207ZM24.1045 4.40039L25.0831 4.60633L25.0861 4.59196L25.0887 4.5775L24.1045 4.40039ZM21.4795 8.81445L20.8312 8.05302L20.8029 8.07716L20.7764 8.10335L21.4795 8.81445ZM16.707 12.1797L17.0556 13.117L17.0989 13.1009L17.1406 13.0808L16.707 12.1797ZM16.2295 12.4424L15.6246 11.6461L15.6126 11.6552L15.6009 11.6647L16.2295 12.4424ZM16.2295 14.4707L17.0898 13.9609L17.0898 13.9609L16.2295 14.4707ZM16.6113 16.5469L17.3736 17.1941L17.423 17.1359L17.463 17.071L16.6113 16.5469ZM15.9111 16.9883L16.1677 17.9548L16.1679 17.9548L15.9111 16.9883ZM15.084 16.9521L14.5798 17.8157L14.6579 17.8614L14.743 17.8922L15.084 16.9521ZM13.3662 15.5684L14.1026 14.8918L13.3742 14.0989L12.6372 14.8839L13.3662 15.5684ZM5.70605 22.2979L6.0868 23.2225L6.19555 23.1778L6.29094 23.109L5.70605 22.2979ZM2.34082 21.2002H1.34082V21.2003L2.34082 21.2002ZM9.5 11.6543L10.2071 12.3614L10.9145 11.654L10.2068 10.9469L9.5 11.6543ZM8.13965 10.3418L7.14601 10.2292L7.13965 10.2853V10.3418H8.13965ZM9.95312 8.62402L10.0465 7.62839L10.0456 7.6283L9.95312 8.62402ZM12.125 9.19629L12.644 10.0511L12.7096 10.0113L12.7683 9.9619L12.125 9.19629ZM12.626 8.26562L11.6587 8.01209L11.6408 8.08014L11.6327 8.15001L12.626 8.26562ZM17.6143 1.10645L18.1872 1.92601L18.2176 1.90478L18.2463 1.88136L17.6143 1.10645ZM9.8584 11.9648L10.518 11.2133L9.74451 10.5344L9.08814 11.3271L9.8584 11.9648ZM4.27344 18.5752L5.02242 19.2378L5.06458 19.1901L5.10036 19.1375L4.27344 18.5752ZM3.15234 20.6982L2.1828 20.4533L2.15848 20.5496L2.15357 20.6488L3.15234 20.6982ZM7.40039 20.3164L8.03677 21.0878L8.04286 21.0828L8.04887 21.0776L7.40039 20.3164ZM12.9121 15.1143L13.6192 15.8214L14.3586 15.0819L13.5869 14.3763L12.9121 15.1143ZM2.62695 24.8984L1.77108 25.4156C3.07569 27.5746 3.84559 30.0147 4.01596 32.5314L5.01367 32.4639L6.01139 32.3963C5.81948 29.5615 4.95228 26.813 3.48283 24.3813L2.62695 24.8984ZM5.01367 32.4639L4.01375 32.4761C4.01795 32.8202 3.90445 33.1551 3.6923 33.425L4.47852 34.043L5.26474 34.6609C5.75959 34.0313 6.02336 33.2515 6.0136 32.4517L5.01367 32.4639ZM4.47852 34.043L3.69234 33.425C3.47983 33.6953 3.18102 33.8849 2.84604 33.962L3.07031 34.9365L3.29458 35.911C4.0747 35.7315 4.77005 35.2902 5.2647 34.661L4.47852 34.043ZM3.07031 34.9365L2.84617 33.962C2.51127 34.039 2.15958 33.999 1.8502 33.8486L1.41309 34.748L0.975973 35.6475C1.69579 35.9973 2.51415 36.0905 3.29446 35.9111L3.07031 34.9365ZM1.41309 34.748L1.85027 33.8487C1.54095 33.6983 1.29235 33.4466 1.146 33.1357L0.241211 33.5615L-0.663576 33.9874C-0.322637 34.7117 0.256106 35.2975 0.975904 35.6474L1.41309 34.748ZM0.241211 33.5615L1.15069 33.1458C0.977106 32.7661 0.436125 30.7597 3.49566 25.3938L2.62695 24.8984L1.75824 24.4031C-1.38676 29.919 -1.25832 32.6865 -0.668264 33.9773L0.241211 33.5615ZM19.6123 0.126953L19.8379 1.10117C20.4218 0.965954 21.0284 0.966005 21.6108 1.10181L21.8379 0.12793L22.065 -0.845948C21.1835 -1.05147 20.2672 -1.05118 19.3867 -0.847262L19.6123 0.126953ZM21.8379 0.12793L21.433 1.04228C22.0296 1.30651 22.5205 1.76394 22.8267 2.34086L23.71 1.87207L24.5933 1.40328C24.0773 0.431062 23.2498 -0.340476 22.2428 -0.786416L21.8379 0.12793ZM23.71 1.87207L22.8266 2.34086C23.1326 2.91726 23.236 3.58048 23.1203 4.22328L24.1045 4.40039L25.0887 4.5775C25.2836 3.49422 25.1095 2.37603 24.5933 1.40328L23.71 1.87207ZM24.1045 4.40039L23.1259 4.19445C22.8093 5.69915 22.0022 7.05613 20.8312 8.05302L21.4795 8.81445L22.1277 9.57588C23.6357 8.2921 24.6752 6.54442 25.0831 4.60633L24.1045 4.40039ZM21.4795 8.81445L20.7764 8.10335C19.4613 9.40366 17.9397 10.4769 16.2735 11.2786L16.707 12.1797L17.1406 13.0808C19.0066 12.183 20.7103 10.9813 22.1826 9.52556L21.4795 8.81445ZM16.707 12.1797L16.3585 11.2424C16.0953 11.3402 15.8479 11.4764 15.6246 11.6461L16.2295 12.4424L16.8344 13.2387C16.9018 13.1875 16.9765 13.1464 17.0556 13.117L16.707 12.1797ZM16.2295 12.4424L15.6009 11.6647C14.9687 12.1757 14.808 12.8838 14.8572 13.4845C14.9036 14.0524 15.1334 14.5827 15.3692 14.9805L16.2295 14.4707L17.0898 13.9609C16.9438 13.7145 16.8636 13.4813 16.8505 13.3213C16.8446 13.2492 16.8547 13.2202 16.8549 13.2193C16.8551 13.219 16.8548 13.2198 16.854 13.2214C16.8532 13.2229 16.8522 13.2245 16.8513 13.2258C16.8488 13.2293 16.8494 13.2271 16.8581 13.2201L16.2295 12.4424ZM16.2295 14.4707L15.3692 14.9805C15.5494 15.2846 15.6812 15.5512 15.74 15.7734C15.7677 15.8783 15.7713 15.9457 15.7688 15.9827C15.7667 16.0132 15.7611 16.0204 15.7597 16.0228L16.6113 16.5469L17.463 17.071C17.8512 16.4402 17.8075 15.7687 17.6735 15.2621C17.5414 14.7624 17.2914 14.3011 17.0898 13.9609L16.2295 14.4707ZM16.6113 16.5469L15.849 15.8997C15.7993 15.9582 15.7317 16.0013 15.6544 16.0218L15.9111 16.9883L16.1679 17.9548C16.6363 17.8303 17.0578 17.566 17.3736 17.1941L16.6113 16.5469ZM15.9111 16.9883L15.6546 16.0218C15.5777 16.0422 15.4975 16.0384 15.4249 16.0121L15.084 16.9521L14.743 17.8922C15.2014 18.0585 15.6987 18.0793 16.1677 17.9548L15.9111 16.9883ZM15.084 16.9521L15.5882 16.0886C15.036 15.7662 14.5352 15.3628 14.1026 14.8918L13.3662 15.5684L12.6298 16.2449C13.1976 16.863 13.8549 17.3925 14.5798 17.8157L15.084 16.9521ZM13.3662 15.5684L12.6372 14.8839C10.3493 17.3206 7.83233 19.5318 5.12117 21.4867L5.70605 22.2979L6.29094 23.109C9.10608 21.079 11.7196 18.7831 14.0952 16.2529L13.3662 15.5684ZM5.70605 22.2979L5.3253 21.3732C4.807 21.5866 4.15879 21.7131 3.71697 21.6461C3.51143 21.615 3.43707 21.5557 3.4165 21.5343C3.41083 21.5284 3.34085 21.4636 3.34082 21.2001L2.34082 21.2002L1.34082 21.2003C1.3409 21.8674 1.53951 22.4676 1.97469 22.9203C2.39497 23.3575 2.93372 23.5503 3.41734 23.6235C4.35383 23.7654 5.38813 23.5102 6.0868 23.2225L5.70605 22.2979ZM2.34082 21.2002H3.34082C3.34082 21.2059 3.34086 21.1689 3.36724 21.0766C3.3926 20.9878 3.43544 20.8717 3.50128 20.7267C3.63371 20.4349 3.836 20.0765 4.10241 19.6625C4.63421 18.8359 5.37041 17.866 6.16723 16.8894C7.75966 14.9378 9.52685 13.0417 10.2071 12.3614L9.5 11.6543L8.79289 10.9472C8.06519 11.6749 6.25279 13.621 4.61762 15.625C3.80063 16.6263 3.01104 17.6625 2.42048 18.5803C2.12572 19.0384 1.86769 19.4868 1.68011 19.9C1.50357 20.2889 1.34082 20.7493 1.34082 21.2002H2.34082ZM9.5 11.6543L10.2068 10.9469C10.1477 10.8879 9.78828 10.5473 9.47399 10.2474C9.31026 10.0911 9.15208 9.93949 9.03559 9.82626C8.97665 9.76897 8.9324 9.7254 8.90451 9.69726C8.88937 9.68198 8.8859 9.67812 8.88908 9.68157C8.89044 9.68304 8.89362 9.68652 8.89804 9.69153C8.90196 9.69598 8.91019 9.70542 8.92059 9.71828C8.92789 9.72729 8.95183 9.75698 8.97886 9.79854C8.99174 9.81835 9.01875 9.8612 9.04596 9.91947C9.05958 9.94864 9.13965 10.1137 9.13965 10.3418H8.13965H7.13965C7.13965 10.5702 7.21987 10.7358 7.2338 10.7657C7.26131 10.8246 7.28878 10.8682 7.30227 10.889C7.33052 10.9324 7.35627 10.9645 7.36596 10.9765C7.38875 11.0047 7.4095 11.0273 7.41865 11.0372C7.44038 11.0608 7.46415 11.0851 7.48375 11.1049C7.52535 11.1469 7.58057 11.2011 7.64161 11.2604C7.76507 11.3804 7.92883 11.5373 8.0931 11.6941C8.25775 11.8513 8.42565 12.0109 8.55716 12.1361C8.62321 12.199 8.67977 12.2529 8.72268 12.2939C8.74417 12.3144 8.76158 12.3311 8.77472 12.3438C8.78962 12.3582 8.79426 12.3628 8.79319 12.3617L9.5 11.6543ZM8.13965 10.3418L9.13329 10.4544C9.12023 10.5697 9.08907 10.656 9.08424 10.6698C9.07355 10.7005 9.06361 10.7241 9.05861 10.7356C9.04823 10.7597 9.03941 10.7773 9.03656 10.783C9.03265 10.7908 9.02973 10.7963 9.02851 10.7985C9.02778 10.7999 9.02724 10.8009 9.02691 10.8015C9.02658 10.8021 9.02639 10.8025 9.02637 10.8025C9.02635 10.8025 9.02677 10.8018 9.02769 10.8001C9.0286 10.7986 9.02986 10.7964 9.0315 10.7935C9.0348 10.7879 9.03922 10.7804 9.0448 10.7711C9.06755 10.7331 9.10421 10.6742 9.15234 10.6011C9.24947 10.4536 9.38356 10.2635 9.5339 10.0808C9.68952 9.89169 9.83511 9.7443 9.95187 9.65599C10.1002 9.54378 10.052 9.6375 9.8607 9.61974L9.95312 8.62402L10.0456 7.6283C9.47306 7.57516 9.00797 7.86225 8.74534 8.0609C8.45111 8.28346 8.19161 8.56444 7.98957 8.80995C7.78226 9.06188 7.60613 9.31263 7.48205 9.50104C7.41957 9.59591 7.36787 9.67864 7.32971 9.74225C7.31103 9.77339 7.29321 9.80393 7.278 9.8313C7.27102 9.84387 7.26042 9.86325 7.2494 9.88519C7.24444 9.89505 7.23401 9.91609 7.22252 9.9427C7.21696 9.95556 7.20659 9.98021 7.1956 10.0118C7.19046 10.0265 7.15912 10.1135 7.14601 10.2292L8.13965 10.3418ZM9.95312 8.62402L9.85979 9.61966C9.87958 9.62151 9.94537 9.63467 10.0925 9.70439C10.284 9.79512 10.3516 9.84343 10.6221 9.98076C10.9717 10.1583 11.8001 10.5634 12.644 10.0511L12.125 9.19629L11.606 8.34149C11.7818 8.23481 11.906 8.38961 11.5276 8.19749C11.4341 8.14999 11.1318 7.98365 10.9488 7.89699C10.7216 7.78931 10.4085 7.66233 10.0465 7.62839L9.95312 8.62402ZM12.125 9.19629L12.7683 9.9619C13.2434 9.56269 13.5476 8.99715 13.6193 8.38124L12.626 8.26562L11.6327 8.15001C11.6199 8.25966 11.5658 8.35998 11.4817 8.43068L12.125 9.19629ZM12.626 8.26562L13.5933 8.51916C14.2938 5.8464 15.9225 3.50935 18.1872 1.92601L17.6143 1.10645L17.0413 0.286882C14.3879 2.14194 12.4795 4.88012 11.6587 8.01209L12.626 8.26562ZM17.6143 1.10645L18.2463 1.88136C18.71 1.50318 19.2546 1.23629 19.838 1.10116L19.6123 0.126953L19.3866 -0.847252C18.5059 -0.643238 17.6831 -0.240202 16.9822 0.331527L17.6143 1.10645ZM9.8584 11.9648L9.08814 11.3271C8.18564 12.4171 7.22496 13.4401 6.2402 14.5405C5.2692 15.6255 4.29632 16.7632 3.44651 18.0129L4.27344 18.5752L5.10036 19.1375C5.87328 18.0009 6.77413 16.943 7.73055 15.8742C8.67322 14.8209 9.69366 13.7319 10.6287 12.6026L9.8584 11.9648ZM4.27344 18.5752L3.52445 17.9126C2.88076 18.6402 2.42072 19.5115 2.1828 20.4533L3.15234 20.6982L4.12189 20.9432C4.28159 20.3109 4.59039 19.7261 5.02242 19.2378L4.27344 18.5752ZM3.15234 20.6982L2.15357 20.6488C2.13348 21.0546 2.1814 21.4673 2.36013 21.8393C2.54968 22.2337 2.85716 22.5194 3.23182 22.6828C3.90028 22.9743 4.65003 22.8235 5.17108 22.6612C6.28565 22.314 7.49029 21.5386 8.03677 21.0878L7.40039 20.3164L6.76401 19.545C6.35595 19.8817 5.3769 20.5023 4.57626 20.7517C4.1397 20.8877 3.99896 20.8354 4.03124 20.8495C4.08781 20.8742 4.14078 20.9272 4.1628 20.973C4.174 20.9963 4.14138 20.9444 4.15112 20.7477L3.15234 20.6982ZM7.40039 20.3164L8.04887 21.0776C10.0152 19.4025 11.8297 17.6109 13.6192 15.8214L12.9121 15.1143L12.205 14.4072C10.4153 16.1969 8.65108 17.9373 6.75192 19.5552L7.40039 20.3164ZM12.9121 15.1143L13.5869 14.3763C13.2016 14.0239 12.5133 13.3081 11.8707 12.6292C11.5518 12.2924 11.2613 11.9829 11.0264 11.7342C10.8217 11.5175 10.612 11.2958 10.518 11.2133L9.8584 11.9648L9.19876 12.7164C9.18442 12.7038 9.20453 12.722 9.2908 12.8115C9.36256 12.8859 9.45786 12.9863 9.57261 13.1077C9.79787 13.3462 10.1022 13.6703 10.4182 14.0042C11.0455 14.6668 11.7876 15.441 12.2373 15.8522L12.9121 15.1143Z" fill="#212121" mask="url(#path-1-inside-1_122_3829)"/>
</svg>
