<svg width="250" height="250" viewBox="0 0 250 250" fill="none" xmlns="http://www.w3.org/2000/svg">
<path d="M142.881 50.5375C142.531 50.4875 142.125 50.4937 142.048 50.805C140.019 56.6425 109.728 153.271 109.728 153.485C109.728 153.626 109.84 153.824 109.996 153.837C110.729 153.946 184.323 174.07 187.121 174.989C187.303 175.042 187.498 175.025 187.668 174.942C187.838 174.858 187.97 174.714 188.039 174.537C188.943 171.84 218.65 77.0262 220.345 72.2112C220.374 72.1482 220.378 72.0761 220.354 72.0106C220.331 71.9452 220.283 71.8915 220.22 71.8612C217.484 70.7637 143.151 50.5825 142.881 50.5375ZM187.316 174.212C186.866 174.022 110.603 153.167 110.476 153.146C110.503 153.021 136.809 69.535 137.84 66.1825C147.795 68.865 209.201 85.4125 214.765 86.91C214.581 87.4875 188.205 171.545 187.316 174.212Z" fill="#5A47FB"/>
<path d="M165.769 77.6901C165.84 77.4926 165.519 77.3926 165.444 77.6051C163.826 82.5089 142.481 156.48 142.02 157.863C142.01 157.91 142.019 157.959 142.044 158.001C142.07 158.042 142.11 158.072 142.157 158.085C142.203 158.097 142.253 158.091 142.296 158.069C142.339 158.046 142.371 158.007 142.386 157.961C143.895 153.366 165.738 77.8151 165.769 77.6901Z" fill="#5A47FB"/>
<path d="M128.889 109.954C130.638 110.56 132.432 111.027 134.254 111.351C136.104 111.803 146.934 114.641 147.823 114.881C148.681 115.165 149.558 115.387 150.448 115.545C150.745 115.588 150.871 115.108 150.604 114.98C149.76 114.656 148.891 114.401 148.005 114.218C147.115 113.978 136.229 111.154 134.436 110.701C132.638 110.164 130.802 109.758 128.944 109.488C128.663 109.459 128.66 109.859 128.889 109.954Z" fill="#5A47FB"/>
<path d="M127.927 114.429C129.683 115.013 131.476 115.48 133.294 115.828C135.144 116.279 145.974 119.118 146.862 119.358C147.72 119.641 148.598 119.863 149.487 120.021C149.784 120.064 149.911 119.583 149.642 119.456C148.799 119.132 147.93 118.877 147.045 118.694C146.155 118.454 135.269 115.63 133.476 115.178C131.677 114.64 129.842 114.234 127.984 113.964C127.702 113.935 127.702 114.343 127.927 114.429Z" fill="#5A47FB"/>
<path d="M141.737 143.685C140.892 143.366 140.023 143.111 139.139 142.924C138.25 142.683 127.364 139.859 125.57 139.408C123.771 138.87 121.935 138.464 120.077 138.194C119.795 138.165 119.795 138.56 120.021 138.659C121.774 139.252 123.567 139.719 125.386 140.058C127.236 140.509 138.066 143.348 138.955 143.588C139.813 143.871 140.69 144.092 141.58 144.25C141.646 144.249 141.709 144.226 141.761 144.186C141.813 144.146 141.851 144.09 141.869 144.026C141.886 143.963 141.883 143.895 141.859 143.834C141.836 143.772 141.793 143.72 141.737 143.685Z" fill="#5A47FB"/>
<path d="M140.777 148.161C139.932 147.842 139.063 147.587 138.179 147.399C137.29 147.159 126.402 144.335 124.61 143.884C122.811 143.346 120.975 142.94 119.117 142.669C118.835 142.641 118.835 143.036 119.061 143.135C120.814 143.728 122.607 144.195 124.426 144.533C126.276 144.985 137.106 147.823 137.995 148.063C138.853 148.347 139.73 148.569 140.62 148.726C140.686 148.725 140.749 148.703 140.801 148.662C140.853 148.622 140.891 148.566 140.909 148.502C140.926 148.439 140.923 148.372 140.9 148.31C140.876 148.249 140.833 148.197 140.777 148.161Z" fill="#5A47FB"/>
<path d="M202.1 103.36C200.438 102.749 198.74 102.24 197.016 101.835C194.843 101.185 181.456 97.175 176.91 95.9037C174.976 95.2585 172.993 94.7723 170.98 94.4499C170.698 94.4212 170.683 94.8249 170.923 94.9162C172.575 95.5412 174.354 95.8762 176.048 96.37C181.813 98.0287 200.953 103.809 201.9 103.939C202.17 103.952 202.453 103.514 202.1 103.36Z" fill="#5A47FB"/>
<path d="M201.14 107.835C199.48 107.219 197.782 106.71 196.056 106.31C193.881 105.661 180.496 101.651 175.95 100.38C174.016 99.7349 172.032 99.2487 170.019 98.9263C169.738 98.8975 169.723 99.3013 169.963 99.3913C171.615 100.016 173.394 100.353 175.088 100.846C180.854 102.5 200 108.285 200.941 108.414C201.21 108.429 201.48 107.988 201.14 107.835Z" fill="#5A47FB"/>
<path d="M199.728 112.311C198.061 111.715 196.364 111.206 194.644 110.786C192.47 110.137 179.084 106.127 174.538 104.856C172.604 104.211 170.621 103.725 168.608 103.401C168.325 103.374 168.312 103.776 168.552 103.867C170.203 104.492 171.983 104.827 173.676 105.322C179.441 106.98 198.581 112.761 199.53 112.89C199.798 112.905 200.079 112.457 199.728 112.311Z" fill="#5A47FB"/>
<path d="M190.662 138.165C188.996 137.568 187.299 137.059 185.579 136.64C183.405 135.99 170.019 131.98 165.472 130.71C163.539 130.064 161.555 129.578 159.542 129.255C159.26 129.227 159.246 129.636 159.486 129.721C161.137 130.346 162.917 130.681 164.611 131.175C170.376 132.834 189.516 138.615 190.465 138.744C190.732 138.757 191.014 138.311 190.662 138.165Z" fill="#5A47FB"/>
<path d="M189.703 142.641C188.036 142.044 186.339 141.535 184.619 141.116C182.445 140.466 169.059 136.456 164.513 135.185C162.579 134.54 160.595 134.054 158.583 133.731C158.3 133.702 158.286 134.112 158.525 134.197C160.178 134.822 161.956 135.157 163.65 135.651C169.415 137.309 188.555 143.09 189.504 143.22C189.773 143.234 190.054 142.787 189.703 142.641Z" fill="#5A47FB"/>
<path d="M188.305 147.102C186.645 146.486 184.947 145.977 183.221 145.577C181.046 144.929 167.661 140.919 163.115 139.647C161.181 139.003 159.197 138.516 157.184 138.192C156.903 138.165 156.888 138.575 157.128 138.659C158.78 139.284 160.559 139.619 162.253 140.114C168.018 141.771 187.158 147.552 188.105 147.681C188.375 147.696 188.645 147.25 188.305 147.102Z" fill="#5A47FB"/>
<path d="M132.955 102.681C152.909 107.712 152.845 107.987 152.991 107.454C153.367 105.962 153.645 104.448 153.824 102.921C153.824 102.867 153.805 102.814 153.772 102.77C153.739 102.727 153.693 102.696 153.64 102.681C146.89 100.612 141.851 99.5662 134.48 97.655C134.403 97.6357 134.322 97.6469 134.254 97.6863C134.185 97.7257 134.134 97.7902 134.113 97.8662C133.529 99.3025 133.07 100.786 132.738 102.3C132.726 102.339 132.722 102.381 132.727 102.421C132.731 102.462 132.744 102.502 132.764 102.537C132.785 102.573 132.812 102.604 132.845 102.629C132.878 102.654 132.915 102.671 132.955 102.681Z" fill="#5A47FB"/>
<path d="M203.285 93.7013C197.469 92.0763 178.435 87.1213 174.764 86.1613C174.7 86.1444 174.632 86.1491 174.571 86.1747C174.509 86.2002 174.458 86.2451 174.425 86.3025C173.945 86.942 173.643 87.6972 173.55 88.4913C173.532 88.5681 173.543 88.6492 173.583 88.7176C173.622 88.786 173.687 88.8366 173.763 88.8588C183.519 91.4 193.263 93.9838 203.033 96.4413C203.1 96.4591 203.172 96.4498 203.233 96.4155C203.293 96.3812 203.338 96.3245 203.358 96.2575C203.536 95.4988 203.574 94.7138 203.47 93.9413C203.471 93.8862 203.453 93.8325 203.42 93.7888C203.386 93.7452 203.339 93.7143 203.285 93.7013Z" fill="#5A47FB"/>
<path d="M165.006 117.465C164.942 117.448 164.874 117.453 164.813 117.479C164.752 117.504 164.701 117.549 164.668 117.606C164.187 118.246 163.886 119.001 163.793 119.795C163.774 119.872 163.785 119.953 163.824 120.021C163.864 120.09 163.928 120.14 164.004 120.163C173.761 122.704 183.504 125.288 193.275 127.744C193.342 127.762 193.414 127.753 193.475 127.719C193.535 127.685 193.58 127.628 193.599 127.561C193.778 126.803 193.816 126.018 193.713 125.245C193.671 124.963 195.44 125.425 165.006 117.465Z" fill="#5A47FB"/>
<path d="M124.031 131.274C144.136 136.344 143.924 136.575 144.067 136.047C144.442 134.556 144.721 133.042 144.9 131.515C144.9 131.46 144.882 131.407 144.849 131.363C144.816 131.32 144.769 131.288 144.716 131.274C137.966 129.205 132.927 128.159 125.556 126.247C125.479 126.228 125.398 126.24 125.329 126.279C125.261 126.319 125.21 126.384 125.189 126.46C124.605 127.896 124.145 129.379 123.814 130.894C123.793 130.973 123.805 131.057 123.845 131.128C123.886 131.199 123.953 131.251 124.031 131.274Z" fill="#5A47FB"/>
<path d="M117.465 50.1701C120.326 50.7039 123.08 50.9201 131.769 51.6951C133.327 51.9509 134.909 52.0314 136.485 51.9351C136.696 51.9064 136.654 51.5964 136.485 51.5401C134.987 51.2074 133.458 51.0368 131.924 51.0314C121.674 50.1239 120.849 49.8776 117.536 49.7751C117.296 49.7601 117.239 50.1251 117.465 50.1701Z" fill="#5A47FB"/>
<path d="M144.59 44.9999C144.59 45.0543 144.612 45.1064 144.65 45.1449C144.689 45.1833 144.741 45.2049 144.795 45.2049C144.85 45.2049 144.902 45.1833 144.94 45.1449C144.979 45.1064 145 45.0543 145 44.9999C145.188 41.1249 144.875 38.2736 144.875 30.6111C144.987 29.0617 144.935 27.5047 144.72 25.9661C144.707 25.9237 144.681 25.8865 144.646 25.8601C144.61 25.8336 144.567 25.8193 144.523 25.8193C144.478 25.8193 144.435 25.8336 144.4 25.8601C144.364 25.8865 144.338 25.9237 144.325 25.9661C144.114 27.4567 144.072 28.9662 144.2 30.4661C144.194 33.4299 144.25 41.8361 144.59 44.9999Z" fill="#5A47FB"/>
<path d="M132.743 39.8625C133.773 41.1063 134.79 42.3338 135.835 43.5625C136.749 44.8484 137.811 46.0231 138.998 47.0625C139.181 47.1875 139.365 46.95 139.28 46.78C138.459 45.4832 137.498 44.2806 136.414 43.1938C130.06 35.6213 129.48 34.6175 127.138 32.1238C126.983 31.9538 126.685 32.18 126.813 32.3638C128.591 34.9913 130.721 37.4213 132.743 39.8625Z" fill="#5A47FB"/>
<path d="M243.611 79.44C240.509 78.3737 239.13 78.205 229.816 75.6563C228.332 75.1162 226.793 74.739 225.228 74.5312C225.184 74.5328 225.142 74.5483 225.108 74.5754C225.074 74.6026 225.05 74.64 225.039 74.6821C225.028 74.7241 225.031 74.7687 225.047 74.809C225.063 74.8494 225.092 74.8835 225.129 74.9062C226.53 75.529 227.998 75.9903 229.504 76.2813C236.929 78.3063 240.54 79.32 243.51 79.84C243.563 79.8534 243.619 79.8452 243.666 79.8172C243.713 79.7892 243.747 79.7437 243.761 79.6906C243.774 79.6376 243.766 79.5814 243.738 79.5344C243.71 79.4874 243.664 79.4534 243.611 79.44Z" fill="#5A47FB"/>
<path d="M226.767 47.8126C226.796 47.5863 226.485 47.5626 226.392 47.7138C225.662 49.0641 225.08 50.489 224.655 51.9638C221.395 60.6013 220.632 61.9638 219.515 65.4638C219.445 65.6763 219.784 65.8313 219.882 65.6201C221.295 62.7813 222.367 59.7313 223.525 56.7801C224.105 55.2801 224.684 53.7876 225.247 52.2801C225.926 50.8552 226.436 49.3559 226.767 47.8126Z" fill="#5A47FB"/>
<path d="M232.682 64.9389C235.45 63.3301 238.316 61.7914 240.932 59.9389C240.977 59.9095 241.008 59.8644 241.02 59.8127C241.031 59.761 241.023 59.7068 240.995 59.6613C240.968 59.6158 240.925 59.5825 240.874 59.5683C240.823 59.5541 240.768 59.5601 240.721 59.5851C237.319 61.2788 235.244 62.7651 228.295 66.6739C226.864 67.3459 225.508 68.1676 224.25 69.1251C224.219 69.157 224.2 69.1982 224.194 69.2422C224.189 69.2863 224.198 69.3308 224.221 69.3692C224.243 69.4075 224.277 69.4375 224.318 69.4546C224.359 69.4717 224.405 69.4749 224.447 69.4639C225.88 68.9119 227.245 68.1963 228.514 67.3314C229.901 66.5489 231.299 65.7501 232.682 64.9389Z" fill="#5A47FB"/>
<path d="M148.614 75.1336C146.891 75.3311 144.674 75.9249 143.756 77.5487C143.732 77.5919 143.725 77.6424 143.736 77.6907C143.746 77.739 143.774 77.7818 143.814 77.8112C143.853 77.8405 143.903 77.8544 143.952 77.8503C144.001 77.8461 144.047 77.8242 144.081 77.7887C147.623 74.6286 154.48 74.7274 156.973 79.6237C157.649 81.1043 157.95 82.729 157.848 84.3537C157.866 85.7333 157.537 87.0953 156.891 88.3143C156.244 89.5332 155.301 90.5699 154.149 91.3287C152.644 92.1093 150.964 92.4896 149.27 92.4329C147.576 92.3762 145.925 91.8844 144.476 91.0049C143.601 90.4379 142.858 89.6893 142.297 88.8098C141.736 87.9303 141.371 86.9404 141.226 85.9074C140.959 83.4386 141.569 80.9544 142.949 78.8899C143.048 78.7349 142.808 78.6074 142.709 78.7487C140.139 82.1237 139.701 87.1237 142.738 90.3737C144.15 91.6802 145.9 92.5646 147.789 92.9266C149.679 93.2885 151.632 93.1134 153.426 92.4211C161.305 89.1849 160.416 73.7211 148.614 75.1336Z" fill="#1B1B1B"/>
<path d="M151.438 83.0549C151.708 82.879 151.939 82.6495 152.118 82.3807C152.296 82.1119 152.417 81.8094 152.474 81.4919C152.531 81.1744 152.522 80.8487 152.449 80.5347C152.375 80.2207 152.238 79.9251 152.045 79.6662C150.859 78.1662 147.239 79.5999 148.218 81.9674C148.349 82.2584 148.538 82.5192 148.774 82.7336C149.01 82.948 149.288 83.1113 149.591 83.2134C149.893 83.3154 150.213 83.3541 150.531 83.3268C150.848 83.2995 151.157 83.207 151.438 83.0549Z" fill="#1B1B1B"/>
<path d="M143.969 87.1774C143.872 87.3962 144.19 87.6487 144.321 87.6862C146.75 88.3362 149.196 88.9849 151.55 89.8749C151.641 89.8992 151.738 89.8865 151.82 89.8398C151.902 89.793 151.963 89.7158 151.989 89.6249C152.312 87.5349 151.55 85.2049 149.249 84.7674C148.227 84.5618 147.166 84.6841 146.218 85.1168C145.27 85.5496 144.483 86.2708 143.969 87.1774Z" fill="#1B1B1B"/>
<path d="M88.7873 144.434C88.4486 144.095 87.9686 144.039 87.6436 143.658C87.1636 143.093 87.8836 142.485 88.1524 141.935C88.6755 140.949 88.9424 139.847 88.9286 138.73C88.9148 138.504 88.5761 138.434 88.5198 138.673C88.362 139.911 87.9482 141.103 87.3048 142.173C87.1361 142.44 86.7973 142.751 86.7398 143.076C86.5711 143.895 87.9411 145.039 88.6886 144.813C88.7252 144.8 88.7582 144.778 88.7845 144.75C88.8108 144.722 88.8297 144.687 88.8395 144.65C88.8493 144.612 88.8496 144.573 88.8405 144.535C88.8314 144.497 88.8132 144.463 88.7873 144.434Z" fill="#1B1B1B"/>
<path d="M96.9914 139.167C96.2888 139.695 95.471 140.049 94.6051 140.199C93.6411 140.226 92.6959 139.928 91.9226 139.351C91.7251 139.226 91.5126 139.506 91.6826 139.676C92.1855 140.196 92.8281 140.558 93.5326 140.72C93.5326 140.891 94.0476 141.266 94.5776 141.045C94.63 141.03 94.6762 140.999 94.7091 140.956C94.7421 140.912 94.76 140.859 94.7601 140.805C95.2601 140.789 95.7509 140.667 96.1992 140.445C96.6476 140.223 97.0431 139.908 97.3589 139.52C97.4851 139.309 97.2026 139.052 96.9914 139.167Z" fill="#1B1B1B"/>
<path d="M86.5988 139.464C85.6763 140.005 84.5875 140.769 83.4738 140.354C83.2389 140.221 82.9935 140.108 82.74 140.015C82.7029 140.005 82.664 140.005 82.627 140.015C82.59 140.025 82.5563 140.045 82.5292 140.072C82.502 140.099 82.4824 140.133 82.4722 140.17C82.4621 140.206 82.4617 140.245 82.4712 140.282C82.6412 140.907 83.4313 141.101 84.0663 141.101C84.0717 141.144 84.0914 141.185 84.1222 141.215C84.1529 141.246 84.1931 141.266 84.2363 141.271C84.6113 141.331 85.2363 141.271 85.14 140.919C85.775 140.655 86.3618 140.287 86.8763 139.831C86.9106 139.79 86.9301 139.739 86.9315 139.685C86.9328 139.632 86.916 139.58 86.8838 139.537C86.8516 139.494 86.8059 139.464 86.7541 139.451C86.7023 139.437 86.6475 139.442 86.5988 139.464Z" fill="#1B1B1B"/>
<path d="M83.1962 136.569C83.4467 136.103 83.8366 135.728 84.3112 135.496C84.7758 135.366 85.2474 135.262 85.7237 135.185C85.7555 135.176 85.784 135.157 85.8056 135.132C85.8273 135.107 85.8412 135.077 85.8457 135.044C85.8502 135.011 85.8451 134.978 85.831 134.948C85.8169 134.918 85.7944 134.892 85.7662 134.875C85.4878 134.77 85.1879 134.734 84.8926 134.771C84.5972 134.807 84.3153 134.916 84.0712 135.086C83.5236 135.378 83.1019 135.861 82.8862 136.442C82.8012 136.611 83.11 136.737 83.1962 136.569Z" fill="#1B1B1B"/>
<path d="M92.2049 134.96C92.783 134.869 93.3751 134.942 93.9136 135.171C94.3936 135.369 94.6899 135.806 95.1411 136.005C95.1777 136.025 95.2193 136.034 95.2608 136.03C95.3022 136.027 95.3419 136.012 95.3748 135.986C95.4078 135.961 95.4326 135.926 95.4464 135.887C95.4602 135.848 95.4623 135.805 95.4524 135.765C95.3274 135.2 94.5911 134.819 94.0961 134.64C93.4618 134.402 92.7611 134.412 92.1336 134.667C92.1003 134.682 92.0731 134.707 92.0568 134.739C92.0405 134.772 92.0363 134.809 92.0449 134.844C92.0534 134.879 92.0742 134.91 92.1036 134.931C92.1329 134.953 92.1688 134.963 92.2049 134.96Z" fill="#1B1B1B"/>
<path d="M91.3014 147.273C91.1889 147.23 91.0189 147.244 90.9902 147.398C90.9339 147.695 91.1039 147.92 91.1039 148.218C91.1008 148.485 91.019 148.745 90.8687 148.965C90.7185 149.186 90.5065 149.358 90.2593 149.458C90.0121 149.559 89.7406 149.585 89.4788 149.532C89.2171 149.48 88.9767 149.351 88.7877 149.163C88.6189 149.038 88.4627 149.288 88.5764 149.431C88.873 149.786 89.2977 150.008 89.7579 150.051C90.2181 150.093 90.6763 149.952 91.0327 149.658C91.8814 148.946 91.8489 147.518 91.3014 147.273Z" fill="#1B1B1B"/>
<path d="M90.7365 117.014C95.1115 117.153 98.439 118.764 102.089 121.108C102.897 121.647 103.782 122.062 104.714 122.336C104.852 122.062 104.928 121.76 104.938 121.453C104.948 121.146 104.891 120.84 104.77 120.558C105.178 120.35 105.525 120.041 105.778 119.66C106.031 119.279 106.182 118.839 106.214 118.383C106.247 117.927 106.161 117.47 105.965 117.057C105.769 116.644 105.469 116.288 105.095 116.025C107.538 112.466 103.845 108.386 100.648 106.848C96.934 105.054 91.724 105.04 88.7015 108.189C87.9687 108.936 87.433 109.853 87.1424 110.859C86.8518 111.864 86.8154 112.926 87.0365 113.949C86.5422 114.373 86.1952 114.944 86.0454 115.578C85.8956 116.212 85.9507 116.878 86.2027 117.479C87.6823 117.099 89.2105 116.942 90.7365 117.014Z" fill="#1B1B1B"/>
<path d="M67.735 123.269C68.363 123.628 69.0962 123.758 69.8094 123.637C70.5227 123.516 71.1719 123.151 71.6462 122.605C72.1011 122.012 72.3247 121.274 72.2753 120.528C72.2258 119.782 71.9067 119.08 71.3775 118.553C70.1275 117.45 67.9187 117.95 67.7075 118.905C67.6787 119.046 67.8062 119.216 67.9575 119.155C68.3864 118.92 68.8411 118.735 69.3125 118.604C69.6293 118.554 69.9533 118.578 70.2594 118.673C70.5654 118.769 70.8454 118.934 71.0775 119.155C71.4351 119.552 71.6464 120.06 71.6765 120.594C71.7066 121.128 71.5537 121.656 71.243 122.091C70.9323 122.526 70.4825 122.842 69.9678 122.987C69.4532 123.132 68.9045 123.097 68.4125 122.888C66.775 122.336 67.0287 120.558 67.5512 119.315C67.6075 119.19 67.41 119.089 67.3262 119.174C67.0461 119.451 66.8314 119.788 66.6979 120.159C66.5644 120.53 66.5154 120.926 66.5546 121.319C66.5938 121.711 66.7201 122.09 66.9243 122.427C67.1285 122.765 67.4055 123.052 67.735 123.269Z" fill="#1B1B1B"/>
<path d="M73.0725 127.081C72.8723 127.273 72.7182 127.508 72.622 127.768C72.5258 128.028 72.4899 128.307 72.5171 128.583C72.5443 128.859 72.6339 129.125 72.779 129.362C72.9242 129.598 73.1211 129.798 73.355 129.947C73.8133 130.215 74.3538 130.305 74.8742 130.201C75.3946 130.097 75.8588 129.806 76.1788 129.382C76.4869 128.94 76.6173 128.399 76.5441 127.865C76.4709 127.331 76.1995 126.844 75.7838 126.501C75.1588 126.05 73.425 125.909 73.3125 126.954C73.2988 127.095 73.4538 127.165 73.5625 127.151C73.8313 127.095 74.0288 126.911 74.3125 126.855C74.5832 126.791 74.867 126.813 75.1249 126.917C75.3829 127.021 75.6022 127.202 75.753 127.436C75.9037 127.669 75.9783 127.944 75.9666 128.222C75.9548 128.5 75.8574 128.767 75.6875 128.987C75.4928 129.246 75.2217 129.437 74.9127 129.533C74.6036 129.629 74.2721 129.626 73.965 129.524C72.8488 129.212 73.075 128.041 73.3288 127.207C73.355 127.081 73.17 127 73.0725 127.081Z" fill="#1B1B1B"/>
<path d="M60.04 110.066C59.4769 110.687 59.141 111.48 59.0872 112.316C59.0334 113.153 59.2649 113.982 59.7437 114.67C60.2712 115.274 60.9653 115.709 61.739 115.92C62.5128 116.131 63.3315 116.108 64.0925 115.855C66.9587 114.938 67.6788 110.605 65.0525 108.965C63.4425 107.944 60.965 108.6 60.6325 109.699C60.6224 109.738 60.624 109.778 60.6371 109.816C60.6501 109.854 60.6741 109.887 60.7059 109.911C60.7377 109.935 60.7759 109.949 60.8158 109.952C60.8557 109.954 60.8954 109.945 60.93 109.925C61.5096 109.437 62.2342 109.154 62.9913 109.12C63.3976 109.092 63.8053 109.15 64.1874 109.291C64.5694 109.432 64.9172 109.653 65.2075 109.939C65.6985 110.528 65.9812 111.262 66.0115 112.028C66.0418 112.795 65.818 113.549 65.375 114.175C64.015 116.039 60.2825 115.894 59.6838 113.145C59.5482 112.138 59.7523 111.114 60.2637 110.236C60.3225 110.109 60.1388 109.939 60.04 110.066Z" fill="#1B1B1B"/>
<path d="M24.6138 94.0688C25.2795 95.0214 26.2844 95.6833 27.4225 95.9188C30.0813 96.5563 57.4688 95.2938 62.13 94.7751C62.7364 94.7646 63.3308 94.6044 63.8603 94.3087C64.3899 94.013 64.838 93.5909 65.165 93.0801C66.9763 89.9813 66.4875 82.6851 66.2525 78.7351C66.1388 76.8301 65.6938 70.7838 65.405 69.0201C64.8938 66.0563 63.28 65.0763 60.3225 64.7563C57.261 64.5302 54.1859 64.5633 51.13 64.8551C51.1534 63.8678 50.9763 62.886 50.6093 61.9692C50.2422 61.0524 49.693 60.2196 48.9947 59.5212C48.2965 58.8229 47.4638 58.2735 46.547 57.9063C45.6303 57.5391 44.6485 57.3618 43.6613 57.3851C39.5238 57.5401 36.7 61.3101 36.4313 65.2076C33.7888 65.1667 31.1493 65.4034 28.5563 65.9138C26.1413 66.4638 24.01 67.6363 23.3888 70.1926C22.7913 72.6538 22.2725 81.1563 23.5013 90.0588C23.5828 91.4594 23.962 92.8265 24.6138 94.0688ZM43.9338 61.1676C44.9723 61.141 45.979 61.5277 46.7327 62.2428C47.4865 62.9578 47.9256 63.9428 47.9538 64.9813C42.0713 65.2001 40.6812 65.1276 39.9188 65.1063C39.9932 64.0733 40.4422 63.1031 41.1815 62.3778C41.9208 61.6525 42.8995 61.2222 43.9338 61.1676ZM23.78 71.6601C24.1263 68.8301 25.1425 67.3488 28.8738 66.5063C33.6238 65.4338 39.0725 65.9963 47.3463 65.7163C57.425 65.3888 59.7088 65.0913 61.9325 65.7438C65.0575 66.6451 64.8775 69.8113 65.165 73.2276C65.4475 76.3626 65.6738 79.4976 65.7438 82.6313C65.815 85.7238 66.0837 89.2401 64.8825 92.1626C64.1625 93.8663 63.2763 94.0513 61.4513 94.2101C57.5075 94.5951 35.7288 95.6701 28.99 95.4388C25.82 95.3076 24.7763 93.9926 24.3025 91.0888C23.3088 84.6606 23.1332 78.1324 23.78 71.6601Z" fill="#1B1B1B"/>
<path d="M24.6251 79.75C26.8276 79.7713 29.0439 79.625 31.2501 79.51C31.2882 80.083 31.5067 80.6293 31.8743 81.0705C32.2419 81.5117 32.7397 81.8253 33.2964 81.9663C33.6225 81.9976 33.9512 81.9457 34.2518 81.8152C34.5524 81.6848 34.8149 81.4802 35.0148 81.2206C35.2146 80.961 35.3453 80.655 35.3946 80.331C35.4438 80.0071 35.4101 79.676 35.2964 79.3688C35.2964 79.2338 34.1514 79.4488 52.4214 78.6338C52.4574 79.2077 52.6753 79.7553 53.0434 80.1972C53.4116 80.639 53.9108 80.9522 54.4689 81.0913C54.795 81.1226 55.1237 81.0707 55.4243 80.9402C55.7249 80.8098 55.9874 80.6052 56.1873 80.3456C56.3871 80.0861 56.5178 79.78 56.5671 79.4561C56.6163 79.1321 56.5826 78.801 56.4689 78.4938C56.4689 78.4788 56.4551 78.465 56.4551 78.4513C58.2764 78.3663 60.1126 78.2675 61.9189 78.055C62.2439 78.0125 62.2726 77.5188 61.9189 77.5325C57.0439 77.5613 52.1689 77.9425 47.3051 78.14C41.2364 78.3825 27.4701 78.89 24.5551 79.2838C24.3026 79.3275 24.3751 79.75 24.6251 79.75Z" fill="#1B1B1B"/>
<path d="M34.8361 113.865C38.6533 114.416 42.5452 113.674 45.8921 111.758C49.2389 109.841 51.8484 106.86 53.3048 103.289C56.4188 104.608 59.8092 105.142 63.178 104.844C66.5468 104.547 69.7908 103.425 72.6248 101.58C77.6786 98.2336 81.4211 92.5724 81.3498 86.3736C81.3775 84.8868 81.1111 83.4091 80.5661 82.0255C80.021 80.6419 79.2079 79.3796 78.1736 78.3111C80.1682 76.7898 81.7396 74.7826 82.7377 72.4811C83.7358 70.1796 84.1273 67.6607 83.8748 65.1649C82.9998 56.9236 74.6173 51.4874 66.8323 53.1486C66.7986 51.4992 66.2308 49.9052 65.2141 48.6059C64.1975 47.3066 62.7869 46.3721 61.194 45.9426C59.6011 45.5131 57.9119 45.6119 56.3799 46.224C54.8479 46.8361 53.5557 47.9285 52.6973 49.3374C49.5623 46.0324 44.9598 44.7899 40.5261 44.6486C35.8236 44.4936 30.3036 45.2736 26.9998 48.9836C26.2011 49.8412 25.5831 50.8508 25.1828 51.9523C24.7825 53.0538 24.6081 54.2246 24.6698 55.3949C19.5586 54.9561 14.7573 57.7524 11.4111 61.4511C7.89483 65.3199 5.09983 70.9124 6.72358 76.2074C7.06931 77.4259 7.66106 78.5607 8.46233 79.5417C9.26359 80.5227 10.2574 81.3291 11.3823 81.9111C9.28665 86.0398 8.57868 90.7343 9.36358 95.2974C11.0586 105.01 18.0261 108.165 22.8336 105.944C24.1642 108.034 25.9211 109.82 27.9893 111.185C30.0576 112.55 32.3907 113.463 34.8361 113.865ZM12.3286 101.25C9.21983 96.2499 8.71858 88.5361 12.2161 81.9249C12.264 81.8387 12.276 81.7371 12.2496 81.6422C12.2231 81.5472 12.1604 81.4664 12.0748 81.4174C7.38733 79.4174 6.19983 73.7499 7.59858 69.2736C9.81233 62.1924 17.3486 55.2636 25.0786 56.1711C25.3473 56.1986 25.4536 55.9211 25.4323 55.7049C24.7548 50.8299 29.1036 47.2611 33.3536 46.1036C39.4786 44.4324 47.7461 45.1511 52.4011 49.8449C52.2173 50.2686 52.8386 50.6211 53.0648 50.1986C53.779 48.8017 54.9495 47.6911 56.3819 47.0511C57.8144 46.4112 59.4226 46.2804 60.9396 46.6805C62.4566 47.0807 63.7912 47.9876 64.7216 49.2508C65.6521 50.514 66.1226 52.0574 66.0548 53.6249C66.0558 53.6843 66.0704 53.7427 66.0976 53.7956C66.1248 53.8484 66.1637 53.8943 66.2114 53.9297C66.2592 53.9651 66.3144 53.9891 66.3728 53.9997C66.4313 54.0104 66.4914 54.0074 66.5486 53.9911C68.9112 53.4425 71.3764 53.5232 73.6981 54.2251C76.0198 54.927 78.1168 56.2255 79.7798 57.9911C85.2798 63.8099 83.7523 73.6049 77.3648 77.9424C77.3144 77.9729 77.2715 78.0146 77.2396 78.0642C77.2077 78.1139 77.1876 78.1701 77.1807 78.2287C77.1738 78.2873 77.1804 78.3467 77.2 78.4024C77.2195 78.458 77.2516 78.5085 77.2936 78.5499C81.5023 82.2999 81.2623 88.9249 78.8336 93.6149C76.4995 98.0652 72.5567 101.458 67.8083 103.103C63.0599 104.748 57.863 104.521 53.2761 102.469C53.2259 102.442 53.1705 102.427 53.1138 102.424C53.0571 102.421 53.0004 102.431 52.9479 102.453C52.8954 102.474 52.8483 102.507 52.81 102.549C52.7716 102.591 52.743 102.641 52.7261 102.695C51.8549 104.928 50.5158 106.95 48.7988 108.623C47.0817 110.296 45.0265 111.582 42.7711 112.395C39.1978 113.609 35.3162 113.563 31.7731 112.263C28.23 110.962 25.2395 108.487 23.2998 105.25C23.2479 105.163 23.1645 105.1 23.0671 105.074C22.9696 105.048 22.8658 105.06 22.7773 105.109C18.8523 107.186 14.4586 104.687 12.3286 101.25Z" fill="#1B1B1B"/>
<path d="M164.131 214.75C163.17 214.641 162.202 214.608 161.236 214.651C159.388 214.636 141.13 214.679 139.958 214.694C139.892 214.698 139.83 214.728 139.785 214.776C139.739 214.825 139.714 214.888 139.714 214.954C139.714 215.021 139.739 215.084 139.785 215.133C139.83 215.181 139.892 215.21 139.958 215.215C163.145 215.262 162.923 215.34 164.145 215.145C164.315 215.104 164.315 214.78 164.131 214.75Z" fill="#1B1B1B"/>
<path d="M45.3837 214.75C44.4228 214.641 43.4548 214.608 42.4887 214.651C40.6387 214.636 22.3825 214.679 21.21 214.694C21.144 214.698 21.0822 214.728 21.037 214.776C20.9919 214.825 20.9668 214.888 20.9668 214.954C20.9668 215.021 20.9919 215.084 21.037 215.133C21.0822 215.181 21.144 215.21 21.21 215.215C44.3975 215.262 44.1737 215.34 45.3975 215.145C45.5675 215.104 45.5662 214.78 45.3837 214.75Z" fill="#1B1B1B"/>
<path d="M138.051 178.125C136.635 172.7 134.725 167.416 132.347 162.339C132.262 162.156 131.937 162.283 132.009 162.48C135.344 171.393 138.182 178.421 139.746 189.266C140.816 196.245 140.787 203.349 139.661 210.319C139.395 212.448 138.5 214.45 137.091 216.069C134.705 218.498 131.19 218.625 128.167 217.524C130.977 209.179 132.644 200.453 131.667 191.628C131.356 188.761 130.495 185.003 127.149 184.455C126.132 184.285 125.087 184.186 124.042 184.116C123.85 182.457 123.48 180.823 122.941 179.241C122.921 179.186 122.88 179.141 122.828 179.114C122.775 179.087 122.715 179.081 122.658 179.097C122.602 179.113 122.553 179.149 122.522 179.199C122.49 179.249 122.479 179.308 122.49 179.366C122.876 180.911 123.14 182.483 123.28 184.069C118.13 183.783 80.6324 183.613 71.8974 184.294C71.0014 184.367 70.1106 184.495 69.2299 184.675C69.1105 183.081 69.1243 181.48 69.2712 179.889C69.2673 179.845 69.249 179.804 69.219 179.772C69.189 179.74 69.1491 179.719 69.1058 179.713C69.0625 179.706 69.0183 179.715 68.9802 179.736C68.9422 179.758 68.9126 179.792 68.8962 179.833C68.5882 181.475 68.4933 183.15 68.6137 184.816C60.0799 186.985 59.4237 194.179 61.2574 202.816C62.0349 206.501 63.0512 210.173 64.1524 213.801C61.0737 215.129 57.8837 216.639 54.4524 216.033C50.7024 215.354 48.3812 212.05 47.6037 208.506C46.0762 201.516 48.5037 192.095 50.5549 185.256C52.0906 179.693 54.0252 174.247 56.3437 168.961C59.8599 161.406 65.4512 153.03 73.7674 152.908C77.9337 152.851 81.5624 155.364 85.6712 155.619C86.5942 159.129 88.1441 162.444 90.2462 165.404C91.6254 167.721 93.2607 169.876 95.1212 171.828C95.4737 172.181 95.7849 172.379 96.2649 172.078C96.8845 171.61 97.4111 171.03 97.8174 170.369C100.44 166.585 102.628 162.517 104.341 158.244C104.889 157.189 105.197 156.027 105.245 154.84C105.692 154.595 106.154 154.378 106.629 154.191C107.076 154.062 107.507 153.882 107.914 153.654C107.934 153.639 107.949 153.619 107.958 153.595C107.966 153.572 107.968 153.546 107.962 153.522C107.955 153.498 107.942 153.476 107.924 153.46C107.905 153.443 107.882 153.432 107.857 153.429C106.819 153.486 105.827 153.881 105.034 154.554C104.84 154.554 104.8 154.706 104.511 155.698C103.086 152.443 102.457 148.895 102.675 145.349C105.967 144.871 106.839 141.134 104.595 139.599C109.867 134.391 109.107 125.824 104.92 122.895C102.071 122.183 100.5 120.211 96.7724 118.744C93.9164 117.563 90.7963 117.168 87.7362 117.6C85.8508 117.91 84.1045 118.786 82.7298 120.113C81.3551 121.44 80.4172 123.154 80.0411 125.028C79.4161 127.385 79.8149 131.621 81.1987 133.216C81.2993 133.334 81.4222 133.431 81.5603 133.501C81.6984 133.572 81.8491 133.614 82.0036 133.626C81.5936 136.845 76.4262 138.823 78.3612 142.409C78.894 143.108 79.3265 143.878 79.6461 144.696C79.8862 145.784 79.1799 146.786 78.8412 147.774C78.4874 148.834 78.5024 150.471 79.8012 150.839C79.8471 150.848 79.8947 150.841 79.936 150.819C79.9773 150.797 80.0097 150.761 80.0279 150.718C80.0461 150.675 80.0489 150.627 80.0358 150.582C80.0228 150.537 79.9946 150.498 79.9562 150.471C78.3312 149.314 79.9137 147.221 80.2062 145.854C80.5599 144.201 79.4024 143.284 78.7387 141.943C77.4537 139.345 80.5874 137.636 81.9286 135.49C81.7674 137.264 81.6969 139.046 81.7174 140.828C81.6887 143.476 82.0845 146.112 82.8899 148.635C83.7899 151.281 85.2337 153.454 88.0012 153.93C88.0561 154.544 87.9716 155.163 87.7538 155.74C87.5361 156.317 87.1908 156.838 86.7436 157.263C86.5036 156.614 86.2924 155.964 86.0949 155.3C86.088 155.272 86.0754 155.245 86.058 155.222C86.0406 155.199 86.0187 155.18 85.9936 155.165C85.9685 155.151 85.9407 155.142 85.9119 155.138C85.8831 155.135 85.854 155.137 85.8262 155.145C81.8024 154.77 78.2724 152.349 74.2012 152.25C71.6023 152.219 69.0492 152.934 66.8449 154.311C57.8849 159.783 53.3699 173.849 50.3237 183.811C47.9799 191.409 45.6087 199.711 46.8237 207.731C47.4024 211.558 49.6762 215.356 53.6012 216.429C57.1312 217.389 61.1274 216.034 64.3324 214.339C64.8974 216.174 66.9724 222.571 67.4387 223.926C67.5112 224.216 67.7586 224.176 67.8849 224.176C128.135 223.718 125.662 224.139 125.866 223.73C126.616 221.894 127.321 220.045 127.97 218.166C129.18 218.637 130.471 218.86 131.769 218.824C133.066 218.788 134.343 218.492 135.525 217.955C139.464 216.063 140.275 211.488 140.735 207.58C141.738 197.68 140.827 187.68 138.051 178.125ZM88.5337 154.021C91.5399 154.306 94.2512 152.605 96.6099 150.731C97.6609 150.048 98.4479 149.028 98.8411 147.838C98.8974 147.569 98.5161 147.371 98.3749 147.639C97.2303 149.507 95.6003 151.03 93.6587 152.045C92.7282 152.687 91.6681 153.118 90.5531 153.305C89.4382 153.493 88.2956 153.434 87.2062 153.131C83.3312 151.73 82.3424 145.15 82.2924 140.989C82.2649 138.518 82.5749 136.089 82.7024 133.633C84.7592 132.504 86.6872 131.154 88.4524 129.609C85.8274 127.534 84.9399 124.291 85.4874 122.576C85.492 122.563 85.5004 122.552 85.5116 122.544C85.5228 122.536 85.5362 122.532 85.5499 122.532C85.5636 122.532 85.577 122.536 85.5882 122.544C85.5994 122.552 85.6078 122.563 85.6124 122.576C85.7668 123.888 86.0748 125.177 86.5299 126.418C87.0699 127.579 87.8666 128.602 88.8599 129.41C94.7786 133.08 94.2924 133.331 98.7149 137.544C99.3298 138.241 100.055 138.832 100.861 139.294C100.991 139.573 101.058 139.877 101.055 140.185C101.053 140.492 100.982 140.796 100.847 141.073C100.522 141.823 99.9574 142.456 99.6749 143.246C98.9762 145.179 100.272 147.03 100.3 148.839C100.216 149.905 99.8667 150.934 99.2837 151.831C98.6337 153.103 97.9424 154.98 99.1149 156.166C99.1538 156.202 99.2041 156.223 99.257 156.226C99.3099 156.228 99.3619 156.212 99.4041 156.18C99.4462 156.148 99.4756 156.102 99.4872 156.05C99.4988 155.999 99.4918 155.945 99.4674 155.898C98.2811 153.908 99.9674 152.156 100.582 150.306C101.246 148.358 100.159 146.681 100.017 144.771C99.8774 142.908 101.741 141.694 101.557 139.858C101.571 139.858 101.571 139.858 101.585 139.844C101.927 139.692 102.298 139.616 102.673 139.62C103.047 139.624 103.416 139.708 103.755 139.868C104.094 140.027 104.394 140.257 104.636 140.543C104.878 140.829 105.056 141.163 105.157 141.524C105.215 141.924 105.185 142.332 105.071 142.72C104.957 143.108 104.761 143.467 104.496 143.772C104.23 144.078 103.903 144.323 103.535 144.49C103.167 144.658 102.767 144.744 102.362 144.744C102.273 144.745 102.187 144.781 102.124 144.844C102.061 144.907 102.025 144.993 102.024 145.083C101.779 147.961 102.105 150.859 102.984 153.611C103.238 154.634 103.675 155.603 104.274 156.47C102.475 161.616 99.912 166.462 96.6712 170.845C95.7812 171.896 95.8436 171.671 95.1299 170.916C93.7135 169.328 92.43 167.627 91.2924 165.829C89.5754 163.37 88.1362 160.729 87.0011 157.954C87.5546 157.47 87.9831 156.86 88.2499 156.176C88.5167 155.491 88.6141 154.752 88.5337 154.021ZM99.7312 205.065C99.7255 205.591 99.5861 206.107 99.326 206.564C99.066 207.022 98.6939 207.405 98.2447 207.679C97.7955 207.953 97.284 208.108 96.7584 208.13C96.2327 208.152 95.7102 208.04 95.2399 207.804C94.8669 207.606 94.5377 207.335 94.272 207.006C94.0063 206.678 93.8096 206.3 93.6936 205.894C93.5776 205.488 93.5447 205.062 93.5969 204.643C93.6491 204.224 93.7853 203.82 93.9974 203.455C95.8049 200.875 99.9249 202.2 99.7312 205.065Z" fill="#1B1B1B"/>
</svg>
