<svg width="224" height="224" viewBox="0 0 224 224" fill="none" xmlns="http://www.w3.org/2000/svg">
<path d="M76.4277 158.864C66.9211 156.782 57.2398 154.629 48.5654 150.046C35.9285 143.371 26.759 131.925 28.9654 117.135C29.0584 116.514 27.9776 116.34 27.86 116.962C26.1385 126.057 29.5321 135.295 35.3864 141.8C45.7497 153.317 61.4555 157.09 76.0345 160.193C76.8925 160.375 77.2901 159.053 76.4277 158.864Z" fill="#5A47FB"/>
<path d="M107.24 74.0152C114.072 73.4092 116.556 72.7641 123.789 73.7352C124.658 73.8528 124.888 72.5032 124.013 72.3912C119.072 71.764 111.787 71.6016 106.979 72.8761C106.322 73.0475 106.595 74.0723 107.24 74.0152Z" fill="#5A47FB"/>
<path d="M51.632 87.1483C47.2047 88.3478 38.4978 93.7395 35.6978 97.4747C35.28 98.0347 36.1514 98.5622 36.5938 98.1702C41.0886 93.9138 46.3587 90.56 52.1181 88.2907C52.7935 88.0096 52.2973 86.968 51.632 87.1483Z" fill="#5A47FB"/>
<path d="M189.407 92.3149C189.979 92.8973 190.813 91.9789 190.27 91.3898C186.655 87.4362 178.999 82.7546 173.293 82.2741C171.659 82.1363 172.339 83.1264 173.05 83.2743C179.277 84.6033 184.969 87.7495 189.407 92.3149Z" fill="#5A47FB"/>
<path d="M199.391 109.001C200.199 119.038 199.48 126.65 194.368 135.646C191.078 141.355 186.473 146.195 180.935 149.766C175.398 153.336 169.088 155.534 162.531 156.175C162.363 156.202 162.212 156.292 162.108 156.427C162.004 156.562 161.954 156.731 161.97 156.9C161.986 157.07 162.065 157.227 162.193 157.34C162.32 157.453 162.485 157.514 162.655 157.51C169.168 156.949 175.457 154.867 181.019 151.433C186.58 148 191.259 143.309 194.678 137.739C199.556 129.899 201.663 119.841 200.267 108.777C200.189 108.157 199.344 108.416 199.391 109.001Z" fill="#5A47FB"/>
<path d="M139.58 87.9557C142.396 88.1705 145.221 88.2389 148.044 88.1607C149.572 88.1685 149.664 86.8346 148.044 86.8066C146.113 86.773 141.528 86.764 139.611 86.8749C139.07 86.9119 139.035 87.8426 139.58 87.9557Z" fill="#5A47FB"/>
<path d="M134.512 110.907C133.89 110.975 133.816 112.027 134.481 112.049C137.747 112.135 147.335 112.133 150.793 111.9C151.501 111.852 151.594 110.61 150.825 110.602C147.441 110.57 137.301 110.601 134.512 110.907Z" fill="#5A47FB"/>
<path d="M135.587 99.4246C135.116 99.5052 135.079 100.337 135.587 100.4C137.879 100.679 146.144 100.494 149.069 100.649C150.739 100.736 150.931 99.3238 149.069 99.2879C146.616 99.242 137.536 99.0942 135.587 99.4246Z" fill="#5A47FB"/>
<path d="M100.608 88.7253C111.83 88.8563 123.949 88.3781 135.19 88.2975C135.361 88.2904 135.523 88.2173 135.642 88.0934C135.761 87.9695 135.828 87.8045 135.828 87.6327C135.828 87.461 135.761 87.296 135.642 87.1721C135.523 87.0482 135.361 86.9751 135.19 86.968C123.95 87.1282 111.816 87.0677 100.602 87.5146C100.465 87.5472 100.344 87.625 100.257 87.7354C100.171 87.8458 100.124 87.9823 100.125 88.1226C100.125 88.2629 100.174 88.3989 100.262 88.5083C100.349 88.6177 100.472 88.6942 100.608 88.7253Z" fill="#5A47FB"/>
<path d="M139.878 106.169C140.037 106.154 140.184 106.081 140.293 105.964C140.402 105.848 140.465 105.696 140.471 105.536C140.476 105.377 140.423 105.221 140.322 105.097C140.221 104.974 140.079 104.891 139.922 104.865C138.537 104.821 137.146 104.865 135.762 104.927C135.639 104.966 135.53 105.042 135.452 105.144C135.374 105.247 135.33 105.372 135.325 105.501C135.321 105.63 135.357 105.757 135.429 105.864C135.5 105.972 135.603 106.055 135.724 106.101C137.105 106.232 138.494 106.255 139.878 106.169Z" fill="#5A47FB"/>
<path d="M143.797 104.989C143.175 105.056 143.243 106.069 143.865 106.088C145.38 106.136 148.665 106.138 150.18 106.026C150.337 105.996 150.477 105.909 150.575 105.783C150.673 105.656 150.722 105.498 150.712 105.339C150.702 105.179 150.634 105.028 150.522 104.915C150.409 104.802 150.259 104.733 150.099 104.722C148.585 104.71 145.318 104.824 143.797 104.989Z" fill="#5A47FB"/>
<path d="M123.914 93.222C123.782 93.2424 123.663 93.3104 123.579 93.413C123.494 93.5157 123.451 93.6458 123.456 93.7785C123.461 93.9113 123.515 94.0374 123.608 94.1329C123.7 94.2283 123.825 94.2864 123.957 94.2961C131.194 94.6119 141.027 94.1371 148.286 94.1035C150.708 94.0923 150.603 92.6015 148.218 92.6811C140.971 92.9252 131.129 92.774 123.914 93.222Z" fill="#5A47FB"/>
<path d="M100.521 93.3084C99.9757 93.4339 100.043 94.3959 100.596 94.4083C104.763 94.4945 110.528 94.3209 114.747 94.4083C115.481 94.4228 115.574 93.1673 114.835 93.1035C112.836 92.9332 102.616 92.8279 100.521 93.3084Z" fill="#5A47FB"/>
<path d="M100.192 106.907C101.627 106.976 104.13 107.14 105.568 107.051C106.338 107.003 106.226 105.864 105.692 105.809C104.259 105.662 101.755 105.681 100.316 105.679C100.162 105.678 100.014 105.735 99.8992 105.838C99.7849 105.942 99.713 106.084 99.6975 106.237C99.682 106.39 99.724 106.543 99.8154 106.667C99.9067 106.791 100.041 106.877 100.192 106.907Z" fill="#5A47FB"/>
<path d="M99.652 112.701C101.062 112.709 103.526 112.684 104.936 112.62C105.024 112.618 105.111 112.598 105.192 112.561C105.272 112.525 105.345 112.473 105.405 112.409C105.466 112.344 105.513 112.269 105.544 112.186C105.575 112.103 105.59 112.015 105.587 111.927C105.584 111.839 105.564 111.752 105.528 111.672C105.491 111.591 105.439 111.519 105.375 111.458C105.311 111.398 105.235 111.351 105.152 111.319C105.07 111.288 104.982 111.274 104.894 111.276C103.484 111.33 101.018 111.424 99.6151 111.574C99.0315 111.639 99.0931 112.698 99.652 112.701Z" fill="#5A47FB"/>
<path d="M100.192 100.352H107.644C109.1 100.352 109.086 99.0965 107.644 98.9924C105.123 98.9269 102.601 98.9934 100.086 99.1917C99.4156 99.2321 99.5399 100.352 100.192 100.352Z" fill="#5A47FB"/>
<path d="M140.351 133.385C129.456 128.423 111.047 128.99 99.5714 133.697C89.5306 137.814 80.4328 149.071 79.3341 158.808C78.2779 168.173 85.997 169.672 92.9399 166.843C93.3554 163.558 95.3882 153.133 96.665 149.947C96.9013 149.358 97.468 149.499 97.3986 150.134C96.1856 161.091 93.8146 169.595 93.3431 181.542C107.303 189.23 134.029 185.559 145.057 182.784C145.464 171.544 143.881 160.321 140.381 149.632C140.177 148.968 140.736 148.676 141.053 149.31C143.366 154.5 144.913 159.999 145.645 165.635C151.917 169.702 160.45 164.94 159.964 158.345C159.365 150.183 154.487 139.825 140.351 133.385ZM113.984 152.493C113.063 153.701 106.48 158.311 105.092 159.325C106.564 160.604 109.564 163.143 110.718 164.404C111.234 164.964 110.55 165.379 109.985 165.174C108.545 164.652 104.465 160.828 103.477 159.81C103.391 159.736 103.323 159.643 103.278 159.54C103.232 159.436 103.21 159.323 103.214 159.21C103.218 159.097 103.247 158.986 103.299 158.886C103.351 158.785 103.425 158.697 103.515 158.629C105.618 157.071 111.364 152.706 113.45 151.797C114.008 151.555 114.315 152.059 113.984 152.493ZM115.847 166.322C115.033 167.968 114.167 166.676 114.449 165.949C115.592 162.981 119.758 152.232 121.082 150.381C121.454 149.859 121.943 150.287 121.902 150.767C121.693 153.142 116.02 166.32 115.847 166.32V166.322ZM134.999 157.71C132.564 159.918 129.154 163.444 126.567 165.242C125.131 166.239 124.342 165.519 125.691 164.304C128.173 162.064 130.696 159.665 133.205 157.436C131.861 156.741 125.872 153.497 124.883 152.704C124.48 152.381 124.685 151.786 125.25 151.946C127.696 152.64 132.214 155.338 134.726 156.597C135.096 156.781 135.381 157.367 135.004 157.71H134.999Z" fill="#5A47FB"/>
<path d="M197.255 61.9684C191.195 71.6004 181.992 68.4017 179.906 60.49C175.161 60.9122 169.728 62.7502 167.195 65.8122C171.244 68.619 171.461 70.5745 172.498 79.5109C172.728 77.42 173.312 75.3833 174.224 73.4876C174.496 72.9276 175.184 73.2065 175.008 73.7665C174.195 76.0649 173.698 78.4631 173.531 80.8953C177.877 81.4788 187.881 84.9004 192.531 92.1591C195.233 91.6562 197.897 91.3404 200.604 90.9798C200.249 88.0009 199.626 85.0601 198.742 82.1934C198.547 81.5706 199.196 81.2727 199.506 81.8764C200.592 84.7687 201.326 87.7816 201.691 90.8498C202.41 90.7596 203.133 90.7117 203.858 90.7065C204.48 90.7065 204.579 91.4266 204.02 91.477C197.694 92.0114 191.446 93.2441 185.39 95.1529C187.571 97.301 188.819 101.747 188.44 106.988C191.501 107.61 211.736 108.988 216.912 98.5185C222.087 88.0487 213.314 65.3396 197.255 61.9684Z" fill="#5A47FB"/>
<path d="M40.0389 99.9959C34.2321 99.5578 28.3935 99.8279 22.652 100.8C22.0315 100.92 21.9878 100.179 22.559 99.9679C23.2592 99.7511 23.9757 99.5912 24.7016 99.4897C24.4283 97.7761 24.6019 92.8447 25.5393 91.2364C25.8003 90.7884 26.3233 90.803 26.2046 91.3921C25.6693 94.0066 25.4997 96.6829 25.7006 99.3441C27.9659 99.0206 30.2462 98.8131 32.5326 98.7225C36.1961 93.9065 45.2312 87.4587 52.2547 85.7876C51.5149 83.2588 50.5376 80.8055 49.336 78.4606C49.0918 77.9745 49.6317 77.4895 50.0192 78.0014C51.387 79.8225 52.4194 81.8728 53.0678 84.0561C53.5091 78.287 54.5709 75.0703 56.0795 72.5123C55.3717 71.5614 51.1997 67.5439 46.3926 67.1284C40.1643 83.7044 25.6334 74.5988 24.379 68.6371C2.10446 78.2814 2.86718 110.479 10.239 115.03C18.8507 120.346 34.6371 113.067 38.0397 111.342C37.1638 107.566 37.1145 103.561 40.0389 99.9959Z" fill="#5A47FB"/>
<path d="M131.7 106.411C132.45 101.537 131.272 98.1647 125.099 98.7852C121.268 99.1705 116.878 101.361 116.287 103.815C115.425 102.48 111.563 100.087 110.327 102.79C107.489 108.995 113.387 121.073 115.591 122.326C117.097 123.052 118.746 123.432 120.418 123.439C122.089 123.445 123.741 123.078 125.253 122.363C128.788 120.414 130.749 112.597 131.7 106.411Z" fill="#363636"/>
<path d="M132.6 115.21C132.525 115.013 132.402 114.838 132.241 114.702C132.08 114.566 131.888 114.472 131.681 114.431C131.475 114.389 131.261 114.401 131.06 114.465C130.859 114.528 130.678 114.642 130.533 114.794C130.101 115.27 130.676 115.714 131.265 115.466C132.172 115.083 131.719 119.006 129.166 119.547C127.882 119.82 127.745 120.74 128.707 120.789C131.04 120.903 133.375 117.179 132.6 115.21Z" fill="#363636"/>
<path d="M125.049 123.959C125.144 124.983 125.74 128.404 126.603 129.17C126.871 129.409 127.504 129.244 127.447 128.853C127.355 128.231 126.417 124.833 126.342 123.829C126.334 123.744 126.309 123.662 126.269 123.586C126.229 123.511 126.174 123.444 126.108 123.39C126.042 123.336 125.965 123.295 125.883 123.271C125.801 123.247 125.715 123.239 125.63 123.248C125.459 123.266 125.302 123.351 125.193 123.484C125.084 123.617 125.033 123.788 125.049 123.959Z" fill="#363636"/>
<path d="M113.239 120.4C112.723 120.015 112.231 120.787 110.755 118.257C110.511 117.842 109.47 115.407 110.32 115.544C110.668 115.6 111.035 114.974 110.674 114.619C109.717 113.677 107.899 115.191 109.482 118.345C111.786 122.935 114.319 121.209 113.239 120.4Z" fill="#363636"/>
<path d="M115.101 124.115C114.971 125.736 114.645 127.337 114.363 128.952C114.275 129.455 115.064 129.523 115.306 129.114C115.816 127.558 116.15 125.95 116.301 124.32C116.296 124.177 116.241 124.041 116.147 123.933C116.053 123.826 115.925 123.754 115.784 123.73C115.644 123.706 115.499 123.731 115.374 123.801C115.25 123.871 115.154 123.982 115.101 124.115Z" fill="#363636"/>
<path d="M192.294 60.5404C190.854 65.0853 187.366 66.8505 184.29 64.0482C181.705 61.6962 180.762 58.2466 179.825 55.0199C179.665 54.4666 179.005 54.6839 179.117 55.2304C182.245 70.5072 191.885 67.64 193.014 60.6826C193.133 60.1439 192.46 60.0173 192.294 60.5404Z" fill="#363636"/>
<path d="M181.912 54.7221C181.148 54.6617 180.2 55.2049 180.421 55.8141C180.547 56.1613 180.831 55.673 182.036 55.6965C182.707 55.71 182.576 54.7737 181.912 54.7221Z" fill="#363636"/>
<path d="M185.985 54.908C185.87 54.9412 185.771 55.0158 185.708 55.1174C185.644 55.219 185.621 55.3405 185.642 55.4584C185.663 55.5763 185.726 55.6824 185.821 55.7561C185.915 55.8298 186.033 55.866 186.153 55.8577C187.537 55.7771 187.96 56.5723 188.304 56.0414C188.364 55.9499 188.384 55.8386 188.361 55.732C188.339 55.6253 188.275 55.532 188.184 55.4725C187.879 55.2256 187.525 55.0474 187.146 54.95C186.766 54.8525 186.37 54.8382 185.985 54.908Z" fill="#363636"/>
<path d="M188.823 61.2538C188.738 60.6826 188.144 60.8248 187.927 61.4218C187.639 62.2159 186.331 62.3783 186.685 62.8128C187.122 63.4277 189.015 62.5452 188.823 61.2538Z" fill="#363636"/>
<path d="M186.717 57.7339C186.51 56.4918 185.335 56.9499 185.736 58.3174C185.905 58.8942 186.92 58.939 186.717 57.7339Z" fill="#363636"/>
<path d="M181.738 56.9632C181.178 57.1984 181.514 58.6063 182.192 58.5312C182.763 58.464 182.7 56.56 181.738 56.9632Z" fill="#363636"/>
<path d="M184.359 58.6645C184.274 58.0799 183.954 58.1616 183.781 58.6645C183.607 59.1674 183.327 60.7578 183.725 61.1487C184.122 61.5395 184.801 61.4634 185.587 61.1117C186.123 60.872 185.973 60.4901 185.531 60.4901C185.162 60.5636 184.781 60.5636 184.411 60.4901C184.24 60.3971 184.448 59.285 184.359 58.6645Z" fill="#363636"/>
<path d="M202.652 39.8002C200.748 37.4538 196.66 37.3721 193.846 38.8438C193.733 38.9157 193.653 39.0289 193.622 39.1593C193.591 39.2898 193.612 39.4271 193.681 39.542C193.75 39.6569 193.861 39.7404 193.991 39.7746C194.12 39.8089 194.258 39.7911 194.375 39.7252C197.007 38.4271 200.545 38.7698 201.912 40.7254C204.282 44.1111 199.929 47.1094 197.566 48.711C197.118 49.0145 197.504 49.8097 198.014 49.5678C201.41 47.9527 205.66 43.5097 202.652 39.8002Z" fill="#363636"/>
<path d="M39.6356 68.8239C39.1081 68.731 39.0129 69.1499 39.536 69.3839C40.1867 69.6807 41.3952 69.8543 41.6416 69.254C41.8062 68.8497 41.5486 66.1931 40.871 66.0934C40.1934 65.9937 41.095 68.5775 40.871 68.8508C40.4619 68.9282 40.041 68.919 39.6356 68.8239Z" fill="#363636"/>
<path d="M42.4054 65.8056C42.2777 67.0107 43.3955 66.7564 43.4549 65.856C43.5321 64.6755 42.5073 64.848 42.4054 65.8056Z" fill="#363636"/>
<path d="M37.5984 66.6881C37.7104 67.4262 38.5605 67.1093 38.6792 66.3958C38.8819 65.184 37.3789 65.2221 37.5984 66.6881Z" fill="#363636"/>
<path d="M43.9634 62.8689C43.7368 62.6262 43.4474 62.4512 43.1272 62.3634C42.807 62.2756 42.4687 62.2784 42.1501 62.3716C41.5251 62.5643 41.683 63.3628 42.3931 63.2228C42.8354 63.1369 43.2937 63.2069 43.6901 63.4211C44.016 63.5992 44.1806 63.2038 43.9634 62.8689Z" fill="#363636"/>
<path d="M35.616 70.6126C35.8234 70.9939 36.1455 71.3004 36.5366 71.4887C36.9277 71.677 37.368 71.7376 37.7955 71.6621C38.4787 71.568 38.4171 70.9106 37.9075 70.8859C37.6263 70.9026 37.3449 70.8553 37.0846 70.7476C36.8243 70.64 36.5918 70.4747 36.4045 70.2643C36.064 69.776 35.3651 69.9776 35.616 70.6126Z" fill="#363636"/>
<path d="M38.3813 62.7759C37.9015 62.6421 37.3887 62.6959 36.9471 62.9264C36.5055 63.1569 36.1681 63.5468 36.0035 64.0169C35.849 64.4795 36.2454 64.6889 36.624 64.3092C36.8231 64.1034 37.0661 63.9451 37.3349 63.8463C37.6037 63.7474 37.8913 63.7104 38.1763 63.738C38.9021 63.8108 38.9648 62.9932 38.3813 62.7759Z" fill="#363636"/>
<path d="M40.5239 73.7172C44.8706 70.8489 45.7151 65.2657 46.0567 60.4777C51.1045 58.7764 51.5447 52.4742 46.8888 51.5737C50.3608 46.3388 35.6059 40.2841 33.8968 47.5126C29.3642 44.1593 24.0733 49.6921 26.3715 52.0452C25.6802 51.8091 24.9249 51.8453 24.2592 52.1463C23.5936 52.4474 23.0677 52.9907 22.7884 53.6658C22.5092 54.3408 22.4976 55.0969 22.7561 55.7802C23.0145 56.4635 23.5236 57.0227 24.1797 57.344C21.0751 58.0339 21.9688 65.1929 25.6951 64.9073C25.8715 65.5065 26.2267 66.0376 26.7131 66.4294C26.0546 67.4665 25.5707 69.8185 26.3771 69.888C26.9483 69.9372 27.216 67.5897 27.5453 66.9323C29.4941 67.7454 29.4493 66.0643 28.6754 66.0497C26.8117 66.0172 26.2965 63.9699 27.0357 62.5049C27.7749 61.04 29.7472 60.6849 29.9544 62.1689C30.1504 63.5779 34.3504 62.0569 35.0146 59.9636C38.2109 61.0905 41.6422 61.3816 44.9826 60.8092C44.5536 65.156 43.9578 70.1232 40.0143 72.7563C36.0708 75.3894 31.5885 73.1068 30.0788 68.9931C29.9085 68.5283 29.3597 68.7691 29.4885 69.2417C30.8303 74.1753 36.1839 76.58 40.5239 73.7172Z" fill="#363636"/>
<path d="M196.492 52.4429C196.259 50.6945 195.405 51.2691 195.467 51.8213C195.586 52.424 195.586 53.0441 195.467 53.6469C195.245 53.43 194.972 53.2721 194.674 53.1874C194.375 53.1026 194.06 53.0938 193.757 53.1617C193.454 53.2295 193.173 53.372 192.939 53.576C192.706 53.78 192.526 54.0392 192.418 54.3301C191.542 54.0008 191.512 53.4251 190.962 53.5785C190.715 53.648 190.746 53.975 190.932 54.2315C192.077 55.8141 193.053 55.375 193.172 54.9763C193.508 53.7869 195.076 53.7342 195.222 55.3123C195.334 56.4793 195.018 58.184 193.564 58.2064C192.942 58.2153 192.78 59.2928 193.757 59.2614C194.117 60.311 194.563 61.3288 195.092 62.3045C195.383 62.8443 196.146 62.4422 195.917 61.9942C195.424 61.0207 195.039 59.9961 194.768 58.9389C196.632 57.8021 196.153 55.1309 196.171 54.9953C196.505 54.1886 196.615 53.307 196.492 52.4429Z" fill="#363636"/>
<path d="M41.617 100.94C41.4769 100.948 41.3455 101.01 41.2518 101.115C41.158 101.219 41.1095 101.356 41.1169 101.496C41.1243 101.636 41.1871 101.768 41.2914 101.861C41.3956 101.955 41.5329 102.004 41.673 101.996C46.265 102.151 47.5328 102.556 50.577 104.833C51.0743 105.205 51.6443 104.728 51.2669 104.213C49.4615 101.754 44.7216 100.576 41.617 100.94Z" fill="#363636"/>
<path d="M49.9867 113.869C46.5338 116.627 47.0131 117.727 44.1381 116.949C41.2261 116.165 38.2346 114.627 35.345 114.061C35.2215 114.041 35.0947 114.064 34.9864 114.126C34.8781 114.189 34.7948 114.287 34.7508 114.405C34.7068 114.522 34.7048 114.651 34.7452 114.769C34.7855 114.888 34.8657 114.988 34.972 115.054C37.8664 116.285 40.8319 117.34 43.8525 118.216C44.4314 118.471 45.0649 118.576 45.695 118.523C46.3252 118.47 46.932 118.259 47.46 117.911C49.6799 116.225 50.5714 115.207 50.8379 114.602C51.2389 113.692 50.1671 113.725 49.9867 113.869Z" fill="#363636"/>
<path d="M44.1381 107.032C44.018 107.055 43.91 107.12 43.8323 107.215C43.7546 107.309 43.7122 107.428 43.7122 107.55C43.7122 107.673 43.7546 107.791 43.8323 107.886C43.91 107.98 44.018 108.045 44.1381 108.069C47.5507 108.666 47.199 111.304 47.5899 111.745C47.9808 112.185 48.767 112.075 48.5654 110.714C48.4141 109.661 47.8776 108.702 47.0598 108.022C46.242 107.341 45.2009 106.989 44.1381 107.032Z" fill="#363636"/>
<path d="M39.6043 109.536C39.487 109.574 39.3868 109.652 39.3211 109.757C39.2554 109.861 39.2283 109.986 39.2445 110.108C39.2607 110.23 39.3193 110.343 39.4099 110.427C39.5006 110.51 39.6177 110.56 39.741 110.566C42.7146 110.628 43.2701 110.779 44.156 113.671C44.2803 114.075 45.2368 114.659 45.0128 112.746C44.6343 109.509 42.373 108.689 39.6043 109.536Z" fill="#363636"/>
<path d="M77.0796 105.448C74.8754 107.119 63.5936 115.565 57.7864 119.32C54.992 121.128 52.0016 123.164 52.5516 117.943C57.2354 73.509 53.7164 75.31 66.3869 66.6569C78.222 58.5761 90.16 50.5983 101.92 42.3764C109.374 37.1639 107.922 42.8177 107.334 47.3447C106.1 56.8669 104.877 66.3869 103.665 75.9047C103.646 75.9799 103.643 76.0581 103.656 76.1346C103.668 76.2111 103.696 76.2842 103.738 76.3495C103.78 76.4148 103.834 76.471 103.898 76.5146C103.962 76.5581 104.035 76.5882 104.111 76.603C104.187 76.6177 104.265 76.6169 104.341 76.6004C104.416 76.584 104.488 76.5523 104.551 76.5073C104.614 76.4623 104.667 76.4049 104.708 76.3387C104.748 76.2724 104.774 76.1987 104.785 76.122C105.935 66.4799 107.372 56.97 108.593 47.3458C109.468 40.478 109.446 35.7314 101.079 41.5397C89.8128 49.3674 78.409 57.0081 67.0757 64.7361C56.98 71.6229 55.7391 73.0935 54.7188 82.6561C53.4711 94.3634 52.192 106.4 51.3968 118.11C51.0239 123.569 53.9852 123.268 57.8357 120.737C64.6677 116.249 71.3328 111.361 77.8255 106.455C77.8917 106.406 77.9476 106.344 77.99 106.274C78.0324 106.203 78.0605 106.125 78.0726 106.044C78.0848 105.962 78.0808 105.879 78.0609 105.799C78.041 105.719 78.0055 105.644 77.9565 105.578C77.9075 105.512 77.846 105.456 77.7754 105.413C77.7049 105.371 77.6266 105.343 77.5452 105.331C77.4637 105.319 77.3807 105.323 77.3008 105.343C77.2209 105.363 77.1457 105.398 77.0796 105.447V105.448Z" fill="#363636"/>
<path d="M47.1621 104.859C46.0421 104.654 45.6893 105.468 46.7836 105.979C47.7625 106.434 48.9519 106.524 49.7325 108.618C49.9498 109.201 50.8884 109.17 50.6946 108.096C50.4465 107.291 49.9885 106.567 49.3676 105.998C48.7467 105.429 47.9854 105.036 47.1621 104.859Z" fill="#363636"/>
<path d="M44.7216 98.6552C44.3732 99.0651 44.8336 99.7606 45.342 99.4314C45.7027 99.195 50.5142 95.648 51.987 94.1842C52.818 93.3576 51.8806 93.0787 51.1112 93.5256C48.8269 95.0337 46.6878 96.7509 44.7216 98.6552Z" fill="#363636"/>
<path d="M191.152 108.808C190.005 109.803 188.814 110.743 187.581 111.627C186.349 112.508 185.005 113.749 183.464 113.083C181.373 112.187 177.961 109.552 175.199 108.339C174.639 108.091 174.324 108.915 174.751 109.251C176.164 110.36 179.815 112.457 181.707 113.598C184.471 115.266 185.253 114.83 187.916 112.978C189.343 111.992 190.712 110.923 192.015 109.779C192.128 109.661 192.193 109.504 192.196 109.34C192.199 109.176 192.14 109.017 192.031 108.895C191.922 108.773 191.771 108.696 191.608 108.68C191.445 108.663 191.282 108.709 191.152 108.808Z" fill="#363636"/>
<path d="M178.341 93.7496C179.101 94.0196 179.581 92.8805 178.819 92.5949C177.053 91.9081 175.33 91.1159 173.659 90.2228C173.13 89.9472 172.651 90.7828 173.137 91.1288C174.744 92.2361 176.495 93.1179 178.341 93.7496Z" fill="#363636"/>
<path d="M182.632 103.281C179.524 105.185 180.247 108.145 181.154 108.677C181.737 109.02 182.249 108.677 181.775 107.734C181.097 106.378 182.607 104.791 183.247 104.113C183.649 103.688 183.14 102.969 182.632 103.281Z" fill="#363636"/>
<path d="M126.391 75.824C126.533 76.4456 127.511 76.3403 127.399 75.6873C125.592 65.4853 124.216 57.3574 123.157 47.1273C122.841 44.0541 123.013 41.1454 126.952 43.5131C139.365 50.9768 151.556 58.4875 163.645 66.4025C168.772 69.7625 168.833 71.0225 169.433 77.1635C170.665 89.8385 172.121 102.7 173.289 115.341C173.592 118.633 174.532 121.102 170.184 118.738C167.533 117.296 163.533 114.476 162.174 113.577C161.552 113.167 161.005 113.948 161.596 114.44C164.212 116.587 167.042 118.46 170.041 120.029C175.291 122.829 174.996 119.347 174.58 115.348C173.244 102.48 171.977 89.6 170.688 76.7289C170.061 70.4446 168.998 68.3289 164.181 65.1784C152.142 57.3048 139.785 49.5768 127.333 42.3517C123.502 40.1285 121.509 42.0493 121.807 46.0779C122.581 56.0949 124.113 66.0388 126.391 75.824Z" fill="#363636"/>
<path d="M180.962 101.822C181.082 101.772 181.18 101.681 181.238 101.565C181.296 101.449 181.311 101.316 181.279 101.191C181.248 101.065 181.172 100.955 181.065 100.88C180.959 100.806 180.83 100.772 180.701 100.786C178.521 100.786 175.896 103.206 176.708 105.753C177.007 106.69 178.291 107.15 177.838 105.554C177.285 103.6 179.303 102.356 180.962 101.822Z" fill="#363636"/>
<path d="M184.147 95.8238C181.378 94.8718 176.916 94.4474 174.795 97.2014C174.123 98.0717 175.026 98.3214 175.522 97.9104C177.892 95.9157 179.801 96.2304 183.849 96.7736C184.439 96.8531 184.706 96.0154 184.147 95.8238Z" fill="#363636"/>
<path d="M180.613 97.8723C178.553 97.6875 176.133 98.0672 174.863 100.63C174.579 101.208 175.393 101.619 175.759 101.157C177.188 99.3809 178.244 99.2465 180.603 99.0774C181.21 99.0337 181.216 97.9272 180.613 97.8723Z" fill="#363636"/>
<path d="M186.414 37.9244C174.094 38.7084 176.334 51.0642 177.546 52.2816C181.078 55.8096 194.053 54.7042 196.691 49.3752C197.232 48.2821 197.15 37.2423 186.414 37.9244ZM184.725 51.66C184.318 52.0554 180.064 51.66 179.49 50.9276C179.162 50.5098 179.168 47.5429 181.521 47.4556C183.874 47.3682 185.207 51.1919 184.725 51.66Z" fill="#363636"/>
<path d="M44.0574 125.226C43.5165 125.226 43.3406 124.713 43.9018 124.606C46.2027 124.182 48.5788 124.507 50.6822 125.531C48.3078 120.63 30.7877 119.978 31.892 126.859C32.4218 130.156 37.4192 131.684 41.6539 131.563C45.6658 131.451 50.7573 130.495 50.9309 126.949C50.4515 126.952 48.384 125.193 44.0574 125.226Z" fill="#363636"/>
<path d="M172.964 136.596C171.673 135.456 170.142 134.621 168.484 134.152C166.827 133.683 165.085 133.594 163.388 133.889C164.332 134.1 167.505 135.844 166.779 136.447C166.219 136.912 165.537 135 161.637 134.827C160.332 136.255 160.756 139.005 162.568 141.378C165.183 144.799 170.059 147.187 173.628 145.693C177.548 144.052 176.081 139.372 172.964 136.596Z" fill="#363636"/>
<path d="M87.0239 112.645C89.164 112.781 91.3105 112.781 93.4505 112.645C93.6203 112.638 93.7809 112.566 93.8985 112.443C94.0162 112.32 94.0819 112.157 94.0819 111.987C94.0819 111.817 94.0162 111.654 93.8985 111.531C93.7809 111.408 93.6203 111.336 93.4505 111.329C91.2599 111.337 89.0712 111.457 86.8929 111.689C86.3262 111.755 86.4998 112.609 87.0239 112.645Z" fill="#FFD300"/>
<path d="M157.308 121.569C158.172 121.561 158.048 120.271 157.235 120.264C150.291 120.211 138.798 120.308 132.302 120.264C131.63 120.264 131.713 121.272 132.358 121.289C139.468 121.419 149.987 121.632 157.308 121.569Z" fill="#363636"/>
<path d="M87.6423 107.107C89.5009 107.263 91.3675 107.302 93.2311 107.224C94.3511 107.166 94.406 105.971 93.2994 105.908C91.4364 105.801 89.5679 105.838 87.7106 106.02C87.582 106.035 87.4628 106.095 87.3738 106.189C87.2848 106.283 87.2316 106.406 87.2235 106.535C87.2154 106.664 87.2528 106.792 87.3294 106.897C87.4059 107.001 87.5166 107.075 87.6423 107.107Z" fill="#FFD300"/>
<path d="M161.6 123.612C160.677 111.317 159.102 98.98 157.371 86.7698C156.301 79.2142 153.025 77.1086 145.499 77.2811C127.243 77.7 108.509 77.6933 90.2329 78.2499C83.4009 78.4582 81.2549 82.2371 80.6636 88.0488C79.2938 101.53 78.1861 115.377 77.7829 128.884C77.6911 131.952 78.0999 134.474 81.7029 134.883C84.7269 135.225 91.2789 135.107 93.3509 135.118C94.2268 135.118 94.0901 133.774 93.221 133.765C89.6874 133.718 85.381 133.918 81.9561 133.585C79.2177 133.317 79.1213 131.009 79.1684 128.881C79.4652 115.455 80.7946 101.638 81.8508 88.2381C82.2585 83.0648 84.074 79.6869 89.749 79.5021C108.174 78.8995 127.702 79.0776 146.208 78.5579C152.517 78.381 155.168 80.4899 156.05 86.7552C157.767 99.0069 159.32 111.159 160.21 123.51C160.441 126.708 160.658 130.978 156.721 132.03C154.171 132.711 149.642 132.629 143.575 132.651C142.693 132.651 142.861 133.893 143.742 133.893C147.617 133.893 153.908 134.036 156.317 133.588C161.308 132.661 161.922 127.904 161.6 123.612Z" fill="#363636"/>
<path d="M95.5718 88.5831C95.6672 88.5358 95.7469 88.4619 95.8014 88.3704C95.8559 88.2789 95.8828 88.1736 95.8789 88.0672C95.875 87.9608 95.8404 87.8577 95.7794 87.7704C95.7184 87.6831 95.6335 87.6153 95.5348 87.5751C93.4038 87.4714 91.2679 87.5276 89.1452 87.7431C89.0257 87.7703 88.9193 87.8382 88.8443 87.9351C88.7693 88.0321 88.7303 88.1521 88.734 88.2746C88.7377 88.3971 88.7839 88.5145 88.8646 88.6068C88.9454 88.699 89.0556 88.7603 89.1766 88.7802C91.3102 88.878 93.4482 88.8121 95.5718 88.5831Z" fill="#FFD300"/>
<path d="M88.0219 100.623C90.0704 100.623 92.1211 100.603 94.1684 100.511C94.2502 100.506 94.3302 100.485 94.4039 100.449C94.4775 100.413 94.5432 100.363 94.5973 100.301C94.6513 100.24 94.6927 100.168 94.7188 100.091C94.745 100.013 94.7555 99.9309 94.7497 99.8492C94.7382 99.6847 94.6622 99.5315 94.5382 99.4228C94.4142 99.3141 94.2523 99.2589 94.0878 99.269C92.0897 99.3743 90.0894 99.3866 88.0958 99.53C87.9755 99.5568 87.8671 99.6219 87.7868 99.7154C87.7065 99.8089 87.6587 99.9259 87.6503 100.049C87.642 100.172 87.6737 100.294 87.7407 100.398C87.8076 100.501 87.9063 100.58 88.0219 100.623Z" fill="#FFD300"/>
<path d="M88.6861 94.1842C90.431 94.1931 92.176 94.1842 93.921 94.1842C95.2997 94.1842 94.9827 93.3016 94.7408 93.1157C94.257 92.7472 89.5563 93.0855 88.6928 93.1784C88.1339 93.2389 88.0902 94.1808 88.6861 94.1842Z" fill="#FFD300"/>
<path d="M108.123 120.532C100.813 120.532 88.1764 120.492 81.1305 120.532C80.5089 120.532 80.4036 121.667 81.0812 121.687C88.2167 121.903 100.895 121.717 108.099 121.687C108.811 121.683 108.864 120.532 108.123 120.532Z" fill="#FFD300"/>
</svg>
