<svg width="30" height="26" viewBox="0 0 30 26" fill="none" xmlns="http://www.w3.org/2000/svg">
<path d="M8.92529 0.832764C11.2519 0.76383 12.8719 1.54608 13.8979 2.73022C14.9293 3.92073 15.3841 5.54589 15.3208 7.19702C15.1932 10.5213 12.9925 13.7917 9.43701 13.7917C7.66794 13.7921 5.96584 13.1153 4.68018 11.9001C3.47497 10.761 2.72168 9.22983 2.55029 7.58765L2.52393 7.25757C2.4994 6.41192 2.64682 5.56989 2.95752 4.78296C3.26897 3.9942 3.73782 3.27719 4.33545 2.67554C4.93317 2.07381 5.6473 1.59969 6.43408 1.28296C7.22078 0.966298 8.06381 0.813009 8.91162 0.832764V0.83374L8.92529 0.832764Z" fill="#5A47FB" stroke="#212121" stroke-width="0.5"/>
<path d="M17.6301 0.410156C18.5734 0.18616 19.5572 0.197255 20.4954 0.441406C21.4286 0.684327 22.2891 1.15078 23.0012 1.80078C23.7609 2.62724 24.3232 3.61585 24.6448 4.69141C24.9668 5.76856 25.039 6.90527 24.8567 8.01465V8.01562C24.2141 12.0715 20.3273 13.4075 18.2268 12.3701L18.0295 12.2617L18.0168 12.2549C17.6833 12.079 17.4232 11.7903 17.2825 11.4404C17.143 11.0934 17.1296 10.708 17.2454 10.3525C17.3876 10.0051 17.6404 9.71025 17.9397 9.30859C18.2315 8.91702 18.5388 8.45449 18.7092 7.82129C19.0506 6.55218 18.8217 4.68273 17.092 1.40332L17.0881 1.39453L17.0823 1.38574L17.0422 1.31348C17.0076 1.2389 16.9883 1.15788 16.9846 1.0752C16.9797 0.964845 17.0031 0.854907 17.054 0.756836C17.1047 0.658886 17.1809 0.576235 17.2737 0.516602C17.3666 0.456983 17.4739 0.42231 17.5842 0.416992L17.6077 0.416016L17.6301 0.410156Z" fill="#5A47FB" stroke="#212121" stroke-width="0.5"/>
<path d="M1.21875 19.3699C2.7368 16.7582 5.82793 14.4956 9.25977 14.95L9.27051 14.9519H9.28223C13.5694 15.1202 16.1397 17.2844 17.0732 19.5281C17.5417 20.6539 17.5975 21.7946 17.2676 22.7253C16.9403 23.6484 16.2283 24.382 15.1162 24.7078C15.1132 24.7082 15.0805 24.7151 15.0029 24.7292C14.9251 24.7434 14.8142 24.7631 14.6748 24.7869C14.3962 24.8344 14.0033 24.8992 13.5264 24.9724C12.5717 25.1189 11.2812 25.3002 9.90039 25.4509C8.51909 25.6017 7.05011 25.7214 5.73535 25.7458C4.41291 25.7704 3.27267 25.6974 2.53516 25.4763L2.53027 25.4753L2.28027 25.3982C1.07041 24.9837 0.461894 24.1516 0.296875 23.1355C0.117227 22.0291 0.461064 20.6735 1.21875 19.3699Z" fill="#5A47FB" stroke="#212121" stroke-width="0.5"/>
<path d="M19.4937 14.792C20.0999 14.5888 21.2016 14.5958 23.0845 14.9766L23.0894 14.9775C24.6893 15.2651 26.1505 16.072 27.2466 17.2725C28.3424 18.4728 29.0126 20.0009 29.1538 21.6201L29.1548 21.627C29.2116 22.1206 29.0392 22.4959 28.7251 22.79C28.4025 23.0921 27.9244 23.3112 27.3784 23.4492C25.5026 23.8128 23.5835 23.8962 21.6831 23.6982C21.0631 23.5259 20.7258 23.0621 20.5298 22.4326C20.3286 21.7866 20.2921 21.0173 20.2485 20.3154V20.3086L20.2476 20.3008L20.2017 20.0107C20.071 19.3263 19.7812 18.5979 19.5112 17.9219C19.1941 17.1277 18.9089 16.4146 18.856 15.8457C18.8301 15.5674 18.8635 15.352 18.9546 15.1885C19.0426 15.0304 19.2019 14.8898 19.4937 14.792Z" fill="#5A47FB" stroke="#212121" stroke-width="0.5"/>
</svg>
