<svg width="250" height="250" viewBox="0 0 250 250" fill="none" xmlns="http://www.w3.org/2000/svg">
<path d="M194.22 58.3163H143.522V71.2151C143.524 71.5146 143.467 71.8115 143.353 72.0888C143.24 72.366 143.073 72.6181 142.862 72.8304C142.65 73.0428 142.399 73.2113 142.123 73.3263C141.846 73.4412 141.549 73.5003 141.25 73.5001H125.271V88.8176C125.616 88.9087 125.915 89.1221 126.114 89.418C126.313 89.7138 126.397 90.072 126.351 90.4254C126.305 90.7789 126.132 91.1036 125.865 91.3389C125.597 91.5741 125.253 91.7039 124.896 91.7039C124.54 91.7039 124.195 91.5741 123.928 91.3389C123.66 91.1036 123.487 90.7789 123.441 90.4254C123.395 90.072 123.479 89.7138 123.678 89.418C123.877 89.1221 124.177 88.9087 124.521 88.8176V73.5001H120.15V111.271C120.15 111.853 120.381 112.412 120.793 112.823C121.204 113.235 121.763 113.466 122.345 113.466L190.834 111.125C191.418 111.126 191.979 110.896 192.394 110.485C192.81 110.073 193.045 109.514 193.05 108.93L196.415 60.5113C196.419 60.2221 196.364 59.935 196.255 59.667C196.146 59.399 195.985 59.1556 195.78 58.951C195.576 58.7464 195.332 58.5849 195.064 58.4759C194.796 58.3669 194.509 58.3126 194.22 58.3163ZM143.522 80.5001C143.522 80.3751 143.606 80.2701 143.669 80.2701H150.569C150.772 80.2701 150.715 80.4988 150.715 83.0713C150.715 83.1963 150.631 83.3013 150.569 83.3013H143.669C143.464 83.2988 143.522 83.0701 143.522 80.5001ZM135.912 87.4826C135.91 87.4563 135.914 87.4299 135.922 87.405C135.931 87.3801 135.944 87.3571 135.962 87.3376C135.98 87.3181 136.001 87.3023 136.025 87.2914C136.049 87.2804 136.075 87.2744 136.101 87.2738H144.902C144.929 87.2744 144.955 87.2804 144.979 87.2914C145.003 87.3023 145.024 87.3181 145.042 87.3376C145.059 87.3571 145.073 87.3801 145.081 87.405C145.09 87.4299 145.093 87.4563 145.091 87.4826V90.0538C145.096 90.1093 145.079 90.1644 145.044 90.2074C145.008 90.2504 144.958 90.2778 144.902 90.2838H136.101C135.996 90.2838 135.912 90.2001 135.912 90.0538V87.4826ZM159.704 96.2638C159.704 96.5913 160.414 96.4926 136.394 96.4926C136.122 96.4926 135.912 96.4101 135.912 96.2638V93.6888C135.912 93.3913 135.181 93.4801 159.202 93.4801C159.474 93.4801 159.684 93.5638 159.684 93.6888V96.2613L159.704 96.2638ZM170.785 96.2638C170.789 96.319 170.772 96.3739 170.737 96.4166C170.702 96.4593 170.651 96.4866 170.596 96.4926H161.795C161.69 96.4926 161.606 96.4101 161.606 96.2638V93.6888C161.604 93.6626 161.607 93.6362 161.616 93.6112C161.624 93.5863 161.638 93.5634 161.656 93.5438C161.673 93.5243 161.695 93.5086 161.719 93.4976C161.743 93.4867 161.769 93.4807 161.795 93.4801H170.596C170.622 93.4807 170.648 93.4867 170.672 93.4976C170.696 93.5086 170.718 93.5243 170.735 93.5438C170.753 93.5634 170.767 93.5863 170.775 93.6112C170.784 93.6362 170.787 93.6626 170.785 93.6888V96.2638ZM170.785 90.0538C170.785 90.3813 171.495 90.2838 147.474 90.2838C147.202 90.2838 146.994 90.2001 146.994 90.0538V87.4801C146.994 87.1826 146.262 87.2713 170.282 87.2713C170.555 87.2713 170.764 87.3551 170.764 87.4801V90.0513L170.785 90.0538ZM170.785 83.0538C170.785 83.3926 171.424 83.2838 152.575 83.2838C152.366 83.2838 152.2 83.1801 152.2 83.0538V80.4763C152.2 80.1376 151.561 80.2463 170.41 80.2463C170.619 80.2463 170.785 80.3513 170.785 80.4763V83.0538ZM175.07 101.179C175.07 101.326 175.012 101.467 174.908 101.57C174.804 101.674 174.663 101.733 174.516 101.733C174.369 101.733 174.228 101.674 174.125 101.57C174.021 101.467 173.962 101.326 173.962 101.179V72.5738C173.962 72.427 174.021 72.2861 174.125 72.1823C174.228 72.0784 174.369 72.0201 174.516 72.0201C174.663 72.0201 174.804 72.0784 174.908 72.1823C175.012 72.2861 175.07 72.427 175.07 72.5738V101.179ZM179.481 96.3038C179.093 96.3038 178.721 96.1496 178.446 95.8751C178.172 95.6006 178.017 95.2283 178.017 94.8401C178.017 94.4519 178.172 94.0796 178.446 93.8051C178.721 93.5306 179.093 93.3763 179.481 93.3763C179.862 93.3875 180.223 93.5465 180.488 93.8197C180.754 94.0928 180.902 94.4587 180.902 94.8395C180.902 95.2203 180.754 95.5861 180.488 95.8593C180.223 96.1324 179.862 96.2915 179.481 96.3026V96.3038ZM179.481 89.7188C179.093 89.7188 178.721 89.5646 178.446 89.2901C178.172 89.0156 178.017 88.6433 178.017 88.2551C178.017 87.8669 178.172 87.4946 178.446 87.2201C178.721 86.9456 179.093 86.7913 179.481 86.7913C179.862 86.8025 180.223 86.9615 180.488 87.2347C180.754 87.5078 180.902 87.8737 180.902 88.2545C180.902 88.6353 180.754 89.0011 180.488 89.2743C180.223 89.5474 179.862 89.7065 179.481 89.7176V89.7188ZM179.69 82.8613C179.302 82.8613 178.929 82.7071 178.655 82.4326C178.38 82.1581 178.226 81.7858 178.226 81.3976C178.226 81.0094 178.38 80.6371 178.655 80.3626C178.929 80.0881 179.302 79.9338 179.69 79.9338C180.071 79.945 180.432 80.104 180.697 80.3772C180.962 80.6503 181.111 81.0162 181.111 81.397C181.111 81.7778 180.962 82.1436 180.697 82.4168C180.432 82.6899 180.071 82.849 179.69 82.8601V82.8613ZM192.315 66.4501C192.085 67.4501 192.19 67.8501 192.022 67.8501C191.876 67.8501 191.541 67.3063 191.522 66.1776C191.558 65.5214 191.53 64.8634 191.439 64.2126C191.29 63.4813 190.875 62.7601 190.08 62.7126C178.109 61.9163 166.134 64.1863 154.162 62.8801C153.611 62.881 153.067 62.7525 152.574 62.5051C153.724 61.7938 155.71 61.9201 157.006 61.8151C166.246 61.0651 175.529 61.0826 184.79 61.1038C188.485 61.1126 192.54 60.3013 192.63 64.2401C192.615 64.9862 192.51 65.7278 192.317 66.4488L192.315 66.4501Z" fill="#5A47FB"/>
<path d="M175.384 163.6L175.091 162.575C175.02 162.331 174.866 162.119 174.657 161.974C174.448 161.83 174.195 161.761 173.941 161.781L158.534 163.156C158.36 163.169 158.192 163.223 158.044 163.315C157.896 163.407 157.773 163.533 157.685 163.683C157.596 163.833 157.546 164.002 157.537 164.176C157.528 164.35 157.562 164.523 157.635 164.681L158.052 165.644C158.145 165.85 158.299 166.024 158.494 166.14C158.688 166.255 158.914 166.308 159.14 166.291L174.401 165C174.564 164.986 174.721 164.936 174.862 164.855C175.003 164.773 175.125 164.662 175.218 164.529C175.312 164.395 175.375 164.243 175.404 164.083C175.432 163.922 175.426 163.757 175.384 163.6Z" fill="#5A47FB"/>
<path d="M177.307 170.228L177.015 169.203C176.943 168.958 176.79 168.746 176.581 168.601C176.371 168.457 176.119 168.388 175.865 168.408L160.456 169.783C160.282 169.795 160.114 169.85 159.967 169.942C159.819 170.034 159.695 170.16 159.607 170.31C159.519 170.46 159.468 170.63 159.459 170.803C159.451 170.977 159.484 171.151 159.557 171.309L159.976 172.271C160.068 172.478 160.222 172.651 160.416 172.767C160.611 172.883 160.837 172.936 161.062 172.919L176.325 171.623C176.486 171.607 176.642 171.557 176.782 171.475C176.922 171.394 177.043 171.283 177.136 171.151C177.23 171.018 177.293 170.867 177.323 170.708C177.352 170.548 177.347 170.385 177.307 170.228Z" fill="#5A47FB"/>
<path d="M179.69 177.711L179.397 176.687C179.326 176.443 179.173 176.231 178.963 176.086C178.754 175.941 178.501 175.873 178.247 175.892L171.516 176.477C171.342 176.49 171.174 176.545 171.027 176.637C170.879 176.729 170.755 176.855 170.667 177.005C170.579 177.155 170.528 177.324 170.519 177.498C170.511 177.672 170.544 177.846 170.617 178.004L171.035 178.966C171.127 179.173 171.281 179.346 171.476 179.462C171.671 179.578 171.896 179.631 172.122 179.614L178.707 179.091C178.87 179.083 179.029 179.039 179.172 178.961C179.316 178.882 179.439 178.773 179.534 178.64C179.628 178.507 179.692 178.354 179.719 178.193C179.746 178.033 179.736 177.868 179.69 177.711Z" fill="#5A47FB"/>
<path d="M152.868 165.92L152.575 164.896C152.504 164.652 152.351 164.439 152.141 164.295C151.932 164.15 151.679 164.082 151.425 164.101L144.694 164.686C144.52 164.699 144.352 164.754 144.204 164.846C144.057 164.938 143.933 165.064 143.845 165.214C143.756 165.364 143.706 165.533 143.697 165.707C143.688 165.881 143.722 166.054 143.795 166.212L144.213 167.175C144.305 167.382 144.459 167.555 144.654 167.671C144.848 167.787 145.074 167.84 145.3 167.822L151.885 167.3C152.045 167.285 152.2 167.236 152.34 167.156C152.479 167.076 152.6 166.967 152.693 166.836C152.787 166.705 152.851 166.555 152.881 166.397C152.911 166.239 152.906 166.076 152.868 165.92Z" fill="#5A47FB"/>
<path d="M155.481 172.945L155.189 171.92C155.117 171.676 154.964 171.464 154.754 171.319C154.545 171.175 154.292 171.106 154.039 171.126L147.306 171.711C147.132 171.724 146.965 171.779 146.817 171.871C146.669 171.963 146.545 172.089 146.457 172.239C146.369 172.389 146.318 172.558 146.309 172.732C146.301 172.906 146.334 173.079 146.407 173.237L146.826 174.199C146.918 174.406 147.072 174.579 147.266 174.695C147.461 174.811 147.687 174.864 147.912 174.847L154.499 174.325C154.66 174.314 154.818 174.267 154.959 174.188C155.1 174.109 155.223 173.999 155.317 173.867C155.411 173.735 155.474 173.584 155.503 173.425C155.531 173.265 155.524 173.101 155.481 172.945Z" fill="#5A47FB"/>
<path d="M191.875 188.561L188.885 187.413C187.899 187.038 190.101 186.944 157.885 191.405C157.788 191.419 157.698 191.465 157.629 191.535C157.561 191.606 157.517 191.697 157.505 191.794C157.493 191.892 157.514 191.99 157.564 192.075C157.614 192.16 157.69 192.226 157.781 192.263L161.021 193.579C161.021 193.454 160.316 193.673 191.875 188.561Z" fill="#5A47FB"/>
<path d="M199.448 191.467L193.928 189.356L162.928 194.374C166.859 195.976 167.118 196.212 168.07 196.087L199.346 192.346C199.446 192.331 199.537 192.283 199.607 192.211C199.676 192.138 199.72 192.045 199.732 191.945C199.743 191.846 199.722 191.745 199.67 191.658C199.619 191.572 199.541 191.505 199.448 191.467Z" fill="#5A47FB"/>
<path d="M139.09 48.8037L113.794 49.8487C113.225 49.8867 112.694 50.1465 112.315 50.5722C111.936 50.9979 111.739 51.5555 111.766 52.125L110.679 68.125C110.651 68.695 110.847 69.2534 111.227 69.6797C111.606 70.106 112.138 70.366 112.708 70.4037H124.54V62.7062H115.78C115.684 62.7067 115.589 62.6881 115.5 62.6514C115.41 62.6148 115.33 62.5608 115.262 62.4927C115.194 62.4246 115.14 62.3436 115.103 62.2545C115.067 62.1654 115.048 62.07 115.049 61.9737V58.3575C115.049 58.2623 115.068 58.1681 115.105 58.0804C115.142 57.9927 115.196 57.9133 115.264 57.8469C115.332 57.7806 115.413 57.7286 115.502 57.6941C115.59 57.6597 115.685 57.6434 115.78 57.6462H135.181C135.277 57.6434 135.371 57.6597 135.46 57.6941C135.549 57.7286 135.63 57.7806 135.698 57.8469C135.766 57.9133 135.82 57.9927 135.857 58.0804C135.894 58.1681 135.913 58.2623 135.913 58.3575V61.9737C135.913 62.07 135.895 62.1654 135.858 62.2545C135.822 62.3436 135.768 62.4246 135.7 62.4927C135.632 62.5608 135.551 62.6148 135.462 62.6514C135.373 62.6881 135.278 62.7067 135.181 62.7062H125.271V70.4H139.09C139.661 70.3671 140.196 70.1092 140.578 69.6828C140.959 69.2564 141.156 68.6962 141.125 68.125V51.0825C141.141 50.7992 141.101 50.5156 141.008 50.2477C140.914 49.9799 140.769 49.7331 140.58 49.5215C140.391 49.3099 140.162 49.1376 139.906 49.0145C139.651 48.8913 139.373 48.8197 139.09 48.8037Z" fill="#5A47FB"/>
<path d="M217.698 143.446C215.524 142.924 215.963 142.359 216.109 140.247C219.768 139.222 229.638 135.417 229.448 123.961C229.158 106.525 208.1 103.659 201.625 110.519C196.02 116.454 195.834 121.536 195.834 121.536C195.834 121.536 196.879 121.557 198.426 121.452C198.07 124.939 197.568 129.215 198.155 132.679C198.838 136.702 203.423 138.88 207.165 138.951C208.196 138.998 209.226 138.842 210.196 138.491C210.865 138.261 211.179 138.01 211.196 137.926C210.017 138.075 208.831 138.152 207.643 138.156C204.653 137.906 201.224 136.38 199.886 133.531C198.983 130.949 199.878 123.982 200.284 121.281C204.381 120.781 210.276 119.379 213.308 115.344C213.308 115.344 210.285 125.712 215.838 127.7C216.174 127.825 215.351 134.242 215.273 134.95C214.575 141.325 213.538 143.837 215.773 144.567C216.076 144.649 217.296 144.892 217.696 144.965C213.63 148.965 208.599 149.169 203.689 144.465C203.814 144.465 203.939 144.486 204.064 144.486C205.966 144.486 206.764 143.921 206.113 141.894C205.764 140.81 205.256 141.576 205.004 142.644C202.951 142.416 198.379 141.567 196.203 142.581C195.578 142.874 195.535 143.164 196.161 143.396C198.092 143.867 200.056 144.189 202.036 144.359C207.911 150.651 214.305 150.309 218.928 145.257C221.296 146.029 223.447 147.355 225.2 149.125C237.898 161.712 231.145 184.917 214.245 184.707C203.14 184.569 192.755 174.976 187.109 165.457C184.86 161.204 183.026 156.745 181.631 152.14C180.605 148.907 180.189 147.06 180.021 146.935C179.875 146.789 179.961 148.377 180.711 151.785C185.425 173.199 200.058 185.047 211.924 186.615C221.534 187.885 230.329 181.435 233.06 172.545C236.743 160.579 229.096 145.096 217.698 143.446ZM211.551 112.17C210.849 113.461 209.871 114.581 208.688 115.452C207.082 116.711 205.291 117.712 203.378 118.421C202.056 118.959 200.644 119.242 199.218 119.257C198.381 119.195 198.424 118.905 199.093 118.462C200.359 117.625 203.843 116.287 207.748 113.739C209.715 112.454 212.425 110.206 211.551 112.17Z" fill="#1B1B1B"/>
<path d="M183.015 143.111C183.6 143.969 183.962 144.861 184.311 145.306C185.457 146.767 185.936 142.549 183.537 140.624C181.75 139.194 179.391 139.524 178.604 140.519C178.242 140.975 178.416 141.221 178.854 141.292C179.727 141.435 181.78 141.304 183.015 143.111Z" fill="#1B1B1B"/>
<path d="M182.032 137.864C182.667 137.74 183.322 137.783 183.935 137.989C186.005 138.765 186.165 140.753 186.59 142.17C186.745 142.69 186.994 142.885 187.364 142.4C187.763 141.687 187.944 140.872 187.884 140.057C187.824 139.241 187.527 138.461 187.028 137.814C186.529 137.166 185.851 136.679 185.078 136.413C184.306 136.146 183.472 136.113 182.68 136.316C182.401 136.438 182.153 136.619 181.951 136.846C181.749 137.074 181.598 137.342 181.51 137.633C181.51 137.78 181.697 137.884 182.032 137.864Z" fill="#1B1B1B"/>
<path d="M184.771 134.289C184.896 134.394 185.126 133.559 185.021 132.052C184.97 131.302 184.875 130.337 184.875 129.397C184.882 129.019 184.975 128.647 185.148 128.31C185.211 128.27 185.189 128.289 185.273 128.289C185.791 128.289 186.195 129.206 186.398 129.69C188.721 135.139 188.324 140.826 190.558 147.19C194.071 157.19 200.665 163.276 207.033 165.399C207.885 165.705 208.758 165.949 209.645 166.13C210.419 166.357 211.233 166.408 212.029 166.278C212.26 165.929 208.49 165.217 204.608 162.722C197.619 158.232 193.078 150.264 191.311 142.172C190.455 138.252 190.095 134.687 188.906 131.422C188.454 129.886 187.661 128.471 186.586 127.282C186.248 127.007 185.821 126.866 185.385 126.886C184.95 126.905 184.536 127.084 184.224 127.388C183.339 128.556 183.816 130.345 184.203 131.945C184.35 132.736 184.539 133.518 184.771 134.289Z" fill="#1B1B1B"/>
<path d="M243.5 142.986C243.251 142.412 242.848 141.919 242.334 141.56C241.821 141.202 241.219 140.994 240.594 140.959C235.024 139.94 222.719 138.188 230.245 140.226C232.003 140.703 234.589 141.248 237.745 142.004C239.195 142.35 241.55 142.61 241.78 143.379C242.383 144.474 241.295 147.155 238.498 175.553C234.219 218.998 239.224 192.553 243.326 149.609C243.689 145.855 243.968 144.264 243.5 142.986Z" fill="#1B1B1B"/>
<path d="M210.444 125.55C209.255 125.102 207.705 126.721 207.705 126.721L211.928 126.346C211.496 125.976 210.99 125.705 210.444 125.55Z" fill="#1B1B1B"/>
<path d="M201.308 125.279L204.59 126.512C204.59 126.512 203.189 123.899 201.308 125.279Z" fill="#1B1B1B"/>
<path d="M204.674 123.92C204.589 121.348 201.538 122.226 201.161 122.795C201.097 122.877 201.06 122.977 201.054 123.08C201.048 123.184 201.074 123.288 201.128 123.376C201.182 123.465 201.263 123.535 201.358 123.577C201.453 123.619 201.559 123.63 201.661 123.61C204.033 122.125 204.7 124.735 204.674 123.92Z" fill="#1B1B1B"/>
<path d="M211.615 124.756C211.706 124.824 211.815 124.863 211.929 124.867C212.042 124.871 212.154 124.84 212.249 124.779C212.345 124.717 212.419 124.628 212.462 124.523C212.505 124.418 212.515 124.302 212.49 124.191C212.386 123.48 209.81 121.221 208.517 123.669C208.101 124.462 210.014 122.212 211.615 124.756Z" fill="#1B1B1B"/>
<path d="M206.033 131.571C206.763 131.728 206.806 130.526 206.555 130.338C206.284 130.17 204.904 129.669 204.82 129.523C204.736 129.376 206.639 126.324 206.284 125.718C206.284 125.718 203.701 128.664 203.608 129.376C203.514 130.089 205.299 131.414 206.033 131.571Z" fill="#1B1B1B"/>
<path d="M209.294 134.142C209.386 134.025 209.437 133.881 209.437 133.731C209.438 133.582 209.389 133.437 209.297 133.319C209.205 133.201 209.077 133.117 208.932 133.081C208.788 133.045 208.635 133.058 208.499 133.119C205.181 135.755 203.999 132.22 204.109 133.349C204.452 136.925 208.805 135.016 209.294 134.142Z" fill="#1B1B1B"/>
<path d="M50.1351 105C55.2274 97.7737 62.9517 92.8339 71.6476 91.2425C72.6089 93.0412 75.5539 97.6287 80.9089 99.1037C86.0276 100.514 91.2151 98.3725 95.4176 95.5287C102.675 97.927 109.142 102.256 114.125 108.051C115.375 109.575 115.798 109.62 114.899 107.759C110.5 98.6425 100.101 94.0375 90.6514 92.25C89.5426 92.04 88.5139 91.98 88.4139 91.54C88.1089 90.2037 88.0539 88.8225 87.8076 87.4837C87.4464 85.52 87.1539 85.3312 86.9926 87.3587C86.9083 88.3247 86.8733 89.2942 86.8876 90.2637C86.7824 91.0824 86.9284 91.9137 87.3064 92.6475C88.2564 93.9662 90.9751 93.8237 93.6614 94.9687C85.3126 100.451 77.6439 98.5175 73.2364 91.0587C74.2991 90.9488 75.3667 90.8929 76.4351 90.8912C76.7076 75.8 76.7901 76.6312 76.4764 76.0062C76.3694 75.8217 76.2253 75.6614 76.0532 75.5355C75.881 75.4096 75.6846 75.3209 75.4764 75.275C75.279 75.2453 75.0836 75.2036 74.8914 75.15C74.6097 75.0317 74.3549 74.8577 74.1423 74.6383C73.9297 74.419 73.7637 74.1589 73.6542 73.8737C73.5448 73.5885 73.4942 73.2841 73.5055 72.9789C73.5169 72.6736 73.5899 72.3738 73.7201 72.0975C73.988 71.6681 74.356 71.31 74.7925 71.0538C75.229 70.7977 75.721 70.651 76.2266 70.6264C76.7321 70.6019 77.236 70.7001 77.6953 70.9127C78.1546 71.1254 78.5555 71.4461 78.8639 71.8475C79.377 72.5391 79.8051 73.2899 80.1389 74.0837C81.0589 75.5262 83.0251 73.2087 82.1664 70.3C81.1664 66.9125 77.1901 63.425 79.8876 61.1012C82.2714 59.0525 89.4001 61.2475 92.4939 61.645C94.1839 66.545 98.7438 74.2212 95.7351 78.9337C94.0476 81.5762 91.4701 82.385 88.3339 82.4462C85.6826 82.4987 83.2439 81.96 83.0451 82.2587C82.9613 82.3837 83.3164 82.6137 84.1951 82.9687C90.3939 85.4787 97.5263 83.4325 98.7238 77.1362C99.6638 72.2 96.3001 65.9475 93.5988 61.7075C95.7726 61.1225 99.7026 48.035 85.0901 44.4387C70.2251 40.7762 61.3751 54.2175 60.1489 59.3825C58.8076 65 62.0139 72.9875 64.7501 75.6887C67.2426 78.1512 70.2276 81.375 74.7226 80.1625C74.7014 80.6225 74.4926 86.3725 74.4089 88.8812C69.7797 89.1083 65.266 90.4042 61.2215 92.6674C57.1769 94.9307 53.7113 98.0997 51.0964 101.926C50.534 102.702 50.0441 103.528 49.6326 104.394C48.1901 107.174 48.3001 107.554 50.1351 105ZM65.8564 61.0962C65.8405 61.4746 65.7097 61.8391 65.4813 62.1412C65.1251 61.9737 65.0901 61.5162 65.0214 61.1412C64.2713 57.0325 66.8439 53.5362 69.9339 51.19C73.5121 48.5108 77.9689 47.2794 82.4151 47.7412C82.8632 47.7813 83.3052 47.8723 83.7326 48.0125C85.1226 48.465 84.8826 48.705 83.5226 48.8075C75.5001 49.405 67.1801 52.9462 65.8564 61.0962Z" fill="#1B1B1B"/>
<path d="M120.045 141.941C120.395 140.998 120.92 137.634 120.191 138.784C118.772 142.44 116.262 145.571 113 147.75C101.406 155.82 73.5765 158.986 59.459 142.375C61.654 147.1 65.9802 150.573 70.709 152.786C80.094 157.181 91.0727 157.116 101.149 154.71C105.478 153.829 109.592 152.102 113.253 149.629C116.009 147.625 118.875 145.091 120.045 141.941Z" fill="#1B1B1B"/>
<path d="M106.25 131.111C104.085 132.057 102.258 134.597 102.258 138.596C98.0851 139.43 77.1826 134.112 70.3338 123.209C68.7651 120.709 68.5101 119.126 68.1801 119.049C67.7326 118.942 67.8401 129.517 85.4301 136.799C90.2169 138.817 95.3015 140.039 100.483 140.416C101.383 140.431 102.799 140.541 103.494 139.83C104.22 139.094 103.791 137.58 103.891 136.631C103.975 135.546 104.322 134.498 104.901 133.577C105.48 132.655 106.274 131.889 107.215 131.342C107.401 131.235 108.281 130.945 108.34 130.717C108.421 130.672 107.689 130.481 106.25 131.111Z" fill="#1B1B1B"/>
<path d="M110.24 139.328C107.72 144.015 111.865 141.669 113.271 138.094C114.405 135.211 113.455 133.345 110.24 139.328Z" fill="#1B1B1B"/>
<path d="M113.94 143.844C114.697 143.647 115.381 143.233 115.905 142.651C118.155 140.401 118.856 136.603 117.515 137.341C116.68 137.803 115.536 139.646 114.546 141.271C113.761 142.561 112.875 143.98 113.94 143.844Z" fill="#1B1B1B"/>
<path d="M109.006 122.268V136.484C109.006 136.555 109.02 136.626 109.047 136.693C109.074 136.759 109.114 136.819 109.165 136.869C109.215 136.92 109.275 136.96 109.341 136.987C109.408 137.014 109.479 137.028 109.55 137.028C109.694 137.025 109.83 136.967 109.932 136.866C110.033 136.764 110.091 136.627 110.094 136.484C110.094 120.995 110.018 122.135 110.261 121.891C110.511 121.683 109.423 121.855 129.788 119.864C129.865 119.863 129.942 119.879 130.014 119.91C130.085 119.941 130.15 119.986 130.202 120.043C130.255 120.1 130.296 120.168 130.322 120.241C130.347 120.315 130.357 120.393 130.351 120.47L126.776 149.47C126.735 149.763 126.484 149.95 126.088 149.95L113.188 152.041C113.116 152.052 113.048 152.077 112.986 152.115C112.924 152.152 112.87 152.202 112.828 152.26C112.785 152.318 112.754 152.384 112.737 152.454C112.72 152.525 112.717 152.597 112.728 152.669C112.739 152.74 112.764 152.809 112.801 152.871C112.839 152.932 112.888 152.986 112.946 153.029C113.004 153.072 113.07 153.102 113.141 153.12C113.211 153.137 113.284 153.14 113.355 153.129L126.15 151.038C126.564 151.055 126.97 150.916 127.287 150.649C127.604 150.382 127.81 150.006 127.864 149.595L131.439 120.595C131.467 120.361 131.444 120.124 131.372 119.899C131.301 119.674 131.181 119.468 131.023 119.294C130.864 119.119 130.67 118.981 130.453 118.888C130.236 118.796 130.002 118.751 129.766 118.756L110.741 120.616C110.519 120.609 110.296 120.646 110.088 120.725C109.88 120.804 109.689 120.924 109.528 121.078C109.366 121.232 109.237 121.416 109.147 121.62C109.058 121.825 109.01 122.045 109.006 122.268Z" fill="#1B1B1B"/>
<path d="M234.046 202C233.733 201.631 233.358 201.32 232.939 201.08C227.09 197.399 220.546 192.742 218.681 191.944C219.263 192.498 219.884 193.008 220.541 193.47C232.232 202.114 233.409 202.205 233.315 203.17C233.256 203.776 232.541 203.94 232.04 203.902C230.972 203.822 19.8035 204.254 17.6873 204.215C16.8911 204.344 16.0744 204.228 15.3461 203.881C15.0546 203.675 14.8211 203.398 14.6678 203.076C14.5146 202.753 14.4468 202.397 14.471 202.041C14.5095 201.721 14.6174 201.413 14.7871 201.138C14.9567 200.864 15.1842 200.63 15.4535 200.452C16.3735 199.657 17.1798 199.019 17.8573 198.509C18.9098 197.716 19.5723 197.212 19.8435 196.94C25.6215 199.486 32.0913 200.002 38.1998 198.404C43.3348 197.154 53.5673 193.087 45.9973 194.996C44.1385 195.465 41.4385 196.264 38.1361 196.871C28.6835 198.627 16.7773 196.009 11.1673 187.484C5.9698 179.6 8.1823 167.575 14.3848 160.75C15.1298 160.045 15.8347 159.298 16.496 158.514C16.5473 158.152 11.8448 160.475 8.94855 166.666C3.2573 178.841 6.3748 190.689 18.9998 196.527C18.1635 197.134 16.6098 198.484 15.801 199.077C15.2713 199.42 14.7805 199.82 14.3373 200.269C14.0836 200.601 13.9011 200.982 13.8011 201.388C13.7011 201.793 13.6858 202.216 13.7562 202.628C13.8266 203.04 13.9811 203.433 14.2101 203.782C14.4391 204.132 14.7377 204.431 15.0873 204.66C19.1723 207.467 210.08 205.221 231.886 205.077C232.369 205.101 232.852 205.03 233.307 204.869C233.575 204.761 233.813 204.592 234.004 204.375C234.194 204.159 234.33 203.9 234.402 203.621C234.474 203.342 234.479 203.05 234.417 202.768C234.356 202.486 234.228 202.223 234.046 202Z" fill="#1B1B1B"/>
<path d="M134.115 160.653C137.422 169.028 141.504 177.205 145.446 185.278C147.792 190.083 148.279 190.508 146.366 185.381C143.915 178.814 141.464 173.054 138.547 166.044C138.297 165.438 136.101 159.458 135.829 159.5C136.31 159.436 137.879 159.151 138.924 159.04C150.765 157.778 162.531 156.226 174.424 155.736C175.667 155.685 175.562 155.676 175.782 156.111C179.726 163.979 183.209 172.07 186.215 180.341C188.215 185.311 188.642 185.673 187.135 180.509C184.589 171.79 181.71 162.984 177.35 154.961C177.094 154.547 176.728 154.211 176.292 153.994C175.857 153.776 175.369 153.684 174.884 153.729C162.619 154.22 150.386 155.337 138.235 157.074C136.876 157.288 134.279 157.255 133.86 158.934C133.766 159.519 133.855 160.119 134.115 160.653Z" fill="#1B1B1B"/>
<path d="M207.286 192.409C189.919 195.749 167.871 198.423 166.729 198.304C165.774 198.114 164.847 197.805 163.969 197.384C161.63 196.5 150.504 192.35 148.352 191.614C138.485 188.239 151.149 193.911 161.439 198.263C162.975 199.038 164.588 199.655 166.25 200.103C168.825 200.594 193.329 197.363 205.136 194.853C207.464 194.353 211.177 194.149 211.177 192.615C211.142 192.352 211.03 192.105 210.855 191.905C210.681 191.705 210.451 191.561 210.195 191.49C207.522 190.498 204.695 189.778 201.979 188.939C185 183.704 182.659 183.801 207.286 192.409Z" fill="#1B1B1B"/>
<path d="M155.625 189.984C166.02 189.494 185.565 184.427 185.667 183.711C185.709 183.565 185.27 183.482 184.309 183.502C177.626 183.64 167.035 186.524 151.757 189.085C148.116 189.695 152.112 190.149 155.625 189.984Z" fill="#1B1B1B"/>
<path d="M92.1139 73.3474C91.5176 74.1824 92.4626 74.2387 93.4314 73.9324C93.6874 73.8596 93.938 73.769 94.1814 73.6612C94.4237 73.5306 94.6199 73.3286 94.7433 73.0826C94.8668 72.8366 94.9115 72.5585 94.8714 72.2862C94.4239 70.9378 93.793 69.6575 92.9964 68.4812C91.6726 66.4649 90.5501 65.7012 90.5089 66.7674C90.4464 68.3462 92.3064 71.5674 92.9539 72.4737C92.6333 72.723 92.3504 73.0173 92.1139 73.3474Z" fill="#1B1B1B"/>
<path d="M88.3301 69.5212C88.6251 69.3587 88.6226 68.7274 88.2888 68.0999C87.9551 67.4724 87.4526 67.1387 87.1638 67.3049C86.8751 67.4712 86.8751 68.0974 87.2051 68.7274C87.5188 69.3312 88.0188 69.6937 88.3301 69.5212Z" fill="#1B1B1B"/>
<path d="M83.5423 67.2013C83.7098 68.3925 84.9035 68.2888 85.006 67.87C86.131 63.275 89.7736 66.4688 88.8523 65.2988C85.9898 61.6588 83.3748 66.0088 83.5423 67.2013Z" fill="#1B1B1B"/>
<path d="M87.9538 76.2737C87.5351 76.1312 87.1801 76.065 87.2638 76.6925C87.3753 77.1002 87.6178 77.4599 87.9538 77.7162C88.4005 78.0343 88.9057 78.2609 89.4403 78.383C89.9749 78.505 90.5283 78.5202 91.0688 78.4275C93.6938 78.0987 95.3188 75.5425 93.9963 75.5425C93.3811 75.6264 92.7775 75.7808 92.1976 76.0025C90.8321 76.4676 89.3674 76.5612 87.9538 76.2737Z" fill="#1B1B1B"/>
<path d="M162.735 112.086C166.579 125.604 173.575 142.92 172.477 136.735C171.542 131.461 166.991 118.451 164.429 112.045L162.735 112.086Z" fill="#1B1B1B"/>
<path d="M142.101 136.5C144.779 131.69 149.259 118.602 150.924 112.5L148.979 112.584C146.55 119.375 138.565 142.856 142.101 136.5Z" fill="#1B1B1B"/>
<path d="M159.432 52.295C160.332 54.3452 161.337 56.3479 162.442 58.295H164.45C164.157 58.295 163.189 55.6012 163.049 55.305C162.392 53.9187 161.754 52.5237 161.21 51.1025C160.896 50.2875 160.585 48.8425 159.516 48.72C158.22 48.57 157.816 50.4325 157.53 51.3325C156.802 53.6275 156.155 55.9575 155.565 58.295H157.405C157.575 57.8125 159.166 53.0412 159.432 52.295Z" fill="#1B1B1B"/>
<path d="M94.4138 194.479C84.455 194.65 54.6026 201.011 54.1488 200.875C50.3513 199.744 41.3825 195.541 46.5388 198.847C48.9265 200.339 51.4626 201.579 54.1063 202.547C56.2313 202.725 78.0638 198.561 80.1563 198.157C93.375 195.606 99.85 194.385 94.4138 194.479Z" fill="#1B1B1B"/>
<path d="M40.5002 140.289C43.7564 144.259 49.8252 142.631 52.9189 139.39C54.3088 137.863 55.3635 136.062 56.0151 134.103C56.6668 132.144 56.901 130.07 56.7027 128.015C56.4364 125.951 55.8852 124.425 55.6364 126.515C55.1052 130.966 54.0039 135.92 50.3477 138.89C49.1599 139.909 47.7024 140.561 46.1515 140.769C44.6006 140.977 43.0228 140.73 41.6089 140.06C41.3502 139.935 39.7527 138.613 40.0614 139.538C40.1783 139.804 40.3256 140.056 40.5002 140.289Z" fill="#1B1B1B"/>
<path d="M55.1102 136.317C55.0102 136.507 54.8827 136.674 54.7764 136.86C54.283 137.796 53.656 138.656 52.9152 139.411C51.8602 140.47 50.6106 141.314 49.2352 141.899C49.1939 143.592 49.4239 146.524 49.6102 148.442C49.33 148.593 49.0372 148.718 48.7352 148.817C44.4289 149.967 41.6452 145.202 39.9339 142.192C37.5464 137.992 34.0327 126.317 45.8502 120.68C49.7164 118.837 52.6839 120.43 54.8814 122.729C54.9553 122.807 55.0516 122.86 55.1571 122.882C55.2626 122.903 55.3721 122.891 55.4706 122.848C55.5691 122.804 55.6517 122.731 55.7072 122.639C55.7626 122.547 55.7881 122.44 55.7802 122.332C53.8227 106.082 37.9239 107.457 32.0514 110.541C15.8202 119.054 22.4564 142.779 23.9614 146.75C25.4664 150.721 23.8989 150.389 23.8989 150.389C16.9577 153.9 15.1177 156.243 15.1177 156.243L25.4664 159.42C60.1502 168.305 56.4077 143.551 55.4252 135.67C55.3029 135.877 55.1976 136.094 55.1102 136.317ZM35.1452 113.592C34.7555 113.755 34.3838 113.959 34.0364 114.199C33.5494 114.451 33.0934 114.76 32.6777 115.117C32.1403 115.507 31.6555 115.964 31.2352 116.477C30.9682 116.743 30.7301 117.036 30.5252 117.352C30.3152 117.687 30.0652 118.001 29.8552 118.352C26.7564 123.594 26.9802 132.264 26.7827 135.307C26.5602 138.611 25.0139 133.239 25.2564 127.572C25.4789 122.35 27.3327 116.226 31.9252 113.774C32.8772 113.211 33.94 112.862 35.0402 112.75C36.5664 112.625 36.4039 113 35.1452 113.592Z" fill="#5A47FB"/>
<path d="M52.7686 139.516L53.0186 139.266C52.9673 139.368 52.8411 139.444 52.7686 139.516Z" fill="#1B1B1B"/>
<path d="M45.5775 127.75C45.6175 127.29 45.43 126.894 45.1587 126.875C44.8875 126.856 44.6362 127.21 44.5937 127.669C44.5 128.742 45.475 128.894 45.5775 127.75Z" fill="#1B1B1B"/>
<path d="M51.451 127.39C51.4098 127.871 51.6185 128.265 51.8898 128.289C52.161 128.313 52.4248 127.933 52.4548 127.474C52.4873 126.993 52.2873 126.599 52.016 126.575C51.7648 126.533 51.4998 126.909 51.451 127.39Z" fill="#1B1B1B"/>
<path d="M53.9402 124.567C53.6677 123.774 50.3052 121.767 49.3814 124.881C49.0902 125.864 50.7414 122.831 53.0827 125.404C53.2914 125.634 54.2114 125.362 53.9402 124.567Z" fill="#1B1B1B"/>
<path d="M43.235 125.864C45.6813 123.376 47.21 126.406 46.9563 125.425C46.1513 122.308 42.7063 124.209 42.3988 125.006C42.0913 125.804 43.0288 126.075 43.235 125.864Z" fill="#1B1B1B"/>
<path d="M25.0265 177.836C27.7297 179.181 30.6699 179.984 33.6815 180.199C43.2477 180.395 48.9065 178.199 55.0264 177.733C55.3877 177.705 56.329 177.692 56.3852 177.524C56.449 177.399 56.1165 177.181 55.2352 176.937C54.0229 176.658 52.7772 176.553 51.5352 176.624C47.6377 176.756 36.1152 178.74 31.2777 178.15C31.2737 178.086 31.2594 178.022 31.2352 177.962C30.7539 176.836 30.5057 175.625 30.5057 174.4C30.5057 173.175 30.7539 171.964 31.2352 170.837C31.2872 170.707 31.2877 170.561 31.2366 170.43C31.1854 170.299 31.0864 170.192 30.9595 170.131C30.8327 170.07 30.6874 170.059 30.553 170.101C30.4185 170.143 30.305 170.234 30.2352 170.356C29.1852 172.772 29.1179 175.502 30.0477 177.966C28.7977 177.779 26.279 177.216 25.3852 177.109C23.7315 176.907 23.5215 177.167 25.0265 177.836Z" fill="#1B1B1B"/>
<path d="M49.4024 133.39C49.9849 132 49.3212 126.749 48.7337 128.14C48.1249 129.585 48.8487 134.712 49.4024 133.39Z" fill="#1B1B1B"/>
<path d="M44.3439 135.417C43.7402 135.116 43.8589 136.107 44.6777 136.61C45.0648 136.876 45.5183 137.028 45.9874 137.05C46.4564 137.072 46.9223 136.963 47.3327 136.735C47.8814 136.187 46.5014 136.225 45.2427 135.794C44.9281 135.708 44.626 135.581 44.3439 135.417Z" fill="#1B1B1B"/>
<path d="M98.2186 190.59C100.574 182.929 104.322 168.403 106.54 160.066C106.623 159.742 106.626 159.402 106.549 159.076C106.472 158.75 106.316 158.447 106.096 158.195C105.876 157.942 105.597 157.747 105.285 157.626C104.972 157.505 104.635 157.462 104.302 157.5C90.1974 159.07 80.0386 160.341 67.6124 161.786C66.2524 161.944 65.7811 161.873 65.0411 163.689C61.3761 172.68 55.6836 190.013 53.5836 196.344C53.5064 196.57 53.4933 196.813 53.5458 197.046C53.5983 197.279 53.7144 197.493 53.8812 197.664C54.048 197.835 54.259 197.957 54.4907 198.015C54.7223 198.074 54.9657 198.067 55.1936 197.995C55.1936 197.995 93.7474 192.245 96.3374 191.975C97.6924 191.826 97.9199 191.561 98.2186 190.59ZM86.4486 164.29C80.7671 165.938 74.9538 167.092 69.0736 167.739C68.87 167.739 68.6668 167.76 68.4674 167.801C68.1549 168.114 65.0674 179.064 64.2036 178.631C63.9099 178.485 64.2399 177 64.2661 176.791C64.6282 173.524 65.3721 170.31 66.4824 167.216C67.2586 165.19 69.7649 165.591 71.5199 165.356C76.9511 164.625 82.5749 163.208 86.5311 163.474C88.2249 163.589 88.0399 163.875 86.4486 164.29Z" fill="#1B1B1B"/>
<path d="M108.25 171.5C115.625 172.701 141 171.231 134.404 170.141C127.063 168.927 101.679 170.43 108.25 171.5Z" fill="#1B1B1B"/>
</svg>
