<svg width="339" height="272" viewBox="0 0 339 272" fill="none" xmlns="http://www.w3.org/2000/svg">
<g filter="url(#filter0_d_107_2366)">
<path d="M120.848 13.399C129.261 14.0435 136.157 14.4688 146.867 15.1132C149.032 16.6341 150.527 17.4847 151.062 18.2387C151.81 19.6307 153.318 21.5639 158.718 25.4305C163.867 26.0685 167.682 26.1241 168.787 25.2017C170.073 24.1288 171.126 22.818 172.006 21.5478C173.946 18.7478 174.225 14.88 177.171 11.6558C181.679 6.72275 183.982 4.03929 186.831 2.97217C189.412 2.00553 204.075 -2.87932 209.386 2.44696C211.748 4.81524 213.74 9.14544 216.475 8.23715C219.056 7.38006 222.116 5.38995 227.005 6.20076C230.23 6.73564 233.447 6.39891 235.808 7.48962C238.389 8.68181 239.858 12.4131 242.897 13.3958C243.544 13.6052 244.179 13.2615 246.035 13.2863C254.5 13.399 257.537 14.3394 265.787 15.3323C267.607 15.5514 268.729 15.947 268.883 18.5996C269.309 25.9009 269.253 31.4172 270.175 32.5225C271.248 33.8081 274.899 34.8846 274.896 38.5543C274.889 45.4143 274.944 49.0027 272.953 51.1013C270.804 53.3665 270.242 56.7661 268.551 58.944C266.718 61.3059 263.283 62.5715 260.705 67.7566C258.998 71.1914 258.912 73.8794 257.706 76.8817C256.626 79.569 252.85 90.3917 256.752 95.0321C257.296 95.6797 258.096 96.4246 258.901 96.7462C261.588 97.8192 265.409 98.4261 269.75 99.4303C272.982 100.178 277.424 100.313 280.273 102.008C282.635 103.413 285.172 105.129 288.01 108.14C291.451 111.79 294.787 114.47 296.919 117.049C298.965 119.524 302.142 121.865 304.762 124.028C308.438 127.063 313.14 132.621 315.823 134.877C318.517 137.142 321.21 139.969 324.526 142.61C328.196 145.533 333.115 150.484 336.232 154.323C337.624 156.037 339.415 164.203 338.043 174.973C336.974 183.374 336.542 191.049 335.681 193.63C334.821 196.211 332.921 199.102 331.167 202.117C329.228 205.452 327.277 208.26 324.826 211.677C322.358 215.118 320.63 217.879 319.139 221.234C317.847 224.14 316.22 227.346 314.518 230.362C312.691 233.6 310.354 237.204 310.011 241.105C309.263 249.595 308.743 264.173 305.387 266.125C304.101 266.872 302.178 267.803 299.796 268.918C296.362 270.526 291.637 271.367 268.487 271.49C248.339 271.596 209.845 271.798 190.273 271.486C170.06 271.164 168.298 271.197 166.293 270.842C164.473 270.52 160.768 270.448 156.298 270.197C146.738 269.663 131.898 268.239 126.98 267.836C123.01 267.51 119.531 266.975 116.031 266.331C113.125 265.796 110.393 264.485 107.438 264.075C104.322 263.644 101.721 263.054 97.5554 262.464C93.779 261.929 89.5087 261.47 85.7398 261.175C78.9056 260.641 68.3913 260.629 65.9816 256.223C64.1611 252.895 63.6191 250.266 62.9817 247.633C62.2278 244.517 61.8159 240.647 60.6167 236.246C59.6501 232.698 58.8683 228.468 58.1485 223.244C57.4977 218.521 57.0528 211.312 51.8911 210.8C47.5992 210.375 43.8162 212.144 36.5795 212.202C23.2656 212.308 14.1309 211.41 12.9257 209.827C10.8797 207.14 9.6611 200.676 9.06561 195.859C8.52107 191.455 7.5457 188.052 7.02277 185.233C6.38156 181.775 4.70817 176.868 4.01651 172.876C3.36564 169.119 2.13822 165.265 1.97689 155.151C1.87056 148.484 1.87056 136.575 1.76101 130.182C1.65146 123.79 1.37092 122.94 1.33246 118.241C1.22613 105.249 0.238819 96.1113 0.149937 89.8734C-0.0627245 74.9484 -0.194971 64.4423 0.804032 63.5453C1.87701 62.5818 4.30485 60.0923 7.25477 58.0676C11.3437 55.2611 15.0469 52.3116 18.7578 52.0583C25.0829 51.6265 29.7888 50.9739 33.7859 50.6631C37.9715 50.3377 40.5762 49.8058 45.2761 49.1584C49.1587 48.6235 53.259 47.0612 58.0938 46.9029C71.2755 46.4711 81.4191 48.5155 85.5464 45.179C86.0845 44.744 86.5953 44.1555 86.9416 43.4584C88.224 40.8775 91.9996 38.0324 89.4033 26.0395C88.4302 21.5446 85.4442 19.2941 84.5701 15.7448C84.3575 14.8812 84.3575 14.0306 91.6975 13.6052C99.0375 13.1799 113.305 12.8212 120.848 13.399Z" fill="white"/>
</g>
<defs>
<filter id="filter0_d_107_2366" x="-4" y="0" width="346.535" height="279.653" filterUnits="userSpaceOnUse" color-interpolation-filters="sRGB">
<feFlood flood-opacity="0" result="BackgroundImageFix"/>
<feColorMatrix in="SourceAlpha" type="matrix" values="0 0 0 0 0 0 0 0 0 0 0 0 0 0 0 0 0 0 127 0" result="hardAlpha"/>
<feOffset dy="4"/>
<feGaussianBlur stdDeviation="2"/>
<feComposite in2="hardAlpha" operator="out"/>
<feColorMatrix type="matrix" values="0 0 0 0 0 0 0 0 0 0 0 0 0 0 0 0 0 0 0.41 0"/>
<feBlend mode="normal" in2="BackgroundImageFix" result="effect1_dropShadow_107_2366"/>
<feBlend mode="normal" in="SourceGraphic" in2="effect1_dropShadow_107_2366" result="shape"/>
</filter>
</defs>
</svg>
