<svg width="326" height="326" viewBox="0 0 326 326" fill="none" xmlns="http://www.w3.org/2000/svg">
<path d="M116.545 90.0558C140.759 90.9262 111.43 92.0118 51.032 92.4567C45.6742 92.5252 40.3164 92.491 34.9586 92.5611C27.7214 92.6295 20.4516 92.491 13.2128 92.9783C11.9952 93.0484 12.1353 93.9563 12.1353 94.892L12.062 97.7787C11.2274 125.891 11.6789 154.072 13.1753 182.149C13.5926 189.663 14.0799 197.178 14.4972 204.694C15.2274 216.765 14.6374 215.584 13.0302 203.789C9.44139 174.544 7.84954 145.089 8.26572 115.627C8.29995 111.035 8.12554 106.408 8.22986 101.815C8.26572 98.579 7.42953 92.3867 10.4564 90.2302C12.6146 88.6637 17.1019 89.3597 19.6415 89.2897C23.3905 89.1853 27.1916 89.1511 30.9488 89.1169C38.499 89.081 46.0133 89.1511 53.5634 89.1853C81.2571 89.2897 104.463 89.6026 116.537 90.0558H116.545Z" fill="#1B1B1B"/>
<path d="M66.2269 160.265H130.001C130.001 143.391 129.965 121.89 129.965 105.016C129.965 103.66 129.86 102.059 128.713 101.397C128.066 101.078 127.343 100.945 126.625 101.014C92.7393 100.946 58.8642 100.969 24.9993 101.084C23.9942 101.087 23.0311 101.488 22.3206 102.198C21.6101 102.909 21.21 103.872 21.2079 104.877C20.9292 139.877 20.8248 174.912 21.7295 209.877C21.6792 212.971 22.6579 215.993 24.5119 218.471L24.965 218.924C25.8627 219.432 26.8953 219.65 27.9219 219.55C39.891 219.55 51.8584 219.515 63.8617 219.515L60.0345 166.945C59.9611 166.09 60.0671 165.229 60.3459 164.418C60.6246 163.606 61.0699 162.862 61.6531 162.233C62.2363 161.604 62.9445 161.103 63.7325 160.764C64.5204 160.424 65.3706 160.253 66.2285 160.262L66.2269 160.265ZM70.9946 154.035C70.9946 154.697 70.786 155.218 70.5056 155.218H62.887C62.6099 155.218 62.398 154.697 62.398 154.035V152.405C62.398 151.745 62.6083 151.222 62.887 151.222H70.5072C70.786 151.222 70.9962 151.745 70.9962 152.405L70.9946 154.035ZM94.6867 146.035C94.6867 146.697 94.478 147.218 94.1977 147.218H86.5807C86.3019 147.218 86.0917 146.697 86.0917 146.035V144.405C86.0917 143.743 86.3003 143.222 86.5807 143.222H94.1993C94.478 143.222 94.6883 143.743 94.6883 144.405L94.6867 146.035ZM114.553 124.193V125.823C114.576 126.114 114.482 126.401 114.293 126.623C114.104 126.845 113.835 126.983 113.544 127.006H97.1577C96.8672 126.983 96.598 126.845 96.4089 126.623C96.2198 126.401 96.1262 126.114 96.1488 125.823V124.193C96.1262 123.902 96.2198 123.615 96.4089 123.393C96.598 123.171 96.8672 123.033 97.1577 123.01H113.544C113.688 123.018 113.83 123.056 113.959 123.12C114.089 123.185 114.204 123.275 114.298 123.384C114.392 123.494 114.463 123.622 114.507 123.759C114.551 123.897 114.566 124.042 114.553 124.186V124.193ZM88.5644 113.644C88.5644 112.983 88.9458 112.462 89.3631 112.462H102.132C102.584 112.462 102.933 112.983 102.933 113.644V115.274C102.933 115.934 102.55 116.455 102.132 116.455H89.3631C88.9116 116.455 88.5644 115.934 88.5644 115.274V113.644ZM61.6352 113.644C61.6349 113.489 61.6655 113.335 61.725 113.192C61.7845 113.049 61.8718 112.919 61.9819 112.81C62.0919 112.701 62.2225 112.614 62.3662 112.556C62.5098 112.498 62.6635 112.468 62.8185 112.47H81.9531C82.1076 112.469 82.2606 112.499 82.4035 112.558C82.5463 112.617 82.6762 112.703 82.7855 112.812C82.8949 112.921 82.9816 113.051 83.0408 113.193C83.0999 113.336 83.1302 113.489 83.13 113.644V115.274C83.1313 115.429 83.1015 115.584 83.0425 115.728C82.9835 115.872 82.8963 116.003 82.7862 116.113C82.676 116.223 82.545 116.31 82.4009 116.369C82.2567 116.427 82.1023 116.457 81.9466 116.455H62.8185C62.6628 116.457 62.5084 116.427 62.3643 116.369C62.2201 116.31 62.0891 116.223 61.9789 116.113C61.8688 116.003 61.7816 115.872 61.7226 115.728C61.6636 115.584 61.6338 115.429 61.6352 115.274V113.644ZM61.6352 124.186C61.6352 123.525 62.2953 123.003 63.1657 123.003H87.764C88.6328 123.003 89.2946 123.525 89.2946 124.186V125.816C89.2946 126.478 88.6328 127 87.764 127H63.1657C62.2953 127 61.6352 126.478 61.6352 125.816V124.186ZM61.6352 135.389C61.6352 134.728 62.2953 134.206 63.1657 134.206H95.1398C95.4303 134.23 95.6996 134.368 95.8887 134.589C96.0778 134.811 96.1713 135.099 96.1488 135.389V137.019C96.1709 137.31 96.0772 137.597 95.8882 137.819C95.6991 138.041 95.4301 138.179 95.1398 138.203H63.1657C62.2953 138.203 61.6352 137.68 61.6352 137.019V135.389ZM61.6352 144.4C61.6295 144.249 61.6539 144.098 61.707 143.957C61.7601 143.815 61.8407 143.686 61.9443 143.576C62.0479 143.465 62.1723 143.377 62.3104 143.315C62.4484 143.254 62.5973 143.22 62.7484 143.217H80.7697C80.9208 143.22 81.0698 143.254 81.2078 143.315C81.3458 143.377 81.4703 143.465 81.5739 143.576C81.6774 143.686 81.7581 143.815 81.8112 143.957C81.8642 144.098 81.8887 144.249 81.883 144.4V146.03C81.8887 146.181 81.8642 146.332 81.8112 146.473C81.7581 146.615 81.6774 146.744 81.5739 146.855C81.4703 146.965 81.3458 147.053 81.2078 147.115C81.0698 147.176 80.9208 147.21 80.7697 147.213H62.755C62.6038 147.21 62.4549 147.176 62.3169 147.115C62.1788 147.053 62.0544 146.965 61.9508 146.855C61.8473 146.744 61.7666 146.615 61.7135 146.473C61.6604 146.332 61.636 146.181 61.6417 146.03L61.6352 144.4ZM31.5405 202.265C31.0128 202.602 30.3922 202.763 29.7674 202.725C29.1426 202.688 28.5457 202.454 28.062 202.056C27.5046 201.256 28.1664 200.073 29.5568 199.448C30.0845 199.111 30.7055 198.95 31.3307 198.987C31.9559 199.025 32.5531 199.259 33.0368 199.657C33.5584 200.449 32.8966 201.631 31.5405 202.259V202.265ZM31.5405 188.418C31.0128 188.755 30.3922 188.916 29.7674 188.878C29.1426 188.841 28.5457 188.607 28.062 188.21C27.5046 187.409 28.1664 186.226 29.5568 185.602C30.0845 185.264 30.7055 185.103 31.3307 185.14C31.9559 185.178 32.5531 185.412 33.0368 185.81C33.5584 186.602 32.8966 187.786 31.5405 188.412V188.418ZM31.5405 174.606C31.0128 174.942 30.3922 175.103 29.7674 175.066C29.1426 175.028 28.5457 174.794 28.062 174.397C27.5046 173.597 28.1664 172.413 29.5568 171.789C30.0848 171.452 30.7056 171.291 31.3306 171.329C31.9556 171.366 32.5528 171.6 33.0368 171.998C33.5584 172.756 32.8966 173.903 31.5405 174.599V174.606ZM51.1624 202.544C46.5348 203.204 41.3172 203.1 39.4378 202.334C37.5601 201.535 39.8209 200.386 44.4484 199.726C49.076 199.065 54.2936 199.168 56.173 199.934C58.0166 200.692 55.79 201.875 51.1624 202.537V202.544ZM51.1624 188.689C46.5348 189.351 41.3172 189.246 39.4378 188.48C37.5601 187.68 39.8209 186.524 44.4484 185.872C49.076 185.22 54.2936 185.315 56.173 186.081C58.0166 186.845 55.79 188.029 51.1624 188.689ZM51.1624 174.834C46.5348 175.496 41.3172 175.391 39.4378 174.625C37.5601 173.825 39.8209 172.669 44.4484 172.017C49.076 171.365 54.2936 171.461 56.173 172.227C58.0166 172.998 55.79 174.182 51.1624 174.842V174.834ZM57.0777 154.273C56.2073 158.935 55.1217 153.264 54.6066 141.644C54.0915 130.023 54.398 116.803 55.2341 112.141C56.1029 107.477 57.1901 113.15 57.7036 124.77C58.191 136.431 57.9465 149.619 57.0777 154.281V154.273Z" fill="#5A47FB"/>
<path d="M136.889 70.8513C136.297 64.3102 136.437 57.6646 136.054 51.1593C136.043 50.7806 135.883 50.4216 135.608 50.1608C135.333 49.9 134.966 49.7585 134.587 49.7673C120.149 49.7331 104.946 49.8716 90.5074 50.1846C90.3213 50.1832 90.1368 50.2193 89.965 50.291C89.7932 50.3626 89.6377 50.4681 89.5077 50.6013C89.3777 50.7345 89.2759 50.8926 89.2085 51.066C89.1411 51.2395 89.1094 51.4248 89.1153 51.6108C89.1153 55.368 89.1496 65.9108 89.1153 70.9899C89.0778 71.1156 89.073 71.2488 89.1014 71.3769C89.1298 71.505 89.1906 71.6237 89.2778 71.7217C89.365 71.8197 89.4758 71.8937 89.5998 71.9368C89.7237 71.9799 89.8565 71.9906 89.9858 71.9679H135.846C136.011 71.991 136.179 71.9748 136.336 71.9203C136.493 71.8659 136.635 71.775 136.75 71.6549C136.895 71.415 136.945 71.1293 136.889 70.8546V70.8513ZM98.9671 61.2132C100.571 62.2889 102.032 63.5633 103.316 65.0062C104.706 66.9622 101.89 66.3982 96.9133 63.7527L95.0355 62.7095L94.095 62.1537L93.6435 61.8749C93.4053 61.738 93.2027 61.547 93.0518 61.3175C92.8274 61.0095 92.6949 60.6441 92.6698 60.2638C92.6447 59.8836 92.728 59.504 92.91 59.1691C93.1511 58.7758 93.5017 58.4614 93.9189 58.2645L94.196 58.1259L94.685 57.9173L95.6256 57.4642C96.2515 57.1854 96.8432 56.9426 97.4691 56.6638C99.2491 55.8417 101.134 55.268 103.07 54.9588C105.437 54.7861 103.419 56.9425 98.5824 59.7608L97.6777 60.2498C98.0898 60.5978 98.5196 60.9243 98.9654 61.2278L98.9671 61.2132ZM114.941 58.7779C113.41 62.2922 110.974 65.8065 109.479 66.6019C107.983 67.4365 108.012 65.2099 109.547 61.7657C111.078 58.2857 113.515 54.773 115.01 53.9727C116.467 53.1381 116.467 55.2995 114.936 58.7779H114.941ZM132.198 60.4079C132.121 60.9142 131.876 61.3798 131.502 61.7299C130.388 62.6268 129.226 63.4631 128.022 64.2352C126.438 65.4089 124.692 66.3467 122.838 67.0192C120.576 67.6451 122.212 65.0632 126.353 61.4169L127.292 60.5823C126.838 60.4079 126.421 60.1993 126.04 60.0265C124.219 59.2761 122.51 58.2808 120.959 57.0681C119.254 55.4674 122.177 55.4674 127.534 57.1039L129.552 57.7298L130.561 58.077L130.84 58.1471C131.029 58.2095 131.205 58.3038 131.362 58.4259C131.632 58.6793 131.846 58.9867 131.99 59.3281C132.134 59.6696 132.205 60.0374 132.198 60.4079Z" fill="#5A47FB"/>
<path d="M209.708 93.8878C210.334 93.852 210.751 92.9473 210.686 91.9041C210.62 90.8609 210.058 90.0264 209.432 90.0606C208.806 90.0948 208.389 90.9995 208.454 92.0443C208.56 93.1527 209.116 93.9514 209.708 93.8878Z" fill="#1B1B1B"/>
<path d="M195.303 90.6476C194.677 90.6818 194.226 91.6256 194.294 92.6998C194.363 93.7739 194.956 94.6134 195.616 94.5792C196.244 94.5433 196.695 93.6012 196.625 92.5254C196.555 91.4496 195.926 90.6117 195.303 90.6476Z" fill="#1B1B1B"/>
<path d="M199.062 86.5076C197.461 79.3046 189.494 83.3405 188.764 85.1156C188.034 86.8906 190.086 87.6551 190.607 87.1677C196.312 81.6371 199.584 88.7684 199.062 86.5157V86.5076Z" fill="#1B1B1B"/>
<path d="M214.753 88.2122C215.17 88.7681 217.326 88.385 216.872 86.5415C216.418 84.6621 209.287 79.3695 206.539 86.09C205.634 88.2807 210.017 81.8797 214.749 88.209L214.753 88.2122Z" fill="#1B1B1B"/>
<path d="M203.549 101.989C204.942 101.851 204.28 99.7285 203.724 99.5541C202.567 99.4782 201.417 99.3269 200.28 99.101C200.071 98.8923 201.532 92.4571 200.593 91.6567C200.593 91.6567 197.879 98.3023 198.122 99.5541C198.366 100.876 202.157 102.128 203.549 101.989Z" fill="#1B1B1B"/>
<path d="M211.168 108.426C211.246 108.234 211.256 108.021 211.195 107.822C211.134 107.624 211.006 107.453 210.834 107.338C210.661 107.223 210.454 107.171 210.248 107.191C210.042 107.211 209.848 107.302 209.701 107.448C206.64 112.284 203.613 108.178 204.205 109.604C206.187 114.093 210.888 109.779 211.162 108.423L211.168 108.426Z" fill="#1B1B1B"/>
<path d="M313.213 187.437C307.084 170.908 295.25 157.113 279.847 148.54C271.537 143.864 262.562 140.486 253.232 138.521C247.156 137.362 241.024 136.514 234.862 135.981V135.911C234.896 130.345 234.896 124.778 234.896 119.246V107.243C235.088 106.021 235.088 104.777 234.896 103.556C235.696 105.433 237.576 106.93 242.133 105.433C250.344 102.755 254.901 93.1171 253.198 84.9067C252.506 82.3515 251.464 79.9045 250.101 77.6353C254.207 78.3656 259.529 77.4267 262.489 73.5603C267.053 67.5407 258.696 62.1503 258.696 62.1503C258.696 62.1503 265.584 53.3125 253.581 47.2945C245.683 43.3271 242.344 49.138 241.056 53.5211C239.618 48.658 236.715 44.3569 232.743 41.2048C227.527 37.3776 221.333 38.2138 216.078 41.5536C215.92 41.6328 215.768 41.7255 215.626 41.8307C215.776 41.9966 215.915 42.1714 216.044 42.354C216.578 43.0803 216.87 43.9562 216.878 44.8576C216.774 45.4151 216.425 45.4151 216.008 45.1364C215.556 44.8234 214.999 44.2317 214.268 43.5716C213.955 43.2928 213.643 43.0141 213.33 42.7712C209.641 41.2048 190.785 34.1078 188.418 53.9742C188.418 53.9742 174.71 59.1902 177.911 72.0672C178.349 74.0687 179.349 75.9039 180.792 77.3579C182.235 78.812 184.063 79.8247 186.061 80.2775C185.762 81.0132 185.563 81.7856 185.47 82.5742C185.06 85.2319 184.92 87.9243 185.052 90.6101C185.241 94.5074 185.871 98.3707 186.93 102.126C187.866 106.717 189.571 111.116 191.975 115.138C197.228 123.176 208.327 125.332 216.852 121.75C219.366 120.748 221.531 119.03 223.079 116.809C224.088 115.243 224.228 114.234 224.088 114.061C223.915 113.887 223.462 114.55 222.244 115.691C220.536 117.329 218.478 118.555 216.224 119.277C212.89 120.353 209.341 120.592 205.892 119.973C201.869 119.404 198.213 117.327 195.664 114.164C193.411 110.843 191.719 107.176 190.653 103.308C188.545 96.7105 187.255 89.879 186.814 82.967C186.797 82.0894 186.692 81.2158 186.501 80.359C190.403 80.9868 194.398 80.1364 197.705 77.9743C201.012 75.8123 203.394 72.494 204.384 68.6687C204.037 69.782 206.229 72.566 206.889 73.3663C207.994 74.7521 209.398 75.8699 210.995 76.6361C212.832 77.4783 214.826 77.923 216.847 77.941C218.867 77.959 220.869 77.5498 222.72 76.7404C224.584 76.0555 226.297 75.0159 227.765 73.6793C228.216 73.2262 229.851 70.1993 230.547 70.478C230.687 70.5122 230.826 70.6524 230.896 70.9295C231.065 71.7023 231.025 72.5062 230.781 73.2585C230.536 74.0108 230.095 74.6844 229.504 75.2099C229.082 75.6343 228.584 75.9765 228.037 76.2188C227.933 79.9418 228.384 86.3428 232.629 88.082C238.229 90.4487 235.69 90.3444 237.987 86.8301C238.556 86.266 239.265 85.8626 240.041 85.6608C240.817 85.459 241.633 85.466 242.405 85.681C246.406 87.0388 245.224 94.1358 242.301 95.9793C240.258 97.0642 237.969 97.6037 235.656 97.5458C234.055 97.6843 232.976 98.0348 232.663 99.8424C232.367 103.115 232.263 106.403 232.35 109.688C232.282 113.236 232.177 116.75 232.071 120.299C231.967 125.484 231.899 130.667 231.758 135.851C231.68 136.599 231.801 137.356 232.107 138.043C233.012 139.608 235.377 139.469 236.907 139.644C238.508 139.852 240.143 140.061 241.848 140.27C234.299 147.158 227.167 150.115 220.625 149.072C213.041 147.854 208.135 141.453 206.223 138.46C207.613 138.39 208.971 138.356 210.363 138.322C211.44 138.286 213.737 138.773 214.467 137.764C214.612 137.469 214.706 137.152 214.746 136.826C214.799 135.5 214.729 134.172 214.537 132.86C214.329 131.23 214.016 129.833 213.841 128.72C213.722 127.469 213.478 126.233 213.111 125.031C212.728 124.822 212.519 127.849 212.519 128.024C212.449 130.459 212.728 132.86 212.59 135.259C212.59 135.399 212.554 135.608 212.554 135.748C212.554 135.678 198.151 135.888 196.933 135.922C185.453 136.36 174.281 139.764 164.508 145.804C157.337 150.168 150.872 155.6 145.337 161.911C142.31 165.425 142.345 166.087 145.963 163.165C155.078 155.893 164.403 148.586 175.258 144.169C176.997 143.473 178.772 142.811 180.545 142.213C186.1 140.497 191.835 139.432 197.636 139.039C199.862 138.935 202.089 138.69 204.141 138.586C204.89 139.562 205.576 140.584 206.195 141.647C207.363 143.22 208.706 144.655 210.197 145.926C221.434 155.668 234.934 149.512 244.264 140.602C245.405 140.742 246.56 140.915 247.708 141.091C265.974 143.839 284.065 152.782 296.556 166.519C303.005 173.614 307.941 181.948 311.063 191.013C312.817 196.223 314.041 201.596 314.717 207.051C316.305 217.971 314.146 229.106 308.593 238.642C306.53 241.916 304.066 244.92 301.258 247.584C299.868 248.94 298.44 250.228 296.945 251.516C296.284 252.071 294.719 252.906 294.404 253.742C294.336 253.915 294.927 253.672 296.179 252.906C301.531 249.715 306.154 245.437 309.747 240.347C320.668 224.761 319.245 204.581 313.227 187.429L313.213 187.437Z" fill="#1B1B1B"/>
<path d="M284.719 274.833C285.085 272.335 285.014 269.792 284.51 267.318C284.195 266.275 283.118 265.092 281.935 265.266C272.054 266.896 262.173 268.57 252.223 270.032C243.004 271.499 233.749 272.64 224.529 274.032C222.209 274.508 219.862 274.845 217.501 275.041C216.82 270.99 216.402 266.9 216.249 262.795C215.832 258.308 215.519 253.854 215.136 249.365C214.057 235.836 213.118 221.08 211.1 205.39C210.091 197.566 208.873 189.489 207.134 181.244C206.681 179.191 206.229 177.139 205.776 175.05C205.437 173.586 204.585 172.29 203.375 171.398C202.167 170.607 200.744 170.208 199.3 170.257C194.986 170.222 190.707 170.187 186.358 170.082C166.309 169.456 146.244 168.377 126.273 167.021C111.766 166.043 97.2589 164.933 82.7144 164.377C79.4087 164.273 76.1031 164.237 72.7991 164.341C70.1911 164.446 67.2669 164.55 65.4918 166.812C63.6141 169.109 64.2742 172.205 64.4486 174.918C64.7958 179.893 65.1446 184.834 65.4918 189.844C66.7094 207.518 68.2759 225.227 70.1194 242.831C70.3981 245.276 70.641 247.633 70.9197 250.068C71.4772 255.113 72.1031 260.158 72.7991 265.168C73.2164 268.159 73.7038 271.082 74.121 274.075C74.2271 275.34 74.6198 276.564 75.2693 277.655C75.9189 278.746 76.8082 279.675 77.87 280.371C80.3053 281.763 83.4023 281.38 86.0803 281.485C103.793 282.284 121.502 283.073 139.207 283.851C152.777 284.441 166.361 285.021 179.957 285.591C190.498 286.042 201.075 286.495 211.616 286.983C214.192 287.087 216.8 287.191 219.375 287.33H219.55C230.96 285.799 242.407 284.233 253.819 282.702C263.283 281.45 272.781 280.128 282.243 278.807C284.199 278.562 284.574 276.406 284.714 274.839L284.719 274.833ZM101.784 278.8C94.7911 278.451 87.7658 278.104 80.6313 277.755C77.813 277.617 77.3615 273.615 77.117 271.493C76.6997 267.561 76.0738 263.669 75.5864 259.734C73.8113 245.227 72.4209 230.404 71.099 215.514C69.8455 200.624 68.6279 185.522 67.6891 170.597C67.3761 165.552 83.205 168.128 86.0934 168.232C108.499 169.137 130.905 170.84 153.311 171.955C162.148 172.407 170.741 172.824 179.126 173.033C185.701 173.243 192.208 173.311 198.783 173.347C199.912 173.212 201.051 173.496 201.983 174.146C204.697 176.547 204.454 182.358 205.08 185.628C207.098 196.1 208.594 206.677 209.742 217.25C211.238 230.888 212.177 243.587 213.256 255.137C213.778 260.914 214.37 266.41 214.961 271.6C215.344 274.836 215.796 277.967 216.179 280.994C216.228 281.37 216.195 281.753 216.082 282.116C215.969 282.478 215.778 282.811 215.523 283.093C215.268 283.374 214.955 283.597 214.606 283.745C214.256 283.894 213.879 283.964 213.499 283.952C208.873 283.674 200.697 283.534 199.652 283.499C193.598 283.186 187.615 282.908 181.559 282.595C168.826 281.794 156.092 281.377 143.359 280.717C129.859 280.159 115.944 279.499 101.782 278.803L101.784 278.8Z" fill="#1B1B1B"/>
<path d="M220.841 245.191C218.162 247.243 218.092 247.835 221.258 246.513C224.423 245.191 230.234 242.234 237.297 238.963C248.793 233.416 261.044 229.595 273.654 227.621L278.525 226.995C281.9 226.612 282.283 226.159 278.838 225.638C275.514 225.197 272.148 225.174 268.818 225.569C267.149 225.742 265.444 225.986 263.809 226.263C262.259 226.397 260.729 226.7 259.245 227.168C259.857 222.828 259.704 218.415 258.793 214.128C257.542 208.319 255.732 205.848 255.384 208.249C255 210.65 255.732 216.981 256.362 222.687C256.57 224.775 256.851 226.514 257.092 227.766C249.967 229.697 243.064 232.367 236.495 235.734C231.055 238.503 225.825 241.666 220.847 245.198L220.841 245.191Z" fill="#1B1B1B"/>
<path d="M136.757 236.319C135.024 236.302 133.312 235.932 131.727 235.231C130.142 234.53 128.716 233.514 127.536 232.244C125.708 230.25 124.457 227.796 123.919 225.145C123.582 223.68 123.599 222.155 123.967 220.697C124.335 219.239 125.045 217.89 126.038 216.761C130.142 212.343 138.493 211.994 143.259 215.926C145.34 217.653 146.777 220.032 147.339 222.677C147.901 225.322 147.555 228.079 146.356 230.503C145.576 232.046 144.428 233.373 143.015 234.368C141.601 235.363 139.964 235.995 138.248 236.208C137.754 236.28 137.254 236.315 136.754 236.312L136.757 236.319ZM125.164 224.94C125.643 227.366 126.773 229.615 128.434 231.447C129.66 232.761 131.176 233.769 132.862 234.392C134.547 235.015 136.355 235.234 138.141 235.033C139.66 234.849 141.109 234.292 142.361 233.412C143.612 232.531 144.626 231.355 145.313 229.988C146.371 227.816 146.671 225.352 146.167 222.989C145.663 220.626 144.383 218.499 142.53 216.948C138.32 213.4 130.597 213.783 127.013 217.644C126.143 218.623 125.521 219.797 125.199 221.067C124.878 222.336 124.866 223.665 125.164 224.94Z" fill="#1B1B1B"/>
</svg>
