<svg width="112" height="112" viewBox="0 0 112 112" fill="none" xmlns="http://www.w3.org/2000/svg">
<path d="M97.5654 74.566C97.595 74.0117 97.7279 73.4677 97.9574 72.9622C98.0184 72.7802 97.9876 72.3871 97.6852 72.5383C97.3104 72.7758 97.0071 73.1106 96.8077 73.5071C96.1984 74.4731 95.8764 76.1301 96.9589 76.927C97.1871 77.0767 97.4633 77.135 97.7325 77.0901C98.0018 77.0453 98.2442 76.9007 98.4116 76.6851C98.6343 76.4588 98.7913 76.1761 98.8657 75.8675C98.8959 75.6899 98.883 75.5077 98.8284 75.3361C98.7737 75.1646 98.6788 75.0085 98.5515 74.8811C98.4242 74.7538 98.2682 74.6587 98.0967 74.6038C97.9252 74.549 97.743 74.5361 97.5654 74.566Z" fill="#5A47FB"/>
<path d="M100.925 74.566C100.954 74.0117 101.087 73.4677 101.317 72.9622C101.377 72.7802 101.347 72.3871 101.044 72.5383C100.67 72.7761 100.366 73.1109 100.167 73.5071C99.5573 74.4731 99.2353 76.1301 100.318 76.927C100.546 77.0768 100.822 77.135 101.092 77.0902C101.361 77.0453 101.604 76.9007 101.771 76.6851C101.994 76.4587 102.15 76.1761 102.225 75.8675C102.255 75.69 102.242 75.5079 102.187 75.3363C102.133 75.1648 102.038 75.0088 101.911 74.8814C101.783 74.754 101.627 74.6589 101.456 74.6041C101.284 74.5492 101.102 74.5362 100.925 74.566Z" fill="#5A47FB"/>
<path d="M72.1101 93.1839C72.1563 92.2417 72.3823 91.3169 72.7759 90.4595C72.9025 90.1588 72.8386 89.4952 72.3223 89.7315C71.6931 90.1456 71.1742 90.7067 70.8103 91.3662C69.7407 92.9935 69.2322 95.8512 71.0528 97.2075C71.8681 97.8151 72.9125 97.4629 73.5649 96.7836C73.9546 96.4041 74.2276 95.921 74.3517 95.3914C74.5578 94.2395 73.3813 92.8177 72.1101 93.1839Z" fill="#5A47FB"/>
<path d="M77.8613 93.1839C77.9075 92.2417 78.1336 91.3169 78.5271 90.4595C78.6531 90.1588 78.5898 89.4952 78.0729 89.7315C77.4437 90.1456 76.9248 90.7066 76.561 91.3662C75.4908 92.9935 74.9829 95.8512 76.8029 97.2075C77.6182 97.8151 78.6626 97.4629 79.315 96.7836C79.7051 96.4044 79.9781 95.9212 80.1018 95.3914C80.3085 94.2395 79.1325 92.8177 77.8613 93.1839Z" fill="#5A47FB"/>
<path d="M25.8916 77.6231C25.8499 78.8713 25.5511 80.0975 25.0141 81.225C24.8394 81.6221 24.9239 82.4985 25.5892 82.1938C26.3771 81.8326 27.1012 80.7697 27.5565 80.0445C28.9117 77.8913 29.6431 74.145 27.2535 72.3569C26.1632 71.5404 24.8265 72.0209 23.9848 72.9018C23.4703 73.4053 23.1128 74.0472 22.9555 74.7497C22.6879 76.2617 24.1965 78.0773 25.8916 77.6231Z" fill="#5A47FB"/>
<path d="M18.3551 77.6231C18.3133 78.8714 18.0144 80.0976 17.477 81.225C17.3029 81.6221 17.3874 82.4985 18.0522 82.1938C18.8401 81.8326 19.5642 80.7697 20.02 80.0445C21.3752 77.8913 22.1066 74.145 19.717 72.3569C18.6267 71.5404 17.29 72.0209 16.4483 72.9018C15.9338 73.4053 15.5763 74.0472 15.419 74.7497C15.1514 76.2617 16.66 78.0773 18.3551 77.6231Z" fill="#5A47FB"/>
<path d="M30.5833 78.7132C32.0124 79.015 37.1823 79.1931 38.1803 79.2278C40.8123 79.3191 64.7859 80.4374 66.2363 80.5293C67.6587 80.6189 69.1102 80.8255 70.5343 80.5595C70.8669 80.4973 70.8064 80.0449 70.5343 79.9239C69.3249 79.5652 68.0726 79.3718 66.8114 79.3488C62.5431 79.0402 33.6566 77.8413 30.5794 78.1683C30.4013 78.259 30.31 78.6555 30.5833 78.7132Z" fill="#5A47FB"/>
<path d="M30.0687 85.6443C33.9293 86.2642 40.2047 86.4401 67.4207 87.5511C68.1747 87.6516 68.9393 87.6414 69.6904 87.5209C69.7713 87.4969 69.8433 87.4497 69.8976 87.3851C69.9519 87.3205 69.986 87.2414 69.9958 87.1576C70.0055 87.0738 69.9904 86.989 69.9523 86.9137C69.9142 86.8384 69.8549 86.7759 69.7816 86.7341C67.6934 85.8291 46.5719 85.6191 32.3708 85.039C31.6137 85.0082 30.8269 85.0692 30.0704 85.0692C29.999 85.076 29.9327 85.1092 29.8844 85.1622C29.836 85.2152 29.8092 85.2843 29.809 85.356C29.8088 85.4277 29.8352 85.497 29.8832 85.5502C29.9312 85.6035 29.9973 85.6371 30.0687 85.6443Z" fill="#5A47FB"/>
<path d="M29.796 93.1202C32.7035 93.3778 35.6681 93.3022 38.574 93.3325C49.009 93.4411 51.4949 93.7194 52.2548 93.4837C52.3561 93.4539 52.445 93.3921 52.5082 93.3075C52.5715 93.223 52.6057 93.1203 52.6057 93.0147C52.6057 92.9091 52.5715 92.8064 52.5082 92.7218C52.445 92.6373 52.3561 92.5755 52.2548 92.5457C51.5608 92.3848 50.8475 92.3235 50.1363 92.3637C47.9523 92.2702 34.2793 92.0277 29.796 92.5149C29.4633 92.6062 29.4331 93.0883 29.796 93.1202Z" fill="#5A47FB"/>
<path d="M11.6659 66.5755C11.0661 68.5551 10.1203 84.9087 10.0313 94.6035C10.0083 97.1156 10.1522 99.6255 10.2133 102.17C10.2133 102.226 10.2356 102.28 10.2753 102.32C10.315 102.36 10.3688 102.382 10.4249 102.382C10.4811 102.382 10.5349 102.36 10.5746 102.32C10.6143 102.28 10.6366 102.226 10.6366 102.17C11.093 91.0665 10.7525 100.253 11.0908 88.5196C11.2285 83.7367 11.8748 71.63 11.9381 70.3891C12.0834 69.174 12.1241 67.9487 12.0596 66.7267C12.0898 66.4243 11.7566 66.3335 11.6659 66.5755Z" fill="#1B1B1B"/>
<path d="M86.8201 68.18C88.1009 86.8387 86.2741 103.674 86.4573 105.772C86.4864 106.105 86.9697 106.226 87.0626 105.863C87.3065 104.677 87.4481 103.472 87.486 102.261C88.4502 90.9391 88.3996 79.5535 87.3348 68.2405C87.2743 67.8468 86.8 67.8463 86.8201 68.18Z" fill="#1B1B1B"/>
<path d="M10.5762 104.471C20.3527 104.455 30.1594 104.562 39.9359 104.894C49.7728 105.23 84.3383 106.937 85.7002 106.952C85.737 106.954 85.7738 106.948 85.8083 106.935C85.8428 106.922 85.8743 106.903 85.901 106.877C85.9276 106.852 85.9488 106.821 85.9633 106.787C85.9778 106.753 85.9853 106.717 85.9853 106.68C85.9853 106.643 85.9778 106.607 85.9633 106.573C85.9488 106.539 85.9276 106.508 85.901 106.483C85.8743 106.457 85.8428 106.438 85.8083 106.425C85.7738 106.412 85.737 106.406 85.7002 106.408C84.49 106.312 83.2793 106.166 82.0686 106.075C71.0999 105.252 42.8087 103.868 26.8302 103.774C21.4122 103.743 15.9975 103.911 10.5762 104.016C10.5179 104.019 10.463 104.044 10.4228 104.087C10.3825 104.129 10.3601 104.185 10.3601 104.243C10.3601 104.302 10.3825 104.358 10.4228 104.4C10.463 104.442 10.5179 104.468 10.5762 104.471Z" fill="#1B1B1B"/>
<path d="M11.3932 36.4898C11.5147 35.8844 11.8412 33.5867 11.6659 33.0094C11.646 32.9543 11.6148 32.9039 11.5745 32.8614C11.5341 32.8189 11.4854 32.7852 11.4314 32.7624C11.3773 32.7396 11.3192 32.7283 11.2606 32.729C11.202 32.7298 11.1442 32.7427 11.0908 32.7669C10.1075 33.4401 9.08682 34.0571 8.03374 34.6149C7.91278 34.5522 5.52158 33.4322 4.85574 33.1303C4.78723 33.0926 4.70909 33.0759 4.63113 33.0823C4.55317 33.0888 4.47883 33.1181 4.41744 33.1665C4.35605 33.215 4.31032 33.2805 4.28598 33.3549C4.26164 33.4292 4.25978 33.5091 4.28062 33.5845C4.46142 34.6665 4.79792 35.7165 5.27966 36.702C4.4923 37.43 3.69094 38.139 2.9187 38.881C2.86523 38.9357 2.82895 39.0049 2.81434 39.0801C2.79973 39.1552 2.80743 39.2329 2.83648 39.3037C2.86554 39.3745 2.91469 39.4353 2.97786 39.4785C3.04103 39.5217 3.11546 39.5454 3.19198 39.5468C4.31894 39.6655 5.45526 39.6655 6.58222 39.5468C6.82414 40.1219 7.76382 42.7293 8.3983 42.5434C8.70126 42.4543 8.76118 42.1514 8.88214 41.9078C9.00366 41.5443 9.76022 39.3351 9.79046 39.1839C13.6197 39.1839 13.6102 39.2495 13.9675 38.9717C14.026 38.9046 14.0583 38.8186 14.0583 38.7295C14.0583 38.6405 14.026 38.5544 13.9675 38.4873C13.179 37.8215 12.3015 37.1556 11.3932 36.4898Z" fill="#FFD300"/>
<path d="M21.0185 26.441C21.261 25.8659 22.1491 23.7155 22.078 23.142C22.0517 22.9292 21.8355 22.6873 21.5936 22.7786C20.4837 23.2098 19.3523 23.5836 18.2039 23.8986C18.1127 23.8079 15.9735 22.0987 15.3888 21.6888C15.1206 21.5007 14.8087 21.779 14.7835 22.0248C14.7011 23.1204 14.7826 24.2221 15.0254 25.2935C14.1176 25.8384 13.1774 26.3161 12.2411 26.8677C12.1764 26.9091 12.1249 26.9679 12.0923 27.0374C12.0597 27.1069 12.0475 27.1842 12.057 27.2603C12.0664 27.3364 12.0973 27.4083 12.1459 27.4677C12.1946 27.5271 12.259 27.5714 12.3318 27.5957C13.4069 27.9869 14.5243 28.25 15.661 28.3797C15.7523 29.0153 15.8542 29.6783 15.9942 30.3167C16.0933 30.7692 16.1168 31.8388 16.8112 31.7089C17.1147 31.6529 17.2643 31.3757 17.4166 31.1343C17.6271 30.7983 18.8395 28.8641 18.9 28.7431C22.0153 29.4202 22.4975 29.7287 23.016 29.4711C23.0892 29.4242 23.1423 29.3516 23.1648 29.2676C23.1872 29.1836 23.1775 29.0942 23.1375 29.017C22.4748 28.1233 21.7676 27.2636 21.0185 26.441Z" fill="#FFD300"/>
<path d="M34.5178 15.9078C34.5508 15.6961 34.4271 15.3909 34.1549 15.4234C32.9728 15.5645 31.7637 15.6955 30.5832 15.7258C30.5228 15.6351 28.8344 13.4807 28.3735 12.9415C28.3239 12.8921 28.2621 12.8567 28.1944 12.8389C28.1268 12.821 28.0556 12.8213 27.9881 12.8397C27.9206 12.8581 27.8591 12.894 27.8099 12.9437C27.7606 12.9934 27.7254 13.0552 27.7076 13.1229C27.3799 14.1823 27.2066 15.2833 27.193 16.3922C26.1643 16.6946 25.1725 16.9908 24.136 17.2999C24.0613 17.3221 23.9948 17.3655 23.9445 17.4249C23.8941 17.4843 23.8622 17.557 23.8526 17.6343C23.8429 17.7115 23.856 17.7899 23.8903 17.8598C23.9245 17.9297 23.9783 17.9881 24.0452 18.0279C25.0161 18.6333 26.0399 19.1495 27.104 19.5702C27.0435 20.236 26.983 20.9321 26.983 21.5979C26.9528 22.0219 26.7713 23.0506 27.4674 23.0506C27.5995 23.0351 27.727 22.9922 27.8416 22.9248C27.9563 22.8573 28.0556 22.7666 28.1332 22.6586C28.4356 22.3859 30.04 20.782 30.1308 20.6605C33.3687 22.2795 33.4852 22.4133 33.9444 22.3254C34.0294 22.2963 34.101 22.2372 34.1456 22.1592C34.1902 22.0811 34.2049 21.9895 34.1868 21.9015C33.7663 20.864 33.2809 19.854 32.7336 18.8775C32.732 18.8159 34.4332 16.4532 34.5178 15.9078Z" fill="#FFD300"/>
<path d="M47.9265 11.1257C46.7785 10.9835 45.5957 10.853 44.4455 10.6111C44.4153 10.4901 43.2499 8.0457 42.9335 7.37258C42.8997 7.31422 42.8512 7.26576 42.7927 7.23208C42.7343 7.19839 42.668 7.18066 42.6006 7.18066C42.5331 7.18066 42.4669 7.19839 42.4085 7.23208C42.35 7.26576 42.3015 7.31422 42.2677 7.37258C41.7102 8.32711 41.2923 9.35658 41.0267 10.4296C39.9672 10.4901 38.9077 10.5192 37.8789 10.6111C37.8035 10.6147 37.7306 10.6398 37.6689 10.6834C37.6072 10.727 37.5592 10.7872 37.5306 10.8572C37.502 10.9271 37.4939 11.0037 37.5073 11.078C37.5207 11.1524 37.555 11.2214 37.6062 11.2769C38.4023 12.1052 39.2847 12.846 40.2382 13.4867C40.0265 14.1223 39.8188 14.759 39.6329 15.4237C39.5147 15.8482 39.1227 16.7722 39.7544 16.9671C40.0288 17.0522 40.2696 16.8775 40.5109 16.7251C40.8469 16.5146 42.7812 15.333 42.9021 15.2423C45.7626 17.6262 45.8181 17.7544 46.2313 17.7544C46.2831 17.7539 46.3341 17.7418 46.3805 17.719C46.427 17.6961 46.4677 17.6631 46.4997 17.6224C46.5317 17.5817 46.5541 17.5344 46.5653 17.4838C46.5766 17.4333 46.5763 17.3809 46.5645 17.3305C46.4111 16.2413 45.8987 14.092 45.9289 14.092C46.4128 13.6681 48.0989 12.1208 48.3201 11.5799C48.4069 11.3682 48.1387 11.152 47.9265 11.1257Z" fill="#FFD300"/>
<path d="M62.4248 10.1264C61.3131 9.74998 60.2218 9.31557 59.1555 8.82497C59.1555 8.73425 58.5955 6.07481 58.4275 5.34457C58.41 5.27673 58.3749 5.21472 58.3257 5.16483C58.2765 5.11494 58.215 5.07893 58.1474 5.06046C58.0798 5.04198 58.0086 5.0417 57.9408 5.05963C57.8731 5.07756 57.8113 5.11307 57.7617 5.16257C56.99 5.96257 56.3381 6.87002 55.8263 7.85673C54.7971 7.67473 53.7655 7.48041 52.7391 7.31185C52.6641 7.29366 52.5855 7.29738 52.5125 7.32254C52.4396 7.3477 52.3754 7.39326 52.3276 7.45381C52.2798 7.51436 52.2504 7.58735 52.2428 7.66413C52.2352 7.74091 52.2498 7.81825 52.2849 7.88697C52.8689 8.87666 53.5589 9.79977 54.3429 10.6399C54.0103 11.215 52.4663 13.6365 53.1019 13.9394C53.3747 14.0906 53.7062 13.9053 54.0103 13.8179C54.3418 13.7233 56.4317 13.0311 56.5527 12.9706C58.5972 15.5606 58.6846 16.0826 59.216 16.1789C59.2666 16.1936 59.3199 16.1961 59.3717 16.1861C59.4234 16.1761 59.472 16.1539 59.5134 16.1214C59.5548 16.0889 59.5879 16.047 59.6099 15.9991C59.6319 15.9513 59.6422 15.8989 59.6399 15.8462C59.7206 14.7483 59.7407 13.6468 59.7004 12.5467C59.8483 12.5467 62.2826 11.1848 62.6365 10.6702C62.8179 10.4898 62.6679 10.2149 62.4248 10.1264ZM59.398 12.003C59.3376 12.0318 59.2892 12.081 59.2614 12.1419C59.2337 12.2029 59.2283 12.2716 59.2463 12.3362C59.0951 13.2742 59.0648 14.243 59.0043 15.1815C58.8834 15.0298 57.3596 12.8883 56.9766 12.3362C56.8517 12.157 53.9195 13.0642 53.8288 13.0927C53.8893 13.002 54.918 11.1887 55.1907 10.7318C55.3419 10.5201 53.8893 8.91569 53.4351 8.21961C54.2219 8.37081 56.2195 8.82497 56.3712 8.55281C56.7535 7.7193 57.2528 6.94466 57.8541 6.25233C58.0967 7.16765 58.2787 8.09795 58.399 9.03721C58.3835 9.10931 58.3931 9.18451 58.4261 9.25046C58.4591 9.31641 58.5135 9.36918 58.5804 9.40009C59.5455 9.86066 60.5365 10.2649 61.5484 10.6108C61.4879 10.6713 59.8847 11.7039 59.398 12.003Z" fill="#FFD300"/>
<path d="M108.764 55.4958C108.187 61.8456 108.326 66.4158 107.252 79.4979C106.748 85.6456 106.588 85.5062 106.798 86.1871C106.813 86.2369 106.842 86.2814 106.881 86.315C106.921 86.3486 106.969 86.37 107.021 86.3764C107.072 86.3828 107.124 86.374 107.171 86.3512C107.217 86.3283 107.256 86.2923 107.283 86.2476C107.609 85.6758 107.593 84.9837 107.766 83.3423C107.908 82.0078 108.333 77.3475 108.524 74.3526C109.214 63.5155 109.255 61.8355 109.129 55.4958C109.129 55.4474 109.11 55.401 109.076 55.3669C109.041 55.3327 108.995 55.3135 108.947 55.3135C108.898 55.3135 108.852 55.3327 108.818 55.3669C108.784 55.401 108.764 55.4474 108.764 55.4958Z" fill="#1B1B1B"/>
<path d="M89.2416 87.2787C92.9864 87.5077 103.253 87.2524 104.739 87.188C105.405 87.1588 106.315 87.314 106.918 86.9757C106.97 86.9476 107.013 86.9061 107.043 86.8556C107.073 86.805 107.089 86.7473 107.089 86.6885C107.089 86.6296 107.073 86.5719 107.043 86.5214C107.013 86.4708 106.97 86.4293 106.918 86.4012C106.282 86.0982 105.406 86.2511 104.739 86.2797C100.315 86.4729 94.5555 86.4034 89.2416 86.9455C89.03 86.9455 89.03 87.2479 89.2416 87.2787Z" fill="#1B1B1B"/>
<path d="M88.9694 74.8388C89.4538 74.8948 92.783 74.99 93.2674 74.99C93.719 75.0186 94.1717 74.9569 94.5991 74.8085C94.633 74.7918 94.6615 74.7659 94.6815 74.7338C94.7014 74.7017 94.712 74.6646 94.712 74.6268C94.712 74.589 94.7014 74.552 94.6815 74.5199C94.6615 74.4878 94.633 74.4619 94.5991 74.4451C94.1729 74.2687 90.9065 74.2637 90.4221 74.2939C89.9377 74.3241 89.4846 74.3908 88.9997 74.4451C88.6973 74.4798 88.6972 74.8063 88.9694 74.8388Z" fill="#5A47FB"/>
<path d="M89.0904 68.9668C91.7389 69.3218 94.4088 69.4937 97.081 69.4814C97.9816 69.5518 98.8876 69.501 99.7746 69.3302C99.8368 69.312 99.8914 69.2742 99.9303 69.2223C99.9691 69.1705 99.9901 69.1075 99.9901 69.0427C99.9901 68.9779 99.9691 68.9148 99.9303 68.863C99.8914 68.8111 99.8368 68.7733 99.7746 68.7551C98.9141 68.6195 98.0412 68.5789 97.1717 68.6341C96.2942 68.6341 90.9367 68.4521 89.1811 68.4521C88.8787 68.4521 88.7869 68.9102 89.0904 68.9668Z" fill="#5A47FB"/>
<path d="M85.4885 62.7923C90.1219 63.2184 94.0475 63.3276 99.1995 63.5791C99.821 63.6717 100.452 63.6818 101.076 63.6093C101.152 63.5875 101.218 63.5418 101.265 63.479C101.312 63.4162 101.338 63.3398 101.338 63.2613C101.338 63.1828 101.312 63.1064 101.265 63.0436C101.218 62.9808 101.152 62.9351 101.076 62.9133C100.662 62.7917 101.337 62.8572 93.2977 62.4899C90.6942 62.3712 88.0897 62.2777 85.4885 62.2777C85.1559 62.2474 85.1559 62.7615 85.4885 62.7923Z" fill="#5A47FB"/>
<path d="M106.797 55.1652C106.464 55.0161 106.091 54.984 105.738 55.0739C105.078 55.0739 104.429 55.1042 103.778 55.1355C103.934 54.8032 104.063 54.4588 104.163 54.1057C104.66 52.4406 104.964 50.7243 105.071 48.9901C105.327 45.6609 104.767 41.7275 102.68 39.1839C101.096 37.2239 98.6166 36.6315 96.142 36.2781C96.4041 35.8598 96.4018 35.3423 96.6566 34.0683C97.0548 31.6683 97.2271 29.2362 97.1713 26.804C97.1814 25.787 96.9533 24.7817 96.5054 23.8685C94.8909 20.8691 93.4618 21.4431 92.8732 21.2365C89.8123 20.1535 86.9736 22.1773 85.0943 24.8082C83.9446 26.4126 83.2183 28.3194 81.8861 29.8023C80.5051 31.3809 78.5457 31.5825 77.4973 32.9808C76.8315 33.8886 77.0432 34.9179 76.8617 35.9488C76.505 37.9088 74.0965 38.2627 72.6242 39.4897C72.0405 39.95 71.6016 40.5687 71.3601 41.2718C71.1186 41.9749 71.0847 42.7326 71.2623 43.4545C71.8072 43.6667 72.3521 43.8784 72.8969 44.1506C74.1585 44.8203 75.3455 45.6221 76.4378 46.5423C76.5527 44.6447 77.1576 42.8092 78.1934 41.2151C79.926 38.5607 82.6796 37.1915 85.7909 36.8263C85.9641 38.7202 86.5092 40.5613 87.3948 42.2443C87.6195 42.8111 87.9717 43.3185 88.424 43.7272C88.4711 43.7791 88.5358 43.8114 88.6055 43.8179C91.0572 43.8482 93.4775 43.0614 95.7791 42.3059C97.8977 41.5833 99.9786 40.7547 102.014 39.8235C103.83 42.0937 104.224 45.4235 104.133 48.238C104.088 49.375 103.967 50.5076 103.77 51.6283C103.706 52.0544 103.21 54.3863 103.195 54.4428C103.141 54.6826 103.105 54.9259 103.087 55.1708C102.831 55.182 97.8416 55.3388 95.6049 55.3763C96.3107 52.5176 96.8439 49.6191 97.2015 46.6963C97.2102 46.6457 97.1991 46.5936 97.1707 46.5508C97.1423 46.508 97.0985 46.4777 97.0485 46.466C96.9984 46.4544 96.9458 46.4623 96.9014 46.4881C96.857 46.5139 96.8241 46.5558 96.8095 46.6051C96.4175 48.2397 94.8394 54.7251 94.6854 55.3926C89.2456 55.4654 86.8701 55.2246 83.794 55.5645C83.6428 55.5947 83.5218 55.9565 83.794 55.9884C87.1053 56.5406 100.909 56.3743 104.738 56.0791C105.404 56.0489 106.228 56.1223 106.827 55.807C107.103 55.6552 107.005 55.3209 106.797 55.1652ZM76.953 38.6693C75.8028 39.5166 74.4207 40.0749 73.5029 41.2117C73.2972 41.4888 73.0519 41.7341 72.7749 41.9397C72.291 42.2729 72.109 41.7583 72.2608 41.2739C72.8964 39.3368 75.2075 39.1195 76.7408 38.3059C76.7888 38.28 76.8451 38.2737 76.8976 38.2885C76.9502 38.3033 76.995 38.3379 77.0225 38.385C77.05 38.4322 77.0582 38.4882 77.0452 38.5412C77.0322 38.5942 76.9992 38.6402 76.953 38.6693ZM82.7647 30.7694C81.8015 32.0215 80.2828 32.5855 79.1628 33.6142C78.0125 34.7039 78.2936 33.2317 78.9813 32.6762C80.1215 31.755 81.6178 31.3703 82.5524 30.5571C82.674 30.4642 82.8829 30.6159 82.7647 30.7694ZM87.1232 24.3221C87.2636 23.9013 87.5272 23.5324 87.8797 23.2631C88.8009 22.3419 89.9993 21.5686 91.2694 21.8407C91.4212 21.8704 91.3909 22.0827 91.2694 22.1129C90.1388 22.3838 89.1091 22.9719 88.3014 23.808C88.0694 24.1117 87.7816 24.3685 87.4536 24.5646C87.4159 24.5862 87.3728 24.5965 87.3295 24.594C87.2861 24.5916 87.2444 24.5767 87.2094 24.551C87.1744 24.5253 87.1476 24.49 87.1323 24.4493C87.117 24.4087 87.1138 24.3645 87.1232 24.3221ZM88.7881 43.4215C88.568 42.7618 87.7924 41.5499 87.2139 40.0312C86.753 38.9718 86.408 37.8658 86.1846 36.7323C86.669 36.6712 88.5153 36.702 88.9393 36.702C89.2719 36.702 89.3626 36.3991 89.3934 36.1269C89.4236 35.9455 89.4539 33.8567 89.3324 33.8869C89.8295 33.8622 90.3198 33.7602 90.7856 33.5845C91.3464 33.4296 91.8376 33.0878 92.1777 32.6157C92.2004 32.5771 92.2128 32.5333 92.2136 32.4885C92.2144 32.4437 92.2036 32.3995 92.1823 32.3601C92.1611 32.3206 92.13 32.2874 92.0921 32.2635C92.0542 32.2396 92.0108 32.2259 91.9661 32.2237C91.1938 32.315 90.5313 33.0715 89.03 33.0715C86.6701 33.0715 85.3754 32.469 85.5793 30.2262C85.703 29.0199 85.9987 27.8375 86.4573 26.715C88.4958 26.1435 90.4274 25.2433 92.1761 24.0499C92.0249 24.1407 93.2053 28.0147 93.9921 27.9845C96.1716 27.8635 95.3843 30.4664 93.9921 30.0733C93.4473 29.9221 92.6907 36.4573 92.7209 36.52C93.3302 36.7463 93.9783 36.8493 94.6277 36.823C93.5349 38.5779 92.7087 40.4853 92.1761 42.4829C91.0275 42.7842 89.9075 43.0883 88.7881 43.4215ZM92.7529 42.3015C93.3537 39.6409 94.229 38.4464 94.962 36.823C95.265 36.8532 95.5377 36.9137 95.8401 36.9439C94.4782 38.4559 93.8729 41.6048 93.8426 41.9985C93.4792 42.0892 93.1163 42.2107 92.7529 42.3015ZM101.349 39.2444C100.905 39.343 100.538 39.6051 98.8972 40.2429C97.7699 40.6999 95.7108 41.4811 94.4782 41.8171C94.4782 40.1824 95.6889 37.8517 96.082 37.0347C97.9916 37.3707 100.008 37.8343 101.44 39.1839C101.409 39.2142 101.379 39.2142 101.349 39.2444Z" fill="#1B1B1B"/>
<path d="M90.2406 29.649C88.1215 30.1872 87.9922 29.7543 87.0323 29.8607C86.976 29.8628 86.9219 29.8831 86.8782 29.9185C86.8344 29.954 86.8034 30.0028 86.7897 30.0574C86.7761 30.1121 86.7806 30.1697 86.8025 30.2216C86.8245 30.2735 86.8627 30.3168 86.9114 30.3451C87.2482 30.496 87.6047 30.598 87.9703 30.6481C88.0627 31.0177 88.4032 31.7927 88.788 31.889C88.9679 31.9375 89.1588 31.9269 89.3323 31.8588C89.7833 31.7444 90.2059 31.5384 90.5738 31.2534C91.5224 30.4274 91.0896 29.4334 90.2406 29.649Z" fill="#1B1B1B"/>
<path d="M83.1275 42.5132C81.9593 43.0198 81.0293 43.9544 80.5284 45.1251C80.0275 46.2958 79.9937 47.6139 80.4339 48.8087C80.7363 49.5653 81.2509 50.5945 81.9773 50.9882C82.0186 51.0162 82.0677 51.0306 82.1176 51.0294C82.1676 51.0282 82.2159 51.0115 82.2559 50.9815C82.2959 50.9516 82.3255 50.9099 82.3407 50.8624C82.3559 50.8148 82.3559 50.7636 82.3407 50.7161C82.1895 49.9881 81.5841 49.4141 81.2812 48.7482C80.2961 46.5989 81.3372 44.1002 83.3397 42.9069C83.3884 42.8769 83.4237 42.8294 83.4386 42.7742C83.4534 42.719 83.4465 42.6602 83.4194 42.6099C83.3922 42.5596 83.3469 42.5215 83.2926 42.5036C83.2384 42.4856 83.1793 42.489 83.1275 42.5132Z" fill="#1B1B1B"/>
<path d="M88.2431 28.8624C88.4621 28.8624 88.7415 28.6244 88.3338 28.1966C88.2314 28.0885 88.2274 28.1221 88.4246 27.9238C88.5153 27.8634 88.5758 27.8029 88.6665 27.7424C88.866 27.6135 89.0404 27.4494 89.1811 27.258C89.2933 27.0663 89.336 26.8419 89.3021 26.6224C89.2718 26.4712 89.0602 26.5014 89.0299 26.6224C88.9519 26.8202 88.8151 26.9893 88.6379 27.1068C88.2106 27.463 87.6562 27.5845 87.6697 28.2873C87.6894 28.4326 87.7562 28.5674 87.8597 28.6713C87.9632 28.7751 88.0979 28.8422 88.2431 28.8624Z" fill="#1B1B1B"/>
<path d="M54.6459 37.0951C54.992 38.0588 55.9518 38.7711 56.9766 38.336C57.4363 38.1166 57.8323 37.7833 58.1269 37.3678C58.5026 36.91 58.8272 36.4125 59.0951 35.8843C59.4922 35.0404 59.1377 34.2351 57.5518 34.1287C56.0908 33.9712 54.6156 34.0019 53.1625 34.22C52.8601 34.2788 52.9508 34.7033 53.2235 34.7341C53.7382 34.7935 54.2825 34.7946 54.7971 34.8254C54.4781 35.5398 54.4245 36.3446 54.6459 37.0951Z" fill="#1B1B1B"/>
<path d="M56.8859 28.5599C57.008 28.379 56.7644 28.1063 56.5527 28.2272C55.37 29.0157 54.5647 30.7735 54.2522 32.1618C54.2385 32.218 54.2375 32.2766 54.2491 32.3333C54.2607 32.3901 54.2848 32.4435 54.3195 32.4898C54.3543 32.5361 54.3989 32.5742 54.4501 32.6012C54.5013 32.6282 54.5578 32.6436 54.6157 32.6462C55.3336 32.6462 56.1635 32.8142 56.2503 32.3432C56.2597 32.256 56.2373 32.1683 56.1872 32.0962C56.1371 32.0242 56.0627 31.9727 55.9776 31.9512C55.6775 31.9033 55.3736 31.883 55.0698 31.8907C55.5447 30.1788 55.9009 30.0159 56.8859 28.5599Z" fill="#1B1B1B"/>
<path d="M59.7005 28.7715C59.9732 28.8 60.307 29.0464 60.5786 28.9529C61.2321 28.7289 60.2986 27.5316 58.8835 28.1359C58.5217 28.2904 58.0351 29.1321 58.7928 28.9227C59.083 28.8149 59.3911 28.7636 59.7005 28.7715Z" fill="#1B1B1B"/>
<path d="M37.4236 41.7264C37.8797 41.1447 38.1824 40.4579 38.3039 39.7288C38.4025 39.0938 38.463 38.1776 37.9713 37.6703C37.9444 37.6454 37.9112 37.6284 37.8753 37.6211C37.8394 37.6139 37.8022 37.6167 37.7678 37.6292C37.7334 37.6416 37.7031 37.6634 37.6802 37.692C37.6573 37.7206 37.6428 37.7549 37.6381 37.7912C37.6383 38.1463 37.6686 38.5008 37.7288 38.8508C37.7596 39.4128 37.6579 39.9743 37.4318 40.4898C37.2057 41.0054 36.8617 41.4606 36.4274 41.8188C35.4143 42.6352 34.1661 43.1342 35.005 45.4509C35.0181 45.4926 35.0442 45.529 35.0795 45.5548C35.1147 45.5807 35.1573 45.5946 35.201 45.5946C35.2447 45.5946 35.2873 45.5807 35.3225 45.5548C35.3577 45.529 35.3838 45.4926 35.397 45.4509C35.4521 45.0168 35.4315 44.5765 35.3359 44.1495C35.2547 42.988 36.6267 42.7618 37.4236 41.7264Z" fill="#1B1B1B"/>
<path d="M34.8208 37.1556C35.4427 37.0245 36.0912 37.1327 36.6369 37.4586C36.6936 37.4893 36.7594 37.4991 36.8226 37.486C36.8858 37.4729 36.9423 37.4378 36.9822 37.3871C37.022 37.3363 37.0426 37.273 37.0403 37.2085C37.038 37.144 37.0129 37.0824 36.9695 37.0346C36.6829 36.7748 36.3385 36.587 35.9648 36.487C35.5911 36.3869 35.1989 36.3775 34.8208 36.4595C32.5192 36.837 32.4733 40.2356 34.4876 40.0917C34.9204 40.0698 35.3482 39.9884 35.7588 39.8498C36.1371 39.6977 36.4726 39.4555 36.7361 39.1443C36.9996 38.833 37.1832 38.4622 37.2708 38.0639C37.301 37.8517 37.0283 37.7005 36.9348 37.9127C36.7518 38.2975 36.4771 38.6314 36.1348 38.8851C35.7926 39.1389 35.3933 39.3048 34.972 39.3682C34.6814 39.4324 34.3794 39.422 34.0939 39.3379C33.488 38.9616 33.6185 37.5274 34.8208 37.1556Z" fill="#1B1B1B"/>
<path d="M32.0359 37.8213V37.6398C32.0516 37.6388 32.0663 37.6321 32.0775 37.6209C32.0886 37.6098 32.0953 37.595 32.0963 37.5794C33.1043 36.1676 34.6533 35.4256 36.2129 35.9145C37.2293 36.2337 37.3447 36.5501 37.7249 36.5501C37.7659 36.5529 37.807 36.5453 37.8443 36.5279C37.8816 36.5106 37.9139 36.484 37.9381 36.4508C37.9623 36.4175 37.9777 36.3787 37.9828 36.3379C37.988 36.2971 37.9826 36.2556 37.9674 36.2174C37.9069 35.9145 37.5754 35.7028 37.3015 35.5516C36.4219 35.1106 35.4184 34.9824 34.4562 35.1881C33.9569 35.2972 33.485 35.5064 33.0688 35.8029C32.6526 36.0995 32.3009 36.4773 32.0347 36.9135C32.1467 35.4256 32.4665 33.5306 33.3362 32.3126C33.4874 32.1009 33.6996 31.9206 33.6694 31.6467C33.6694 31.5258 33.5484 31.3746 33.4269 31.4048C32.9128 31.4653 32.6037 32.219 32.3982 32.6155C31.6285 34.2361 31.3647 36.0509 31.6411 37.8235C31.7335 38.0638 32.0359 38.0335 32.0359 37.8213Z" fill="#1B1B1B"/>
<path d="M31.2189 47.1441C31.8299 48.4752 31.7531 48.5441 31.9755 48.8084C32.0112 48.8435 32.0554 48.8688 32.1037 48.882C32.152 48.8951 32.2029 48.8956 32.2515 48.8835C32.3001 48.8714 32.3448 48.847 32.3812 48.8127C32.4177 48.7783 32.4448 48.7352 32.4599 48.6875C32.4691 48.0759 32.3233 47.4719 32.0359 46.9319C31.2816 45.2162 30.2141 43.6561 28.8882 42.3315C27.3129 40.698 24.9587 39.2358 24.4082 36.8832C24.393 36.8338 24.3608 36.7915 24.3172 36.7638C24.2736 36.7361 24.2215 36.7249 24.1703 36.7322C24.1192 36.7394 24.0723 36.7648 24.0382 36.8036C24.0041 36.8424 23.985 36.8921 23.9843 36.9437C24.36 40.68 28.7683 41.8056 31.2189 47.1441Z" fill="#1B1B1B"/>
<path d="M29.554 37.1281C29.6912 37.6246 29.9281 38.088 30.2501 38.49C30.2798 38.5202 30.3178 38.5407 30.3593 38.5491C30.4008 38.5575 30.4438 38.5533 30.4828 38.537C30.5219 38.5208 30.5552 38.4932 30.5785 38.4579C30.6018 38.4226 30.614 38.3811 30.6135 38.3388C30.6135 37.6467 30.1157 36.6767 29.8855 35.5847C29.7064 34.6169 29.6353 33.6322 29.6733 32.6487C29.673 32.5968 29.6542 32.5468 29.6201 32.5077C29.586 32.4686 29.539 32.4431 29.4877 32.4358C29.4364 32.4284 29.3841 32.4398 29.3405 32.4678C29.2969 32.4957 29.2647 32.5385 29.2499 32.5882C28.8785 34.0964 28.9848 35.6828 29.554 37.1281Z" fill="#1B1B1B"/>
<path d="M27.1628 38.0939C27.6293 38.6986 28.2041 39.2113 28.8579 39.6059C29.0528 39.6709 29.3619 39.5785 29.312 39.364C29.1832 38.8292 28.5555 38.6175 27.6472 37.6084C27.096 37.0048 26.6092 36.3455 26.1945 35.6411C26.073 35.4597 25.7437 35.579 25.8311 35.7923C26.1559 36.6226 26.6049 37.3986 27.1628 38.0939Z" fill="#1B1B1B"/>
<path d="M87.668 65.5762C86.3017 65.4194 84.9268 65.3485 83.5515 65.3639C82.912 60.3172 82.4785 56.2247 79.4635 51.5319C77.4402 48.3808 74.8043 45.6855 71.3216 44.2071C68.9604 43.2176 66.4333 42.6835 63.8736 42.633C63.5712 42.6257 63.3892 43.3895 63.3288 43.3895C63.0438 43.2905 62.7499 43.2196 62.4512 43.1778C62.6024 41.271 62.6327 39.3642 62.7839 37.4574C63.4195 37.4574 64.1984 37.4205 64.6 36.9428C66.1736 35.0702 63.8132 34.2794 63.7527 34.2794C63.7224 34.2794 64.358 32.0394 64.6 31.0706C64.6604 30.8287 64.2931 30.645 64.176 30.8892C63.8311 31.6099 63.504 32.3396 63.238 33.0687C63.0516 33.5811 62.5806 34.3623 63.0264 34.8546C63.242 35.0926 63.5102 35.036 63.7544 35.157C64.3597 35.3686 64.4689 37.047 62.4529 36.4886C62.3841 36.4693 62.3117 36.4666 62.2416 36.4806C62.1716 36.4946 62.1058 36.525 62.0497 36.5693C61.9936 36.6136 61.9488 36.6705 61.9189 36.7354C61.8891 36.8003 61.875 36.8714 61.8778 36.9428C61.6712 39.1531 61.6566 41.3634 61.4539 43.6018C61.4264 43.9047 61.6656 44.0257 61.908 44.0862C61.9988 44.1164 62.7856 44.2374 62.7856 44.2676C62.0801 45.2521 61.0904 45.9973 59.9493 46.4031C58.8082 46.8089 57.5702 46.8559 56.4016 46.5378C54.9741 46.138 54.2176 44.9217 54.0708 43.4506C54.2825 43.4506 55.6584 43.6673 55.8567 43.1174C55.9216 42.937 56.1288 40.7262 56.0986 40.7262C56.5037 40.7215 56.9081 40.6912 57.3093 40.6354C58.1544 40.5234 59.2133 40.4814 59.9413 40.0301C60.0232 39.9784 60.0866 39.9022 60.1226 39.8123C60.1586 39.7225 60.1653 39.6235 60.1418 39.5296C60.1183 39.4357 60.0657 39.3517 59.9916 39.2894C59.9175 39.2271 59.8256 39.1898 59.7291 39.1828C58.6253 39.1828 58.2731 39.6364 55.4311 39.6364C54.7011 39.6347 53.9724 39.574 53.2521 39.455C52.6293 39.4302 52.0239 39.2423 51.4965 38.9101C50.6509 38.1821 51.2165 36.5178 51.436 35.6111C52.3931 31.6038 53.5131 29.632 54.3716 27.1058C54.4024 26.9849 54.2226 26.8348 54.1296 26.9546C52.4004 29.1868 51.1381 32.8078 50.437 35.5506C50.1352 36.7311 49.7056 38.2482 50.4975 39.334C51.2501 40.365 52.8831 40.51 54.5536 40.6657C54.8263 40.6914 55.0984 40.6657 55.4008 40.6959C55.2194 40.6959 55.1589 42.391 55.0682 42.6027C55.0682 42.6027 54.1599 42.5422 54.0692 42.512C54.0994 42.512 53.9784 42.1794 53.8877 42.1486C53.2357 42.0452 52.579 41.9745 51.9199 41.9369C49.5656 41.821 47.2208 42.3107 45.1097 43.3593C43.0797 44.2665 41.4008 45.6071 39.7528 48.2313C39.2244 49.0745 38.7782 49.9666 38.4205 50.8952C38.6328 52.0454 39.3288 55.9498 39.48 56.7668C39.6543 56.8806 39.8364 56.9818 40.0249 57.0698C40.9221 57.6835 41.6339 58.5315 42.0829 59.5214C42.1468 59.6407 41.9642 59.7925 41.8712 59.6726C41.7527 59.5486 41.6417 59.4177 41.5386 59.2806C41.021 58.621 40.372 58.076 39.6329 57.6802C39.8754 59.1922 40.1285 60.675 40.3296 62.1898C40.3416 62.238 40.334 62.289 40.3084 62.3316C40.2828 62.3742 40.2414 62.4049 40.1932 62.4169C40.145 62.4289 40.094 62.4213 40.0514 62.3958C40.0088 62.3702 39.9782 62.3288 39.9661 62.2806C38.7274 57.147 37.0491 47.683 36.5759 45.6334C36.571 45.6009 36.5577 45.5702 36.5372 45.5443C36.5168 45.5185 36.4899 45.4985 36.4594 45.4863C36.4288 45.4741 36.3955 45.47 36.3629 45.4746C36.3303 45.4792 36.2995 45.4923 36.2735 45.5125C36.1912 45.5155 36.1126 45.5474 36.0516 45.6028C35.9906 45.6581 35.9512 45.7333 35.9403 45.8149C35.6093 48.1355 33.175 50.0546 31.2492 50.1129C31.2114 50.1016 31.1716 50.0982 31.1325 50.103C31.0933 50.1077 31.0555 50.1204 31.0215 50.1402C30.9874 50.1601 30.9578 50.1868 30.9344 50.2186C30.9111 50.2504 30.8945 50.2867 30.8857 50.3251C30.2776 53.7691 29.6968 59.303 30.0989 62.7952C30.1896 63.582 30.3711 64.3391 30.5228 65.1259C30.3537 65.0891 30.1813 65.0689 30.0082 65.0654C29.7971 65.0442 16.3229 64.9142 16.2664 64.9142C14.7835 64.9142 13.2709 64.8616 11.7864 65.005C11.7202 65.008 11.6578 65.0365 11.612 65.0844C11.5663 65.1323 11.5408 65.196 11.5408 65.2623C11.5408 65.3285 11.5663 65.3922 11.612 65.4401C11.6578 65.4881 11.7202 65.5165 11.7864 65.5196C14.3192 65.7783 29.4213 65.892 30.0379 65.8522C30.2736 65.8669 30.5099 65.8361 30.734 65.7615C30.734 65.7615 31.0364 66.6995 31.0672 66.7606C32.0914 69.6759 34.1572 72.1545 37.2115 71.6942C39.1155 71.4069 42.4912 69.1568 44.1426 65.6406C45.3836 65.6406 86.7289 66.0639 87.6675 66.0034C88.0007 66.0914 88.0012 65.6047 87.668 65.5762ZM33.4281 62.1266C33.3037 62.1266 33.1843 62.0771 33.0963 61.9891C33.0083 61.9011 32.9588 61.7817 32.9588 61.6573C32.9588 61.5328 33.0083 61.4135 33.0963 61.3254C33.1843 61.2374 33.3037 61.188 33.4281 61.188C33.5526 61.188 33.6719 61.2374 33.76 61.3254C33.848 61.4135 33.8974 61.5328 33.8974 61.6573C33.8974 61.7817 33.848 61.9011 33.76 61.9891C33.6719 62.0771 33.5526 62.1266 33.4281 62.1266ZM36.2735 53.833C36.1519 53.8288 36.0367 53.7775 35.9522 53.69C35.8677 53.6025 35.8204 53.4856 35.8204 53.364C35.8204 53.2423 35.8677 53.1254 35.9522 53.0379C36.0367 52.9504 36.1519 52.8992 36.2735 52.895C36.3951 52.8992 36.5103 52.9504 36.5948 53.0379C36.6793 53.1254 36.7266 53.2423 36.7266 53.364C36.7266 53.4856 36.6793 53.6025 36.5948 53.69C36.5103 53.7775 36.3951 53.8288 36.2735 53.833ZM38.6344 68.1197C38.51 68.1197 38.3906 68.0702 38.3026 67.9822C38.2146 67.8942 38.1652 67.7749 38.1652 67.6504C38.1652 67.5259 38.2146 67.4066 38.3026 67.3186C38.3906 67.2306 38.51 67.1811 38.6344 67.1811C38.7589 67.1811 38.8783 67.2306 38.9663 67.3186C39.0543 67.4066 39.1037 67.5259 39.1037 67.6504C39.1037 67.7749 39.0543 67.8942 38.9663 67.9822C38.8783 68.0702 38.7589 68.1197 38.6344 68.1197ZM43.0534 56.3759C42.9289 56.3759 42.8096 56.3265 42.7216 56.2385C42.6336 56.1505 42.5841 56.0311 42.5841 55.9066C42.5841 55.7822 42.6336 55.6628 42.7216 55.5748C42.8096 55.4868 42.9289 55.4374 43.0534 55.4374C43.1779 55.4374 43.2972 55.4868 43.3852 55.5748C43.4732 55.6628 43.5227 55.7822 43.5227 55.9066C43.5227 56.0311 43.4732 56.1505 43.3852 56.2385C43.2972 56.3265 43.1779 56.3759 43.0534 56.3759ZM44.2641 62.6714C44.1397 62.6714 44.0203 62.622 43.9323 62.534C43.8443 62.446 43.7948 62.3266 43.7948 62.2022C43.7948 62.0777 43.8443 61.9583 43.9323 61.8703C44.0203 61.7823 44.1397 61.7329 44.2641 61.7329C44.3886 61.7329 44.5079 61.7823 44.596 61.8703C44.684 61.9583 44.7334 62.0777 44.7334 62.2022C44.7334 62.3266 44.684 62.446 44.596 62.534C44.5079 62.622 44.3886 62.6714 44.2641 62.6714ZM47.0792 47.5677C46.9577 47.5635 46.8425 47.5122 46.7579 47.4247C46.6734 47.3372 46.6262 47.2203 46.6262 47.0987C46.6262 46.977 46.6734 46.8601 46.7579 46.7726C46.8425 46.6851 46.9577 46.6339 47.0792 46.6297C47.2008 46.6339 47.316 46.6851 47.4005 46.7726C47.4851 46.8601 47.5323 46.977 47.5323 47.0987C47.5323 47.2203 47.4851 47.3372 47.4005 47.4247C47.316 47.5122 47.2008 47.5635 47.0792 47.5677ZM52.3152 57.8588C52.1937 57.8546 52.0785 57.8033 51.9939 57.7158C51.9094 57.6284 51.8622 57.5114 51.8622 57.3898C51.8622 57.2681 51.9094 57.1512 51.9939 57.0637C52.0785 56.9763 52.1937 56.925 52.3152 56.9208C52.4368 56.925 52.552 56.9763 52.6365 57.0637C52.7211 57.1512 52.7683 57.2681 52.7683 57.3898C52.7683 57.5114 52.7211 57.6284 52.6365 57.7158C52.552 57.8033 52.4368 57.8546 52.3152 57.8588ZM54.222 49.7774C54.1401 49.774 54.0626 49.739 54.0058 49.6798C53.949 49.6206 53.9173 49.5417 53.9173 49.4596C53.9173 49.3776 53.949 49.2987 54.0058 49.2395C54.0626 49.1803 54.1401 49.1453 54.222 49.1418C54.2649 49.14 54.3077 49.1469 54.3478 49.1621C54.3879 49.1772 54.4246 49.2004 54.4555 49.23C54.4865 49.2597 54.5111 49.2954 54.528 49.3348C54.5448 49.3743 54.5535 49.4167 54.5535 49.4596C54.5535 49.5025 54.5448 49.545 54.528 49.5844C54.5111 49.6239 54.4865 49.6595 54.4555 49.6892C54.4246 49.7189 54.3879 49.742 54.3478 49.7572C54.3077 49.7723 54.2649 49.7792 54.222 49.7774ZM58.7625 64.548C58.6381 64.548 58.5187 64.4986 58.4307 64.4105C58.3427 64.3225 58.2932 64.2032 58.2932 64.0787C58.2932 63.9543 58.3427 63.8349 58.4307 63.7469C58.5187 63.6589 58.6381 63.6094 58.7625 63.6094C58.887 63.6094 59.0063 63.6589 59.0944 63.7469C59.1824 63.8349 59.2318 63.9543 59.2318 64.0787C59.2318 64.2032 59.1824 64.3225 59.0944 64.4105C59.0063 64.4986 58.887 64.548 58.7625 64.548ZM60.1244 55.8322C60 55.8322 59.8806 55.7827 59.7926 55.6947C59.7046 55.6067 59.6552 55.4873 59.6552 55.3629C59.6552 55.2384 59.7046 55.1191 59.7926 55.031C59.8806 54.943 60 54.8936 60.1244 54.8936C60.2489 54.8936 60.3683 54.943 60.4563 55.031C60.5443 55.1191 60.5937 55.2384 60.5937 55.3629C60.5937 55.4873 60.5443 55.6067 60.4563 55.6947C60.3683 55.7827 60.2489 55.8322 60.1244 55.8322ZM68.7809 64.8818C68.3996 64.3621 68.5121 63.8771 68.2663 61.9765C68.0199 60.0663 67.6189 58.2015 67.116 54.6517C67.0864 54.4394 67.4212 54.3157 67.4795 54.561C67.8905 56.2818 68.3475 57.9529 68.7204 59.676C69.1332 61.585 69.356 63.8833 69.4165 64.156C69.5072 65.0626 68.8716 65.0324 68.7809 64.8806V64.8818ZM68.9321 48.3259C68.8077 48.3259 68.6883 48.2765 68.6003 48.1885C68.5123 48.1005 68.4628 47.9811 68.4628 47.8566C68.4628 47.7322 68.5123 47.6128 68.6003 47.5248C68.6883 47.4368 68.8077 47.3874 68.9321 47.3874C69.0525 47.3932 69.1659 47.4452 69.249 47.5324C69.3321 47.6197 69.3785 47.7356 69.3785 47.8561C69.3785 47.9766 69.3321 48.0924 69.249 48.1797C69.1659 48.267 69.0525 48.3189 68.9321 48.3248V48.3259ZM73.1394 64.5491C73.0149 64.5491 72.8956 64.4997 72.8076 64.4117C72.7196 64.3237 72.6701 64.2043 72.6701 64.0798C72.6701 63.9554 72.7196 63.836 72.8076 63.748C72.8956 63.66 73.0149 63.6106 73.1394 63.6106C73.2598 63.6164 73.3732 63.6684 73.4563 63.7556C73.5394 63.8429 73.5858 63.9588 73.5858 64.0793C73.5858 64.1998 73.5394 64.3156 73.4563 64.4029C73.3732 64.4902 73.2598 64.5421 73.1394 64.548V64.5491ZM79.2535 58.0111C79.1319 58.0069 79.0167 57.9557 78.9322 57.8682C78.8477 57.7807 78.8004 57.6638 78.8004 57.5421C78.8004 57.4205 78.8477 57.3036 78.9322 57.2161C79.0167 57.1286 79.1319 57.0773 79.2535 57.0731C79.3729 57.0803 79.485 57.1327 79.567 57.2198C79.649 57.3069 79.6947 57.422 79.6947 57.5416C79.6947 57.6612 79.649 57.7762 79.567 57.8633C79.485 57.9504 79.3729 58.0028 79.2535 58.01V58.0111Z" fill="#1B1B1B"/>
<path d="M55.221 25.7148C56.341 23.7778 57.6072 21.7388 59.7912 20.9022C61.5518 20.2302 61.997 20.9616 62.818 21.4471C63.7073 21.9729 65.0277 22.3548 66.0262 22.0222C66.125 21.992 66.2098 21.9274 66.2652 21.8402C66.3206 21.753 66.343 21.6488 66.3284 21.5465C66.3138 21.4443 66.2632 21.3505 66.1856 21.2823C66.108 21.2141 66.0086 21.1758 65.9053 21.1744C65.306 21.1988 64.706 21.148 64.1194 21.0232C63.547 20.7928 63.0077 20.4875 62.5156 20.1154C61.4846 19.482 60.27 19.678 59.2161 20.1456C57.0248 21.1172 55.6141 23.3539 54.8273 25.5328C54.8185 25.5817 54.8261 25.6321 54.8489 25.6761C54.8718 25.7202 54.9087 25.7554 54.9537 25.7762C54.9988 25.7971 55.0495 25.8023 55.0979 25.7912C55.1462 25.7801 55.1896 25.7532 55.221 25.7148Z" fill="#1B1B1B"/>
<path d="M64.4527 23.4142C63.4912 23.1269 62.9043 22.5473 61.698 22.6862C60.7961 22.7964 59.9449 23.164 59.2464 23.7452C58.5536 24.386 57.9526 25.1194 57.4605 25.9247C57.4322 25.9731 57.4226 26.0303 57.4337 26.0853C57.4448 26.1404 57.4758 26.1894 57.5207 26.223C57.5657 26.2567 57.6214 26.2726 57.6773 26.2678C57.7333 26.2629 57.7855 26.2377 57.824 26.1968C58.9137 24.9889 60.4593 23.4276 62.2732 23.6544C62.9289 23.7368 63.6967 24.3337 64.7853 24.5023C67.2818 24.8881 67.7533 23.7972 67.2068 23.5637C66.4972 23.3291 65.9036 23.8482 64.4527 23.4142Z" fill="#1B1B1B"/>
<path d="M65.6634 25.8355C64.2981 25.1764 62.9805 25.8389 61.8801 26.6525C61.8252 26.6931 61.7871 26.7523 61.7728 26.819C61.7585 26.8857 61.7691 26.9553 61.8025 27.0148C61.8359 27.0742 61.8899 27.1195 61.9543 27.142C62.0187 27.1644 62.089 27.1627 62.1522 27.1369C63.149 26.6503 64.1772 26.153 65.2093 26.6223C65.5803 26.9162 66.0099 27.1277 66.4691 27.2425C66.9284 27.3573 67.4069 27.3729 67.8726 27.2881C68.5603 27.1998 69.2049 26.9043 69.7206 26.4409C69.9037 26.2297 69.8125 25.8125 69.4787 25.8355C68.8134 25.8809 68.2081 26.3233 67.5114 26.4106C66.7521 26.5053 66.2973 26.1413 65.6634 25.8355Z" fill="#1B1B1B"/>
<path d="M68.0849 29.4072C66.9537 29.2655 66.4317 28.1881 64.9673 28.5896C64.364 28.7464 63.818 29.072 63.3932 29.5282C63.2112 29.7393 63.3932 30.1324 63.6961 30.0428C64.1859 29.8072 64.6911 29.6049 65.2081 29.4374C65.8129 29.3417 66.1837 29.6368 66.6916 29.9218C68.6286 31.0077 70.6872 29.9694 70.5052 29.2862C70.3842 28.8321 69.7464 29.0992 69.4759 29.195C69.0365 29.3783 68.5589 29.4512 68.0849 29.4072Z" fill="#1B1B1B"/>
<path d="M59.4888 30.5273C59.5506 30.4379 59.5942 30.3371 59.6169 30.2309C59.6397 30.1246 59.6413 30.0149 59.6216 29.9081C59.6019 29.8012 59.5612 29.6993 59.502 29.6081C59.4428 29.517 59.3662 29.4385 59.2766 29.377C58.7323 29.041 58.2479 29.7097 58.2479 30.1941C58.2446 30.3032 58.2691 30.4113 58.3191 30.5083C58.3691 30.6053 58.443 30.688 58.5338 30.7486C58.6246 30.8092 58.7293 30.8457 58.8381 30.8547C58.9468 30.8637 59.0561 30.8449 59.1556 30.8C59.2971 30.7544 59.4162 30.657 59.4888 30.5273Z" fill="#1B1B1B"/>
<path d="M91.3606 26.7435C90.935 26.5968 90.6948 27.0767 90.6646 27.4093C90.6454 27.4894 90.6535 27.5736 90.6876 27.6486C90.7217 27.7235 90.7798 27.785 90.8527 27.8232C90.9257 27.8615 91.0093 27.8743 91.0903 27.8597C91.1713 27.845 91.2452 27.8038 91.3002 27.7425C91.6042 27.4989 91.765 26.8835 91.3606 26.7435Z" fill="#1B1B1B"/>
<path d="M91.784 26.1078C90.9367 25.7158 90.6606 26.3492 90.8157 25.7752C90.963 25.2292 91.663 25.5327 91.8444 25.7147C91.9962 25.8357 92.2079 26.1381 92.1474 26.2898C92.1474 26.3806 91.9357 26.1683 91.784 26.1078Z" fill="#1B1B1B"/>
</svg>
