<svg width="274" height="291" viewBox="0 0 274 291" fill="none" xmlns="http://www.w3.org/2000/svg">
<g filter="url(#filter0_d_107_2439)">
<path d="M81.1552 290.611C71.3947 289.78 59.0413 289.311 52.9392 288.6C51.522 288.128 50.801 287.883 47.9559 286.466C44.8694 285.517 41.2446 286.669 25.43 283.386C18.5855 281.966 14.0026 279.858 11.3682 276.272C7.70262 271.282 6.54215 263.675 7.47886 259.223C8.42721 254.716 11.0258 244.942 7.22667 240.874C5.5715 239.102 3.49149 238.009 2.73356 236.615C2.02674 235.315 -3.46694 216.461 3.4617 208.435C4.17917 207.604 5.24398 206.994 5.82724 206.066C8.44141 201.906 11.4911 197.9 14.0001 195.293C17.1932 191.975 19.8124 189.858 22.283 187.006C24.5385 184.403 30.64 180.36 34.1214 175.047C35.9044 172.327 38.5401 169.808 41.5839 166.05C44.1874 162.836 49.6174 158.905 47.0147 139.259C45.8355 130.358 45.3162 121.417 45.0043 116.793C44.4147 108.052 44.2294 94.7984 46.6737 92.6475C50.6092 89.1844 56.1408 82.3972 59.5812 79.8607C63.6232 76.8807 68.3823 71.4954 73.5578 68.612C77.8165 66.2393 80.5126 61.6809 86.8169 58.9012C91.0863 57.0187 94.8137 56.362 97.8241 55.7151C101.742 54.8734 105.836 52.8894 108.238 50.4975C110.735 48.0111 114.907 46.1559 118.901 42.6798C122.57 39.4867 126.684 36.632 130.622 35.7039C134.646 34.7556 138.493 33.1682 144.13 31.9141C150.516 30.4933 154.466 30.4893 158.561 28.7174C163.814 26.4442 174.563 16.8278 182.401 13.3059C190.567 9.63677 199.468 6.70049 205.829 4.43684C211.139 2.54724 215.274 2.17945 218.24 1.36802C220.836 0.657651 231.696 -0.579369 246.097 0.309568C251.851 0.664754 253.791 0.621378 255.289 1.73387C258.01 3.75488 261.395 5.93845 264.641 7.29609C267.486 8.48597 273.021 10.4881 273.396 16.4599C273.865 23.9153 273.184 29.2463 272.679 30.7455C271.72 33.5906 269.546 36.517 268.058 39.27C266.52 42.115 264.57 45.1758 263.323 48.5049C262.258 51.3499 258.074 54.5184 257.761 70.1464C257.527 81.8391 257.74 103.176 257.406 114.2C257.051 125.932 257.545 134.154 256.696 145.386C256.34 150.085 258.122 162.752 255.985 180.336C254.913 189.162 254.833 192.997 251.119 195.314C249.23 196.493 247.585 197.9 235.161 198.149C223.457 198.383 201.362 199.332 190.041 198.141C176.53 196.721 163.339 191.561 162.212 197.932C161.626 201.246 162.626 205.171 162.93 208.58C163.289 212.605 165.144 216.144 165.654 219.826C166.13 223.26 166.685 226.171 167.43 228.94C168.261 232.026 169.059 236.244 169.323 240.078C169.682 245.282 171.02 248.146 172.285 251.554C173.475 254.758 178.904 258.712 175.472 267.431C174.406 270.138 173.909 271.913 172.626 273.104C169.185 276.297 166.214 278.727 162.443 280.676C159.481 282.207 156.724 283.838 153.208 285.052C149.763 286.242 146.09 288.826 141.004 289.194C136.039 289.552 125.6 290.403 111.275 290.614C103.319 290.732 88.7581 291.258 81.1552 290.611Z" fill="white"/>
</g>
<defs>
<filter id="filter0_d_107_2439" x="-4" y="0" width="281.554" height="298.927" filterUnits="userSpaceOnUse" color-interpolation-filters="sRGB">
<feFlood flood-opacity="0" result="BackgroundImageFix"/>
<feColorMatrix in="SourceAlpha" type="matrix" values="0 0 0 0 0 0 0 0 0 0 0 0 0 0 0 0 0 0 127 0" result="hardAlpha"/>
<feOffset dy="4"/>
<feGaussianBlur stdDeviation="2"/>
<feComposite in2="hardAlpha" operator="out"/>
<feColorMatrix type="matrix" values="0 0 0 0 0 0 0 0 0 0 0 0 0 0 0 0 0 0 0.41 0"/>
<feBlend mode="normal" in2="BackgroundImageFix" result="effect1_dropShadow_107_2439"/>
<feBlend mode="normal" in="SourceGraphic" in2="effect1_dropShadow_107_2439" result="shape"/>
</filter>
</defs>
</svg>
