<svg width="370" height="390" viewBox="0 0 370 390" fill="none" xmlns="http://www.w3.org/2000/svg">
<g clip-path="url(#clip0_107_2215)">
<path d="M331 0H39C17.4609 0 0 17.4609 0 39V351C0 372.539 17.4609 390 39 390H331C352.539 390 370 372.539 370 351V39C370 17.4609 352.539 0 331 0Z" fill="#EDEDED"/>
<path d="M68.65 69.95C64.45 69.95 61.45 68.6 59.65 65.9C57.85 63.1 56.95 60.15 56.95 57.05C56.95 54.45 57.35 51.75 58.15 48.95C58.95 46.05 60.2 43.3 61.9 40.7C63.6 38.1 65.8 36 68.5 34.4C71.3 32.8 74.65 32 78.55 32C78.65 32 78.65 32.4 78.55 33.2C78.55 34 78.55 34.85 78.55 35.75C78.55 36.55 78.55 36.95 78.55 36.95C78.55 36.95 78 37.15 76.9 37.55C75.8 37.85 74.5 38.5 73 39.5C71.5 40.4 70.2 41.7 69.1 43.4C68 45.1 67.45 47.3 67.45 50C67.65 49.9 67.9 49.85 68.2 49.85C68.5 49.85 68.75 49.85 68.95 49.85C71.85 49.85 74.15 50.75 75.85 52.55C77.65 54.35 78.55 56.65 78.55 59.45C78.55 62.55 77.6 65.1 75.7 67.1C73.9 69 71.55 69.95 68.65 69.95ZM39.7 69.95C35.5 69.95 32.5 68.6 30.7 65.9C28.9 63.1 28 60.15 28 57.05C28 54.45 28.4 51.75 29.2 48.95C30 46.05 31.25 43.3 32.95 40.7C34.65 38.1 36.85 36 39.55 34.4C42.35 32.8 45.7 32 49.6 32C49.7 32 49.7 32.4 49.6 33.2C49.6 34 49.6 34.85 49.6 35.75C49.6 36.55 49.6 36.95 49.6 36.95C49.6 36.95 49.05 37.15 47.95 37.55C46.85 37.85 45.55 38.5 44.05 39.5C42.55 40.4 41.25 41.7 40.15 43.4C39.05 45.1 38.5 47.3 38.5 50C38.7 49.9 38.95 49.85 39.25 49.85C39.55 49.85 39.8 49.85 40 49.85C42.9 49.85 45.2 50.75 46.9 52.55C48.7 54.35 49.6 56.65 49.6 59.45C49.6 62.55 48.65 65.1 46.75 67.1C44.95 69 42.6 69.95 39.7 69.95Z" fill="#C0C0C0"/>
</g>
<defs>
<clipPath id="clip0_107_2215">
<rect width="370" height="390" fill="white"/>
</clipPath>
</defs>
</svg>
