<svg width="315" height="274" viewBox="0 0 315 274" fill="none" xmlns="http://www.w3.org/2000/svg">
<g filter="url(#filter0_d_107_2391)">
<path d="M195.848 10.6158C198.503 12.811 200.798 15.5698 201.255 16.9457C204.048 18.3285 206.8 17.6371 207.837 17.8722C209.559 18.5636 210.713 19.7252 211.986 20.8695C215.788 22.0207 234.156 15.6926 238.024 24.337L238.069 24.4366C239.095 26.7282 240.458 29.7747 240.669 32.8587C241.357 42.9154 242.692 59.5369 243.203 62.5897C243.666 65.3588 246.635 69.9332 247.929 74.3438C248.741 77.1129 250.103 80.2256 253.121 83.7955C255.656 86.7928 257.923 88.7415 260.845 89.5481C264.188 90.4711 267.237 91.018 270.293 93.7035C273.176 96.2375 275.237 98.7869 278.013 101.192C280.547 103.387 284.651 106.298 287.001 109.838C289.3 113.302 290.725 116.107 292.415 118.709C294.14 121.364 295.944 123.731 298.064 126.432C300.598 129.661 302.458 132.312 304.867 134.85C309.13 139.341 311.954 141.921 312.694 144.986C313.956 150.21 315.466 157.09 312.912 163.43C311.19 167.703 310.766 171.937 309.69 175.754C308.646 179.457 306.822 184.216 306.001 188.314C305.424 191.197 303.083 194.98 300.809 198.574C298.039 202.951 294.856 205.527 294.593 209.056C293.905 218.287 296.622 232.233 298.644 237.408C301.51 244.74 301.465 255.091 299.429 257.57C297.348 260.104 295.825 262.611 293.898 265.175C291.817 267.944 290.869 273.306 285.449 273.697C279.115 274.153 273.672 274.208 272.115 272.646C270.853 271.381 269.42 269.55 267.735 267.457C265.322 264.46 265.103 261.231 262.667 258.354C261.401 256.861 231.07 256.128 221.672 255.016C217.755 254.553 217.916 242.141 207.187 243.214C192.739 244.659 149.736 244.483 148.177 243.214C146.182 247.159 151.932 258.023 135.898 258.023C131.384 258.023 115.72 259.378 105.932 260.097C102.824 260.325 99.5919 260.777 84.723 260.902C71.2265 261.016 46.3527 261.222 33.4509 260.899C19.6329 260.553 16.913 260.374 14.6789 258.126C14.1015 257.545 13.6452 256.861 13.417 246.998C13.1889 237.135 13.1889 218.653 12.7187 208.942C12.2485 199.231 11.4687 198.056 10.5269 197.745C7.40862 196.714 4.53607 195.45 1.65602 192.556C0.964597 191.861 0.508261 191.176 0.280093 177.787C0.051925 164.398 -0.15888 139.067 0.169466 126.055C0.515175 112.355 -1.35237 108.68 2.82797 103.473C4.20735 101.755 5.68385 101.599 6.97648 101.064C9.74561 99.9159 12.7607 97.6897 22.0563 97.4925C38.1837 97.1502 49.1361 96.6309 51.9463 96.5729C57.4742 96.4588 62.718 96.5571 63.2061 94.834C63.6624 93.223 61.6213 90.4366 64.5889 81.8007C65.9718 77.7767 64.0563 70.9895 67.9354 69.1409C70.5904 67.8756 97.0822 76.0419 99.1599 65.5593C99.6162 63.2569 99.7677 60.923 100.311 59.2259C101.234 56.3427 102.004 53.1599 102.268 49.7708C102.617 45.28 102.299 42.2311 103.886 39.1748C105.383 36.2916 106.099 33.4566 107.225 30.7637C108.383 27.9946 110.433 23.1844 113.569 20.51C116.694 17.8445 119.775 13.9669 123.608 11.7462C129.361 8.41359 131.72 6.08676 134.889 5.3022C138.128 4.50016 141.833 3.23799 145.146 2.30836C148.029 1.4994 150.841 -1.03858 172.032 0.469189C180.097 1.04307 186.363 1.60562 188.702 3.9332L188.936 4.16652C191.061 6.28176 193.291 8.50149 195.848 10.6158Z" fill="white"/>
</g>
<defs>
<filter id="filter0_d_107_2391" x="-4" y="0" width="322.302" height="281.977" filterUnits="userSpaceOnUse" color-interpolation-filters="sRGB">
<feFlood flood-opacity="0" result="BackgroundImageFix"/>
<feColorMatrix in="SourceAlpha" type="matrix" values="0 0 0 0 0 0 0 0 0 0 0 0 0 0 0 0 0 0 127 0" result="hardAlpha"/>
<feOffset dy="4"/>
<feGaussianBlur stdDeviation="2"/>
<feComposite in2="hardAlpha" operator="out"/>
<feColorMatrix type="matrix" values="0 0 0 0 0 0 0 0 0 0 0 0 0 0 0 0 0 0 0.41 0"/>
<feBlend mode="normal" in2="BackgroundImageFix" result="effect1_dropShadow_107_2391"/>
<feBlend mode="normal" in="SourceGraphic" in2="effect1_dropShadow_107_2391" result="shape"/>
</filter>
</defs>
</svg>
