<svg width="118" height="112" viewBox="0 0 118 112" fill="none" xmlns="http://www.w3.org/2000/svg">
<g filter="url(#filter0_d_107_2113)">
<path d="M92.3527 110.072C88.3918 110.394 79.5671 111.019 77.8062 111.231C76.8812 111.342 74.3099 111.462 70.9854 111.508C69.4841 111.528 65.2747 111.739 58.95 111.648C54.5912 111.585 52.9552 111.002 51.0179 110.678C48.9372 110.329 46.7664 110.448 43.4156 110.125C40.8957 109.882 36.6808 109.893 33.4159 109.709C27.9454 109.4 24.5969 108.968 22.5681 108.876C19.2986 108.729 16.7423 108.23 15.0309 107.586C12.4798 106.626 12.0252 105.093 10.7336 104.397C10.349 104.19 9.99641 103.802 9.80794 103.339C9.41988 102.386 9.52802 101.304 9.38944 97.3189C9.26683 93.7926 9.34233 87.2056 9.2966 83.676C9.25087 80.1465 9.15941 79.8721 9.11229 77.0327C9.06517 74.1932 9.06517 68.7971 9.1109 65.88C9.17131 62.027 9.8024 60.7485 10.954 59.5928C12.3046 58.2373 16.7035 58.2486 19.13 57.8356C20.1351 57.6646 20.7029 56.5884 21.2558 55.8983C21.9509 55.0307 22.0914 53.3624 21.9999 51.7008C21.9466 50.7328 21.2627 50.2139 20.664 49.7982C19.5305 49.011 17.8509 48.7367 15.5894 48.3182C11.8996 47.6354 10.1849 47.2622 8.56214 46.5181C7.26623 45.9238 6.29918 44.9508 5.37349 43.8408C4.3252 42.5838 3.43341 41.6249 2.23334 40.4692C1.12889 39.4055 0.756109 37.4732 0.243375 35.2573C-0.438062 32.3124 0.470641 30.0732 1.02356 29.7503C2.71644 28.7617 5.73379 29.0588 6.84379 28.3645C7.84603 27.7376 8.78248 26.1099 9.80102 24.9015C10.8736 23.629 11.0939 21.304 11.7882 20.0056C12.4034 18.855 13.034 17.5126 14.0498 15.851C15.0944 14.1422 16.2656 13.261 17.1456 11.8766C18.0929 10.3863 21.2544 11.9584 25.3549 12.1496C27.2783 12.2393 29.0091 10.4008 30.4018 9.51806C31.4034 8.88325 32.4348 8.36649 34.1406 7.99233C35.4775 7.69912 37.2295 6.88649 38.7164 6.10076C39.9688 5.43897 41.1152 4.85218 43.744 3.97638C46.7175 2.98574 50.6105 1.62611 53.3571 0.787724C58.1075 -0.662329 66.156 0.22926 66.7547 0.780795C68.4222 2.31707 69.4791 4.37548 70.0376 6.09244C70.4676 7.41445 71.325 9.45847 72.9435 11.3112C73.9253 12.4351 74.5621 13.8042 75.5779 14.8242C77.1454 16.3981 78.7194 18.3329 80.8798 19.3057C83.9315 20.6799 86.6654 19.3556 87.1726 19.0799C88.2361 18.5016 89.157 17.6955 90.4513 16.9097C91.6562 16.1783 92.4828 14.741 93.1328 13.7225C93.808 12.6643 96.1745 13.1668 103.04 13.3012C104.985 13.3393 105.512 14.7327 105.973 15.3314C106.428 15.9208 106.438 16.8557 106.622 17.6858C106.768 18.3427 106.9 23.0057 107.038 29.7489C107.101 32.8483 108.558 33.8535 109.621 35.1465C111.388 37.296 112.438 37.9221 113.594 38.5679C113.92 38.7502 114.284 38.9365 114.518 39.2137C116.728 41.8288 114.572 48.1713 114.429 50.2957C114.338 51.6556 115.398 52.7 116.228 54.27C116.912 55.5632 116.878 58.049 117.108 64.7063C117.293 70.0579 117.155 80.4874 117.109 86.0415C117.064 91.5957 116.972 91.9615 116.788 92.2415C116.096 93.2925 114.483 93.3529 111.439 93.5843C109.551 93.7278 108.015 94.4615 106.444 94.8315C104.892 95.1972 103.026 95.2929 101.228 95.6172C97.8095 96.234 96.6512 96.2159 95.8198 96.9517C94.1222 98.4541 94.9828 100.83 94.7527 102.492C94.2452 106.158 94.4285 108.036 94.2913 109.237C94.1541 109.705 93.8797 109.888 93.4182 109.982C93.1225 110.042 92.7534 110.064 92.3527 110.072Z" fill="white"/>
</g>
<defs>
<filter id="filter0_d_107_2113" x="-1.5" y="0" width="120.202" height="115.171" filterUnits="userSpaceOnUse" color-interpolation-filters="sRGB">
<feFlood flood-opacity="0" result="BackgroundImageFix"/>
<feColorMatrix in="SourceAlpha" type="matrix" values="0 0 0 0 0 0 0 0 0 0 0 0 0 0 0 0 0 0 127 0" result="hardAlpha"/>
<feOffset dy="2"/>
<feGaussianBlur stdDeviation="0.75"/>
<feComposite in2="hardAlpha" operator="out"/>
<feColorMatrix type="matrix" values="0 0 0 0 0 0 0 0 0 0 0 0 0 0 0 0 0 0 0.09 0"/>
<feBlend mode="normal" in2="BackgroundImageFix" result="effect1_dropShadow_107_2113"/>
<feBlend mode="normal" in="SourceGraphic" in2="effect1_dropShadow_107_2113" result="shape"/>
</filter>
</defs>
</svg>
