<svg width="906" height="143" viewBox="0 0 906 143" fill="none" xmlns="http://www.w3.org/2000/svg">
<path d="M70.0996 59.3981C75.7694 59.4869 80.4686 61.0947 84.2305 64.1969L84.6016 64.5104C88.4982 67.8896 90.4824 72.9127 90.4824 79.6696V142.5H70.0996V59.3981ZM21.083 59.3942V142.5H0.5V59.3942H21.083ZM69.0996 37.4147V58.3942H21.6816V37.4147H69.0996Z" fill="#5A47FB" stroke="black"/>
<path d="M199.827 121.71V142.5H156.747C149.993 142.5 145.01 140.452 141.704 136.429C138.452 132.472 136.767 127.577 136.671 121.71H199.827ZM136.58 37.816H190.217C196.578 38.3468 201.203 40.4277 204.179 43.9899C207.183 47.5855 208.701 52.136 208.701 57.6793V80.6735C208.701 87.2208 206.838 92.0372 203.189 95.2194L202.831 95.5221C198.9 98.7274 193.909 100.346 187.818 100.346H136.28V120.71H115.697V57.4791L115.703 56.8512C115.822 50.422 117.799 45.7181 121.555 42.6412C125.486 39.4358 130.481 37.816 136.58 37.816ZM136.28 79.568H188.318V58.5944H136.28V79.568Z" fill="#5A47FB" stroke="black"/>
<path d="M304.018 79.9689C310.775 79.969 315.722 81.9855 318.96 85.9386H318.961C322.241 89.9345 323.897 95.0246 323.897 101.248V121.21C323.897 127.304 322.242 132.367 318.958 136.433V136.434C315.719 140.452 310.773 142.5 304.018 142.5H236.735V121.71H303.514V100.748H255.498V79.9689H304.018ZM253.783 37.6154H320.865V58.3937H254.498V78.9689H233.915V58.8937C233.915 52.6703 235.568 47.5809 238.841 43.5851C242.078 39.6318 247.026 37.6154 253.783 37.6154Z" fill="#5A47FB" stroke="black"/>
<mask id="path-4-inside-1_107_2073" fill="white">
<path d="M368.98 143C362.12 143 357.01 140.916 353.651 136.747C350.284 132.579 348.6 127.332 348.6 121.009V0H370.184V37.316C370.192 37.316 370.195 37.316 370.195 37.316H399.839C399.839 37.316 399.842 37.316 399.85 37.316V59.0947C399.842 59.0947 399.839 59.0947 399.839 59.0947H370.195C370.195 59.0947 370.192 59.0947 370.184 59.0947V121.009C370.192 121.009 370.195 121.009 370.195 121.009H409.125C409.125 121.009 409.125 121.013 409.125 121.021V143H368.98Z"/>
</mask>
<path d="M368.98 143C362.12 143 357.01 140.916 353.651 136.747C350.284 132.579 348.6 127.332 348.6 121.009V0H370.184V37.316C370.192 37.316 370.195 37.316 370.195 37.316H399.839C399.839 37.316 399.842 37.316 399.85 37.316V59.0947C399.842 59.0947 399.839 59.0947 399.839 59.0947H370.195C370.195 59.0947 370.192 59.0947 370.184 59.0947V121.009C370.192 121.009 370.195 121.009 370.195 121.009H409.125C409.125 121.009 409.125 121.013 409.125 121.021V143H368.98Z" fill="#5A47FB"/>
<path d="M368.98 143.5C368.98 143.167 368.98 142.833 368.98 142.5C363.405 142.566 357.502 140.895 354.025 136.445C352.845 134.989 351.865 133.374 351.113 131.655C349.651 128.33 349.065 124.661 349.063 121.009C349.019 80.6729 348.975 40.3365 348.931 0L348.6 0.33077C355.795 0.322917 362.989 0.315063 370.184 0.307209L369.877 0C369.89 12.4387 369.904 24.8773 369.917 37.316L369.917 37.5822L370.184 37.5825C370.188 37.5824 370.191 37.5824 370.195 37.5824C380.076 37.5717 389.957 37.5609 399.839 37.5501C399.842 37.5501 399.846 37.5501 399.85 37.5501L399.616 37.316C399.624 44.5756 399.632 51.8352 399.64 59.0947L399.85 58.8844C399.846 58.8844 399.842 58.8844 399.839 58.8844C389.957 58.8952 380.076 58.906 370.195 58.9168C370.191 58.9168 370.188 58.9168 370.184 58.9168L370.006 58.9166L370.006 59.0947C370.028 79.733 370.051 100.371 370.073 121.009L370.073 121.12L370.184 121.12C370.188 121.12 370.191 121.12 370.195 121.12C383.172 121.106 396.149 121.091 409.125 121.077L409.058 121.009C409.058 121.013 409.058 121.017 409.058 121.021C409.066 128.347 409.074 135.673 409.082 143L409.125 142.956C403.377 142.962 397.629 142.969 391.881 142.975C384.247 142.983 376.614 142.992 368.98 143C376.614 143.008 384.247 143.017 391.881 143.025C397.629 143.031 403.377 143.037 409.125 143.044L409.169 143.044L409.169 143C409.177 135.673 409.185 128.347 409.193 121.021C409.193 121.017 409.193 121.013 409.193 121.009L409.193 120.941L409.125 120.942C396.149 120.927 383.172 120.913 370.195 120.899C370.191 120.899 370.188 120.899 370.184 120.899L370.294 121.009C370.317 100.371 370.339 79.733 370.362 59.0947L370.184 59.2727C370.188 59.2727 370.191 59.2727 370.195 59.2727C380.076 59.2835 389.957 59.2943 399.839 59.305C399.842 59.305 399.846 59.3051 399.85 59.3051L400.06 59.3048L400.06 59.0947C400.068 51.8352 400.076 44.5756 400.084 37.316L400.084 37.0816L399.85 37.0819C399.846 37.0819 399.842 37.0819 399.839 37.0819C389.957 37.0711 380.076 37.0603 370.195 37.0495C370.191 37.0495 370.188 37.0495 370.184 37.0495L370.45 37.316C370.464 24.8773 370.477 12.4387 370.491 0L370.491 -0.307544L370.184 -0.307209C362.989 -0.315063 355.795 -0.322917 348.6 -0.33077L348.269 -0.330409L348.27 0C348.226 40.3365 348.182 80.6729 348.138 121.009C348.131 124.756 348.724 128.56 350.242 132.036C351.023 133.831 352.046 135.525 353.276 137.05C356.971 141.804 363.26 143.563 368.98 143.5ZM368.98 142.5V143.5V143V142.5Z" fill="black" mask="url(#path-4-inside-1_107_2073)"/>
<path d="M672.596 37.816C679.354 37.8161 684.301 39.8316 687.539 43.7848C690.711 47.6578 692.363 52.4942 692.47 58.3268L692.475 58.8951V122.224C692.475 128.77 690.614 133.686 686.955 137.051L686.594 137.373C682.664 140.781 677.672 142.5 671.582 142.5H618.223V121.71H671.882V100.748H617.625V120.71H597.042V100.245C597.042 93.4904 599.058 88.4685 603.02 85.0885C607.011 81.6852 612.034 79.9694 618.125 79.9694H671.882V58.5944H608.135V37.816H672.596Z" fill="#5A47FB" stroke="black"/>
<path d="M738.262 59.5944V142.5H717.679V59.5944H738.262ZM759.142 37.816H787.282V58.5944H739.266C739.353 52.5979 741.008 47.6741 744.199 43.7858V43.7848C747.336 39.9551 752.077 37.9438 758.514 37.8219L759.142 37.816Z" fill="#5A47FB" stroke="black"/>
<path d="M896.626 121.711V142.5H853.558C847.015 142.5 842.13 140.578 838.818 136.8L838.503 136.429C835.251 132.473 833.57 127.577 833.482 121.711H896.626ZM833.379 37.816H887.027C893.382 38.3468 898.002 40.4275 900.979 43.9899C903.982 47.5855 905.5 52.136 905.5 57.6793V80.6735C905.5 87.2211 903.64 92.0373 899.998 95.2194L899.641 95.5221C895.71 98.7272 890.715 100.346 884.617 100.346H833.079V120.711H812.496V57.4791C812.496 50.7275 814.48 45.8165 818.365 42.6403L818.366 42.6412C822.297 39.4358 827.288 37.816 833.379 37.816ZM833.079 79.568H885.117V58.5944H833.079V79.568Z" fill="#5A47FB" stroke="black"/>
<path d="M571.828 37.4147V121.422C571.828 132.994 562.495 142.38 550.94 142.489L550.445 142.494V142.5H535.415C523.818 142.499 514.403 133.24 514.137 121.721H551.244V37.4147H571.828ZM491.737 121.721V142.5H455.222V121.721H491.737ZM513.13 37.6149V120.721H492.737V37.6149H513.13ZM454.423 37.4147V120.721H433.829V37.4147H454.423Z" fill="#5A47FB" stroke="black"/>
</svg>
