<svg width="36" height="36" viewBox="0 0 36 36" fill="none" xmlns="http://www.w3.org/2000/svg">
<mask id="path-1-outside-1_119_3612" maskUnits="userSpaceOnUse" x="-1" y="-1" width="38" height="38" fill="black">
<rect fill="white" x="-1" y="-1" width="38" height="38"/>
<path d="M33.5988 9.01855V9.01364C33.3786 8.62697 33.146 8.25229 32.901 7.8896C32.9488 7.86283 32.9878 7.82291 33.0135 7.77459C33.0392 7.72627 33.0505 7.67158 33.046 7.61704C33.0393 7.55729 33.0134 7.50132 32.9722 7.4575C32.9311 7.41368 32.8768 7.38436 32.8176 7.37391L32.5009 7.3194C31.6284 6.12785 30.6081 5.0519 29.4646 4.11735C29.4809 3.99415 29.5 3.87168 29.5218 3.74993C29.5342 3.67754 29.5196 3.60312 29.4807 3.54082C29.4417 3.47853 29.3813 3.43272 29.3108 3.41212C29.2403 3.39151 29.1647 3.39755 29.0984 3.42909C29.032 3.46062 28.9796 3.51544 28.9511 3.58313C28.9365 3.61474 28.9213 3.64691 28.9053 3.67961C25.3533 0.974671 20.9227 -0.313655 16.4741 0.0648275C12.0254 0.44331 7.87623 2.46159 4.83222 5.72771C1.7882 8.99383 0.0666541 13.2747 0.00189543 17.7389C-0.0628633 22.2031 1.53379 26.5321 4.48179 29.8852C7.42978 33.2382 11.5187 35.376 15.9545 35.8834C20.3903 36.3907 24.8563 35.2314 28.4853 32.6307C32.1143 30.0299 34.6472 26.1733 35.5922 21.8097C36.5371 17.4461 35.8267 12.8877 33.5988 9.01855ZM31.8369 7.20819C31.4396 7.14496 31.0394 7.08609 30.6333 7.03375C30.2152 6.97924 29.7873 6.934 29.3686 6.89584C29.3446 6.3916 29.3446 5.883 29.3545 5.37385C29.3659 5.1558 29.3795 4.93394 29.3981 4.71644C30.2943 5.46122 31.1116 6.2962 31.8369 7.20819ZM20.3741 16.0343C20.2792 16.0948 20.1626 16.1657 20.0835 16.2202C19.8128 15.9289 19.4703 15.7139 19.0903 15.5965C18.7965 15.509 18.4882 15.4811 18.1834 15.5147C17.8787 15.5482 17.5838 15.6424 17.316 15.7918C17.0483 15.9412 16.8132 16.1427 16.6247 16.3844C16.4361 16.6261 16.2978 16.9032 16.2181 17.1992C16.1371 17.4985 16.1161 17.8109 16.1563 18.1183C16.1965 18.4258 16.297 18.7223 16.4521 18.9907C16.6072 19.2592 16.8138 19.4944 17.0601 19.6828C17.3064 19.8711 17.5875 20.009 17.8872 20.0884C18.3225 20.2172 18.7866 20.2116 19.2186 20.0723C19.6506 19.933 20.0306 19.6664 20.3086 19.3076C20.5867 18.9488 20.7499 18.5144 20.777 18.0613C20.804 17.6081 20.6936 17.1574 20.4602 16.768C20.5414 16.6715 20.6685 16.4873 20.7361 16.3832C20.9752 16.5135 21.2405 16.5883 21.5125 16.6021C21.7845 16.6159 22.056 16.5682 22.3071 16.4627C22.6581 16.3247 22.9896 16.1414 23.2932 15.9176C23.5562 16.6342 23.6611 17.3992 23.6007 18.1601C23.5403 18.9211 23.316 19.6599 22.9433 20.326C22.3442 21.4203 21.3652 22.2573 20.1912 22.679C19.0171 23.1007 17.7293 23.0779 16.5709 22.615C15.4125 22.1521 14.4637 21.281 13.9036 20.1663C13.3436 19.0516 13.2111 17.7704 13.5312 16.5647C13.8835 15.2539 14.7376 14.1345 15.9088 13.4485C17.08 12.7625 18.4741 12.565 19.7897 12.8987C20.1151 12.9802 20.432 13.0924 20.7361 13.234C20.004 14.2659 19.7723 15.2618 20.3741 16.0343ZM18.4765 18.0981C18.6531 18.2747 19.0298 18.0147 19.2424 17.8839C19.4397 17.7291 19.9385 17.2842 20.1228 17.118C20.1983 17.3632 20.2216 17.6215 20.1913 17.8763C20.161 18.1311 20.0777 18.3768 19.9467 18.5974C19.7663 18.9172 19.485 19.1682 19.1468 19.311C18.8085 19.4538 18.4325 19.4805 18.0775 19.3868C17.6586 19.2743 17.3014 19.0005 17.0839 18.6252C16.8664 18.25 16.8064 17.8039 16.9169 17.3846C17.0306 16.9581 17.3054 16.5924 17.6833 16.3644C18.0612 16.1365 18.5129 16.064 18.9431 16.1624C19.2173 16.2246 19.4734 16.3492 19.6916 16.5265C19.5858 16.6137 18.8412 17.2581 18.7142 17.4134C18.5659 17.6059 18.3206 17.9335 18.4765 18.0981ZM21.0773 12.7935C20.7165 12.6011 20.336 12.4483 19.9424 12.3378C19.2101 12.1309 18.4439 12.0718 17.6886 12.1638C16.9332 12.2558 16.2037 12.4971 15.5425 12.8737C14.8813 13.2504 14.3016 13.7547 13.8372 14.3575C13.3727 14.9603 13.0328 15.6494 12.8372 16.3848C12.466 17.7606 12.6131 19.2249 13.2507 20.4993C13.8884 21.7737 14.972 22.7694 16.2957 23.2972C17.6194 23.8249 19.0908 23.848 20.4304 23.3619C21.7699 22.8758 22.8842 21.9145 23.5614 20.6607C23.9685 19.8862 24.1906 19.0279 24.2102 18.1531C24.2299 17.2784 24.0466 16.4109 23.6748 15.6189C24.1893 15.1689 24.6539 14.6649 25.0605 14.1154C25.3789 13.6935 25.676 13.2476 25.9496 12.8072C26.6664 13.883 27.1404 15.1018 27.339 16.3792C27.5375 17.6566 27.4557 18.9619 27.0993 20.2045C26.4651 22.4851 24.9626 24.4264 22.9138 25.6121C21.8983 26.1982 20.7773 26.5786 19.6147 26.7315C18.4522 26.8844 17.2709 26.8069 16.1384 26.5033C13.8511 25.8901 11.901 24.3934 10.7172 22.3424C10.1311 21.3269 9.75069 20.2059 9.59778 19.0433C9.44487 17.8808 9.52244 16.6995 9.82606 15.567C10.4392 13.2797 11.9359 11.3296 13.9869 10.1459C15.4517 9.2918 17.1277 8.86808 18.8224 8.92333C20.5171 8.97858 22.1619 9.51056 23.568 10.4582C22.6643 11.1545 21.8302 11.9366 21.0773 12.7935ZM23.9981 10.1224C22.022 8.65021 19.5702 7.96327 17.1169 8.19454C14.6636 8.4258 12.3833 9.55882 10.7172 11.3744C9.05109 13.1899 8.11764 15.5589 8.09746 18.023C8.07727 20.4871 8.97179 22.8711 10.6079 24.7137C12.244 26.5563 14.5055 27.7265 16.9547 27.9979C19.4038 28.2694 21.8666 27.6227 23.8665 26.183C25.8664 24.7434 27.2612 22.6131 27.781 20.2044C28.3009 17.7957 27.9088 15.2798 26.6806 13.1435V13.1386C26.5334 12.8775 26.3748 12.6256 26.2069 12.383C26.8681 11.2688 27.3751 10.2396 27.6929 9.76155C27.8085 9.71903 28.0129 9.64871 28.2811 9.55713C29.6017 11.1372 30.5163 13.016 30.9453 15.0301C31.3744 17.0442 31.3049 19.1326 30.7429 21.1137C30.0076 23.7523 28.4395 26.0827 26.2722 27.7576C24.1048 29.4325 21.4543 30.3622 18.7156 30.4083C15.9769 30.4544 13.2966 29.6143 11.0742 28.0133C8.85174 26.4122 7.2061 24.1359 6.38252 21.5236C5.55893 18.9112 5.60149 16.1027 6.50384 13.5165C7.40619 10.9303 9.12003 8.70492 11.39 7.17194C13.6599 5.63896 16.3644 4.88047 19.1005 5.0095C21.8365 5.13853 24.4576 6.14817 26.5732 7.88796C26.4986 8.01334 26.431 8.12455 26.3732 8.21831C26.3018 8.34696 26.2402 8.44235 26.2096 8.49904C25.689 8.87409 24.8703 9.44701 23.9981 10.1208V10.1224ZM27.905 8.97766C27.6624 9.05343 27.4956 9.10577 27.4144 9.13466C27.3272 9.15505 27.2501 9.20541 27.1963 9.27693C26.7302 9.91418 25.779 11.9878 24.4756 13.681C23.869 14.5859 23.0294 15.3104 22.0454 15.7781C21.8895 15.8498 21.7183 15.8817 21.547 15.8708C21.3757 15.86 21.2098 15.8068 21.0642 15.7159C20.4439 15.1163 20.9176 14.1983 21.4458 13.5093C22.7966 11.7447 25.574 9.86131 26.6964 9.03926C26.7368 8.99992 26.7733 8.95685 26.8055 8.91061C26.8245 8.873 26.8769 8.79668 26.9341 8.68275C27.186 8.26846 27.6973 7.39354 28.2228 6.42812C28.437 6.04272 28.6414 5.64315 28.8317 5.25338C28.841 5.85302 28.8791 6.45265 28.9407 7.03212C28.9407 7.0512 28.926 7.06537 28.926 7.07954C28.9232 7.10876 28.9264 7.13823 28.9353 7.16619C28.9442 7.19415 28.9586 7.22002 28.9778 7.24227C28.9969 7.26451 29.0204 7.28266 29.0467 7.29563C29.073 7.30861 29.1017 7.31613 29.131 7.31776C29.6063 7.36955 30.0866 7.4366 30.5717 7.51237C30.9571 7.57452 31.3469 7.64593 31.7323 7.71679C30.4196 8.17524 28.7374 8.70292 27.905 8.97439V8.97766ZM34.8111 22.18C33.8469 25.6682 31.7901 28.7556 28.9425 30.9891C26.0948 33.2226 22.6063 34.4846 18.9888 34.59C15.3713 34.6954 11.8153 33.6387 8.84243 31.5748C5.86959 29.5109 3.63649 26.5485 2.47078 23.1223C1.30508 19.6962 1.26815 15.9866 2.36541 12.5379C3.46267 9.08921 5.63636 6.08298 8.56752 3.9603C11.4987 1.83762 15.033 0.710255 18.6519 0.743621C22.2708 0.776988 25.7837 1.96933 28.6752 4.14569C28.5237 4.44279 28.3525 4.76386 28.1683 5.09366C27.7218 5.91462 27.2252 6.78354 26.836 7.44641C24.1929 5.23435 20.8172 4.09241 17.374 4.24561C13.9308 4.3988 10.6698 5.83603 8.23364 8.27408C5.79746 10.7121 4.36274 13.9742 4.21219 17.4175C4.06164 20.8608 5.20617 24.2357 7.42027 26.877C9.63436 29.5184 12.7574 31.2348 16.1741 31.6879C19.5908 32.141 23.0533 31.2981 25.8794 29.3251C28.7054 27.3522 30.6901 24.3924 31.4423 21.0288C32.1945 17.6653 31.6596 14.142 29.9432 11.1533L29.9481 11.1483C29.5977 10.5325 29.199 9.94539 28.7559 9.3925L29.1789 9.24913C30.1983 8.89644 31.5066 8.43145 32.4715 8.05749C33.8713 10.0968 34.8063 12.4185 35.2106 14.8588C35.6148 17.299 35.4785 19.7982 34.8111 22.18Z"/>
</mask>
<path d="M33.5988 9.01855V9.01364C33.3786 8.62697 33.146 8.25229 32.901 7.8896C32.9488 7.86283 32.9878 7.82291 33.0135 7.77459C33.0392 7.72627 33.0505 7.67158 33.046 7.61704C33.0393 7.55729 33.0134 7.50132 32.9722 7.4575C32.9311 7.41368 32.8768 7.38436 32.8176 7.37391L32.5009 7.3194C31.6284 6.12785 30.6081 5.0519 29.4646 4.11735C29.4809 3.99415 29.5 3.87168 29.5218 3.74993C29.5342 3.67754 29.5196 3.60312 29.4807 3.54082C29.4417 3.47853 29.3813 3.43272 29.3108 3.41212C29.2403 3.39151 29.1647 3.39755 29.0984 3.42909C29.032 3.46062 28.9796 3.51544 28.9511 3.58313C28.9365 3.61474 28.9213 3.64691 28.9053 3.67961C25.3533 0.974671 20.9227 -0.313655 16.4741 0.0648275C12.0254 0.44331 7.87623 2.46159 4.83222 5.72771C1.7882 8.99383 0.0666541 13.2747 0.00189543 17.7389C-0.0628633 22.2031 1.53379 26.5321 4.48179 29.8852C7.42978 33.2382 11.5187 35.376 15.9545 35.8834C20.3903 36.3907 24.8563 35.2314 28.4853 32.6307C32.1143 30.0299 34.6472 26.1733 35.5922 21.8097C36.5371 17.4461 35.8267 12.8877 33.5988 9.01855ZM31.8369 7.20819C31.4396 7.14496 31.0394 7.08609 30.6333 7.03375C30.2152 6.97924 29.7873 6.934 29.3686 6.89584C29.3446 6.3916 29.3446 5.883 29.3545 5.37385C29.3659 5.1558 29.3795 4.93394 29.3981 4.71644C30.2943 5.46122 31.1116 6.2962 31.8369 7.20819ZM20.3741 16.0343C20.2792 16.0948 20.1626 16.1657 20.0835 16.2202C19.8128 15.9289 19.4703 15.7139 19.0903 15.5965C18.7965 15.509 18.4882 15.4811 18.1834 15.5147C17.8787 15.5482 17.5838 15.6424 17.316 15.7918C17.0483 15.9412 16.8132 16.1427 16.6247 16.3844C16.4361 16.6261 16.2978 16.9032 16.2181 17.1992C16.1371 17.4985 16.1161 17.8109 16.1563 18.1183C16.1965 18.4258 16.297 18.7223 16.4521 18.9907C16.6072 19.2592 16.8138 19.4944 17.0601 19.6828C17.3064 19.8711 17.5875 20.009 17.8872 20.0884C18.3225 20.2172 18.7866 20.2116 19.2186 20.0723C19.6506 19.933 20.0306 19.6664 20.3086 19.3076C20.5867 18.9488 20.7499 18.5144 20.777 18.0613C20.804 17.6081 20.6936 17.1574 20.4602 16.768C20.5414 16.6715 20.6685 16.4873 20.7361 16.3832C20.9752 16.5135 21.2405 16.5883 21.5125 16.6021C21.7845 16.6159 22.056 16.5682 22.3071 16.4627C22.6581 16.3247 22.9896 16.1414 23.2932 15.9176C23.5562 16.6342 23.6611 17.3992 23.6007 18.1601C23.5403 18.9211 23.316 19.6599 22.9433 20.326C22.3442 21.4203 21.3652 22.2573 20.1912 22.679C19.0171 23.1007 17.7293 23.0779 16.5709 22.615C15.4125 22.1521 14.4637 21.281 13.9036 20.1663C13.3436 19.0516 13.2111 17.7704 13.5312 16.5647C13.8835 15.2539 14.7376 14.1345 15.9088 13.4485C17.08 12.7625 18.4741 12.565 19.7897 12.8987C20.1151 12.9802 20.432 13.0924 20.7361 13.234C20.004 14.2659 19.7723 15.2618 20.3741 16.0343ZM18.4765 18.0981C18.6531 18.2747 19.0298 18.0147 19.2424 17.8839C19.4397 17.7291 19.9385 17.2842 20.1228 17.118C20.1983 17.3632 20.2216 17.6215 20.1913 17.8763C20.161 18.1311 20.0777 18.3768 19.9467 18.5974C19.7663 18.9172 19.485 19.1682 19.1468 19.311C18.8085 19.4538 18.4325 19.4805 18.0775 19.3868C17.6586 19.2743 17.3014 19.0005 17.0839 18.6252C16.8664 18.25 16.8064 17.8039 16.9169 17.3846C17.0306 16.9581 17.3054 16.5924 17.6833 16.3644C18.0612 16.1365 18.5129 16.064 18.9431 16.1624C19.2173 16.2246 19.4734 16.3492 19.6916 16.5265C19.5858 16.6137 18.8412 17.2581 18.7142 17.4134C18.5659 17.6059 18.3206 17.9335 18.4765 18.0981ZM21.0773 12.7935C20.7165 12.6011 20.336 12.4483 19.9424 12.3378C19.2101 12.1309 18.4439 12.0718 17.6886 12.1638C16.9332 12.2558 16.2037 12.4971 15.5425 12.8737C14.8813 13.2504 14.3016 13.7547 13.8372 14.3575C13.3727 14.9603 13.0328 15.6494 12.8372 16.3848C12.466 17.7606 12.6131 19.2249 13.2507 20.4993C13.8884 21.7737 14.972 22.7694 16.2957 23.2972C17.6194 23.8249 19.0908 23.848 20.4304 23.3619C21.7699 22.8758 22.8842 21.9145 23.5614 20.6607C23.9685 19.8862 24.1906 19.0279 24.2102 18.1531C24.2299 17.2784 24.0466 16.4109 23.6748 15.6189C24.1893 15.1689 24.6539 14.6649 25.0605 14.1154C25.3789 13.6935 25.676 13.2476 25.9496 12.8072C26.6664 13.883 27.1404 15.1018 27.339 16.3792C27.5375 17.6566 27.4557 18.9619 27.0993 20.2045C26.4651 22.4851 24.9626 24.4264 22.9138 25.6121C21.8983 26.1982 20.7773 26.5786 19.6147 26.7315C18.4522 26.8844 17.2709 26.8069 16.1384 26.5033C13.8511 25.8901 11.901 24.3934 10.7172 22.3424C10.1311 21.3269 9.75069 20.2059 9.59778 19.0433C9.44487 17.8808 9.52244 16.6995 9.82606 15.567C10.4392 13.2797 11.9359 11.3296 13.9869 10.1459C15.4517 9.2918 17.1277 8.86808 18.8224 8.92333C20.5171 8.97858 22.1619 9.51056 23.568 10.4582C22.6643 11.1545 21.8302 11.9366 21.0773 12.7935ZM23.9981 10.1224C22.022 8.65021 19.5702 7.96327 17.1169 8.19454C14.6636 8.4258 12.3833 9.55882 10.7172 11.3744C9.05109 13.1899 8.11764 15.5589 8.09746 18.023C8.07727 20.4871 8.97179 22.8711 10.6079 24.7137C12.244 26.5563 14.5055 27.7265 16.9547 27.9979C19.4038 28.2694 21.8666 27.6227 23.8665 26.183C25.8664 24.7434 27.2612 22.6131 27.781 20.2044C28.3009 17.7957 27.9088 15.2798 26.6806 13.1435V13.1386C26.5334 12.8775 26.3748 12.6256 26.2069 12.383C26.8681 11.2688 27.3751 10.2396 27.6929 9.76155C27.8085 9.71903 28.0129 9.64871 28.2811 9.55713C29.6017 11.1372 30.5163 13.016 30.9453 15.0301C31.3744 17.0442 31.3049 19.1326 30.7429 21.1137C30.0076 23.7523 28.4395 26.0827 26.2722 27.7576C24.1048 29.4325 21.4543 30.3622 18.7156 30.4083C15.9769 30.4544 13.2966 29.6143 11.0742 28.0133C8.85174 26.4122 7.2061 24.1359 6.38252 21.5236C5.55893 18.9112 5.60149 16.1027 6.50384 13.5165C7.40619 10.9303 9.12003 8.70492 11.39 7.17194C13.6599 5.63896 16.3644 4.88047 19.1005 5.0095C21.8365 5.13853 24.4576 6.14817 26.5732 7.88796C26.4986 8.01334 26.431 8.12455 26.3732 8.21831C26.3018 8.34696 26.2402 8.44235 26.2096 8.49904C25.689 8.87409 24.8703 9.44701 23.9981 10.1208V10.1224ZM27.905 8.97766C27.6624 9.05343 27.4956 9.10577 27.4144 9.13466C27.3272 9.15505 27.2501 9.20541 27.1963 9.27693C26.7302 9.91418 25.779 11.9878 24.4756 13.681C23.869 14.5859 23.0294 15.3104 22.0454 15.7781C21.8895 15.8498 21.7183 15.8817 21.547 15.8708C21.3757 15.86 21.2098 15.8068 21.0642 15.7159C20.4439 15.1163 20.9176 14.1983 21.4458 13.5093C22.7966 11.7447 25.574 9.86131 26.6964 9.03926C26.7368 8.99992 26.7733 8.95685 26.8055 8.91061C26.8245 8.873 26.8769 8.79668 26.9341 8.68275C27.186 8.26846 27.6973 7.39354 28.2228 6.42812C28.437 6.04272 28.6414 5.64315 28.8317 5.25338C28.841 5.85302 28.8791 6.45265 28.9407 7.03212C28.9407 7.0512 28.926 7.06537 28.926 7.07954C28.9232 7.10876 28.9264 7.13823 28.9353 7.16619C28.9442 7.19415 28.9586 7.22002 28.9778 7.24227C28.9969 7.26451 29.0204 7.28266 29.0467 7.29563C29.073 7.30861 29.1017 7.31613 29.131 7.31776C29.6063 7.36955 30.0866 7.4366 30.5717 7.51237C30.9571 7.57452 31.3469 7.64593 31.7323 7.71679C30.4196 8.17524 28.7374 8.70292 27.905 8.97439V8.97766ZM34.8111 22.18C33.8469 25.6682 31.7901 28.7556 28.9425 30.9891C26.0948 33.2226 22.6063 34.4846 18.9888 34.59C15.3713 34.6954 11.8153 33.6387 8.84243 31.5748C5.86959 29.5109 3.63649 26.5485 2.47078 23.1223C1.30508 19.6962 1.26815 15.9866 2.36541 12.5379C3.46267 9.08921 5.63636 6.08298 8.56752 3.9603C11.4987 1.83762 15.033 0.710255 18.6519 0.743621C22.2708 0.776988 25.7837 1.96933 28.6752 4.14569C28.5237 4.44279 28.3525 4.76386 28.1683 5.09366C27.7218 5.91462 27.2252 6.78354 26.836 7.44641C24.1929 5.23435 20.8172 4.09241 17.374 4.24561C13.9308 4.3988 10.6698 5.83603 8.23364 8.27408C5.79746 10.7121 4.36274 13.9742 4.21219 17.4175C4.06164 20.8608 5.20617 24.2357 7.42027 26.877C9.63436 29.5184 12.7574 31.2348 16.1741 31.6879C19.5908 32.141 23.0533 31.2981 25.8794 29.3251C28.7054 27.3522 30.6901 24.3924 31.4423 21.0288C32.1945 17.6653 31.6596 14.142 29.9432 11.1533L29.9481 11.1483C29.5977 10.5325 29.199 9.94539 28.7559 9.3925L29.1789 9.24913C30.1983 8.89644 31.5066 8.43145 32.4715 8.05749C33.8713 10.0968 34.8063 12.4185 35.2106 14.8588C35.6148 17.299 35.4785 19.7982 34.8111 22.18Z" fill="#5A47FB"/>
<path d="M33.5988 9.01855V9.01364C33.3786 8.62697 33.146 8.25229 32.901 7.8896C32.9488 7.86283 32.9878 7.82291 33.0135 7.77459C33.0392 7.72627 33.0505 7.67158 33.046 7.61704C33.0393 7.55729 33.0134 7.50132 32.9722 7.4575C32.9311 7.41368 32.8768 7.38436 32.8176 7.37391L32.5009 7.3194C31.6284 6.12785 30.6081 5.0519 29.4646 4.11735C29.4809 3.99415 29.5 3.87168 29.5218 3.74993C29.5342 3.67754 29.5196 3.60312 29.4807 3.54082C29.4417 3.47853 29.3813 3.43272 29.3108 3.41212C29.2403 3.39151 29.1647 3.39755 29.0984 3.42909C29.032 3.46062 28.9796 3.51544 28.9511 3.58313C28.9365 3.61474 28.9213 3.64691 28.9053 3.67961C25.3533 0.974671 20.9227 -0.313655 16.4741 0.0648275C12.0254 0.44331 7.87623 2.46159 4.83222 5.72771C1.7882 8.99383 0.0666541 13.2747 0.00189543 17.7389C-0.0628633 22.2031 1.53379 26.5321 4.48179 29.8852C7.42978 33.2382 11.5187 35.376 15.9545 35.8834C20.3903 36.3907 24.8563 35.2314 28.4853 32.6307C32.1143 30.0299 34.6472 26.1733 35.5922 21.8097C36.5371 17.4461 35.8267 12.8877 33.5988 9.01855ZM31.8369 7.20819C31.4396 7.14496 31.0394 7.08609 30.6333 7.03375C30.2152 6.97924 29.7873 6.934 29.3686 6.89584C29.3446 6.3916 29.3446 5.883 29.3545 5.37385C29.3659 5.1558 29.3795 4.93394 29.3981 4.71644C30.2943 5.46122 31.1116 6.2962 31.8369 7.20819ZM20.3741 16.0343C20.2792 16.0948 20.1626 16.1657 20.0835 16.2202C19.8128 15.9289 19.4703 15.7139 19.0903 15.5965C18.7965 15.509 18.4882 15.4811 18.1834 15.5147C17.8787 15.5482 17.5838 15.6424 17.316 15.7918C17.0483 15.9412 16.8132 16.1427 16.6247 16.3844C16.4361 16.6261 16.2978 16.9032 16.2181 17.1992C16.1371 17.4985 16.1161 17.8109 16.1563 18.1183C16.1965 18.4258 16.297 18.7223 16.4521 18.9907C16.6072 19.2592 16.8138 19.4944 17.0601 19.6828C17.3064 19.8711 17.5875 20.009 17.8872 20.0884C18.3225 20.2172 18.7866 20.2116 19.2186 20.0723C19.6506 19.933 20.0306 19.6664 20.3086 19.3076C20.5867 18.9488 20.7499 18.5144 20.777 18.0613C20.804 17.6081 20.6936 17.1574 20.4602 16.768C20.5414 16.6715 20.6685 16.4873 20.7361 16.3832C20.9752 16.5135 21.2405 16.5883 21.5125 16.6021C21.7845 16.6159 22.056 16.5682 22.3071 16.4627C22.6581 16.3247 22.9896 16.1414 23.2932 15.9176C23.5562 16.6342 23.6611 17.3992 23.6007 18.1601C23.5403 18.9211 23.316 19.6599 22.9433 20.326C22.3442 21.4203 21.3652 22.2573 20.1912 22.679C19.0171 23.1007 17.7293 23.0779 16.5709 22.615C15.4125 22.1521 14.4637 21.281 13.9036 20.1663C13.3436 19.0516 13.2111 17.7704 13.5312 16.5647C13.8835 15.2539 14.7376 14.1345 15.9088 13.4485C17.08 12.7625 18.4741 12.565 19.7897 12.8987C20.1151 12.9802 20.432 13.0924 20.7361 13.234C20.004 14.2659 19.7723 15.2618 20.3741 16.0343ZM18.4765 18.0981C18.6531 18.2747 19.0298 18.0147 19.2424 17.8839C19.4397 17.7291 19.9385 17.2842 20.1228 17.118C20.1983 17.3632 20.2216 17.6215 20.1913 17.8763C20.161 18.1311 20.0777 18.3768 19.9467 18.5974C19.7663 18.9172 19.485 19.1682 19.1468 19.311C18.8085 19.4538 18.4325 19.4805 18.0775 19.3868C17.6586 19.2743 17.3014 19.0005 17.0839 18.6252C16.8664 18.25 16.8064 17.8039 16.9169 17.3846C17.0306 16.9581 17.3054 16.5924 17.6833 16.3644C18.0612 16.1365 18.5129 16.064 18.9431 16.1624C19.2173 16.2246 19.4734 16.3492 19.6916 16.5265C19.5858 16.6137 18.8412 17.2581 18.7142 17.4134C18.5659 17.6059 18.3206 17.9335 18.4765 18.0981ZM21.0773 12.7935C20.7165 12.6011 20.336 12.4483 19.9424 12.3378C19.2101 12.1309 18.4439 12.0718 17.6886 12.1638C16.9332 12.2558 16.2037 12.4971 15.5425 12.8737C14.8813 13.2504 14.3016 13.7547 13.8372 14.3575C13.3727 14.9603 13.0328 15.6494 12.8372 16.3848C12.466 17.7606 12.6131 19.2249 13.2507 20.4993C13.8884 21.7737 14.972 22.7694 16.2957 23.2972C17.6194 23.8249 19.0908 23.848 20.4304 23.3619C21.7699 22.8758 22.8842 21.9145 23.5614 20.6607C23.9685 19.8862 24.1906 19.0279 24.2102 18.1531C24.2299 17.2784 24.0466 16.4109 23.6748 15.6189C24.1893 15.1689 24.6539 14.6649 25.0605 14.1154C25.3789 13.6935 25.676 13.2476 25.9496 12.8072C26.6664 13.883 27.1404 15.1018 27.339 16.3792C27.5375 17.6566 27.4557 18.9619 27.0993 20.2045C26.4651 22.4851 24.9626 24.4264 22.9138 25.6121C21.8983 26.1982 20.7773 26.5786 19.6147 26.7315C18.4522 26.8844 17.2709 26.8069 16.1384 26.5033C13.8511 25.8901 11.901 24.3934 10.7172 22.3424C10.1311 21.3269 9.75069 20.2059 9.59778 19.0433C9.44487 17.8808 9.52244 16.6995 9.82606 15.567C10.4392 13.2797 11.9359 11.3296 13.9869 10.1459C15.4517 9.2918 17.1277 8.86808 18.8224 8.92333C20.5171 8.97858 22.1619 9.51056 23.568 10.4582C22.6643 11.1545 21.8302 11.9366 21.0773 12.7935ZM23.9981 10.1224C22.022 8.65021 19.5702 7.96327 17.1169 8.19454C14.6636 8.4258 12.3833 9.55882 10.7172 11.3744C9.05109 13.1899 8.11764 15.5589 8.09746 18.023C8.07727 20.4871 8.97179 22.8711 10.6079 24.7137C12.244 26.5563 14.5055 27.7265 16.9547 27.9979C19.4038 28.2694 21.8666 27.6227 23.8665 26.183C25.8664 24.7434 27.2612 22.6131 27.781 20.2044C28.3009 17.7957 27.9088 15.2798 26.6806 13.1435V13.1386C26.5334 12.8775 26.3748 12.6256 26.2069 12.383C26.8681 11.2688 27.3751 10.2396 27.6929 9.76155C27.8085 9.71903 28.0129 9.64871 28.2811 9.55713C29.6017 11.1372 30.5163 13.016 30.9453 15.0301C31.3744 17.0442 31.3049 19.1326 30.7429 21.1137C30.0076 23.7523 28.4395 26.0827 26.2722 27.7576C24.1048 29.4325 21.4543 30.3622 18.7156 30.4083C15.9769 30.4544 13.2966 29.6143 11.0742 28.0133C8.85174 26.4122 7.2061 24.1359 6.38252 21.5236C5.55893 18.9112 5.60149 16.1027 6.50384 13.5165C7.40619 10.9303 9.12003 8.70492 11.39 7.17194C13.6599 5.63896 16.3644 4.88047 19.1005 5.0095C21.8365 5.13853 24.4576 6.14817 26.5732 7.88796C26.4986 8.01334 26.431 8.12455 26.3732 8.21831C26.3018 8.34696 26.2402 8.44235 26.2096 8.49904C25.689 8.87409 24.8703 9.44701 23.9981 10.1208V10.1224ZM27.905 8.97766C27.6624 9.05343 27.4956 9.10577 27.4144 9.13466C27.3272 9.15505 27.2501 9.20541 27.1963 9.27693C26.7302 9.91418 25.779 11.9878 24.4756 13.681C23.869 14.5859 23.0294 15.3104 22.0454 15.7781C21.8895 15.8498 21.7183 15.8817 21.547 15.8708C21.3757 15.86 21.2098 15.8068 21.0642 15.7159C20.4439 15.1163 20.9176 14.1983 21.4458 13.5093C22.7966 11.7447 25.574 9.86131 26.6964 9.03926C26.7368 8.99992 26.7733 8.95685 26.8055 8.91061C26.8245 8.873 26.8769 8.79668 26.9341 8.68275C27.186 8.26846 27.6973 7.39354 28.2228 6.42812C28.437 6.04272 28.6414 5.64315 28.8317 5.25338C28.841 5.85302 28.8791 6.45265 28.9407 7.03212C28.9407 7.0512 28.926 7.06537 28.926 7.07954C28.9232 7.10876 28.9264 7.13823 28.9353 7.16619C28.9442 7.19415 28.9586 7.22002 28.9778 7.24227C28.9969 7.26451 29.0204 7.28266 29.0467 7.29563C29.073 7.30861 29.1017 7.31613 29.131 7.31776C29.6063 7.36955 30.0866 7.4366 30.5717 7.51237C30.9571 7.57452 31.3469 7.64593 31.7323 7.71679C30.4196 8.17524 28.7374 8.70292 27.905 8.97439V8.97766ZM34.8111 22.18C33.8469 25.6682 31.7901 28.7556 28.9425 30.9891C26.0948 33.2226 22.6063 34.4846 18.9888 34.59C15.3713 34.6954 11.8153 33.6387 8.84243 31.5748C5.86959 29.5109 3.63649 26.5485 2.47078 23.1223C1.30508 19.6962 1.26815 15.9866 2.36541 12.5379C3.46267 9.08921 5.63636 6.08298 8.56752 3.9603C11.4987 1.83762 15.033 0.710255 18.6519 0.743621C22.2708 0.776988 25.7837 1.96933 28.6752 4.14569C28.5237 4.44279 28.3525 4.76386 28.1683 5.09366C27.7218 5.91462 27.2252 6.78354 26.836 7.44641C24.1929 5.23435 20.8172 4.09241 17.374 4.24561C13.9308 4.3988 10.6698 5.83603 8.23364 8.27408C5.79746 10.7121 4.36274 13.9742 4.21219 17.4175C4.06164 20.8608 5.20617 24.2357 7.42027 26.877C9.63436 29.5184 12.7574 31.2348 16.1741 31.6879C19.5908 32.141 23.0533 31.2981 25.8794 29.3251C28.7054 27.3522 30.6901 24.3924 31.4423 21.0288C32.1945 17.6653 31.6596 14.142 29.9432 11.1533L29.9481 11.1483C29.5977 10.5325 29.199 9.94539 28.7559 9.3925L29.1789 9.24913C30.1983 8.89644 31.5066 8.43145 32.4715 8.05749C33.8713 10.0968 34.8063 12.4185 35.2106 14.8588C35.6148 17.299 35.4785 19.7982 34.8111 22.18Z" stroke="#212121" stroke-width="0.5" mask="url(#path-1-outside-1_119_3612)"/>
</svg>
