<svg width="250" height="250" viewBox="0 0 250 250" fill="none" xmlns="http://www.w3.org/2000/svg">
<path d="M142.881 50.5375C142.531 50.4875 142.125 50.4937 142.048 50.805C140.019 56.6425 109.728 153.271 109.728 153.485C109.728 153.626 109.84 153.824 109.996 153.837C110.729 153.946 184.323 174.07 187.121 174.989C187.303 175.042 187.498 175.025 187.668 174.942C187.838 174.858 187.97 174.714 188.039 174.537C188.943 171.84 218.65 77.0262 220.345 72.2112C220.374 72.1482 220.378 72.0761 220.354 72.0106C220.331 71.9452 220.283 71.8915 220.22 71.8612C217.484 70.7637 143.151 50.5825 142.881 50.5375ZM187.316 174.212C186.866 174.022 110.603 153.167 110.476 153.146C110.503 153.021 136.809 69.535 137.84 66.1825C147.795 68.865 209.201 85.4125 214.765 86.91C214.581 87.4875 188.205 171.545 187.316 174.212Z" fill="#5A47FB"/>
<path d="M165.769 77.6901C165.84 77.4926 165.519 77.3926 165.444 77.6051C163.826 82.5089 142.481 156.48 142.02 157.863C142.01 157.91 142.019 157.959 142.044 158.001C142.07 158.042 142.11 158.072 142.157 158.085C142.203 158.097 142.253 158.091 142.296 158.069C142.339 158.046 142.371 158.007 142.386 157.961C143.895 153.366 165.738 77.8151 165.769 77.6901Z" fill="#5A47FB"/>
<path d="M128.889 109.954C130.638 110.56 132.431 111.027 134.254 111.351C136.104 111.803 146.934 114.641 147.822 114.881C148.68 115.165 149.558 115.387 150.447 115.545C150.745 115.588 150.871 115.108 150.604 114.98C149.76 114.656 148.891 114.401 148.005 114.218C147.115 113.978 136.229 111.154 134.436 110.701C132.637 110.164 130.802 109.758 128.944 109.488C128.662 109.459 128.66 109.859 128.889 109.954Z" fill="#5A47FB"/>
<path d="M127.927 114.429C129.683 115.013 131.476 115.48 133.294 115.828C135.144 116.279 145.974 119.118 146.862 119.358C147.72 119.641 148.598 119.863 149.487 120.021C149.784 120.064 149.911 119.583 149.642 119.456C148.799 119.132 147.93 118.877 147.045 118.694C146.155 118.454 135.269 115.63 133.476 115.178C131.677 114.64 129.842 114.234 127.984 113.964C127.702 113.935 127.702 114.343 127.927 114.429Z" fill="#5A47FB"/>
<path d="M141.738 143.685C140.892 143.366 140.023 143.111 139.139 142.924C138.25 142.683 127.364 139.859 125.57 139.408C123.771 138.87 121.936 138.464 120.078 138.194C119.795 138.165 119.795 138.56 120.021 138.659C121.774 139.252 123.567 139.719 125.386 140.058C127.236 140.509 138.066 143.348 138.955 143.588C139.813 143.871 140.69 144.092 141.58 144.25C141.646 144.249 141.709 144.226 141.761 144.186C141.813 144.146 141.851 144.09 141.869 144.026C141.886 143.963 141.883 143.895 141.86 143.834C141.836 143.772 141.793 143.72 141.738 143.685Z" fill="#5A47FB"/>
<path d="M140.777 148.161C139.932 147.842 139.063 147.587 138.179 147.399C137.29 147.159 126.402 144.335 124.61 143.884C122.811 143.346 120.975 142.94 119.117 142.669C118.835 142.641 118.835 143.036 119.061 143.135C120.814 143.728 122.607 144.195 124.426 144.533C126.276 144.985 137.106 147.823 137.995 148.063C138.853 148.347 139.73 148.569 140.62 148.726C140.686 148.725 140.749 148.703 140.801 148.662C140.853 148.622 140.891 148.566 140.909 148.502C140.926 148.439 140.923 148.372 140.9 148.31C140.876 148.249 140.833 148.197 140.777 148.161Z" fill="#5A47FB"/>
<path d="M202.1 103.36C200.438 102.749 198.74 102.24 197.016 101.835C194.843 101.185 181.456 97.175 176.91 95.9037C174.976 95.2585 172.993 94.7723 170.98 94.4499C170.698 94.4212 170.683 94.8249 170.923 94.9162C172.575 95.5412 174.354 95.8762 176.048 96.37C181.813 98.0287 200.953 103.809 201.9 103.939C202.17 103.952 202.453 103.514 202.1 103.36Z" fill="#5A47FB"/>
<path d="M201.14 107.835C199.48 107.219 197.781 106.71 196.056 106.31C193.881 105.661 180.496 101.651 175.95 100.38C174.016 99.7349 172.032 99.2487 170.019 98.9263C169.737 98.8975 169.722 99.3013 169.962 99.3913C171.615 100.016 173.394 100.353 175.087 100.846C180.854 102.5 200 108.285 200.941 108.414C201.21 108.429 201.48 107.988 201.14 107.835Z" fill="#5A47FB"/>
<path d="M199.728 112.311C198.061 111.715 196.364 111.206 194.644 110.786C192.47 110.137 179.084 106.127 174.538 104.856C172.604 104.211 170.62 103.725 168.608 103.401C168.325 103.374 168.311 103.776 168.551 103.867C170.203 104.492 171.983 104.827 173.676 105.322C179.441 106.98 198.581 112.761 199.53 112.89C199.797 112.905 200.079 112.457 199.728 112.311Z" fill="#5A47FB"/>
<path d="M190.663 138.165C188.996 137.568 187.299 137.059 185.579 136.64C183.405 135.99 170.019 131.98 165.473 130.71C163.539 130.064 161.556 129.578 159.543 129.255C159.26 129.227 159.246 129.636 159.486 129.721C161.138 130.346 162.918 130.681 164.611 131.175C170.376 132.834 189.516 138.615 190.465 138.744C190.733 138.757 191.014 138.311 190.663 138.165Z" fill="#5A47FB"/>
<path d="M189.703 142.641C188.036 142.044 186.339 141.535 184.619 141.116C182.445 140.466 169.059 136.456 164.513 135.185C162.579 134.54 160.595 134.054 158.583 133.731C158.3 133.702 158.286 134.112 158.525 134.197C160.178 134.822 161.956 135.157 163.65 135.651C169.415 137.309 188.555 143.09 189.504 143.22C189.773 143.234 190.054 142.787 189.703 142.641Z" fill="#5A47FB"/>
<path d="M188.305 147.102C186.645 146.486 184.947 145.977 183.221 145.577C181.046 144.929 167.661 140.919 163.115 139.647C161.181 139.003 159.197 138.516 157.184 138.192C156.902 138.165 156.887 138.575 157.127 138.659C158.78 139.284 160.559 139.619 162.252 140.114C168.017 141.771 187.157 147.552 188.105 147.681C188.375 147.696 188.645 147.25 188.305 147.102Z" fill="#5A47FB"/>
<path d="M132.955 102.681C152.909 107.712 152.845 107.987 152.991 107.454C153.367 105.962 153.645 104.448 153.824 102.921C153.824 102.867 153.805 102.814 153.772 102.77C153.739 102.727 153.693 102.696 153.64 102.681C146.89 100.612 141.851 99.5662 134.48 97.655C134.403 97.6357 134.322 97.6469 134.254 97.6863C134.185 97.7257 134.134 97.7902 134.113 97.8662C133.529 99.3025 133.07 100.786 132.738 102.3C132.726 102.339 132.722 102.381 132.727 102.421C132.731 102.462 132.744 102.502 132.764 102.537C132.785 102.573 132.812 102.604 132.845 102.629C132.878 102.654 132.915 102.671 132.955 102.681Z" fill="#5A47FB"/>
<path d="M203.285 93.7013C197.469 92.0763 178.435 87.1213 174.764 86.1613C174.7 86.1444 174.632 86.1491 174.571 86.1747C174.509 86.2002 174.458 86.2451 174.425 86.3025C173.945 86.942 173.643 87.6972 173.55 88.4913C173.531 88.5681 173.543 88.6492 173.583 88.7176C173.622 88.786 173.687 88.8366 173.763 88.8588C183.519 91.4 193.263 93.9838 203.033 96.4413C203.1 96.4591 203.172 96.4498 203.232 96.4155C203.293 96.3812 203.338 96.3245 203.358 96.2575C203.536 95.4988 203.574 94.7138 203.47 93.9413C203.471 93.8862 203.453 93.8325 203.42 93.7888C203.386 93.7452 203.339 93.7143 203.285 93.7013Z" fill="#5A47FB"/>
<path d="M165.006 117.465C164.942 117.448 164.874 117.453 164.813 117.479C164.752 117.504 164.701 117.549 164.668 117.606C164.187 118.246 163.885 119.001 163.793 119.795C163.774 119.872 163.785 119.953 163.824 120.021C163.864 120.09 163.928 120.14 164.004 120.163C173.761 122.704 183.504 125.288 193.275 127.744C193.342 127.762 193.414 127.753 193.475 127.719C193.535 127.685 193.58 127.628 193.599 127.561C193.778 126.803 193.816 126.018 193.713 125.245C193.671 124.963 195.44 125.425 165.006 117.465Z" fill="#5A47FB"/>
<path d="M124.031 131.274C144.136 136.344 143.924 136.575 144.068 136.047C144.443 134.556 144.721 133.042 144.9 131.515C144.9 131.46 144.882 131.407 144.849 131.363C144.816 131.32 144.769 131.288 144.716 131.274C137.966 129.205 132.928 128.159 125.556 126.247C125.479 126.228 125.398 126.24 125.329 126.279C125.261 126.319 125.21 126.384 125.189 126.46C124.605 127.896 124.145 129.379 123.814 130.894C123.793 130.973 123.805 131.057 123.845 131.128C123.886 131.199 123.953 131.251 124.031 131.274Z" fill="#5A47FB"/>
<path d="M117.465 50.1701C120.326 50.7039 123.08 50.9201 131.769 51.6951C133.327 51.9509 134.909 52.0314 136.485 51.9351C136.696 51.9064 136.654 51.5964 136.485 51.5401C134.987 51.2074 133.458 51.0368 131.924 51.0314C121.674 50.1239 120.849 49.8776 117.536 49.7751C117.296 49.7601 117.239 50.1251 117.465 50.1701Z" fill="#5A47FB"/>
<path d="M144.59 44.9999C144.59 45.0543 144.612 45.1064 144.65 45.1449C144.689 45.1833 144.741 45.2049 144.795 45.2049C144.849 45.2049 144.902 45.1833 144.94 45.1449C144.978 45.1064 145 45.0543 145 44.9999C145.188 41.1249 144.875 38.2736 144.875 30.6111C144.987 29.0617 144.935 27.5047 144.72 25.9661C144.707 25.9237 144.681 25.8865 144.646 25.8601C144.61 25.8336 144.567 25.8193 144.523 25.8193C144.478 25.8193 144.435 25.8336 144.399 25.8601C144.364 25.8865 144.338 25.9237 144.325 25.9661C144.114 27.4567 144.072 28.9662 144.2 30.4661C144.194 33.4299 144.25 41.8361 144.59 44.9999Z" fill="#5A47FB"/>
<path d="M132.742 39.8625C133.772 41.1063 134.79 42.3338 135.835 43.5625C136.749 44.8484 137.811 46.0231 138.997 47.0625C139.181 47.1875 139.365 46.95 139.28 46.78C138.459 45.4832 137.498 44.2806 136.414 43.1938C130.06 35.6213 129.48 34.6175 127.137 32.1238C126.982 31.9538 126.685 32.18 126.812 32.3638C128.591 34.9913 130.721 37.4213 132.742 39.8625Z" fill="#5A47FB"/>
<path d="M243.611 79.44C240.509 78.3737 239.13 78.205 229.816 75.6563C228.332 75.1162 226.793 74.739 225.227 74.5312C225.184 74.5328 225.142 74.5483 225.108 74.5754C225.074 74.6026 225.05 74.64 225.039 74.6821C225.028 74.7241 225.03 74.7687 225.047 74.809C225.063 74.8494 225.092 74.8835 225.129 74.9062C226.53 75.529 227.998 75.9903 229.504 76.2813C236.929 78.3063 240.54 79.32 243.51 79.84C243.563 79.8534 243.619 79.8452 243.666 79.8172C243.713 79.7892 243.747 79.7437 243.761 79.6906C243.774 79.6376 243.766 79.5814 243.738 79.5344C243.71 79.4874 243.664 79.4534 243.611 79.44Z" fill="#5A47FB"/>
<path d="M226.768 47.8126C226.796 47.5863 226.485 47.5626 226.393 47.7138C225.663 49.0641 225.08 50.489 224.655 51.9638C221.395 60.6013 220.633 61.9638 219.515 65.4638C219.445 65.6763 219.784 65.8313 219.883 65.6201C221.295 62.7813 222.368 59.7313 223.525 56.7801C224.105 55.2801 224.684 53.7876 225.248 52.2801C225.926 50.8552 226.437 49.3559 226.768 47.8126Z" fill="#5A47FB"/>
<path d="M232.682 64.9389C235.45 63.3301 238.316 61.7914 240.932 59.9389C240.977 59.9095 241.008 59.8644 241.02 59.8127C241.031 59.761 241.023 59.7068 240.995 59.6613C240.968 59.6158 240.925 59.5825 240.874 59.5683C240.823 59.5541 240.768 59.5601 240.721 59.5851C237.319 61.2788 235.244 62.7651 228.295 66.6739C226.864 67.3459 225.508 68.1676 224.25 69.1251C224.219 69.157 224.2 69.1982 224.194 69.2422C224.189 69.2863 224.198 69.3308 224.221 69.3692C224.243 69.4075 224.277 69.4375 224.318 69.4546C224.359 69.4717 224.405 69.4749 224.447 69.4639C225.88 68.9119 227.245 68.1963 228.514 67.3314C229.901 66.5489 231.299 65.7501 232.682 64.9389Z" fill="#5A47FB"/>
<path d="M148.614 75.1336C146.891 75.3311 144.674 75.9249 143.756 77.5487C143.732 77.5919 143.725 77.6424 143.736 77.6907C143.746 77.739 143.774 77.7818 143.814 77.8112C143.853 77.8405 143.902 77.8544 143.952 77.8503C144.001 77.8461 144.047 77.8242 144.081 77.7887C147.623 74.6286 154.48 74.7274 156.973 79.6237C157.649 81.1043 157.949 82.729 157.848 84.3537C157.866 85.7333 157.537 87.0953 156.89 88.3143C156.244 89.5332 155.301 90.5699 154.149 91.3287C152.644 92.1093 150.964 92.4896 149.27 92.4329C147.576 92.3762 145.925 91.8844 144.476 91.0049C143.601 90.4379 142.857 89.6893 142.297 88.8098C141.736 87.9303 141.371 86.9404 141.226 85.9074C140.959 83.4386 141.569 80.9544 142.949 78.8899C143.048 78.7349 142.808 78.6074 142.709 78.7487C140.139 82.1237 139.701 87.1237 142.738 90.3737C144.15 91.6802 145.9 92.5646 147.789 92.9266C149.678 93.2885 151.631 93.1134 153.426 92.4211C161.305 89.1849 160.416 73.7211 148.614 75.1336Z" fill="#1B1B1B"/>
<path d="M151.437 83.0549C151.708 82.879 151.939 82.6495 152.117 82.3807C152.296 82.1119 152.417 81.8094 152.474 81.4919C152.531 81.1744 152.522 80.8487 152.448 80.5347C152.375 80.2207 152.237 79.9251 152.045 79.6662C150.859 78.1662 147.239 79.5999 148.217 81.9674C148.348 82.2584 148.538 82.5192 148.774 82.7336C149.01 82.948 149.288 83.1113 149.59 83.2134C149.893 83.3154 150.213 83.3541 150.53 83.3268C150.848 83.2995 151.157 83.207 151.437 83.0549Z" fill="#1B1B1B"/>
<path d="M143.969 87.1774C143.873 87.3962 144.19 87.6487 144.321 87.6862C146.75 88.3362 149.196 88.9849 151.55 89.8749C151.641 89.8992 151.739 89.8865 151.821 89.8398C151.903 89.793 151.963 89.7158 151.989 89.6249C152.313 87.5349 151.55 85.2049 149.249 84.7674C148.227 84.5618 147.166 84.6841 146.218 85.1168C145.27 85.5496 144.483 86.2708 143.969 87.1774Z" fill="#1B1B1B"/>
<path d="M88.7875 144.434C88.4487 144.095 87.9687 144.039 87.6437 143.658C87.1637 143.093 87.8837 142.485 88.1525 141.935C88.6756 140.949 88.9425 139.847 88.9287 138.73C88.915 138.504 88.5762 138.434 88.52 138.673C88.3621 139.911 87.9483 141.103 87.305 142.173C87.1362 142.44 86.7975 142.751 86.74 143.076C86.5712 143.895 87.9412 145.039 88.6887 144.813C88.7253 144.8 88.7583 144.778 88.7846 144.75C88.8109 144.722 88.8298 144.687 88.8396 144.65C88.8494 144.612 88.8497 144.573 88.8406 144.535C88.8315 144.497 88.8133 144.463 88.7875 144.434Z" fill="#1B1B1B"/>
<path d="M96.9913 139.167C96.2887 139.695 95.4709 140.049 94.605 140.199C93.6409 140.226 92.6958 139.928 91.9225 139.351C91.725 139.226 91.5125 139.506 91.6825 139.676C92.1854 140.196 92.8279 140.558 93.5325 140.72C93.5325 140.891 94.0475 141.266 94.5775 141.045C94.6299 141.03 94.6761 140.999 94.709 140.956C94.742 140.912 94.7599 140.859 94.76 140.805C95.26 140.789 95.7507 140.667 96.1991 140.445C96.6475 140.223 97.043 139.908 97.3588 139.52C97.485 139.309 97.2025 139.052 96.9913 139.167Z" fill="#1B1B1B"/>
<path d="M86.5988 139.464C85.6763 140.005 84.5875 140.769 83.4738 140.354C83.2389 140.221 82.9935 140.108 82.74 140.015C82.7029 140.005 82.664 140.005 82.627 140.015C82.59 140.025 82.5563 140.045 82.5292 140.072C82.502 140.099 82.4824 140.133 82.4722 140.17C82.4621 140.206 82.4617 140.245 82.4712 140.282C82.6412 140.907 83.4313 141.101 84.0663 141.101C84.0717 141.144 84.0914 141.185 84.1222 141.215C84.1529 141.246 84.1931 141.266 84.2363 141.271C84.6113 141.331 85.2363 141.271 85.14 140.919C85.775 140.655 86.3618 140.287 86.8763 139.831C86.9106 139.79 86.9301 139.739 86.9315 139.685C86.9328 139.632 86.916 139.58 86.8838 139.537C86.8516 139.494 86.8059 139.464 86.7541 139.451C86.7023 139.437 86.6475 139.442 86.5988 139.464Z" fill="#1B1B1B"/>
<path d="M83.1962 136.569C83.4467 136.103 83.8366 135.728 84.3112 135.496C84.7758 135.366 85.2474 135.262 85.7237 135.185C85.7555 135.176 85.784 135.157 85.8056 135.132C85.8273 135.107 85.8412 135.077 85.8457 135.044C85.8502 135.011 85.8451 134.978 85.831 134.948C85.8169 134.918 85.7944 134.892 85.7662 134.875C85.4878 134.77 85.1879 134.734 84.8926 134.771C84.5972 134.807 84.3153 134.916 84.0712 135.086C83.5236 135.378 83.1019 135.861 82.8862 136.442C82.8012 136.611 83.11 136.737 83.1962 136.569Z" fill="#1B1B1B"/>
<path d="M92.205 134.96C92.7831 134.869 93.3752 134.942 93.9138 135.171C94.3938 135.369 94.69 135.806 95.1413 136.005C95.1779 136.025 95.2194 136.034 95.2609 136.03C95.3024 136.027 95.342 136.012 95.3749 135.986C95.4079 135.961 95.4327 135.926 95.4465 135.887C95.4603 135.848 95.4624 135.805 95.4525 135.765C95.3275 135.2 94.5913 134.819 94.0963 134.64C93.4619 134.402 92.7612 134.412 92.1338 134.667C92.1004 134.682 92.0732 134.707 92.0569 134.739C92.0406 134.772 92.0364 134.809 92.045 134.844C92.0535 134.879 92.0744 134.91 92.1037 134.931C92.133 134.953 92.1689 134.963 92.205 134.96Z" fill="#1B1B1B"/>
<path d="M91.3013 147.273C91.1888 147.23 91.0188 147.244 90.99 147.398C90.9338 147.695 91.1038 147.92 91.1038 148.218C91.1007 148.485 91.0188 148.745 90.8686 148.965C90.7184 149.186 90.5064 149.358 90.2592 149.458C90.012 149.559 89.7405 149.585 89.4787 149.532C89.217 149.48 88.9765 149.351 88.7875 149.163C88.6188 149.038 88.4625 149.288 88.5763 149.431C88.8729 149.786 89.2976 150.008 89.7578 150.051C90.2179 150.093 90.6762 149.952 91.0325 149.658C91.8813 148.946 91.8488 147.518 91.3013 147.273Z" fill="#1B1B1B"/>
<path d="M90.7362 117.014C95.1112 117.153 98.4387 118.764 102.089 121.108C102.897 121.647 103.782 122.062 104.714 122.336C104.852 122.062 104.928 121.76 104.938 121.453C104.948 121.146 104.89 120.84 104.77 120.558C105.178 120.35 105.525 120.041 105.778 119.66C106.031 119.279 106.181 118.839 106.214 118.383C106.247 117.927 106.161 117.47 105.965 117.057C105.769 116.644 105.469 116.288 105.095 116.025C107.537 112.466 103.845 108.386 100.647 106.848C96.9337 105.054 91.7237 105.04 88.7012 108.189C87.9685 108.936 87.4328 109.853 87.1422 110.859C86.8516 111.864 86.8152 112.926 87.0362 113.949C86.5419 114.373 86.195 114.944 86.0452 115.578C85.8954 116.212 85.9505 116.878 86.2025 117.479C87.6821 117.099 89.2102 116.942 90.7362 117.014Z" fill="#1B1B1B"/>
<path d="M67.735 123.269C68.363 123.628 69.0962 123.758 69.8094 123.637C70.5227 123.516 71.1719 123.151 71.6462 122.605C72.1011 122.012 72.3247 121.274 72.2753 120.528C72.2258 119.782 71.9067 119.08 71.3775 118.553C70.1275 117.45 67.9187 117.95 67.7075 118.905C67.6787 119.046 67.8062 119.216 67.9575 119.155C68.3864 118.92 68.8411 118.735 69.3125 118.604C69.6293 118.554 69.9533 118.578 70.2594 118.673C70.5654 118.769 70.8454 118.934 71.0775 119.155C71.4351 119.552 71.6464 120.06 71.6765 120.594C71.7066 121.128 71.5537 121.656 71.243 122.091C70.9323 122.526 70.4825 122.842 69.9678 122.987C69.4532 123.132 68.9045 123.097 68.4125 122.888C66.775 122.336 67.0287 120.558 67.5512 119.315C67.6075 119.19 67.41 119.089 67.3262 119.174C67.0461 119.451 66.8314 119.788 66.6979 120.159C66.5644 120.53 66.5154 120.926 66.5546 121.319C66.5938 121.711 66.7201 122.09 66.9243 122.427C67.1285 122.765 67.4055 123.052 67.735 123.269Z" fill="#1B1B1B"/>
<path d="M73.0725 127.081C72.8723 127.273 72.7182 127.508 72.622 127.768C72.5258 128.028 72.4899 128.307 72.5171 128.583C72.5443 128.859 72.6339 129.125 72.779 129.362C72.9242 129.598 73.1211 129.798 73.355 129.947C73.8133 130.215 74.3538 130.305 74.8742 130.201C75.3946 130.097 75.8588 129.806 76.1788 129.382C76.4869 128.94 76.6173 128.399 76.5441 127.865C76.4709 127.331 76.1995 126.844 75.7838 126.501C75.1588 126.05 73.425 125.909 73.3125 126.954C73.2988 127.095 73.4538 127.165 73.5625 127.151C73.8313 127.095 74.0288 126.911 74.3125 126.855C74.5832 126.791 74.867 126.813 75.1249 126.917C75.3829 127.021 75.6022 127.202 75.753 127.436C75.9037 127.669 75.9783 127.944 75.9666 128.222C75.9548 128.5 75.8574 128.767 75.6875 128.987C75.4928 129.246 75.2217 129.437 74.9127 129.533C74.6036 129.629 74.2721 129.626 73.965 129.524C72.8488 129.212 73.075 128.041 73.3288 127.207C73.355 127.081 73.17 127 73.0725 127.081Z" fill="#1B1B1B"/>
<path d="M60.04 110.066C59.4769 110.687 59.141 111.48 59.0872 112.316C59.0334 113.153 59.2649 113.982 59.7437 114.67C60.2712 115.274 60.9653 115.709 61.739 115.92C62.5128 116.131 63.3315 116.108 64.0925 115.855C66.9587 114.938 67.6788 110.605 65.0525 108.965C63.4425 107.944 60.965 108.6 60.6325 109.699C60.6224 109.738 60.624 109.778 60.6371 109.816C60.6501 109.854 60.6741 109.887 60.7059 109.911C60.7377 109.935 60.7759 109.949 60.8158 109.952C60.8557 109.954 60.8954 109.945 60.93 109.925C61.5096 109.437 62.2342 109.154 62.9913 109.12C63.3976 109.092 63.8053 109.15 64.1874 109.291C64.5694 109.432 64.9172 109.653 65.2075 109.939C65.6985 110.528 65.9812 111.262 66.0115 112.028C66.0418 112.795 65.818 113.549 65.375 114.175C64.015 116.039 60.2825 115.894 59.6838 113.145C59.5482 112.138 59.7523 111.114 60.2637 110.236C60.3225 110.109 60.1388 109.939 60.04 110.066Z" fill="#1B1B1B"/>
<path d="M24.6138 94.0688C25.2795 95.0214 26.2844 95.6833 27.4225 95.9188C30.0813 96.5563 57.4688 95.2938 62.13 94.7751C62.7364 94.7646 63.3308 94.6044 63.8603 94.3087C64.3899 94.013 64.838 93.5909 65.165 93.0801C66.9763 89.9813 66.4875 82.6851 66.2525 78.7351C66.1388 76.8301 65.6938 70.7838 65.405 69.0201C64.8938 66.0563 63.28 65.0763 60.3225 64.7563C57.261 64.5302 54.1859 64.5633 51.13 64.8551C51.1534 63.8678 50.9763 62.886 50.6093 61.9692C50.2422 61.0524 49.693 60.2196 48.9947 59.5212C48.2965 58.8229 47.4638 58.2735 46.547 57.9063C45.6303 57.5391 44.6485 57.3618 43.6613 57.3851C39.5238 57.5401 36.7 61.3101 36.4313 65.2076C33.7888 65.1667 31.1493 65.4034 28.5563 65.9138C26.1413 66.4638 24.01 67.6363 23.3888 70.1926C22.7913 72.6538 22.2725 81.1563 23.5013 90.0588C23.5828 91.4594 23.962 92.8265 24.6138 94.0688ZM43.9338 61.1676C44.9723 61.141 45.979 61.5277 46.7327 62.2428C47.4865 62.9578 47.9256 63.9428 47.9538 64.9813C42.0713 65.2001 40.6812 65.1276 39.9188 65.1063C39.9932 64.0733 40.4422 63.1031 41.1815 62.3778C41.9208 61.6525 42.8995 61.2222 43.9338 61.1676ZM23.78 71.6601C24.1263 68.8301 25.1425 67.3488 28.8738 66.5063C33.6238 65.4338 39.0725 65.9963 47.3463 65.7163C57.425 65.3888 59.7088 65.0913 61.9325 65.7438C65.0575 66.6451 64.8775 69.8113 65.165 73.2276C65.4475 76.3626 65.6738 79.4976 65.7438 82.6313C65.815 85.7238 66.0837 89.2401 64.8825 92.1626C64.1625 93.8663 63.2763 94.0513 61.4513 94.2101C57.5075 94.5951 35.7288 95.6701 28.99 95.4388C25.82 95.3076 24.7763 93.9926 24.3025 91.0888C23.3088 84.6606 23.1332 78.1324 23.78 71.6601Z" fill="#1B1B1B"/>
<path d="M24.625 79.75C26.8275 79.7713 29.0438 79.625 31.25 79.51C31.2881 80.083 31.5066 80.6293 31.8742 81.0705C32.2418 81.5117 32.7396 81.8253 33.2963 81.9663C33.6224 81.9976 33.9511 81.9457 34.2517 81.8152C34.5522 81.6848 34.8148 81.4802 35.0146 81.2206C35.2145 80.961 35.3452 80.655 35.3945 80.331C35.4437 80.0071 35.4099 79.676 35.2963 79.3688C35.2963 79.2338 34.1513 79.4488 52.4213 78.6338C52.4573 79.2077 52.6752 79.7553 53.0433 80.1972C53.4114 80.639 53.9107 80.9522 54.4688 81.0913C54.7949 81.1226 55.1236 81.0707 55.4242 80.9402C55.7247 80.8098 55.9873 80.6052 56.1871 80.3456C56.387 80.0861 56.5177 79.78 56.567 79.4561C56.6162 79.1321 56.5824 78.801 56.4688 78.4938C56.4688 78.4788 56.455 78.465 56.455 78.4513C58.2763 78.3663 60.1125 78.2675 61.9188 78.055C62.2438 78.0125 62.2725 77.5188 61.9188 77.5325C57.0438 77.5613 52.1688 77.9425 47.305 78.14C41.2363 78.3825 27.47 78.89 24.555 79.2838C24.3025 79.3275 24.375 79.75 24.625 79.75Z" fill="#1B1B1B"/>
<path d="M34.8362 113.865C38.6534 114.416 42.5453 113.674 45.8922 111.758C49.2391 109.841 51.8485 106.86 53.305 103.289C56.4189 104.608 59.8093 105.142 63.1781 104.844C66.5469 104.547 69.791 103.425 72.625 101.58C77.6787 98.2336 81.4212 92.5724 81.35 86.3736C81.3776 84.8868 81.1113 83.4091 80.5662 82.0255C80.0211 80.6419 79.208 79.3796 78.1737 78.3111C80.1683 76.7898 81.7397 74.7826 82.7378 72.4811C83.7359 70.1796 84.1274 67.6607 83.875 65.1649C83 56.9236 74.6175 51.4874 66.8325 53.1486C66.7987 51.4992 66.2309 49.9052 65.2142 48.6059C64.1976 47.3066 62.787 46.3721 61.1941 45.9426C59.6012 45.5131 57.912 45.6119 56.38 46.224C54.848 46.8361 53.5558 47.9285 52.6975 49.3374C49.5625 46.0324 44.96 44.7899 40.5262 44.6486C35.8237 44.4936 30.3037 45.2736 27 48.9836C26.2012 49.8412 25.5832 50.8508 25.1829 51.9523C24.7826 53.0538 24.6082 54.2246 24.67 55.3949C19.5587 54.9561 14.7575 57.7524 11.4112 61.4511C7.89496 65.3199 5.09996 70.9124 6.72371 76.2074C7.06944 77.4259 7.66119 78.5607 8.46245 79.5417C9.26371 80.5227 10.2575 81.3291 11.3825 81.9111C9.28677 86.0398 8.5788 90.7343 9.36371 95.2974C11.0587 105.01 18.0262 108.165 22.8337 105.944C24.1643 108.034 25.9212 109.82 27.9895 111.185C30.0577 112.55 32.3908 113.463 34.8362 113.865ZM12.3287 101.25C9.21996 96.2499 8.7187 88.5361 12.2162 81.9249C12.2641 81.8387 12.2761 81.7371 12.2497 81.6422C12.2233 81.5472 12.1605 81.4664 12.075 81.4174C7.38746 79.4174 6.19996 73.7499 7.59871 69.2736C9.81246 62.1924 17.3487 55.2636 25.0787 56.1711C25.3475 56.1986 25.4537 55.9211 25.4325 55.7049C24.755 50.8299 29.1037 47.2611 33.3537 46.1036C39.4787 44.4324 47.7462 45.1511 52.4012 49.8449C52.2175 50.2686 52.8387 50.6211 53.065 50.1986C53.7791 48.8017 54.9496 47.6911 56.3821 47.0511C57.8145 46.4112 59.4227 46.2804 60.9398 46.6805C62.4568 47.0807 63.7913 47.9876 64.7218 49.2508C65.6522 50.514 66.1227 52.0574 66.055 53.6249C66.0559 53.6843 66.0706 53.7427 66.0977 53.7956C66.1249 53.8484 66.1638 53.8943 66.2116 53.9297C66.2593 53.9651 66.3145 53.9891 66.373 53.9997C66.4314 54.0104 66.4916 54.0074 66.5487 53.9911C68.9113 53.4425 71.3765 53.5232 73.6982 54.2251C76.0199 54.927 78.117 56.2255 79.78 57.9911C85.28 63.8099 83.7525 73.6049 77.365 77.9424C77.3145 77.9729 77.2717 78.0146 77.2398 78.0642C77.2078 78.1139 77.1877 78.1701 77.1808 78.2287C77.1739 78.2873 77.1805 78.3467 77.2001 78.4024C77.2197 78.458 77.2517 78.5085 77.2937 78.5499C81.5025 82.2999 81.2625 88.9249 78.8337 93.6149C76.4996 98.0652 72.5568 101.458 67.8084 103.103C63.06 104.748 57.8631 104.521 53.2762 102.469C53.2261 102.442 53.1706 102.427 53.1139 102.424C53.0572 102.421 53.0006 102.431 52.948 102.453C52.8955 102.474 52.8484 102.507 52.8101 102.549C52.7717 102.591 52.7431 102.641 52.7262 102.695C51.8551 104.928 50.516 106.95 48.7989 108.623C47.0818 110.296 45.0266 111.582 42.7712 112.395C39.1979 113.609 35.3163 113.563 31.7732 112.263C28.2301 110.962 25.2396 108.487 23.3 105.25C23.2481 105.163 23.1646 105.1 23.0672 105.074C22.9698 105.048 22.8659 105.06 22.7775 105.109C18.8525 107.186 14.4587 104.687 12.3287 101.25Z" fill="#1B1B1B"/>
<path d="M164.131 214.75C163.17 214.641 162.202 214.608 161.236 214.651C159.388 214.636 141.13 214.679 139.958 214.694C139.892 214.698 139.83 214.728 139.785 214.776C139.739 214.825 139.714 214.888 139.714 214.954C139.714 215.021 139.739 215.084 139.785 215.133C139.83 215.181 139.892 215.21 139.958 215.215C163.145 215.262 162.923 215.34 164.145 215.145C164.315 215.104 164.315 214.78 164.131 214.75Z" fill="#1B1B1B"/>
<path d="M45.3837 214.75C44.4228 214.641 43.4548 214.608 42.4887 214.651C40.6387 214.636 22.3825 214.679 21.21 214.694C21.144 214.698 21.0822 214.728 21.037 214.776C20.9919 214.825 20.9668 214.888 20.9668 214.954C20.9668 215.021 20.9919 215.084 21.037 215.133C21.0822 215.181 21.144 215.21 21.21 215.215C44.3975 215.262 44.1737 215.34 45.3975 215.145C45.5675 215.104 45.5662 214.78 45.3837 214.75Z" fill="#1B1B1B"/>
<path d="M138.051 178.125C136.635 172.7 134.726 167.416 132.348 162.339C132.263 162.156 131.938 162.283 132.009 162.48C135.344 171.393 138.183 178.421 139.746 189.266C140.816 196.245 140.787 203.349 139.661 210.319C139.395 212.448 138.5 214.45 137.091 216.069C134.705 218.498 131.19 218.625 128.168 217.524C130.978 209.179 132.644 200.453 131.668 191.628C131.356 188.761 130.495 185.003 127.149 184.455C126.133 184.285 125.088 184.186 124.043 184.116C123.85 182.457 123.481 180.823 122.941 179.241C122.921 179.186 122.88 179.141 122.828 179.114C122.776 179.087 122.715 179.081 122.658 179.097C122.602 179.113 122.553 179.149 122.522 179.199C122.491 179.249 122.479 179.308 122.49 179.366C122.876 180.911 123.14 182.483 123.28 184.069C118.13 183.783 80.6325 183.613 71.8975 184.294C71.0015 184.367 70.1107 184.495 69.23 184.675C69.1106 183.081 69.1244 181.48 69.2713 179.889C69.2675 179.845 69.2491 179.804 69.2191 179.772C69.1891 179.74 69.1492 179.719 69.1059 179.713C69.0626 179.706 69.0184 179.715 68.9804 179.736C68.9423 179.758 68.9127 179.792 68.8963 179.833C68.5884 181.475 68.4934 183.15 68.6138 184.816C60.08 186.985 59.4238 194.179 61.2575 202.816C62.035 206.501 63.0513 210.173 64.1525 213.801C61.0738 215.129 57.8838 216.639 54.4525 216.033C50.7025 215.354 48.3813 212.05 47.6038 208.506C46.0763 201.516 48.5038 192.095 50.555 185.256C52.0907 179.693 54.0253 174.247 56.3438 168.961C59.86 161.406 65.4513 153.03 73.7675 152.908C77.9338 152.851 81.5625 155.364 85.6713 155.619C86.5943 159.129 88.1442 162.444 90.2463 165.404C91.6256 167.721 93.2608 169.876 95.1213 171.828C95.4738 172.181 95.785 172.379 96.265 172.078C96.8847 171.61 97.4112 171.03 97.8175 170.369C100.44 166.585 102.628 162.517 104.341 158.244C104.889 157.189 105.197 156.027 105.245 154.84C105.692 154.595 106.154 154.378 106.629 154.191C107.076 154.062 107.508 153.882 107.914 153.654C107.934 153.639 107.949 153.619 107.958 153.595C107.966 153.572 107.968 153.546 107.962 153.522C107.956 153.498 107.942 153.476 107.924 153.46C107.905 153.443 107.882 153.432 107.858 153.429C106.819 153.486 105.827 153.881 105.034 154.554C104.84 154.554 104.8 154.706 104.511 155.698C103.086 152.443 102.457 148.895 102.675 145.349C105.968 144.871 106.839 141.134 104.595 139.599C109.868 134.391 109.108 125.824 104.92 122.895C102.071 122.183 100.5 120.211 96.7725 118.744C93.9165 117.563 90.7965 117.168 87.7363 117.6C85.8509 117.91 84.1046 118.786 82.7299 120.113C81.3552 121.44 80.4173 123.154 80.0413 125.028C79.4163 127.385 79.815 131.621 81.1988 133.216C81.2994 133.334 81.4223 133.431 81.5604 133.501C81.6986 133.572 81.8492 133.614 82.0038 133.626C81.5938 136.845 76.4263 138.823 78.3613 142.409C78.8941 143.108 79.3266 143.878 79.6463 144.696C79.8863 145.784 79.18 146.786 78.8413 147.774C78.4875 148.834 78.5025 150.471 79.8013 150.839C79.8472 150.848 79.8948 150.841 79.9361 150.819C79.9774 150.797 80.0098 150.761 80.028 150.718C80.0462 150.675 80.049 150.627 80.0359 150.582C80.0229 150.537 79.9947 150.498 79.9563 150.471C78.3313 149.314 79.9138 147.221 80.2063 145.854C80.56 144.201 79.4025 143.284 78.7388 141.943C77.4538 139.345 80.5875 137.636 81.9288 135.49C81.7676 137.264 81.6971 139.046 81.7175 140.828C81.6888 143.476 82.0847 146.112 82.89 148.635C83.79 151.281 85.2338 153.454 88.0013 153.93C88.0563 154.544 87.9717 155.163 87.754 155.74C87.5362 156.317 87.1909 156.838 86.7438 157.263C86.5038 156.614 86.2925 155.964 86.095 155.3C86.0881 155.272 86.0755 155.245 86.0581 155.222C86.0407 155.199 86.0188 155.18 85.9937 155.165C85.9686 155.151 85.9408 155.142 85.912 155.138C85.8833 155.135 85.8541 155.137 85.8263 155.145C81.8025 154.77 78.2725 152.349 74.2013 152.25C71.6025 152.219 69.0493 152.934 66.845 154.311C57.885 159.783 53.37 173.849 50.3238 183.811C47.98 191.409 45.6088 199.711 46.8238 207.731C47.4025 211.558 49.6763 215.356 53.6013 216.429C57.1313 217.389 61.1275 216.034 64.3325 214.339C64.8975 216.174 66.9725 222.571 67.4388 223.926C67.5113 224.216 67.7588 224.176 67.885 224.176C128.135 223.718 125.663 224.139 125.866 223.73C126.616 221.894 127.321 220.045 127.97 218.166C129.18 218.637 130.471 218.86 131.769 218.824C133.066 218.788 134.343 218.492 135.525 217.955C139.464 216.063 140.275 211.488 140.735 207.58C141.738 197.68 140.827 187.68 138.051 178.125ZM88.5338 154.021C91.54 154.306 94.2513 152.605 96.61 150.731C97.6611 150.048 98.4481 149.028 98.8413 147.838C98.8975 147.569 98.5163 147.371 98.375 147.639C97.2304 149.507 95.6004 151.03 93.6588 152.045C92.7283 152.687 91.6682 153.118 90.5533 153.305C89.4383 153.493 88.2957 153.434 87.2063 153.131C83.3313 151.73 82.3425 145.15 82.2925 140.989C82.265 138.518 82.575 136.089 82.7025 133.633C84.7593 132.504 86.6873 131.154 88.4525 129.609C85.8275 127.534 84.94 124.291 85.4875 122.576C85.4921 122.563 85.5005 122.552 85.5117 122.544C85.5229 122.536 85.5363 122.532 85.55 122.532C85.5637 122.532 85.5771 122.536 85.5883 122.544C85.5995 122.552 85.608 122.563 85.6125 122.576C85.767 123.888 86.0749 125.177 86.53 126.418C87.0701 127.579 87.8668 128.602 88.86 129.41C94.7788 133.08 94.2925 133.331 98.715 137.544C99.33 138.241 100.055 138.832 100.861 139.294C100.992 139.573 101.058 139.877 101.056 140.185C101.053 140.492 100.982 140.796 100.848 141.073C100.523 141.823 99.9575 142.456 99.675 143.246C98.9763 145.179 100.273 147.03 100.3 148.839C100.216 149.905 99.8668 150.934 99.2838 151.831C98.6338 153.103 97.9425 154.98 99.115 156.166C99.1539 156.202 99.2042 156.223 99.2571 156.226C99.31 156.228 99.3621 156.212 99.4042 156.18C99.4463 156.148 99.4757 156.102 99.4873 156.05C99.4989 155.999 99.4919 155.945 99.4675 155.898C98.2813 153.908 99.9675 152.156 100.583 150.306C101.246 148.358 100.159 146.681 100.018 144.771C99.8775 142.908 101.741 141.694 101.558 139.858C101.571 139.858 101.571 139.858 101.585 139.844C101.927 139.692 102.298 139.616 102.673 139.62C103.047 139.624 103.416 139.708 103.755 139.868C104.094 140.027 104.394 140.257 104.636 140.543C104.878 140.829 105.056 141.163 105.158 141.524C105.215 141.924 105.185 142.332 105.071 142.72C104.957 143.108 104.761 143.467 104.496 143.772C104.231 144.078 103.903 144.323 103.535 144.49C103.167 144.658 102.767 144.744 102.363 144.744C102.273 144.745 102.187 144.781 102.124 144.844C102.061 144.907 102.025 144.993 102.024 145.083C101.779 147.961 102.105 150.859 102.984 153.611C103.238 154.634 103.675 155.603 104.274 156.47C102.475 161.616 99.9121 166.462 96.6713 170.845C95.7813 171.896 95.8438 171.671 95.13 170.916C93.7136 169.328 92.4301 167.627 91.2925 165.829C89.5755 163.37 88.1363 160.729 87.0013 157.954C87.5548 157.47 87.9832 156.86 88.25 156.176C88.5169 155.491 88.6142 154.752 88.5338 154.021ZM99.7313 205.065C99.7256 205.591 99.5862 206.107 99.3261 206.564C99.0661 207.022 98.694 207.405 98.2448 207.679C97.7956 207.953 97.2842 208.108 96.7585 208.13C96.2329 208.152 95.7103 208.04 95.24 207.804C94.8671 207.606 94.5379 207.335 94.2722 207.006C94.0065 206.678 93.8097 206.3 93.6937 205.894C93.5777 205.488 93.5448 205.062 93.597 204.643C93.6492 204.224 93.7854 203.82 93.9975 203.455C95.805 200.875 99.925 202.2 99.7313 205.065Z" fill="#1B1B1B"/>
</svg>
